0
SECTION
2
HEADER
9
$INSUNITS
70
1
9
$ACADVER
1
AC1014
9
$HANDSEED
5
FFFF
0
ENDSEC
0
SECTION
2
TABLES
0
TABLE
2
VPORT
5
8
100
AcDbSymbolTable
0
ENDTAB
0
TABLE
2
LTYPE
5
5
100
AcDbSymbolTable
0
LTYPE
5
14
100
AcDbSymbolTableRecord
100
AcDbLinetypeTableRecord
2
BYBLOCK
70
0
0
LTYPE
5
15
100
AcDbSymbolTableRecord
100
AcDbLinetypeTableRecord
2
BYLAYER
70
0
0
ENDTAB
0
TABLE
2
LAYER
5
2
100
AcDbSymbolTable
70
2
0
LAYER
5
50
100
AcDbSymbolTableRecord
100
AcDbLayerTableRecord
2
0
70
0
6
CONTINUOUS
0
ENDTAB
0
TABLE
2
STYLE
5
3
100
AcDbSymbolTable
70
1
0
STYLE
5
11
100
AcDbSymbolTableRecord
100
AcDbTextStyleTableRecord
2
STANDARD
70
0
0
ENDTAB
0
TABLE
2
VIEW
5
6
100
AcDbSymbolTable
70
0
0
ENDTAB
0
TABLE
2
UCS
5
7
100
AcDbSymbolTable
70
0
0
ENDTAB
0
TABLE
2
APPID
5
9
100
AcDbSymbolTable
70
2
0
APPID
5
12
100
AcDbSymbolTableRecord
100
AcDbRegAppTableRecord
2
ACAD
70
0
0
ENDTAB
0
TABLE
2
DIMSTYLE
5
A
100
AcDbSymbolTable
70
1
0
ENDTAB
0
TABLE
2
BLOCK_RECORD
5
1
100
AcDbSymbolTable
70
1
0
BLOCK_RECORD
5
1F
100
AcDbSymbolTableRecord
100
AcDbBlockTableRecord
2
*MODEL_SPACE
0
BLOCK_RECORD
5
1B
100
AcDbSymbolTableRecord
100
AcDbBlockTableRecord
2
*PAPER_SPACE
0
ENDTAB
0
ENDSEC
0
SECTION
2
BLOCKS
0
BLOCK
5
20
100
AcDbEntity
100
AcDbBlockBegin
2
*MODEL_SPACE
0
ENDBLK
5
21
100
AcDbEntity
100
AcDbBlockEnd
0
BLOCK
5
1C
100
AcDbEntity
100
AcDbBlockBegin
2
*PAPER_SPACE
0
ENDBLK
5
1D
100
AcDbEntity
100
AcDbBlockEnd
0
ENDSEC
0
SECTION
2
ENTITIES
0
LWPOLYLINE
5
100
100
AcDbEntity
8
0
100
AcDbPolyline
90
18
70
1
43
0.0
10
0.099999999999999992
20
0.24999999999999997
10
0.15599999999999997
20
0.24999999999999997
10
0.15599999999999956
20
0
10
0.15599999999999964
20
-0.077999999999999972
10
-0.15599999999999997
20
-0.077999999999999972
10
-0.15599999999999997
20
0
10
-0.15599999999999997
20
0.24999999999999997
10
-0.09999999999999995
20
0.24999999999999994
42
-0.41421356237309503
10
-0.089999999999999997
20
0.23999999999999999
10
-0.089999999999999969
20
0.21399999999999997
42
0.41421356237309503
10
-0.079999999999999974
20
0.20399999999999996
10
-0.031000000000000003
20
0.20399999999999996
10
-0.03100000000000001
20
0.21399999999999997
10
0.030999999999999989
20
0.21399999999999997
10
0.030999999999999989
20
0.20399999999999996
10
0.07999999999999996
20
0.20399999999999996
42
0.4142135623730957
10
0.089999999999999983
20
0.21399999999999997
10
0.089999999999999997
20
0.23999999999999999
42
-0.41421356237309503
0
LINE
5
101
100
AcDbEntity
8
0
100
AcDbLine
10
0.079999999999999974
20
0.20399999999999996
30
1.2805537470301172e-19
11
0.030999999999999982
21
0.20399999999999996
31
1.2805537470301201e-19
0
LINE
5
102
100
AcDbEntity
8
0
100
AcDbLine
10
-0.09999999999999995
20
0.24999999999999997
30
4.6953637391104516e-19
11
-0.15599999999999997
21
0.24999999999999997
31
4.6953637391104516e-19
0
LINE
5
103
100
AcDbEntity
8
0
100
AcDbLine
10
0.15599999999999994
20
-0.078484934165193976
30
-1.3872665592826334e-17
11
0.15599999999999994
21
-0.071314543661238503
31
-1.3872665592826334e-17
0
LINE
5
104
100
AcDbEntity
8
0
100
AcDbLine
10
-0.156
20
-0.071314543661238489
30
3.2013843675753092e-18
11
-0.156
21
-0.07848493416519392
31
3.2013843675753092e-18
0
LINE
5
105
100
AcDbEntity
8
0
100
AcDbLine
10
0.156
20
-0.092973821559529962
30
-1.3872665592826334e-17
11
0.15599999999999994
21
-0.078484934165193976
31
-1.3872665592826334e-17
0
LINE
5
106
100
AcDbEntity
8
0
100
AcDbLine
10
-0.156
20
-0.07848493416519392
30
3.2013843675753092e-18
11
-0.15599999999999994
21
-0.092973821559529962
31
3.2013843675753069e-18
0
LINE
5
107
100
AcDbEntity
8
0
100
AcDbLine
10
-0.21407159782726254
20
0.24999999999999997
30
8.5617635625000785e-18
11
-0.21240505125744183
21
0.24999999999999997
31
8.5617635625000785e-18
0
LINE
5
108
100
AcDbEntity
8
0
100
AcDbLine
10
-0.18895205664123427
20
0.24999999999999997
30
8.561763562500077e-18
11
-0.19766040539524585
21
0.24999999999999997
31
8.561763562500077e-18
0
LINE
5
109
100
AcDbEntity
8
0
100
AcDbLine
10
-0.18895205664123427
20
0
30
8.561763562500077e-18
11
-0.19766040539524585
21
0
31
8.561763562500077e-18
0
LINE
5
110
100
AcDbEntity
8
0
100
AcDbLine
10
-0.21407159782726254
20
0
30
8.5617635625000785e-18
11
-0.21240505125744183
21
0
31
8.5617635625000785e-18
0
LINE
5
111
100
AcDbEntity
8
0
100
AcDbLine
10
-0.26770516611321199
20
0.24999999999999997
30
-5.1876016979839505e-18
11
-0.21407159782726254
21
0.24999999999999997
31
8.5617635625000785e-18
0
LINE
5
112
100
AcDbEntity
8
0
100
AcDbLine
10
-0.18519240002464973
20
0.24999999999999997
30
-5.1876016979839505e-18
11
-0.18895205664123427
21
0.24999999999999997
31
8.561763562500077e-18
0
LINE
5
113
100
AcDbEntity
8
0
100
AcDbLine
10
-0.18519240002464973
20
0
30
-5.1876016979839505e-18
11
-0.18895205664123427
21
0
31
8.561763562500077e-18
0
LINE
5
114
100
AcDbEntity
8
0
100
AcDbLine
10
-0.26770516611321199
20
0
30
-5.1876016979839505e-18
11
-0.21407159782726254
21
0
31
8.5617635625000785e-18
0
LINE
5
115
100
AcDbEntity
8
0
100
AcDbLine
10
-0.17249999999999996
20
0.24999999999999997
30
-1.5178392618644234e-17
11
-0.18519240002464973
21
0.24999999999999997
31
-5.1876016979839505e-18
0
LINE
5
116
100
AcDbEntity
8
0
100
AcDbLine
10
-0.19766040539524585
20
0.24999999999999997
30
8.561763562500077e-18
11
-0.19941467020067524
21
0.24999999999999997
31
5.5772313163595706e-18
0
LINE
5
117
100
AcDbEntity
8
0
100
AcDbLine
10
-0.19941467020067524
20
0.24999999999999997
30
5.5772313163595706e-18
11
-0.21240505125744183
21
0.24999999999999997
31
8.5617635625000785e-18
0
LINE
5
118
100
AcDbEntity
8
0
100
AcDbLine
10
-0.17249999999999996
20
0
30
-1.5178392618644234e-17
11
-0.18519240002464973
21
0
31
-5.1876016979839505e-18
0
LINE
5
119
100
AcDbEntity
8
0
100
AcDbLine
10
-0.15599999999999997
20
0.24999999999999997
30
4.6953637391104516e-19
11
-0.17249999999999996
21
0.24999999999999997
31
-1.5178392618644234e-17
0
LINE
5
120
100
AcDbEntity
8
0
100
AcDbLine
10
-0.15599999999999997
20
0
30
-2.2623116197532177e-18
11
-0.17249999999999996
21
0
31
-1.5178392618644234e-17
0
LINE
5
121
100
AcDbEntity
8
0
100
AcDbLine
10
0.17250000000000001
20
0.24999999999999997
30
2.5184223691592423e-18
11
0.15599999999999997
21
0.24999999999999997
31
2.5184223691592423e-18
0
LINE
5
122
100
AcDbEntity
8
0
100
AcDbLine
10
0.15599999999999997
20
0.24999999999999997
30
2.5184223691592423e-18
11
0.099999999999999978
21
0.24999999999999997
31
4.6953637391104459e-19
0
LINE
5
123
100
AcDbEntity
8
0
100
AcDbLine
10
0.17250000000000001
20
0
30
2.5184223691592423e-18
11
0.15599999999999997
21
0
31
2.5184223691592423e-18
0
LINE
5
124
100
AcDbEntity
8
0
100
AcDbLine
10
0.18519240002464976
20
0.24999999999999997
30
4.5071113933932058e-18
11
0.17250000000000001
21
0.24999999999999997
31
2.5184223691592423e-18
0
LINE
5
125
100
AcDbEntity
8
0
100
AcDbLine
10
0.18519240002464976
20
0
30
4.5071113933932058e-18
11
0.17250000000000001
21
0
31
2.5184223691592423e-18
0
LINE
5
126
100
AcDbEntity
8
0
100
AcDbLine
10
0.21407159782726237
20
0.24999999999999997
30
-5.4836795272670761e-18
11
0.26770516611321199
21
0.24999999999999997
31
-5.4836795272670754e-18
0
LINE
5
127
100
AcDbEntity
8
0
100
AcDbLine
10
0.18895205664123421
20
0.24999999999999997
30
-5.4836795272670754e-18
11
0.18519240002464976
21
0.24999999999999997
31
4.5071113933932058e-18
0
LINE
5
128
100
AcDbEntity
8
0
100
AcDbLine
10
0.18895205664123421
20
0
30
-5.4836795272670754e-18
11
0.18519240002464976
21
0
31
4.5071113933932058e-18
0
LINE
5
129
100
AcDbEntity
8
0
100
AcDbLine
10
0.21407159782726237
20
0
30
-5.4836795272670761e-18
11
0.26770516611321199
21
0
31
-5.4836795272670754e-18
0
LINE
5
130
100
AcDbEntity
8
0
100
AcDbLine
10
0.21240505125744175
20
0.24999999999999997
30
-1.9233044787751097e-17
11
0.21407159782726237
21
0.24999999999999997
31
-5.4836795272670761e-18
0
LINE
5
131
100
AcDbEntity
8
0
100
AcDbLine
10
0.19766040539524576
20
0.24999999999999997
30
-1.9233044787751097e-17
11
0.18895205664123421
21
0.24999999999999997
31
-5.4836795272670754e-18
0
LINE
5
132
100
AcDbEntity
8
0
100
AcDbLine
10
0.21240505125744175
20
0
30
-1.9233044787751097e-17
11
0.21407159782726237
21
0
31
-5.4836795272670761e-18
0
LINE
5
133
100
AcDbEntity
8
0
100
AcDbLine
10
0.19766040539524576
20
0
30
-1.9233044787751097e-17
11
0.18895205664123421
21
0
31
-5.4836795272670754e-18
0
LINE
5
134
100
AcDbEntity
8
0
100
AcDbLine
10
0.1994146702006751
20
0
30
-1.624851254161059e-17
11
0.19766040539524576
21
0
31
-1.9233044787751097e-17
0
LINE
5
135
100
AcDbEntity
8
0
100
AcDbLine
10
0.1994146702006751
20
0
30
-1.624851254161059e-17
11
0.21240505125744175
21
0
31
-1.9233044787751097e-17
0
LINE
5
136
100
AcDbEntity
8
0
100
AcDbLine
10
-0.19766040539524585
20
0
30
8.561763562500077e-18
11
-0.19941467020067524
21
0
31
5.5772313163595706e-18
0
LINE
5
137
100
AcDbEntity
8
0
100
AcDbLine
10
0.1994146702006751
20
0.24999999999999997
30
-1.624851254161059e-17
11
0.19766040539524576
21
0.24999999999999997
31
-1.9233044787751097e-17
0
LINE
5
138
100
AcDbEntity
8
0
100
AcDbLine
10
0.089999999999999997
20
0.23999999999999999
30
6.6654464268491022e-19
11
0.089999999999999983
21
0.21399999999999997
31
6.665446426849108e-19
0
ARC
5
139
100
AcDbEntity
8
0
100
AcDbCircle
10
0.099999999999999978
20
0.23999999999999999
30
1.1929945164639612e-19
40
0.0099999999999999898
210
-1.3499177257121577e-32
220
-3.5023692226464879e-17
230
1
100
AcDbArc
50
90
51
180
0
LINE
5
140
100
AcDbEntity
8
0
100
AcDbLine
10
0.15599999999999975
20
-0.070803431055574531
30
-2.1342562450500841e-19
11
0.15599999999999997
21
0
31
2.5184223691592423e-18
0
LINE
5
141
100
AcDbEntity
8
0
100
AcDbLine
10
-0.15599999999999997
20
-0.070803431055574531
30
4.6953637391104516e-19
11
-0.15599999999999997
21
0
31
-2.2623116197532177e-18
0
ARC
5
142
100
AcDbEntity
8
0
100
AcDbCircle
10
-0.099999999999999922
20
0.23999999999999999
30
1.3681129775962608e-19
40
0.009999999999999969
210
-1.5164802711710565e-32
220
-2.299748843748616e-34
230
1
100
AcDbArc
50
0
51
90.000000000000171
0
LINE
5
143
100
AcDbEntity
8
0
100
AcDbLine
10
-0.089999999999999983
20
0.21399999999999997
30
-4.1043389327888615e-19
11
-0.089999999999999955
21
0.23999999999999999
31
1.3681129775962622e-19
0
ARC
5
144
100
AcDbEntity
8
0
100
AcDbCircle
10
-0.079999999999999974
20
0.21399999999999997
30
-9.5767908431740032e-19
40
0.010000000000000002
210
5.4724519103851403e-17
220
0
230
1
100
AcDbArc
50
180
51
270
0
LINE
5
145
100
AcDbEntity
8
0
100
AcDbLine
10
-0.031000000000000003
20
0.20399999999999996
30
1.2805537470301232e-19
11
-0.079999999999999974
21
0.20399999999999996
31
-9.5767908431740032e-19
0
LINE
5
146
100
AcDbEntity
8
0
100
AcDbLine
10
-0.03100000000000001
20
0.21399999999999997
30
-9.0733252674185612e-19
11
-0.031000000000000003
21
0.20399999999999996
31
1.2805537470301232e-19
0
LINE
5
147
100
AcDbEntity
8
0
100
AcDbLine
10
0.030999999999999982
20
0.21399999999999997
30
1.1634432761478821e-18
11
0.030999999999999982
21
0.20399999999999996
31
1.2805537470301201e-19
0
ARC
5
148
100
AcDbEntity
8
0
100
AcDbCircle
10
0.079999999999999974
20
0.21399999999999997
30
1.2137898337234255e-18
40
0.0099999999999999898
210
-1.2325951644078309e-32
220
-1.0857344590204149e-16
230
1
100
AcDbArc
50
-90
51
0
0
LINE
5
149
100
AcDbEntity
8
0
100
AcDbLine
10
0.21240505125744175
20
0.24999999999999997
30
-1.9233044787751097e-17
11
0.1994146702006751
21
0.24999999999999997
31
-1.624851254161059e-17
0
LINE
5
150
100
AcDbEntity
8
0
100
AcDbLine
10
-0.21240505125744183
20
0
30
8.5617635625000785e-18
11
-0.19941467020067524
21
0
31
5.5772313163595706e-18
0
LINE
5
151
100
AcDbEntity
8
0
100
AcDbLine
10
0.15599999999999964
20
-0.12499999999999997
30
2.5184223691592616e-18
11
0.15599999999999964
21
-0.12482115081031202
31
2.5184223691592616e-18
0
LINE
5
152
100
AcDbEntity
8
0
100
AcDbLine
10
-0.15599999999999997
20
-0.12482115081031202
30
-2.2623116197532177e-18
11
-0.15599999999999997
21
-0.12499999999999997
31
-2.2623116197532177e-18
0
LINE
5
153
100
AcDbEntity
8
0
100
AcDbLine
10
-0.15599999999999994
20
-0.092973821559529962
30
3.2013843675753069e-18
11
-0.15599999999999997
21
-0.12482115081031202
31
-2.2623116197532177e-18
0
LINE
5
154
100
AcDbEntity
8
0
100
AcDbLine
10
0.15599999999999964
20
-0.12482115081031202
30
2.5184223691592616e-18
11
0.156
21
-0.092973821559529962
31
-1.3872665592826334e-17
0
LINE
5
155
100
AcDbEntity
8
0
100
AcDbLine
10
0.15599999999999975
20
-0.070803431055574531
30
-2.1342562450500841e-19
11
0.15599999999999994
21
-0.071314543661238503
31
-1.3872665592826334e-17
0
LINE
5
156
100
AcDbEntity
8
0
100
AcDbLine
10
-0.15599999999999997
20
-0.070803431055574531
30
4.6953637391104516e-19
11
-0.156
21
-0.071314543661238489
31
3.2013843675753092e-18
0
LINE
5
157
100
AcDbEntity
8
0
100
AcDbLine
10
0.030999999999999982
20
0.21399999999999997
30
1.1634432761478821e-18
11
0.030999999999999989
21
0.24399999999999994
31
1.1634432761478821e-18
0
LINE
5
158
100
AcDbEntity
8
0
100
AcDbLine
10
-0.031
20
0.24399999999999994
30
-9.0733252674185612e-19
11
-0.03100000000000001
21
0.21399999999999997
31
-9.0733252674185612e-19
0
ELLIPSE
5
159
100
AcDbEntity
8
0
100
AcDbEllipse
10
7.208514625650654e-17
20
0.23973718847315745
30
-5.335640612625518e-18
11
-0.030999999999999989
21
1.3704892056837214e-17
31
0.0
40
0.34202014332566621
41
3.5553500439872319
42
5.8694279167821479
0
LINE
5
160
100
AcDbEntity
8
0
100
AcDbLine
10
-0.26770516611321199
20
0.24999999999999997
30
-5.1876016979839505e-18
11
-0.26770516611321199
21
0
31
-5.1876016979839505e-18
0
LINE
5
161
100
AcDbEntity
8
0
100
AcDbLine
10
0.26770516611321199
20
0.24999999999999997
30
-5.4836795272670754e-18
11
0.26770516611321199
21
0
31
-5.4836795272670754e-18
0
LINE
5
162
100
AcDbEntity
8
0
100
AcDbLine
10
0.15599999999999964
20
-0.12499999999999997
30
2.5184223691592616e-18
11
-0.15599999999999997
21
-0.12499999999999997
31
-2.2623116197532177e-18
0
LINE
5
163
100
AcDbEntity
8
0
100
AcDbLine
10
0.030999999999999989
20
0.24399999999999994
30
1.1634432761478821e-18
11
0.028384115267714317
21
0.24399999999999994
31
-5.3356406126255187e-18
0
LINE
5
164
100
AcDbEntity
8
0
100
AcDbLine
10
-0.028384115267714206
20
0.24399999999999994
30
-5.3356406126255172e-18
11
-0.031
21
0.24399999999999994
31
-9.0733252674185612e-19
0
ENDSEC
0
SECTION
2
OBJECTS
0
DICTIONARY
5
C
100
AcDbDictionary
3
ACAD_GROUP
350
D
3
ACAD_MLINESTYLE
350
17
0
DICTIONARY
5
D
100
AcDbDictionary
0
DICTIONARY
5
1A
330
C
100
AcDbDictionary
0
DICTIONARY
5
17
100
AcDbDictionary
0
ENDSEC
0
EOF
