M48
; DRILL file {KiCad (5.1.4)-1} date 11/25/20 16:32:27
; FORMAT={2:4/ absolute / inch / suppress leading zeros}
; #@! TF.CreationDate,2020-11-25T16:32:27+01:00
; #@! TF.GenerationSoftware,Kicad,Pcbnew,(5.1.4)-1
FMAT,2
INCH,TZ
T1C0.0079
T2C0.0197
T3C0.0360
T4C0.0701
%
G90
G05
T1
X33425Y-42575
X34500Y-44025
X34900Y-39750
X35200Y-42125
X35725Y-44025
X35975Y-39000
X36750Y-44000
X37100Y-43450
X37500Y-43850
X38700Y-41450
X39575Y-41475
X39700Y-43411
X39800Y-42500
X39800Y-43025
X40050Y-40400
X40750Y-38000
X40850Y-44100
X41000Y-44650
X42250Y-42900
X42500Y-44000
X42650Y-39350
X42875Y-42950
X43700Y-42950
X44400Y-39100
X44525Y-43875
X46100Y-41750
X46200Y-42500
X46200Y-43050
X46425Y-43900
X46800Y-40200
X46800Y-41850
X47500Y-41875
X47850Y-38750
X48200Y-40200
X48938Y-43148
X48950Y-39400
X49000Y-43525
X49500Y-43325
X49650Y-43950
X51200Y-39400
X54150Y-38750
X54500Y-38750
X54850Y-38750
X54850Y-41250
X54850Y-42000
X54850Y-42350
X55525Y-42775
X55625Y-42100
X56300Y-42100
X56600Y-42850
T2
X43302Y-43900
X44050Y-43900
T3
X34050Y-38975
X34050Y-39975
X34050Y-40975
X34050Y-41975
X34050Y-42975
T4
X42186Y-41340
X45186Y-41340
X49134Y-41340
X52134Y-41340
T0
M30
