G04 #@! TF.GenerationSoftware,KiCad,Pcbnew,(5.1.4)-1*
G04 #@! TF.CreationDate,2020-11-25T16:32:24+01:00*
G04 #@! TF.ProjectId,iot_plant_watering_sensor_esp32,696f745f-706c-4616-9e74-5f7761746572,rev?*
G04 #@! TF.SameCoordinates,Original*
G04 #@! TF.FileFunction,Legend,Top*
G04 #@! TF.FilePolarity,Positive*
%FSLAX46Y46*%
G04 Gerber Fmt 4.6, Leading zero omitted, Abs format (unit mm)*
G04 Created by KiCad (PCBNEW (5.1.4)-1) date 2020-11-25 16:32:24*
%MOMM*%
%LPD*%
G04 APERTURE LIST*
%ADD10C,0.120000*%
%ADD11C,0.150000*%
G04 APERTURE END LIST*
D10*
X145923000Y-96901000D02*
X145923000Y-113030000D01*
X125190000Y-100449000D02*
X125190000Y-101109000D01*
X125190000Y-98789000D02*
X125190000Y-99449000D01*
X125190000Y-98789000D02*
X123160000Y-98789000D01*
X123780000Y-101109000D02*
X125190000Y-101109000D01*
X128107221Y-105666000D02*
X128432779Y-105666000D01*
X128107221Y-104646000D02*
X128432779Y-104646000D01*
X128432779Y-103122000D02*
X128107221Y-103122000D01*
X128432779Y-104142000D02*
X128107221Y-104142000D01*
X128107221Y-102618000D02*
X128432779Y-102618000D01*
X128107221Y-101598000D02*
X128432779Y-101598000D01*
X128432779Y-100074000D02*
X128107221Y-100074000D01*
X128432779Y-101094000D02*
X128107221Y-101094000D01*
X136941779Y-106932000D02*
X136616221Y-106932000D01*
X136941779Y-107952000D02*
X136616221Y-107952000D01*
X136941779Y-105154000D02*
X136616221Y-105154000D01*
X136941779Y-106174000D02*
X136616221Y-106174000D01*
X136941779Y-99693000D02*
X136616221Y-99693000D01*
X136941779Y-100713000D02*
X136616221Y-100713000D01*
X140240936Y-110580000D02*
X141445064Y-110580000D01*
X140240936Y-107860000D02*
X141445064Y-107860000D01*
X139614200Y-104618800D02*
X142064200Y-104618800D01*
X141414200Y-101398800D02*
X139614200Y-101398800D01*
X136941779Y-103376000D02*
X136616221Y-103376000D01*
X136941779Y-104396000D02*
X136616221Y-104396000D01*
X136616221Y-102491000D02*
X136941779Y-102491000D01*
X136616221Y-101471000D02*
X136941779Y-101471000D01*
X139918221Y-100713000D02*
X140243779Y-100713000D01*
X139918221Y-99693000D02*
X140243779Y-99693000D01*
X139918221Y-106301000D02*
X140243779Y-106301000D01*
X139918221Y-105281000D02*
X140243779Y-105281000D01*
X136746064Y-108691000D02*
X135541936Y-108691000D01*
X136746064Y-110511000D02*
X135541936Y-110511000D01*
X128107221Y-99570000D02*
X128432779Y-99570000D01*
X128107221Y-98550000D02*
X128432779Y-98550000D01*
X122392221Y-110365000D02*
X122717779Y-110365000D01*
X122392221Y-109345000D02*
X122717779Y-109345000D01*
X122392221Y-108841000D02*
X122717779Y-108841000D01*
X122392221Y-107821000D02*
X122717779Y-107821000D01*
X120986000Y-105300000D02*
X122396000Y-105300000D01*
X122396000Y-102980000D02*
X120366000Y-102980000D01*
X122396000Y-102980000D02*
X122396000Y-103640000D01*
X122396000Y-104640000D02*
X122396000Y-105300000D01*
X109987000Y-110356000D02*
X109987000Y-110806000D01*
X110392000Y-109206000D02*
X109987000Y-110356000D01*
X111887000Y-110356000D02*
X111887000Y-110806000D01*
X111482000Y-109206000D02*
X111887000Y-110356000D01*
X109237000Y-109206000D02*
X112637000Y-109206000D01*
X109237000Y-100806000D02*
X109237000Y-109206000D01*
X112637000Y-100806000D02*
X109237000Y-100806000D01*
X112637000Y-109206000D02*
X112637000Y-100806000D01*
X117094000Y-107041000D02*
X115144000Y-107041000D01*
X117094000Y-107041000D02*
X119044000Y-107041000D01*
X117094000Y-112161000D02*
X115144000Y-112161000D01*
X117094000Y-112161000D02*
X120544000Y-112161000D01*
X117807200Y-104226579D02*
X117807200Y-103901021D01*
X116787200Y-104226579D02*
X116787200Y-103901021D01*
X119573120Y-104226579D02*
X119573120Y-103901021D01*
X118553120Y-104226579D02*
X118553120Y-103901021D01*
X122392221Y-107317000D02*
X122717779Y-107317000D01*
X122392221Y-106297000D02*
X122717779Y-106297000D01*
X122392221Y-112016000D02*
X122717779Y-112016000D01*
X122392221Y-110996000D02*
X122717779Y-110996000D01*
X103461000Y-114149000D02*
X104241000Y-114149000D01*
X104241000Y-114149000D02*
X104241000Y-113149000D01*
X103461000Y-95909000D02*
X104241000Y-95909000D01*
X104241000Y-95909000D02*
X104241000Y-96909000D01*
X78496000Y-114149000D02*
X78496000Y-95909000D01*
X78496000Y-95909000D02*
X84916000Y-95909000D01*
X78496000Y-114149000D02*
X84916000Y-114149000D01*
X84916000Y-114149000D02*
X84916000Y-114529000D01*
X128107221Y-112016000D02*
X128432779Y-112016000D01*
X128107221Y-110996000D02*
X128432779Y-110996000D01*
X120333880Y-100264179D02*
X120333880Y-99938621D01*
X119313880Y-100264179D02*
X119313880Y-99938621D01*
X114862040Y-100213379D02*
X114862040Y-99887821D01*
X113842040Y-100213379D02*
X113842040Y-99887821D01*
X128107221Y-108841000D02*
X128432779Y-108841000D01*
X128107221Y-107821000D02*
X128432779Y-107821000D01*
X117847960Y-101630600D02*
X116387960Y-101630600D01*
X117847960Y-98470600D02*
X115687960Y-98470600D01*
X117847960Y-98470600D02*
X117847960Y-99400600D01*
X117847960Y-101630600D02*
X117847960Y-100700600D01*
X128970000Y-110455000D02*
X127120000Y-110455000D01*
X128970000Y-109255000D02*
X127120000Y-109255000D01*
X127120000Y-109255000D02*
X127120000Y-110455000D01*
X121079800Y-99938621D02*
X121079800Y-100264179D01*
X122099800Y-99938621D02*
X122099800Y-100264179D01*
X128107221Y-107317000D02*
X128432779Y-107317000D01*
X128107221Y-106297000D02*
X128432779Y-106297000D01*
D11*
X124487409Y-97553895D02*
X124564819Y-97592600D01*
X124642228Y-97670009D01*
X124758342Y-97786123D01*
X124835752Y-97824828D01*
X124913161Y-97824828D01*
X124874457Y-97631304D02*
X124951866Y-97670009D01*
X125029276Y-97747419D01*
X125067980Y-97902238D01*
X125067980Y-98173171D01*
X125029276Y-98327990D01*
X124951866Y-98405400D01*
X124874457Y-98444104D01*
X124719638Y-98444104D01*
X124642228Y-98405400D01*
X124564819Y-98327990D01*
X124526114Y-98173171D01*
X124526114Y-97902238D01*
X124564819Y-97747419D01*
X124642228Y-97670009D01*
X124719638Y-97631304D01*
X124874457Y-97631304D01*
X124255180Y-98444104D02*
X123752019Y-98444104D01*
X124022952Y-98134466D01*
X123906838Y-98134466D01*
X123829428Y-98095761D01*
X123790723Y-98057057D01*
X123752019Y-97979647D01*
X123752019Y-97786123D01*
X123790723Y-97708714D01*
X123829428Y-97670009D01*
X123906838Y-97631304D01*
X124139066Y-97631304D01*
X124216476Y-97670009D01*
X124255180Y-97708714D01*
X131459514Y-103264304D02*
X131730447Y-103651352D01*
X131923971Y-103264304D02*
X131923971Y-104077104D01*
X131614333Y-104077104D01*
X131536923Y-104038400D01*
X131498219Y-103999695D01*
X131459514Y-103922285D01*
X131459514Y-103806171D01*
X131498219Y-103728761D01*
X131536923Y-103690057D01*
X131614333Y-103651352D01*
X131923971Y-103651352D01*
X130685419Y-103264304D02*
X131149876Y-103264304D01*
X130917647Y-103264304D02*
X130917647Y-104077104D01*
X130995057Y-103960990D01*
X131072466Y-103883580D01*
X131149876Y-103844876D01*
X130298371Y-103264304D02*
X130143552Y-103264304D01*
X130066142Y-103303009D01*
X130027438Y-103341714D01*
X129950028Y-103457828D01*
X129911323Y-103612647D01*
X129911323Y-103922285D01*
X129950028Y-103999695D01*
X129988733Y-104038400D01*
X130066142Y-104077104D01*
X130220961Y-104077104D01*
X130298371Y-104038400D01*
X130337076Y-103999695D01*
X130375780Y-103922285D01*
X130375780Y-103728761D01*
X130337076Y-103651352D01*
X130298371Y-103612647D01*
X130220961Y-103573942D01*
X130066142Y-103573942D01*
X129988733Y-103612647D01*
X129950028Y-103651352D01*
X129911323Y-103728761D01*
X131459514Y-104788304D02*
X131730447Y-105175352D01*
X131923971Y-104788304D02*
X131923971Y-105601104D01*
X131614333Y-105601104D01*
X131536923Y-105562400D01*
X131498219Y-105523695D01*
X131459514Y-105446285D01*
X131459514Y-105330171D01*
X131498219Y-105252761D01*
X131536923Y-105214057D01*
X131614333Y-105175352D01*
X131923971Y-105175352D01*
X130685419Y-104788304D02*
X131149876Y-104788304D01*
X130917647Y-104788304D02*
X130917647Y-105601104D01*
X130995057Y-105484990D01*
X131072466Y-105407580D01*
X131149876Y-105368876D01*
X130220961Y-105252761D02*
X130298371Y-105291466D01*
X130337076Y-105330171D01*
X130375780Y-105407580D01*
X130375780Y-105446285D01*
X130337076Y-105523695D01*
X130298371Y-105562400D01*
X130220961Y-105601104D01*
X130066142Y-105601104D01*
X129988733Y-105562400D01*
X129950028Y-105523695D01*
X129911323Y-105446285D01*
X129911323Y-105407580D01*
X129950028Y-105330171D01*
X129988733Y-105291466D01*
X130066142Y-105252761D01*
X130220961Y-105252761D01*
X130298371Y-105214057D01*
X130337076Y-105175352D01*
X130375780Y-105097942D01*
X130375780Y-104943123D01*
X130337076Y-104865714D01*
X130298371Y-104827009D01*
X130220961Y-104788304D01*
X130066142Y-104788304D01*
X129988733Y-104827009D01*
X129950028Y-104865714D01*
X129911323Y-104943123D01*
X129911323Y-105097942D01*
X129950028Y-105175352D01*
X129988733Y-105214057D01*
X130066142Y-105252761D01*
X131459514Y-100216304D02*
X131730447Y-100603352D01*
X131923971Y-100216304D02*
X131923971Y-101029104D01*
X131614333Y-101029104D01*
X131536923Y-100990400D01*
X131498219Y-100951695D01*
X131459514Y-100874285D01*
X131459514Y-100758171D01*
X131498219Y-100680761D01*
X131536923Y-100642057D01*
X131614333Y-100603352D01*
X131923971Y-100603352D01*
X130685419Y-100216304D02*
X131149876Y-100216304D01*
X130917647Y-100216304D02*
X130917647Y-101029104D01*
X130995057Y-100912990D01*
X131072466Y-100835580D01*
X131149876Y-100796876D01*
X130414485Y-101029104D02*
X129872619Y-101029104D01*
X130220961Y-100216304D01*
X131459514Y-101740304D02*
X131730447Y-102127352D01*
X131923971Y-101740304D02*
X131923971Y-102553104D01*
X131614333Y-102553104D01*
X131536923Y-102514400D01*
X131498219Y-102475695D01*
X131459514Y-102398285D01*
X131459514Y-102282171D01*
X131498219Y-102204761D01*
X131536923Y-102166057D01*
X131614333Y-102127352D01*
X131923971Y-102127352D01*
X130685419Y-101740304D02*
X131149876Y-101740304D01*
X130917647Y-101740304D02*
X130917647Y-102553104D01*
X130995057Y-102436990D01*
X131072466Y-102359580D01*
X131149876Y-102320876D01*
X129988733Y-102553104D02*
X130143552Y-102553104D01*
X130220961Y-102514400D01*
X130259666Y-102475695D01*
X130337076Y-102359580D01*
X130375780Y-102204761D01*
X130375780Y-101895123D01*
X130337076Y-101817714D01*
X130298371Y-101779009D01*
X130220961Y-101740304D01*
X130066142Y-101740304D01*
X129988733Y-101779009D01*
X129950028Y-101817714D01*
X129911323Y-101895123D01*
X129911323Y-102088647D01*
X129950028Y-102166057D01*
X129988733Y-102204761D01*
X130066142Y-102243466D01*
X130220961Y-102243466D01*
X130298371Y-102204761D01*
X130337076Y-102166057D01*
X130375780Y-102088647D01*
X134628466Y-107074304D02*
X134899400Y-107461352D01*
X135092923Y-107074304D02*
X135092923Y-107887104D01*
X134783285Y-107887104D01*
X134705876Y-107848400D01*
X134667171Y-107809695D01*
X134628466Y-107732285D01*
X134628466Y-107616171D01*
X134667171Y-107538761D01*
X134705876Y-107500057D01*
X134783285Y-107461352D01*
X135092923Y-107461352D01*
X134164009Y-107538761D02*
X134241419Y-107577466D01*
X134280123Y-107616171D01*
X134318828Y-107693580D01*
X134318828Y-107732285D01*
X134280123Y-107809695D01*
X134241419Y-107848400D01*
X134164009Y-107887104D01*
X134009190Y-107887104D01*
X133931780Y-107848400D01*
X133893076Y-107809695D01*
X133854371Y-107732285D01*
X133854371Y-107693580D01*
X133893076Y-107616171D01*
X133931780Y-107577466D01*
X134009190Y-107538761D01*
X134164009Y-107538761D01*
X134241419Y-107500057D01*
X134280123Y-107461352D01*
X134318828Y-107383942D01*
X134318828Y-107229123D01*
X134280123Y-107151714D01*
X134241419Y-107113009D01*
X134164009Y-107074304D01*
X134009190Y-107074304D01*
X133931780Y-107113009D01*
X133893076Y-107151714D01*
X133854371Y-107229123D01*
X133854371Y-107383942D01*
X133893076Y-107461352D01*
X133931780Y-107500057D01*
X134009190Y-107538761D01*
X134628466Y-105296304D02*
X134899400Y-105683352D01*
X135092923Y-105296304D02*
X135092923Y-106109104D01*
X134783285Y-106109104D01*
X134705876Y-106070400D01*
X134667171Y-106031695D01*
X134628466Y-105954285D01*
X134628466Y-105838171D01*
X134667171Y-105760761D01*
X134705876Y-105722057D01*
X134783285Y-105683352D01*
X135092923Y-105683352D01*
X134357533Y-106109104D02*
X133815666Y-106109104D01*
X134164009Y-105296304D01*
X134628466Y-99835304D02*
X134899400Y-100222352D01*
X135092923Y-99835304D02*
X135092923Y-100648104D01*
X134783285Y-100648104D01*
X134705876Y-100609400D01*
X134667171Y-100570695D01*
X134628466Y-100493285D01*
X134628466Y-100377171D01*
X134667171Y-100299761D01*
X134705876Y-100261057D01*
X134783285Y-100222352D01*
X135092923Y-100222352D01*
X133931780Y-100377171D02*
X133931780Y-99835304D01*
X134125304Y-100686809D02*
X134318828Y-100106238D01*
X133815666Y-100106238D01*
X144153466Y-108852304D02*
X144540514Y-108852304D01*
X144540514Y-109665104D01*
X143456780Y-108852304D02*
X143921238Y-108852304D01*
X143689009Y-108852304D02*
X143689009Y-109665104D01*
X143766419Y-109548990D01*
X143843828Y-109471580D01*
X143921238Y-109432876D01*
X144002276Y-104585104D02*
X144002276Y-103927123D01*
X143963571Y-103849714D01*
X143924866Y-103811009D01*
X143847457Y-103772304D01*
X143692638Y-103772304D01*
X143615228Y-103811009D01*
X143576523Y-103849714D01*
X143537819Y-103927123D01*
X143537819Y-104585104D01*
X143189476Y-104507695D02*
X143150771Y-104546400D01*
X143073361Y-104585104D01*
X142879838Y-104585104D01*
X142802428Y-104546400D01*
X142763723Y-104507695D01*
X142725019Y-104430285D01*
X142725019Y-104352876D01*
X142763723Y-104236761D01*
X143228180Y-103772304D01*
X142725019Y-103772304D01*
X134628466Y-103518304D02*
X134899400Y-103905352D01*
X135092923Y-103518304D02*
X135092923Y-104331104D01*
X134783285Y-104331104D01*
X134705876Y-104292400D01*
X134667171Y-104253695D01*
X134628466Y-104176285D01*
X134628466Y-104060171D01*
X134667171Y-103982761D01*
X134705876Y-103944057D01*
X134783285Y-103905352D01*
X135092923Y-103905352D01*
X133931780Y-104331104D02*
X134086600Y-104331104D01*
X134164009Y-104292400D01*
X134202714Y-104253695D01*
X134280123Y-104137580D01*
X134318828Y-103982761D01*
X134318828Y-103673123D01*
X134280123Y-103595714D01*
X134241419Y-103557009D01*
X134164009Y-103518304D01*
X134009190Y-103518304D01*
X133931780Y-103557009D01*
X133893076Y-103595714D01*
X133854371Y-103673123D01*
X133854371Y-103866647D01*
X133893076Y-103944057D01*
X133931780Y-103982761D01*
X134009190Y-104021466D01*
X134164009Y-104021466D01*
X134241419Y-103982761D01*
X134280123Y-103944057D01*
X134318828Y-103866647D01*
X134628466Y-101613304D02*
X134899400Y-102000352D01*
X135092923Y-101613304D02*
X135092923Y-102426104D01*
X134783285Y-102426104D01*
X134705876Y-102387400D01*
X134667171Y-102348695D01*
X134628466Y-102271285D01*
X134628466Y-102155171D01*
X134667171Y-102077761D01*
X134705876Y-102039057D01*
X134783285Y-102000352D01*
X135092923Y-102000352D01*
X133893076Y-102426104D02*
X134280123Y-102426104D01*
X134318828Y-102039057D01*
X134280123Y-102077761D01*
X134202714Y-102116466D01*
X134009190Y-102116466D01*
X133931780Y-102077761D01*
X133893076Y-102039057D01*
X133854371Y-101961647D01*
X133854371Y-101768123D01*
X133893076Y-101690714D01*
X133931780Y-101652009D01*
X134009190Y-101613304D01*
X134202714Y-101613304D01*
X134280123Y-101652009D01*
X134318828Y-101690714D01*
X142629466Y-99912714D02*
X142668171Y-99874009D01*
X142784285Y-99835304D01*
X142861695Y-99835304D01*
X142977809Y-99874009D01*
X143055219Y-99951419D01*
X143093923Y-100028828D01*
X143132628Y-100183647D01*
X143132628Y-100299761D01*
X143093923Y-100454580D01*
X143055219Y-100531990D01*
X142977809Y-100609400D01*
X142861695Y-100648104D01*
X142784285Y-100648104D01*
X142668171Y-100609400D01*
X142629466Y-100570695D01*
X141932780Y-100377171D02*
X141932780Y-99835304D01*
X142126304Y-100686809D02*
X142319828Y-100106238D01*
X141816666Y-100106238D01*
X142629466Y-105500714D02*
X142668171Y-105462009D01*
X142784285Y-105423304D01*
X142861695Y-105423304D01*
X142977809Y-105462009D01*
X143055219Y-105539419D01*
X143093923Y-105616828D01*
X143132628Y-105771647D01*
X143132628Y-105887761D01*
X143093923Y-106042580D01*
X143055219Y-106119990D01*
X142977809Y-106197400D01*
X142861695Y-106236104D01*
X142784285Y-106236104D01*
X142668171Y-106197400D01*
X142629466Y-106158695D01*
X142319828Y-106158695D02*
X142281123Y-106197400D01*
X142203714Y-106236104D01*
X142010190Y-106236104D01*
X141932780Y-106197400D01*
X141894076Y-106158695D01*
X141855371Y-106081285D01*
X141855371Y-106003876D01*
X141894076Y-105887761D01*
X142358533Y-105423304D01*
X141855371Y-105423304D01*
X136666514Y-111130714D02*
X136705219Y-111092009D01*
X136821333Y-111053304D01*
X136898742Y-111053304D01*
X137014857Y-111092009D01*
X137092266Y-111169419D01*
X137130971Y-111246828D01*
X137169676Y-111401647D01*
X137169676Y-111517761D01*
X137130971Y-111672580D01*
X137092266Y-111749990D01*
X137014857Y-111827400D01*
X136898742Y-111866104D01*
X136821333Y-111866104D01*
X136705219Y-111827400D01*
X136666514Y-111788695D01*
X135892419Y-111053304D02*
X136356876Y-111053304D01*
X136124647Y-111053304D02*
X136124647Y-111866104D01*
X136202057Y-111749990D01*
X136279466Y-111672580D01*
X136356876Y-111633876D01*
X135389257Y-111866104D02*
X135311847Y-111866104D01*
X135234438Y-111827400D01*
X135195733Y-111788695D01*
X135157028Y-111711285D01*
X135118323Y-111556466D01*
X135118323Y-111362942D01*
X135157028Y-111208123D01*
X135195733Y-111130714D01*
X135234438Y-111092009D01*
X135311847Y-111053304D01*
X135389257Y-111053304D01*
X135466666Y-111092009D01*
X135505371Y-111130714D01*
X135544076Y-111208123D01*
X135582780Y-111362942D01*
X135582780Y-111556466D01*
X135544076Y-111711285D01*
X135505371Y-111788695D01*
X135466666Y-111827400D01*
X135389257Y-111866104D01*
X131459514Y-98692304D02*
X131730447Y-99079352D01*
X131923971Y-98692304D02*
X131923971Y-99505104D01*
X131614333Y-99505104D01*
X131536923Y-99466400D01*
X131498219Y-99427695D01*
X131459514Y-99350285D01*
X131459514Y-99234171D01*
X131498219Y-99156761D01*
X131536923Y-99118057D01*
X131614333Y-99079352D01*
X131923971Y-99079352D01*
X130685419Y-98692304D02*
X131149876Y-98692304D01*
X130917647Y-98692304D02*
X130917647Y-99505104D01*
X130995057Y-99388990D01*
X131072466Y-99311580D01*
X131149876Y-99272876D01*
X129950028Y-99505104D02*
X130337076Y-99505104D01*
X130375780Y-99118057D01*
X130337076Y-99156761D01*
X130259666Y-99195466D01*
X130066142Y-99195466D01*
X129988733Y-99156761D01*
X129950028Y-99118057D01*
X129911323Y-99040647D01*
X129911323Y-98847123D01*
X129950028Y-98769714D01*
X129988733Y-98731009D01*
X130066142Y-98692304D01*
X130259666Y-98692304D01*
X130337076Y-98731009D01*
X130375780Y-98769714D01*
X125103466Y-109360304D02*
X125374400Y-109747352D01*
X125567923Y-109360304D02*
X125567923Y-110173104D01*
X125258285Y-110173104D01*
X125180876Y-110134400D01*
X125142171Y-110095695D01*
X125103466Y-110018285D01*
X125103466Y-109902171D01*
X125142171Y-109824761D01*
X125180876Y-109786057D01*
X125258285Y-109747352D01*
X125567923Y-109747352D01*
X124716419Y-109360304D02*
X124561600Y-109360304D01*
X124484190Y-109399009D01*
X124445485Y-109437714D01*
X124368076Y-109553828D01*
X124329371Y-109708647D01*
X124329371Y-110018285D01*
X124368076Y-110095695D01*
X124406780Y-110134400D01*
X124484190Y-110173104D01*
X124639009Y-110173104D01*
X124716419Y-110134400D01*
X124755123Y-110095695D01*
X124793828Y-110018285D01*
X124793828Y-109824761D01*
X124755123Y-109747352D01*
X124716419Y-109708647D01*
X124639009Y-109669942D01*
X124484190Y-109669942D01*
X124406780Y-109708647D01*
X124368076Y-109747352D01*
X124329371Y-109824761D01*
X125103466Y-107963304D02*
X125374400Y-108350352D01*
X125567923Y-107963304D02*
X125567923Y-108776104D01*
X125258285Y-108776104D01*
X125180876Y-108737400D01*
X125142171Y-108698695D01*
X125103466Y-108621285D01*
X125103466Y-108505171D01*
X125142171Y-108427761D01*
X125180876Y-108389057D01*
X125258285Y-108350352D01*
X125567923Y-108350352D01*
X124832533Y-108776104D02*
X124329371Y-108776104D01*
X124600304Y-108466466D01*
X124484190Y-108466466D01*
X124406780Y-108427761D01*
X124368076Y-108389057D01*
X124329371Y-108311647D01*
X124329371Y-108118123D01*
X124368076Y-108040714D01*
X124406780Y-108002009D01*
X124484190Y-107963304D01*
X124716419Y-107963304D01*
X124793828Y-108002009D01*
X124832533Y-108040714D01*
X123521409Y-102805895D02*
X123598819Y-102844600D01*
X123676228Y-102922009D01*
X123792342Y-103038123D01*
X123869752Y-103076828D01*
X123947161Y-103076828D01*
X123908457Y-102883304D02*
X123985866Y-102922009D01*
X124063276Y-102999419D01*
X124101980Y-103154238D01*
X124101980Y-103425171D01*
X124063276Y-103579990D01*
X123985866Y-103657400D01*
X123908457Y-103696104D01*
X123753638Y-103696104D01*
X123676228Y-103657400D01*
X123598819Y-103579990D01*
X123560114Y-103425171D01*
X123560114Y-103154238D01*
X123598819Y-102999419D01*
X123676228Y-102922009D01*
X123753638Y-102883304D01*
X123908457Y-102883304D01*
X122786019Y-102883304D02*
X123250476Y-102883304D01*
X123018247Y-102883304D02*
X123018247Y-103696104D01*
X123095657Y-103579990D01*
X123173066Y-103502580D01*
X123250476Y-103463876D01*
X109327647Y-110496047D02*
X109714695Y-110496047D01*
X108901895Y-110766980D02*
X109327647Y-110496047D01*
X108901895Y-110225114D01*
X109714695Y-109528428D02*
X109714695Y-109992885D01*
X109714695Y-109760657D02*
X108901895Y-109760657D01*
X109018009Y-109838066D01*
X109095419Y-109915476D01*
X109134123Y-109992885D01*
X114792276Y-107125104D02*
X114792276Y-106467123D01*
X114753571Y-106389714D01*
X114714866Y-106351009D01*
X114637457Y-106312304D01*
X114482638Y-106312304D01*
X114405228Y-106351009D01*
X114366523Y-106389714D01*
X114327819Y-106467123D01*
X114327819Y-107125104D01*
X113515019Y-106312304D02*
X113979476Y-106312304D01*
X113747247Y-106312304D02*
X113747247Y-107125104D01*
X113824657Y-107008990D01*
X113902066Y-106931580D01*
X113979476Y-106892876D01*
X117483466Y-105804304D02*
X117754400Y-106191352D01*
X117947923Y-105804304D02*
X117947923Y-106617104D01*
X117638285Y-106617104D01*
X117560876Y-106578400D01*
X117522171Y-106539695D01*
X117483466Y-106462285D01*
X117483466Y-106346171D01*
X117522171Y-106268761D01*
X117560876Y-106230057D01*
X117638285Y-106191352D01*
X117947923Y-106191352D01*
X117173828Y-106539695D02*
X117135123Y-106578400D01*
X117057714Y-106617104D01*
X116864190Y-106617104D01*
X116786780Y-106578400D01*
X116748076Y-106539695D01*
X116709371Y-106462285D01*
X116709371Y-106384876D01*
X116748076Y-106268761D01*
X117212533Y-105804304D01*
X116709371Y-105804304D01*
X119261466Y-105804304D02*
X119532400Y-106191352D01*
X119725923Y-105804304D02*
X119725923Y-106617104D01*
X119416285Y-106617104D01*
X119338876Y-106578400D01*
X119300171Y-106539695D01*
X119261466Y-106462285D01*
X119261466Y-106346171D01*
X119300171Y-106268761D01*
X119338876Y-106230057D01*
X119416285Y-106191352D01*
X119725923Y-106191352D01*
X118487371Y-105804304D02*
X118951828Y-105804304D01*
X118719600Y-105804304D02*
X118719600Y-106617104D01*
X118797009Y-106500990D01*
X118874419Y-106423580D01*
X118951828Y-106384876D01*
X124976466Y-106516714D02*
X125015171Y-106478009D01*
X125131285Y-106439304D01*
X125208695Y-106439304D01*
X125324809Y-106478009D01*
X125402219Y-106555419D01*
X125440923Y-106632828D01*
X125479628Y-106787647D01*
X125479628Y-106903761D01*
X125440923Y-107058580D01*
X125402219Y-107135990D01*
X125324809Y-107213400D01*
X125208695Y-107252104D01*
X125131285Y-107252104D01*
X125015171Y-107213400D01*
X124976466Y-107174695D01*
X124705533Y-107252104D02*
X124202371Y-107252104D01*
X124473304Y-106942466D01*
X124357190Y-106942466D01*
X124279780Y-106903761D01*
X124241076Y-106865057D01*
X124202371Y-106787647D01*
X124202371Y-106594123D01*
X124241076Y-106516714D01*
X124279780Y-106478009D01*
X124357190Y-106439304D01*
X124589419Y-106439304D01*
X124666828Y-106478009D01*
X124705533Y-106516714D01*
X124976466Y-111215714D02*
X125015171Y-111177009D01*
X125131285Y-111138304D01*
X125208695Y-111138304D01*
X125324809Y-111177009D01*
X125402219Y-111254419D01*
X125440923Y-111331828D01*
X125479628Y-111486647D01*
X125479628Y-111602761D01*
X125440923Y-111757580D01*
X125402219Y-111834990D01*
X125324809Y-111912400D01*
X125208695Y-111951104D01*
X125131285Y-111951104D01*
X125015171Y-111912400D01*
X124976466Y-111873695D01*
X124202371Y-111138304D02*
X124666828Y-111138304D01*
X124434600Y-111138304D02*
X124434600Y-111951104D01*
X124512009Y-111834990D01*
X124589419Y-111757580D01*
X124666828Y-111718876D01*
X105218895Y-112633276D02*
X105876876Y-112633276D01*
X105954285Y-112594571D01*
X105992990Y-112555866D01*
X106031695Y-112478457D01*
X106031695Y-112323638D01*
X105992990Y-112246228D01*
X105954285Y-112207523D01*
X105876876Y-112168819D01*
X105218895Y-112168819D01*
X105218895Y-111859180D02*
X105218895Y-111356019D01*
X105528533Y-111626952D01*
X105528533Y-111510838D01*
X105567238Y-111433428D01*
X105605942Y-111394723D01*
X105683352Y-111356019D01*
X105876876Y-111356019D01*
X105954285Y-111394723D01*
X105992990Y-111433428D01*
X106031695Y-111510838D01*
X106031695Y-111743066D01*
X105992990Y-111820476D01*
X105954285Y-111859180D01*
X131459514Y-111011304D02*
X131730447Y-111398352D01*
X131923971Y-111011304D02*
X131923971Y-111824104D01*
X131614333Y-111824104D01*
X131536923Y-111785400D01*
X131498219Y-111746695D01*
X131459514Y-111669285D01*
X131459514Y-111553171D01*
X131498219Y-111475761D01*
X131536923Y-111437057D01*
X131614333Y-111398352D01*
X131923971Y-111398352D01*
X130685419Y-111011304D02*
X131149876Y-111011304D01*
X130917647Y-111011304D02*
X130917647Y-111824104D01*
X130995057Y-111707990D01*
X131072466Y-111630580D01*
X131149876Y-111591876D01*
X129988733Y-111553171D02*
X129988733Y-111011304D01*
X130182257Y-111862809D02*
X130375780Y-111282238D01*
X129872619Y-111282238D01*
X120382695Y-103265514D02*
X119995647Y-103536447D01*
X120382695Y-103729971D02*
X119569895Y-103729971D01*
X119569895Y-103420333D01*
X119608600Y-103342923D01*
X119647304Y-103304219D01*
X119724714Y-103265514D01*
X119840828Y-103265514D01*
X119918238Y-103304219D01*
X119956942Y-103342923D01*
X119995647Y-103420333D01*
X119995647Y-103729971D01*
X120382695Y-102491419D02*
X120382695Y-102955876D01*
X120382695Y-102723647D02*
X119569895Y-102723647D01*
X119686009Y-102801057D01*
X119763419Y-102878466D01*
X119802123Y-102955876D01*
X119647304Y-102181780D02*
X119608600Y-102143076D01*
X119569895Y-102065666D01*
X119569895Y-101872142D01*
X119608600Y-101794733D01*
X119647304Y-101756028D01*
X119724714Y-101717323D01*
X119802123Y-101717323D01*
X119918238Y-101756028D01*
X120382695Y-102220485D01*
X120382695Y-101717323D01*
X114794695Y-103138514D02*
X114407647Y-103409447D01*
X114794695Y-103602971D02*
X113981895Y-103602971D01*
X113981895Y-103293333D01*
X114020600Y-103215923D01*
X114059304Y-103177219D01*
X114136714Y-103138514D01*
X114252828Y-103138514D01*
X114330238Y-103177219D01*
X114368942Y-103215923D01*
X114407647Y-103293333D01*
X114407647Y-103602971D01*
X114794695Y-102364419D02*
X114794695Y-102828876D01*
X114794695Y-102596647D02*
X113981895Y-102596647D01*
X114098009Y-102674057D01*
X114175419Y-102751466D01*
X114214123Y-102828876D01*
X114794695Y-101590323D02*
X114794695Y-102054780D01*
X114794695Y-101822552D02*
X113981895Y-101822552D01*
X114098009Y-101899961D01*
X114175419Y-101977371D01*
X114214123Y-102054780D01*
X131459514Y-107963304D02*
X131730447Y-108350352D01*
X131923971Y-107963304D02*
X131923971Y-108776104D01*
X131614333Y-108776104D01*
X131536923Y-108737400D01*
X131498219Y-108698695D01*
X131459514Y-108621285D01*
X131459514Y-108505171D01*
X131498219Y-108427761D01*
X131536923Y-108389057D01*
X131614333Y-108350352D01*
X131923971Y-108350352D01*
X130685419Y-107963304D02*
X131149876Y-107963304D01*
X130917647Y-107963304D02*
X130917647Y-108776104D01*
X130995057Y-108659990D01*
X131072466Y-108582580D01*
X131149876Y-108543876D01*
X130414485Y-108776104D02*
X129911323Y-108776104D01*
X130182257Y-108466466D01*
X130066142Y-108466466D01*
X129988733Y-108427761D01*
X129950028Y-108389057D01*
X129911323Y-108311647D01*
X129911323Y-108118123D01*
X129950028Y-108040714D01*
X129988733Y-108002009D01*
X130066142Y-107963304D01*
X130298371Y-107963304D01*
X130375780Y-108002009D01*
X130414485Y-108040714D01*
X116523104Y-102693409D02*
X116484400Y-102770819D01*
X116406990Y-102848228D01*
X116290876Y-102964342D01*
X116252171Y-103041752D01*
X116252171Y-103119161D01*
X116445695Y-103080457D02*
X116406990Y-103157866D01*
X116329580Y-103235276D01*
X116174761Y-103273980D01*
X115903828Y-103273980D01*
X115749009Y-103235276D01*
X115671600Y-103157866D01*
X115632895Y-103080457D01*
X115632895Y-102925638D01*
X115671600Y-102848228D01*
X115749009Y-102770819D01*
X115903828Y-102732114D01*
X116174761Y-102732114D01*
X116329580Y-102770819D01*
X116406990Y-102848228D01*
X116445695Y-102925638D01*
X116445695Y-103080457D01*
X115710304Y-102422476D02*
X115671600Y-102383771D01*
X115632895Y-102306361D01*
X115632895Y-102112838D01*
X115671600Y-102035428D01*
X115710304Y-101996723D01*
X115787714Y-101958019D01*
X115865123Y-101958019D01*
X115981238Y-101996723D01*
X116445695Y-102461180D01*
X116445695Y-101958019D01*
X131282923Y-109487304D02*
X131282923Y-110300104D01*
X131089400Y-110300104D01*
X130973285Y-110261400D01*
X130895876Y-110183990D01*
X130857171Y-110106580D01*
X130818466Y-109951761D01*
X130818466Y-109835647D01*
X130857171Y-109680828D01*
X130895876Y-109603419D01*
X130973285Y-109526009D01*
X131089400Y-109487304D01*
X131282923Y-109487304D01*
X130044371Y-109487304D02*
X130508828Y-109487304D01*
X130276600Y-109487304D02*
X130276600Y-110300104D01*
X130354009Y-110183990D01*
X130431419Y-110106580D01*
X130508828Y-110067876D01*
X121956285Y-102370466D02*
X121994990Y-102409171D01*
X122033695Y-102525285D01*
X122033695Y-102602695D01*
X121994990Y-102718809D01*
X121917580Y-102796219D01*
X121840171Y-102834923D01*
X121685352Y-102873628D01*
X121569238Y-102873628D01*
X121414419Y-102834923D01*
X121337009Y-102796219D01*
X121259600Y-102718809D01*
X121220895Y-102602695D01*
X121220895Y-102525285D01*
X121259600Y-102409171D01*
X121298304Y-102370466D01*
X121569238Y-101906009D02*
X121530533Y-101983419D01*
X121491828Y-102022123D01*
X121414419Y-102060828D01*
X121375714Y-102060828D01*
X121298304Y-102022123D01*
X121259600Y-101983419D01*
X121220895Y-101906009D01*
X121220895Y-101751190D01*
X121259600Y-101673780D01*
X121298304Y-101635076D01*
X121375714Y-101596371D01*
X121414419Y-101596371D01*
X121491828Y-101635076D01*
X121530533Y-101673780D01*
X121569238Y-101751190D01*
X121569238Y-101906009D01*
X121607942Y-101983419D01*
X121646647Y-102022123D01*
X121724057Y-102060828D01*
X121878876Y-102060828D01*
X121956285Y-102022123D01*
X121994990Y-101983419D01*
X122033695Y-101906009D01*
X122033695Y-101751190D01*
X121994990Y-101673780D01*
X121956285Y-101635076D01*
X121878876Y-101596371D01*
X121724057Y-101596371D01*
X121646647Y-101635076D01*
X121607942Y-101673780D01*
X121569238Y-101751190D01*
X130691466Y-106516714D02*
X130730171Y-106478009D01*
X130846285Y-106439304D01*
X130923695Y-106439304D01*
X131039809Y-106478009D01*
X131117219Y-106555419D01*
X131155923Y-106632828D01*
X131194628Y-106787647D01*
X131194628Y-106903761D01*
X131155923Y-107058580D01*
X131117219Y-107135990D01*
X131039809Y-107213400D01*
X130923695Y-107252104D01*
X130846285Y-107252104D01*
X130730171Y-107213400D01*
X130691466Y-107174695D01*
X130304419Y-106439304D02*
X130149600Y-106439304D01*
X130072190Y-106478009D01*
X130033485Y-106516714D01*
X129956076Y-106632828D01*
X129917371Y-106787647D01*
X129917371Y-107097285D01*
X129956076Y-107174695D01*
X129994780Y-107213400D01*
X130072190Y-107252104D01*
X130227009Y-107252104D01*
X130304419Y-107213400D01*
X130343123Y-107174695D01*
X130381828Y-107097285D01*
X130381828Y-106903761D01*
X130343123Y-106826352D01*
X130304419Y-106787647D01*
X130227009Y-106748942D01*
X130072190Y-106748942D01*
X129994780Y-106787647D01*
X129956076Y-106826352D01*
X129917371Y-106903761D01*
M02*
