G04 #@! TF.GenerationSoftware,KiCad,Pcbnew,(5.1.4)-1*
G04 #@! TF.CreationDate,2020-11-25T16:32:24+01:00*
G04 #@! TF.ProjectId,iot_plant_watering_sensor_esp32,696f745f-706c-4616-9e74-5f7761746572,rev?*
G04 #@! TF.SameCoordinates,Original*
G04 #@! TF.FileFunction,Paste,Bot*
G04 #@! TF.FilePolarity,Positive*
%FSLAX46Y46*%
G04 Gerber Fmt 4.6, Leading zero omitted, Abs format (unit mm)*
G04 Created by KiCad (PCBNEW (5.1.4)-1) date 2020-11-25 16:32:24*
%MOMM*%
%LPD*%
G04 APERTURE LIST*
%ADD10R,6.000000X5.500000*%
%ADD11R,2.000000X2.000000*%
%ADD12R,0.900000X1.000000*%
%ADD13C,0.100000*%
%ADD14C,0.875000*%
G04 APERTURE END LIST*
D10*
X137728000Y-105029000D03*
X107128000Y-105029000D03*
D11*
X92187000Y-108839000D03*
X99187000Y-108839000D03*
X99187000Y-101839000D03*
X92187000Y-101839000D03*
D12*
X80861000Y-108313000D03*
X82461000Y-108313000D03*
X80861000Y-112413000D03*
X82461000Y-112413000D03*
D13*
G36*
X89368691Y-112238553D02*
G01*
X89389926Y-112241703D01*
X89410750Y-112246919D01*
X89430962Y-112254151D01*
X89450368Y-112263330D01*
X89468781Y-112274366D01*
X89486024Y-112287154D01*
X89501930Y-112301570D01*
X89516346Y-112317476D01*
X89529134Y-112334719D01*
X89540170Y-112353132D01*
X89549349Y-112372538D01*
X89556581Y-112392750D01*
X89561797Y-112413574D01*
X89564947Y-112434809D01*
X89566000Y-112456250D01*
X89566000Y-112968750D01*
X89564947Y-112990191D01*
X89561797Y-113011426D01*
X89556581Y-113032250D01*
X89549349Y-113052462D01*
X89540170Y-113071868D01*
X89529134Y-113090281D01*
X89516346Y-113107524D01*
X89501930Y-113123430D01*
X89486024Y-113137846D01*
X89468781Y-113150634D01*
X89450368Y-113161670D01*
X89430962Y-113170849D01*
X89410750Y-113178081D01*
X89389926Y-113183297D01*
X89368691Y-113186447D01*
X89347250Y-113187500D01*
X88909750Y-113187500D01*
X88888309Y-113186447D01*
X88867074Y-113183297D01*
X88846250Y-113178081D01*
X88826038Y-113170849D01*
X88806632Y-113161670D01*
X88788219Y-113150634D01*
X88770976Y-113137846D01*
X88755070Y-113123430D01*
X88740654Y-113107524D01*
X88727866Y-113090281D01*
X88716830Y-113071868D01*
X88707651Y-113052462D01*
X88700419Y-113032250D01*
X88695203Y-113011426D01*
X88692053Y-112990191D01*
X88691000Y-112968750D01*
X88691000Y-112456250D01*
X88692053Y-112434809D01*
X88695203Y-112413574D01*
X88700419Y-112392750D01*
X88707651Y-112372538D01*
X88716830Y-112353132D01*
X88727866Y-112334719D01*
X88740654Y-112317476D01*
X88755070Y-112301570D01*
X88770976Y-112287154D01*
X88788219Y-112274366D01*
X88806632Y-112263330D01*
X88826038Y-112254151D01*
X88846250Y-112246919D01*
X88867074Y-112241703D01*
X88888309Y-112238553D01*
X88909750Y-112237500D01*
X89347250Y-112237500D01*
X89368691Y-112238553D01*
X89368691Y-112238553D01*
G37*
D14*
X89128500Y-112712500D03*
D13*
G36*
X90943691Y-112238553D02*
G01*
X90964926Y-112241703D01*
X90985750Y-112246919D01*
X91005962Y-112254151D01*
X91025368Y-112263330D01*
X91043781Y-112274366D01*
X91061024Y-112287154D01*
X91076930Y-112301570D01*
X91091346Y-112317476D01*
X91104134Y-112334719D01*
X91115170Y-112353132D01*
X91124349Y-112372538D01*
X91131581Y-112392750D01*
X91136797Y-112413574D01*
X91139947Y-112434809D01*
X91141000Y-112456250D01*
X91141000Y-112968750D01*
X91139947Y-112990191D01*
X91136797Y-113011426D01*
X91131581Y-113032250D01*
X91124349Y-113052462D01*
X91115170Y-113071868D01*
X91104134Y-113090281D01*
X91091346Y-113107524D01*
X91076930Y-113123430D01*
X91061024Y-113137846D01*
X91043781Y-113150634D01*
X91025368Y-113161670D01*
X91005962Y-113170849D01*
X90985750Y-113178081D01*
X90964926Y-113183297D01*
X90943691Y-113186447D01*
X90922250Y-113187500D01*
X90484750Y-113187500D01*
X90463309Y-113186447D01*
X90442074Y-113183297D01*
X90421250Y-113178081D01*
X90401038Y-113170849D01*
X90381632Y-113161670D01*
X90363219Y-113150634D01*
X90345976Y-113137846D01*
X90330070Y-113123430D01*
X90315654Y-113107524D01*
X90302866Y-113090281D01*
X90291830Y-113071868D01*
X90282651Y-113052462D01*
X90275419Y-113032250D01*
X90270203Y-113011426D01*
X90267053Y-112990191D01*
X90266000Y-112968750D01*
X90266000Y-112456250D01*
X90267053Y-112434809D01*
X90270203Y-112413574D01*
X90275419Y-112392750D01*
X90282651Y-112372538D01*
X90291830Y-112353132D01*
X90302866Y-112334719D01*
X90315654Y-112317476D01*
X90330070Y-112301570D01*
X90345976Y-112287154D01*
X90363219Y-112274366D01*
X90381632Y-112263330D01*
X90401038Y-112254151D01*
X90421250Y-112246919D01*
X90442074Y-112241703D01*
X90463309Y-112238553D01*
X90484750Y-112237500D01*
X90922250Y-112237500D01*
X90943691Y-112238553D01*
X90943691Y-112238553D01*
G37*
D14*
X90703500Y-112712500D03*
D13*
G36*
X86320691Y-110587553D02*
G01*
X86341926Y-110590703D01*
X86362750Y-110595919D01*
X86382962Y-110603151D01*
X86402368Y-110612330D01*
X86420781Y-110623366D01*
X86438024Y-110636154D01*
X86453930Y-110650570D01*
X86468346Y-110666476D01*
X86481134Y-110683719D01*
X86492170Y-110702132D01*
X86501349Y-110721538D01*
X86508581Y-110741750D01*
X86513797Y-110762574D01*
X86516947Y-110783809D01*
X86518000Y-110805250D01*
X86518000Y-111317750D01*
X86516947Y-111339191D01*
X86513797Y-111360426D01*
X86508581Y-111381250D01*
X86501349Y-111401462D01*
X86492170Y-111420868D01*
X86481134Y-111439281D01*
X86468346Y-111456524D01*
X86453930Y-111472430D01*
X86438024Y-111486846D01*
X86420781Y-111499634D01*
X86402368Y-111510670D01*
X86382962Y-111519849D01*
X86362750Y-111527081D01*
X86341926Y-111532297D01*
X86320691Y-111535447D01*
X86299250Y-111536500D01*
X85861750Y-111536500D01*
X85840309Y-111535447D01*
X85819074Y-111532297D01*
X85798250Y-111527081D01*
X85778038Y-111519849D01*
X85758632Y-111510670D01*
X85740219Y-111499634D01*
X85722976Y-111486846D01*
X85707070Y-111472430D01*
X85692654Y-111456524D01*
X85679866Y-111439281D01*
X85668830Y-111420868D01*
X85659651Y-111401462D01*
X85652419Y-111381250D01*
X85647203Y-111360426D01*
X85644053Y-111339191D01*
X85643000Y-111317750D01*
X85643000Y-110805250D01*
X85644053Y-110783809D01*
X85647203Y-110762574D01*
X85652419Y-110741750D01*
X85659651Y-110721538D01*
X85668830Y-110702132D01*
X85679866Y-110683719D01*
X85692654Y-110666476D01*
X85707070Y-110650570D01*
X85722976Y-110636154D01*
X85740219Y-110623366D01*
X85758632Y-110612330D01*
X85778038Y-110603151D01*
X85798250Y-110595919D01*
X85819074Y-110590703D01*
X85840309Y-110587553D01*
X85861750Y-110586500D01*
X86299250Y-110586500D01*
X86320691Y-110587553D01*
X86320691Y-110587553D01*
G37*
D14*
X86080500Y-111061500D03*
D13*
G36*
X87895691Y-110587553D02*
G01*
X87916926Y-110590703D01*
X87937750Y-110595919D01*
X87957962Y-110603151D01*
X87977368Y-110612330D01*
X87995781Y-110623366D01*
X88013024Y-110636154D01*
X88028930Y-110650570D01*
X88043346Y-110666476D01*
X88056134Y-110683719D01*
X88067170Y-110702132D01*
X88076349Y-110721538D01*
X88083581Y-110741750D01*
X88088797Y-110762574D01*
X88091947Y-110783809D01*
X88093000Y-110805250D01*
X88093000Y-111317750D01*
X88091947Y-111339191D01*
X88088797Y-111360426D01*
X88083581Y-111381250D01*
X88076349Y-111401462D01*
X88067170Y-111420868D01*
X88056134Y-111439281D01*
X88043346Y-111456524D01*
X88028930Y-111472430D01*
X88013024Y-111486846D01*
X87995781Y-111499634D01*
X87977368Y-111510670D01*
X87957962Y-111519849D01*
X87937750Y-111527081D01*
X87916926Y-111532297D01*
X87895691Y-111535447D01*
X87874250Y-111536500D01*
X87436750Y-111536500D01*
X87415309Y-111535447D01*
X87394074Y-111532297D01*
X87373250Y-111527081D01*
X87353038Y-111519849D01*
X87333632Y-111510670D01*
X87315219Y-111499634D01*
X87297976Y-111486846D01*
X87282070Y-111472430D01*
X87267654Y-111456524D01*
X87254866Y-111439281D01*
X87243830Y-111420868D01*
X87234651Y-111401462D01*
X87227419Y-111381250D01*
X87222203Y-111360426D01*
X87219053Y-111339191D01*
X87218000Y-111317750D01*
X87218000Y-110805250D01*
X87219053Y-110783809D01*
X87222203Y-110762574D01*
X87227419Y-110741750D01*
X87234651Y-110721538D01*
X87243830Y-110702132D01*
X87254866Y-110683719D01*
X87267654Y-110666476D01*
X87282070Y-110650570D01*
X87297976Y-110636154D01*
X87315219Y-110623366D01*
X87333632Y-110612330D01*
X87353038Y-110603151D01*
X87373250Y-110595919D01*
X87394074Y-110590703D01*
X87415309Y-110587553D01*
X87436750Y-110586500D01*
X87874250Y-110586500D01*
X87895691Y-110587553D01*
X87895691Y-110587553D01*
G37*
D14*
X87655500Y-111061500D03*
D13*
G36*
X86320691Y-112238553D02*
G01*
X86341926Y-112241703D01*
X86362750Y-112246919D01*
X86382962Y-112254151D01*
X86402368Y-112263330D01*
X86420781Y-112274366D01*
X86438024Y-112287154D01*
X86453930Y-112301570D01*
X86468346Y-112317476D01*
X86481134Y-112334719D01*
X86492170Y-112353132D01*
X86501349Y-112372538D01*
X86508581Y-112392750D01*
X86513797Y-112413574D01*
X86516947Y-112434809D01*
X86518000Y-112456250D01*
X86518000Y-112968750D01*
X86516947Y-112990191D01*
X86513797Y-113011426D01*
X86508581Y-113032250D01*
X86501349Y-113052462D01*
X86492170Y-113071868D01*
X86481134Y-113090281D01*
X86468346Y-113107524D01*
X86453930Y-113123430D01*
X86438024Y-113137846D01*
X86420781Y-113150634D01*
X86402368Y-113161670D01*
X86382962Y-113170849D01*
X86362750Y-113178081D01*
X86341926Y-113183297D01*
X86320691Y-113186447D01*
X86299250Y-113187500D01*
X85861750Y-113187500D01*
X85840309Y-113186447D01*
X85819074Y-113183297D01*
X85798250Y-113178081D01*
X85778038Y-113170849D01*
X85758632Y-113161670D01*
X85740219Y-113150634D01*
X85722976Y-113137846D01*
X85707070Y-113123430D01*
X85692654Y-113107524D01*
X85679866Y-113090281D01*
X85668830Y-113071868D01*
X85659651Y-113052462D01*
X85652419Y-113032250D01*
X85647203Y-113011426D01*
X85644053Y-112990191D01*
X85643000Y-112968750D01*
X85643000Y-112456250D01*
X85644053Y-112434809D01*
X85647203Y-112413574D01*
X85652419Y-112392750D01*
X85659651Y-112372538D01*
X85668830Y-112353132D01*
X85679866Y-112334719D01*
X85692654Y-112317476D01*
X85707070Y-112301570D01*
X85722976Y-112287154D01*
X85740219Y-112274366D01*
X85758632Y-112263330D01*
X85778038Y-112254151D01*
X85798250Y-112246919D01*
X85819074Y-112241703D01*
X85840309Y-112238553D01*
X85861750Y-112237500D01*
X86299250Y-112237500D01*
X86320691Y-112238553D01*
X86320691Y-112238553D01*
G37*
D14*
X86080500Y-112712500D03*
D13*
G36*
X87895691Y-112238553D02*
G01*
X87916926Y-112241703D01*
X87937750Y-112246919D01*
X87957962Y-112254151D01*
X87977368Y-112263330D01*
X87995781Y-112274366D01*
X88013024Y-112287154D01*
X88028930Y-112301570D01*
X88043346Y-112317476D01*
X88056134Y-112334719D01*
X88067170Y-112353132D01*
X88076349Y-112372538D01*
X88083581Y-112392750D01*
X88088797Y-112413574D01*
X88091947Y-112434809D01*
X88093000Y-112456250D01*
X88093000Y-112968750D01*
X88091947Y-112990191D01*
X88088797Y-113011426D01*
X88083581Y-113032250D01*
X88076349Y-113052462D01*
X88067170Y-113071868D01*
X88056134Y-113090281D01*
X88043346Y-113107524D01*
X88028930Y-113123430D01*
X88013024Y-113137846D01*
X87995781Y-113150634D01*
X87977368Y-113161670D01*
X87957962Y-113170849D01*
X87937750Y-113178081D01*
X87916926Y-113183297D01*
X87895691Y-113186447D01*
X87874250Y-113187500D01*
X87436750Y-113187500D01*
X87415309Y-113186447D01*
X87394074Y-113183297D01*
X87373250Y-113178081D01*
X87353038Y-113170849D01*
X87333632Y-113161670D01*
X87315219Y-113150634D01*
X87297976Y-113137846D01*
X87282070Y-113123430D01*
X87267654Y-113107524D01*
X87254866Y-113090281D01*
X87243830Y-113071868D01*
X87234651Y-113052462D01*
X87227419Y-113032250D01*
X87222203Y-113011426D01*
X87219053Y-112990191D01*
X87218000Y-112968750D01*
X87218000Y-112456250D01*
X87219053Y-112434809D01*
X87222203Y-112413574D01*
X87227419Y-112392750D01*
X87234651Y-112372538D01*
X87243830Y-112353132D01*
X87254866Y-112334719D01*
X87267654Y-112317476D01*
X87282070Y-112301570D01*
X87297976Y-112287154D01*
X87315219Y-112274366D01*
X87333632Y-112263330D01*
X87353038Y-112254151D01*
X87373250Y-112246919D01*
X87394074Y-112241703D01*
X87415309Y-112238553D01*
X87436750Y-112237500D01*
X87874250Y-112237500D01*
X87895691Y-112238553D01*
X87895691Y-112238553D01*
G37*
D14*
X87655500Y-112712500D03*
D13*
G36*
X89394091Y-110587553D02*
G01*
X89415326Y-110590703D01*
X89436150Y-110595919D01*
X89456362Y-110603151D01*
X89475768Y-110612330D01*
X89494181Y-110623366D01*
X89511424Y-110636154D01*
X89527330Y-110650570D01*
X89541746Y-110666476D01*
X89554534Y-110683719D01*
X89565570Y-110702132D01*
X89574749Y-110721538D01*
X89581981Y-110741750D01*
X89587197Y-110762574D01*
X89590347Y-110783809D01*
X89591400Y-110805250D01*
X89591400Y-111317750D01*
X89590347Y-111339191D01*
X89587197Y-111360426D01*
X89581981Y-111381250D01*
X89574749Y-111401462D01*
X89565570Y-111420868D01*
X89554534Y-111439281D01*
X89541746Y-111456524D01*
X89527330Y-111472430D01*
X89511424Y-111486846D01*
X89494181Y-111499634D01*
X89475768Y-111510670D01*
X89456362Y-111519849D01*
X89436150Y-111527081D01*
X89415326Y-111532297D01*
X89394091Y-111535447D01*
X89372650Y-111536500D01*
X88935150Y-111536500D01*
X88913709Y-111535447D01*
X88892474Y-111532297D01*
X88871650Y-111527081D01*
X88851438Y-111519849D01*
X88832032Y-111510670D01*
X88813619Y-111499634D01*
X88796376Y-111486846D01*
X88780470Y-111472430D01*
X88766054Y-111456524D01*
X88753266Y-111439281D01*
X88742230Y-111420868D01*
X88733051Y-111401462D01*
X88725819Y-111381250D01*
X88720603Y-111360426D01*
X88717453Y-111339191D01*
X88716400Y-111317750D01*
X88716400Y-110805250D01*
X88717453Y-110783809D01*
X88720603Y-110762574D01*
X88725819Y-110741750D01*
X88733051Y-110721538D01*
X88742230Y-110702132D01*
X88753266Y-110683719D01*
X88766054Y-110666476D01*
X88780470Y-110650570D01*
X88796376Y-110636154D01*
X88813619Y-110623366D01*
X88832032Y-110612330D01*
X88851438Y-110603151D01*
X88871650Y-110595919D01*
X88892474Y-110590703D01*
X88913709Y-110587553D01*
X88935150Y-110586500D01*
X89372650Y-110586500D01*
X89394091Y-110587553D01*
X89394091Y-110587553D01*
G37*
D14*
X89153900Y-111061500D03*
D13*
G36*
X90969091Y-110587553D02*
G01*
X90990326Y-110590703D01*
X91011150Y-110595919D01*
X91031362Y-110603151D01*
X91050768Y-110612330D01*
X91069181Y-110623366D01*
X91086424Y-110636154D01*
X91102330Y-110650570D01*
X91116746Y-110666476D01*
X91129534Y-110683719D01*
X91140570Y-110702132D01*
X91149749Y-110721538D01*
X91156981Y-110741750D01*
X91162197Y-110762574D01*
X91165347Y-110783809D01*
X91166400Y-110805250D01*
X91166400Y-111317750D01*
X91165347Y-111339191D01*
X91162197Y-111360426D01*
X91156981Y-111381250D01*
X91149749Y-111401462D01*
X91140570Y-111420868D01*
X91129534Y-111439281D01*
X91116746Y-111456524D01*
X91102330Y-111472430D01*
X91086424Y-111486846D01*
X91069181Y-111499634D01*
X91050768Y-111510670D01*
X91031362Y-111519849D01*
X91011150Y-111527081D01*
X90990326Y-111532297D01*
X90969091Y-111535447D01*
X90947650Y-111536500D01*
X90510150Y-111536500D01*
X90488709Y-111535447D01*
X90467474Y-111532297D01*
X90446650Y-111527081D01*
X90426438Y-111519849D01*
X90407032Y-111510670D01*
X90388619Y-111499634D01*
X90371376Y-111486846D01*
X90355470Y-111472430D01*
X90341054Y-111456524D01*
X90328266Y-111439281D01*
X90317230Y-111420868D01*
X90308051Y-111401462D01*
X90300819Y-111381250D01*
X90295603Y-111360426D01*
X90292453Y-111339191D01*
X90291400Y-111317750D01*
X90291400Y-110805250D01*
X90292453Y-110783809D01*
X90295603Y-110762574D01*
X90300819Y-110741750D01*
X90308051Y-110721538D01*
X90317230Y-110702132D01*
X90328266Y-110683719D01*
X90341054Y-110666476D01*
X90355470Y-110650570D01*
X90371376Y-110636154D01*
X90388619Y-110623366D01*
X90407032Y-110612330D01*
X90426438Y-110603151D01*
X90446650Y-110595919D01*
X90467474Y-110590703D01*
X90488709Y-110587553D01*
X90510150Y-110586500D01*
X90947650Y-110586500D01*
X90969091Y-110587553D01*
X90969091Y-110587553D01*
G37*
D14*
X90728900Y-111061500D03*
D12*
X80886400Y-97518000D03*
X82486400Y-97518000D03*
X80886400Y-101618000D03*
X82486400Y-101618000D03*
M02*
