G04 #@! TF.GenerationSoftware,KiCad,Pcbnew,(5.1.4)-1*
G04 #@! TF.CreationDate,2020-11-25T16:32:24+01:00*
G04 #@! TF.ProjectId,iot_plant_watering_sensor_esp32,696f745f-706c-4616-9e74-5f7761746572,rev?*
G04 #@! TF.SameCoordinates,Original*
G04 #@! TF.FileFunction,Copper,L2,Bot*
G04 #@! TF.FilePolarity,Positive*
%FSLAX46Y46*%
G04 Gerber Fmt 4.6, Leading zero omitted, Abs format (unit mm)*
G04 Created by KiCad (PCBNEW (5.1.4)-1) date 2020-11-25 16:32:24*
%MOMM*%
%LPD*%
G04 APERTURE LIST*
%ADD10R,1.700000X1.700000*%
%ADD11O,1.700000X1.700000*%
%ADD12R,8.000000X8.000000*%
%ADD13R,6.000000X5.500000*%
%ADD14C,2.500000*%
%ADD15R,2.000000X2.000000*%
%ADD16R,0.900000X1.000000*%
%ADD17C,1.000000*%
%ADD18C,0.100000*%
%ADD19C,0.875000*%
%ADD20C,0.450000*%
%ADD21C,0.127000*%
%ADD22C,1.270000*%
%ADD23C,0.254000*%
%ADD24C,0.381000*%
G04 APERTURE END LIST*
D10*
X86487000Y-109156500D03*
D11*
X86487000Y-106616500D03*
X86487000Y-104076500D03*
X86487000Y-101536500D03*
X86487000Y-98996500D03*
D12*
X122428000Y-105029000D03*
D13*
X137728000Y-105029000D03*
X107128000Y-105029000D03*
D14*
X107151400Y-105003600D03*
X114771400Y-105003600D03*
X132421400Y-105003600D03*
X124801400Y-105003600D03*
D15*
X92187000Y-108839000D03*
X99187000Y-108839000D03*
X99187000Y-101839000D03*
X92187000Y-101839000D03*
D16*
X80861000Y-108313000D03*
X82461000Y-108313000D03*
X80861000Y-112413000D03*
X82461000Y-112413000D03*
D17*
X109987000Y-111506000D03*
X111887000Y-111506000D03*
D18*
G36*
X89368691Y-112238553D02*
G01*
X89389926Y-112241703D01*
X89410750Y-112246919D01*
X89430962Y-112254151D01*
X89450368Y-112263330D01*
X89468781Y-112274366D01*
X89486024Y-112287154D01*
X89501930Y-112301570D01*
X89516346Y-112317476D01*
X89529134Y-112334719D01*
X89540170Y-112353132D01*
X89549349Y-112372538D01*
X89556581Y-112392750D01*
X89561797Y-112413574D01*
X89564947Y-112434809D01*
X89566000Y-112456250D01*
X89566000Y-112968750D01*
X89564947Y-112990191D01*
X89561797Y-113011426D01*
X89556581Y-113032250D01*
X89549349Y-113052462D01*
X89540170Y-113071868D01*
X89529134Y-113090281D01*
X89516346Y-113107524D01*
X89501930Y-113123430D01*
X89486024Y-113137846D01*
X89468781Y-113150634D01*
X89450368Y-113161670D01*
X89430962Y-113170849D01*
X89410750Y-113178081D01*
X89389926Y-113183297D01*
X89368691Y-113186447D01*
X89347250Y-113187500D01*
X88909750Y-113187500D01*
X88888309Y-113186447D01*
X88867074Y-113183297D01*
X88846250Y-113178081D01*
X88826038Y-113170849D01*
X88806632Y-113161670D01*
X88788219Y-113150634D01*
X88770976Y-113137846D01*
X88755070Y-113123430D01*
X88740654Y-113107524D01*
X88727866Y-113090281D01*
X88716830Y-113071868D01*
X88707651Y-113052462D01*
X88700419Y-113032250D01*
X88695203Y-113011426D01*
X88692053Y-112990191D01*
X88691000Y-112968750D01*
X88691000Y-112456250D01*
X88692053Y-112434809D01*
X88695203Y-112413574D01*
X88700419Y-112392750D01*
X88707651Y-112372538D01*
X88716830Y-112353132D01*
X88727866Y-112334719D01*
X88740654Y-112317476D01*
X88755070Y-112301570D01*
X88770976Y-112287154D01*
X88788219Y-112274366D01*
X88806632Y-112263330D01*
X88826038Y-112254151D01*
X88846250Y-112246919D01*
X88867074Y-112241703D01*
X88888309Y-112238553D01*
X88909750Y-112237500D01*
X89347250Y-112237500D01*
X89368691Y-112238553D01*
X89368691Y-112238553D01*
G37*
D19*
X89128500Y-112712500D03*
D18*
G36*
X90943691Y-112238553D02*
G01*
X90964926Y-112241703D01*
X90985750Y-112246919D01*
X91005962Y-112254151D01*
X91025368Y-112263330D01*
X91043781Y-112274366D01*
X91061024Y-112287154D01*
X91076930Y-112301570D01*
X91091346Y-112317476D01*
X91104134Y-112334719D01*
X91115170Y-112353132D01*
X91124349Y-112372538D01*
X91131581Y-112392750D01*
X91136797Y-112413574D01*
X91139947Y-112434809D01*
X91141000Y-112456250D01*
X91141000Y-112968750D01*
X91139947Y-112990191D01*
X91136797Y-113011426D01*
X91131581Y-113032250D01*
X91124349Y-113052462D01*
X91115170Y-113071868D01*
X91104134Y-113090281D01*
X91091346Y-113107524D01*
X91076930Y-113123430D01*
X91061024Y-113137846D01*
X91043781Y-113150634D01*
X91025368Y-113161670D01*
X91005962Y-113170849D01*
X90985750Y-113178081D01*
X90964926Y-113183297D01*
X90943691Y-113186447D01*
X90922250Y-113187500D01*
X90484750Y-113187500D01*
X90463309Y-113186447D01*
X90442074Y-113183297D01*
X90421250Y-113178081D01*
X90401038Y-113170849D01*
X90381632Y-113161670D01*
X90363219Y-113150634D01*
X90345976Y-113137846D01*
X90330070Y-113123430D01*
X90315654Y-113107524D01*
X90302866Y-113090281D01*
X90291830Y-113071868D01*
X90282651Y-113052462D01*
X90275419Y-113032250D01*
X90270203Y-113011426D01*
X90267053Y-112990191D01*
X90266000Y-112968750D01*
X90266000Y-112456250D01*
X90267053Y-112434809D01*
X90270203Y-112413574D01*
X90275419Y-112392750D01*
X90282651Y-112372538D01*
X90291830Y-112353132D01*
X90302866Y-112334719D01*
X90315654Y-112317476D01*
X90330070Y-112301570D01*
X90345976Y-112287154D01*
X90363219Y-112274366D01*
X90381632Y-112263330D01*
X90401038Y-112254151D01*
X90421250Y-112246919D01*
X90442074Y-112241703D01*
X90463309Y-112238553D01*
X90484750Y-112237500D01*
X90922250Y-112237500D01*
X90943691Y-112238553D01*
X90943691Y-112238553D01*
G37*
D19*
X90703500Y-112712500D03*
D18*
G36*
X86320691Y-110587553D02*
G01*
X86341926Y-110590703D01*
X86362750Y-110595919D01*
X86382962Y-110603151D01*
X86402368Y-110612330D01*
X86420781Y-110623366D01*
X86438024Y-110636154D01*
X86453930Y-110650570D01*
X86468346Y-110666476D01*
X86481134Y-110683719D01*
X86492170Y-110702132D01*
X86501349Y-110721538D01*
X86508581Y-110741750D01*
X86513797Y-110762574D01*
X86516947Y-110783809D01*
X86518000Y-110805250D01*
X86518000Y-111317750D01*
X86516947Y-111339191D01*
X86513797Y-111360426D01*
X86508581Y-111381250D01*
X86501349Y-111401462D01*
X86492170Y-111420868D01*
X86481134Y-111439281D01*
X86468346Y-111456524D01*
X86453930Y-111472430D01*
X86438024Y-111486846D01*
X86420781Y-111499634D01*
X86402368Y-111510670D01*
X86382962Y-111519849D01*
X86362750Y-111527081D01*
X86341926Y-111532297D01*
X86320691Y-111535447D01*
X86299250Y-111536500D01*
X85861750Y-111536500D01*
X85840309Y-111535447D01*
X85819074Y-111532297D01*
X85798250Y-111527081D01*
X85778038Y-111519849D01*
X85758632Y-111510670D01*
X85740219Y-111499634D01*
X85722976Y-111486846D01*
X85707070Y-111472430D01*
X85692654Y-111456524D01*
X85679866Y-111439281D01*
X85668830Y-111420868D01*
X85659651Y-111401462D01*
X85652419Y-111381250D01*
X85647203Y-111360426D01*
X85644053Y-111339191D01*
X85643000Y-111317750D01*
X85643000Y-110805250D01*
X85644053Y-110783809D01*
X85647203Y-110762574D01*
X85652419Y-110741750D01*
X85659651Y-110721538D01*
X85668830Y-110702132D01*
X85679866Y-110683719D01*
X85692654Y-110666476D01*
X85707070Y-110650570D01*
X85722976Y-110636154D01*
X85740219Y-110623366D01*
X85758632Y-110612330D01*
X85778038Y-110603151D01*
X85798250Y-110595919D01*
X85819074Y-110590703D01*
X85840309Y-110587553D01*
X85861750Y-110586500D01*
X86299250Y-110586500D01*
X86320691Y-110587553D01*
X86320691Y-110587553D01*
G37*
D19*
X86080500Y-111061500D03*
D18*
G36*
X87895691Y-110587553D02*
G01*
X87916926Y-110590703D01*
X87937750Y-110595919D01*
X87957962Y-110603151D01*
X87977368Y-110612330D01*
X87995781Y-110623366D01*
X88013024Y-110636154D01*
X88028930Y-110650570D01*
X88043346Y-110666476D01*
X88056134Y-110683719D01*
X88067170Y-110702132D01*
X88076349Y-110721538D01*
X88083581Y-110741750D01*
X88088797Y-110762574D01*
X88091947Y-110783809D01*
X88093000Y-110805250D01*
X88093000Y-111317750D01*
X88091947Y-111339191D01*
X88088797Y-111360426D01*
X88083581Y-111381250D01*
X88076349Y-111401462D01*
X88067170Y-111420868D01*
X88056134Y-111439281D01*
X88043346Y-111456524D01*
X88028930Y-111472430D01*
X88013024Y-111486846D01*
X87995781Y-111499634D01*
X87977368Y-111510670D01*
X87957962Y-111519849D01*
X87937750Y-111527081D01*
X87916926Y-111532297D01*
X87895691Y-111535447D01*
X87874250Y-111536500D01*
X87436750Y-111536500D01*
X87415309Y-111535447D01*
X87394074Y-111532297D01*
X87373250Y-111527081D01*
X87353038Y-111519849D01*
X87333632Y-111510670D01*
X87315219Y-111499634D01*
X87297976Y-111486846D01*
X87282070Y-111472430D01*
X87267654Y-111456524D01*
X87254866Y-111439281D01*
X87243830Y-111420868D01*
X87234651Y-111401462D01*
X87227419Y-111381250D01*
X87222203Y-111360426D01*
X87219053Y-111339191D01*
X87218000Y-111317750D01*
X87218000Y-110805250D01*
X87219053Y-110783809D01*
X87222203Y-110762574D01*
X87227419Y-110741750D01*
X87234651Y-110721538D01*
X87243830Y-110702132D01*
X87254866Y-110683719D01*
X87267654Y-110666476D01*
X87282070Y-110650570D01*
X87297976Y-110636154D01*
X87315219Y-110623366D01*
X87333632Y-110612330D01*
X87353038Y-110603151D01*
X87373250Y-110595919D01*
X87394074Y-110590703D01*
X87415309Y-110587553D01*
X87436750Y-110586500D01*
X87874250Y-110586500D01*
X87895691Y-110587553D01*
X87895691Y-110587553D01*
G37*
D19*
X87655500Y-111061500D03*
D18*
G36*
X86320691Y-112238553D02*
G01*
X86341926Y-112241703D01*
X86362750Y-112246919D01*
X86382962Y-112254151D01*
X86402368Y-112263330D01*
X86420781Y-112274366D01*
X86438024Y-112287154D01*
X86453930Y-112301570D01*
X86468346Y-112317476D01*
X86481134Y-112334719D01*
X86492170Y-112353132D01*
X86501349Y-112372538D01*
X86508581Y-112392750D01*
X86513797Y-112413574D01*
X86516947Y-112434809D01*
X86518000Y-112456250D01*
X86518000Y-112968750D01*
X86516947Y-112990191D01*
X86513797Y-113011426D01*
X86508581Y-113032250D01*
X86501349Y-113052462D01*
X86492170Y-113071868D01*
X86481134Y-113090281D01*
X86468346Y-113107524D01*
X86453930Y-113123430D01*
X86438024Y-113137846D01*
X86420781Y-113150634D01*
X86402368Y-113161670D01*
X86382962Y-113170849D01*
X86362750Y-113178081D01*
X86341926Y-113183297D01*
X86320691Y-113186447D01*
X86299250Y-113187500D01*
X85861750Y-113187500D01*
X85840309Y-113186447D01*
X85819074Y-113183297D01*
X85798250Y-113178081D01*
X85778038Y-113170849D01*
X85758632Y-113161670D01*
X85740219Y-113150634D01*
X85722976Y-113137846D01*
X85707070Y-113123430D01*
X85692654Y-113107524D01*
X85679866Y-113090281D01*
X85668830Y-113071868D01*
X85659651Y-113052462D01*
X85652419Y-113032250D01*
X85647203Y-113011426D01*
X85644053Y-112990191D01*
X85643000Y-112968750D01*
X85643000Y-112456250D01*
X85644053Y-112434809D01*
X85647203Y-112413574D01*
X85652419Y-112392750D01*
X85659651Y-112372538D01*
X85668830Y-112353132D01*
X85679866Y-112334719D01*
X85692654Y-112317476D01*
X85707070Y-112301570D01*
X85722976Y-112287154D01*
X85740219Y-112274366D01*
X85758632Y-112263330D01*
X85778038Y-112254151D01*
X85798250Y-112246919D01*
X85819074Y-112241703D01*
X85840309Y-112238553D01*
X85861750Y-112237500D01*
X86299250Y-112237500D01*
X86320691Y-112238553D01*
X86320691Y-112238553D01*
G37*
D19*
X86080500Y-112712500D03*
D18*
G36*
X87895691Y-112238553D02*
G01*
X87916926Y-112241703D01*
X87937750Y-112246919D01*
X87957962Y-112254151D01*
X87977368Y-112263330D01*
X87995781Y-112274366D01*
X88013024Y-112287154D01*
X88028930Y-112301570D01*
X88043346Y-112317476D01*
X88056134Y-112334719D01*
X88067170Y-112353132D01*
X88076349Y-112372538D01*
X88083581Y-112392750D01*
X88088797Y-112413574D01*
X88091947Y-112434809D01*
X88093000Y-112456250D01*
X88093000Y-112968750D01*
X88091947Y-112990191D01*
X88088797Y-113011426D01*
X88083581Y-113032250D01*
X88076349Y-113052462D01*
X88067170Y-113071868D01*
X88056134Y-113090281D01*
X88043346Y-113107524D01*
X88028930Y-113123430D01*
X88013024Y-113137846D01*
X87995781Y-113150634D01*
X87977368Y-113161670D01*
X87957962Y-113170849D01*
X87937750Y-113178081D01*
X87916926Y-113183297D01*
X87895691Y-113186447D01*
X87874250Y-113187500D01*
X87436750Y-113187500D01*
X87415309Y-113186447D01*
X87394074Y-113183297D01*
X87373250Y-113178081D01*
X87353038Y-113170849D01*
X87333632Y-113161670D01*
X87315219Y-113150634D01*
X87297976Y-113137846D01*
X87282070Y-113123430D01*
X87267654Y-113107524D01*
X87254866Y-113090281D01*
X87243830Y-113071868D01*
X87234651Y-113052462D01*
X87227419Y-113032250D01*
X87222203Y-113011426D01*
X87219053Y-112990191D01*
X87218000Y-112968750D01*
X87218000Y-112456250D01*
X87219053Y-112434809D01*
X87222203Y-112413574D01*
X87227419Y-112392750D01*
X87234651Y-112372538D01*
X87243830Y-112353132D01*
X87254866Y-112334719D01*
X87267654Y-112317476D01*
X87282070Y-112301570D01*
X87297976Y-112287154D01*
X87315219Y-112274366D01*
X87333632Y-112263330D01*
X87353038Y-112254151D01*
X87373250Y-112246919D01*
X87394074Y-112241703D01*
X87415309Y-112238553D01*
X87436750Y-112237500D01*
X87874250Y-112237500D01*
X87895691Y-112238553D01*
X87895691Y-112238553D01*
G37*
D19*
X87655500Y-112712500D03*
D18*
G36*
X89394091Y-110587553D02*
G01*
X89415326Y-110590703D01*
X89436150Y-110595919D01*
X89456362Y-110603151D01*
X89475768Y-110612330D01*
X89494181Y-110623366D01*
X89511424Y-110636154D01*
X89527330Y-110650570D01*
X89541746Y-110666476D01*
X89554534Y-110683719D01*
X89565570Y-110702132D01*
X89574749Y-110721538D01*
X89581981Y-110741750D01*
X89587197Y-110762574D01*
X89590347Y-110783809D01*
X89591400Y-110805250D01*
X89591400Y-111317750D01*
X89590347Y-111339191D01*
X89587197Y-111360426D01*
X89581981Y-111381250D01*
X89574749Y-111401462D01*
X89565570Y-111420868D01*
X89554534Y-111439281D01*
X89541746Y-111456524D01*
X89527330Y-111472430D01*
X89511424Y-111486846D01*
X89494181Y-111499634D01*
X89475768Y-111510670D01*
X89456362Y-111519849D01*
X89436150Y-111527081D01*
X89415326Y-111532297D01*
X89394091Y-111535447D01*
X89372650Y-111536500D01*
X88935150Y-111536500D01*
X88913709Y-111535447D01*
X88892474Y-111532297D01*
X88871650Y-111527081D01*
X88851438Y-111519849D01*
X88832032Y-111510670D01*
X88813619Y-111499634D01*
X88796376Y-111486846D01*
X88780470Y-111472430D01*
X88766054Y-111456524D01*
X88753266Y-111439281D01*
X88742230Y-111420868D01*
X88733051Y-111401462D01*
X88725819Y-111381250D01*
X88720603Y-111360426D01*
X88717453Y-111339191D01*
X88716400Y-111317750D01*
X88716400Y-110805250D01*
X88717453Y-110783809D01*
X88720603Y-110762574D01*
X88725819Y-110741750D01*
X88733051Y-110721538D01*
X88742230Y-110702132D01*
X88753266Y-110683719D01*
X88766054Y-110666476D01*
X88780470Y-110650570D01*
X88796376Y-110636154D01*
X88813619Y-110623366D01*
X88832032Y-110612330D01*
X88851438Y-110603151D01*
X88871650Y-110595919D01*
X88892474Y-110590703D01*
X88913709Y-110587553D01*
X88935150Y-110586500D01*
X89372650Y-110586500D01*
X89394091Y-110587553D01*
X89394091Y-110587553D01*
G37*
D19*
X89153900Y-111061500D03*
D18*
G36*
X90969091Y-110587553D02*
G01*
X90990326Y-110590703D01*
X91011150Y-110595919D01*
X91031362Y-110603151D01*
X91050768Y-110612330D01*
X91069181Y-110623366D01*
X91086424Y-110636154D01*
X91102330Y-110650570D01*
X91116746Y-110666476D01*
X91129534Y-110683719D01*
X91140570Y-110702132D01*
X91149749Y-110721538D01*
X91156981Y-110741750D01*
X91162197Y-110762574D01*
X91165347Y-110783809D01*
X91166400Y-110805250D01*
X91166400Y-111317750D01*
X91165347Y-111339191D01*
X91162197Y-111360426D01*
X91156981Y-111381250D01*
X91149749Y-111401462D01*
X91140570Y-111420868D01*
X91129534Y-111439281D01*
X91116746Y-111456524D01*
X91102330Y-111472430D01*
X91086424Y-111486846D01*
X91069181Y-111499634D01*
X91050768Y-111510670D01*
X91031362Y-111519849D01*
X91011150Y-111527081D01*
X90990326Y-111532297D01*
X90969091Y-111535447D01*
X90947650Y-111536500D01*
X90510150Y-111536500D01*
X90488709Y-111535447D01*
X90467474Y-111532297D01*
X90446650Y-111527081D01*
X90426438Y-111519849D01*
X90407032Y-111510670D01*
X90388619Y-111499634D01*
X90371376Y-111486846D01*
X90355470Y-111472430D01*
X90341054Y-111456524D01*
X90328266Y-111439281D01*
X90317230Y-111420868D01*
X90308051Y-111401462D01*
X90300819Y-111381250D01*
X90295603Y-111360426D01*
X90292453Y-111339191D01*
X90291400Y-111317750D01*
X90291400Y-110805250D01*
X90292453Y-110783809D01*
X90295603Y-110762574D01*
X90300819Y-110741750D01*
X90308051Y-110721538D01*
X90317230Y-110702132D01*
X90328266Y-110683719D01*
X90341054Y-110666476D01*
X90355470Y-110650570D01*
X90371376Y-110636154D01*
X90388619Y-110623366D01*
X90407032Y-110612330D01*
X90426438Y-110603151D01*
X90446650Y-110595919D01*
X90467474Y-110590703D01*
X90488709Y-110587553D01*
X90510150Y-110586500D01*
X90947650Y-110586500D01*
X90969091Y-110587553D01*
X90969091Y-110587553D01*
G37*
D19*
X90728900Y-111061500D03*
D16*
X80886400Y-97518000D03*
X82486400Y-97518000D03*
X80886400Y-101618000D03*
X82486400Y-101618000D03*
D20*
X118872000Y-102108000D03*
X143002000Y-106934000D03*
X122428000Y-102108000D03*
X120650000Y-106362500D03*
X117094000Y-106045000D03*
X117348000Y-107950000D03*
X117348000Y-109347000D03*
X110998000Y-109093000D03*
X103759000Y-112014000D03*
X118872000Y-106299000D03*
X91376500Y-99060000D03*
X88646000Y-100965000D03*
X117919500Y-111506000D03*
X113093500Y-111442500D03*
X107315000Y-108966000D03*
X108902500Y-109093000D03*
X141033500Y-108648500D03*
X141287500Y-106934000D03*
X100520500Y-105346500D03*
X94234000Y-110363000D03*
X93345000Y-111760000D03*
X98298000Y-105283000D03*
X101092000Y-107950000D03*
X104140000Y-113411000D03*
X125730000Y-110045504D03*
X100838000Y-110264990D03*
X101727000Y-102616000D03*
X112776000Y-99314000D03*
X139319000Y-107569000D03*
X137541000Y-98425000D03*
X138430000Y-98425000D03*
X139319000Y-98425000D03*
X139319000Y-106680000D03*
X139319000Y-104775000D03*
X130048000Y-100076000D03*
X124333000Y-100076000D03*
X89408000Y-106997500D03*
X90741500Y-111823500D03*
X143764000Y-108839000D03*
X124303265Y-109595489D03*
X101092000Y-109283500D03*
X84899500Y-108140500D03*
X103505000Y-96520000D03*
X126111000Y-111633000D03*
X107950000Y-111760000D03*
X95250000Y-111379000D03*
X124460000Y-110553500D03*
X121539000Y-98425000D03*
X87630000Y-111823500D03*
X108331000Y-99949000D03*
D21*
X82486400Y-101618000D02*
X82486400Y-97518000D01*
X83063400Y-97518000D02*
X83081400Y-97536000D01*
X82486400Y-97518000D02*
X83063400Y-97518000D01*
X83081400Y-97536000D02*
X85661500Y-97536000D01*
D22*
X132396000Y-105029000D02*
X132421400Y-105003600D01*
X122428000Y-105029000D02*
X132396000Y-105029000D01*
D23*
X124166579Y-110074499D02*
X123976088Y-110264990D01*
X125382801Y-110074499D02*
X124166579Y-110074499D01*
X101156198Y-110264990D02*
X100838000Y-110264990D01*
X123976088Y-110264990D02*
X101156198Y-110264990D01*
X125730000Y-110045504D02*
X125411796Y-110045504D01*
X125411796Y-110045504D02*
X125382801Y-110074499D01*
D21*
X110998000Y-101092000D02*
X112776000Y-99314000D01*
X101727000Y-102616000D02*
X103251000Y-101092000D01*
X103251000Y-101092000D02*
X110998000Y-101092000D01*
X80886400Y-107881200D02*
X80886400Y-111981200D01*
D23*
X85284919Y-104076500D02*
X86487000Y-104076500D01*
X85047500Y-104076500D02*
X85284919Y-104076500D01*
X80861000Y-108263000D02*
X85047500Y-104076500D01*
X80861000Y-108313000D02*
X80861000Y-108263000D01*
X106175500Y-104076500D02*
X107128000Y-105029000D01*
X107126000Y-105029000D02*
X107128000Y-105029000D01*
X105157500Y-106997500D02*
X107126000Y-105029000D01*
X89408000Y-106997500D02*
X105157500Y-106997500D01*
X137604500Y-105029000D02*
X134874000Y-102298500D01*
X137728000Y-105029000D02*
X137604500Y-105029000D01*
X90741500Y-112674500D02*
X90703500Y-112712500D01*
X90741500Y-111823500D02*
X90741500Y-112674500D01*
X90741500Y-111074100D02*
X90728900Y-111061500D01*
X90741500Y-111823500D02*
X90741500Y-111074100D01*
D21*
X125530559Y-109566499D02*
X125501569Y-109595489D01*
X124621463Y-109595489D02*
X124303265Y-109595489D01*
X143036501Y-109566499D02*
X125530559Y-109566499D01*
X143764000Y-108839000D02*
X143036501Y-109566499D01*
X125501569Y-109595489D02*
X124621463Y-109595489D01*
X101571001Y-109762501D02*
X101092000Y-109283500D01*
X117547441Y-109762501D02*
X101571001Y-109762501D01*
X124303265Y-109595489D02*
X117714453Y-109595489D01*
X117714453Y-109595489D02*
X117547441Y-109762501D01*
X82633500Y-108140500D02*
X82461000Y-108313000D01*
X84899500Y-108140500D02*
X82633500Y-108140500D01*
X82461000Y-108313000D02*
X82461000Y-112413000D01*
X80886400Y-97468000D02*
X80886400Y-97518000D01*
X82059399Y-96295001D02*
X80886400Y-97468000D01*
X103280001Y-96295001D02*
X82059399Y-96295001D01*
X103505000Y-96520000D02*
X103280001Y-96295001D01*
X80886400Y-97518000D02*
X80886400Y-101618000D01*
D23*
X126111000Y-111633000D02*
X125412495Y-112331505D01*
X108174999Y-111984999D02*
X107950000Y-111760000D01*
X108521505Y-112331505D02*
X108174999Y-111984999D01*
X125412495Y-112331505D02*
X108521505Y-112331505D01*
D21*
X124333000Y-110680500D02*
X124460000Y-110553500D01*
X95250000Y-111379000D02*
X95948500Y-110680500D01*
X95948500Y-110680500D02*
X124333000Y-110680500D01*
D24*
X87655500Y-110486500D02*
X88011000Y-110131000D01*
X87655500Y-111061500D02*
X87655500Y-110486500D01*
X87630000Y-111087000D02*
X87655500Y-111061500D01*
X87630000Y-111823500D02*
X87630000Y-111087000D01*
D21*
X99187000Y-100712000D02*
X99187000Y-101839000D01*
X99950000Y-99949000D02*
X99187000Y-100712000D01*
X108331000Y-99949000D02*
X99950000Y-99949000D01*
G36*
X104235213Y-95270900D02*
G01*
X104584853Y-95305183D01*
X104908681Y-95402952D01*
X105207349Y-95561757D01*
X105472086Y-95777671D01*
X105647930Y-95979706D01*
X105934027Y-96308418D01*
X105949116Y-96322670D01*
X105963636Y-96337497D01*
X105966492Y-96339860D01*
X106420220Y-96709912D01*
X106440296Y-96723250D01*
X106460118Y-96736823D01*
X106463379Y-96738587D01*
X106980343Y-97013461D01*
X107002593Y-97022632D01*
X107024709Y-97032111D01*
X107028246Y-97033206D01*
X107028252Y-97033208D01*
X107588758Y-97202434D01*
X107612373Y-97207110D01*
X107635901Y-97212111D01*
X107639586Y-97212499D01*
X107639588Y-97212499D01*
X108222290Y-97269634D01*
X108222298Y-97269634D01*
X108235163Y-97270901D01*
X202936388Y-97270898D01*
X218647091Y-105005399D01*
X202936390Y-112739899D01*
X108235162Y-112739899D01*
X108225571Y-112740844D01*
X107794288Y-112772251D01*
X107773822Y-112775773D01*
X107753259Y-112778491D01*
X107749655Y-112779358D01*
X107181377Y-112920309D01*
X107158655Y-112928369D01*
X107135909Y-112936081D01*
X107132542Y-112937631D01*
X106602464Y-113186278D01*
X106581787Y-113198569D01*
X106560925Y-113210580D01*
X106557929Y-113212752D01*
X106557923Y-113212755D01*
X106557918Y-113212759D01*
X106086236Y-113559626D01*
X106068326Y-113575712D01*
X106050208Y-113591534D01*
X106047686Y-113594251D01*
X105652359Y-114026131D01*
X105406384Y-114294850D01*
X105133871Y-114495252D01*
X104827623Y-114638906D01*
X104496049Y-114721147D01*
X104238543Y-114739899D01*
X84772500Y-114739899D01*
X84772500Y-108537628D01*
X84778303Y-108540032D01*
X84858577Y-108556000D01*
X84940423Y-108556000D01*
X85020697Y-108540032D01*
X85096313Y-108508711D01*
X85164366Y-108463240D01*
X85222240Y-108405366D01*
X85267711Y-108337313D01*
X85299032Y-108261697D01*
X85315000Y-108181423D01*
X85315000Y-108099577D01*
X85299032Y-108019303D01*
X85267711Y-107943687D01*
X85222240Y-107875634D01*
X85164366Y-107817760D01*
X85096313Y-107772289D01*
X85020697Y-107740968D01*
X84940423Y-107725000D01*
X84858577Y-107725000D01*
X84778303Y-107740968D01*
X84772500Y-107743372D01*
X84772500Y-106616500D01*
X85441466Y-106616500D01*
X85461556Y-106820474D01*
X85521053Y-107016609D01*
X85617670Y-107197368D01*
X85747696Y-107355804D01*
X85906132Y-107485830D01*
X86086891Y-107582447D01*
X86283026Y-107641944D01*
X86435890Y-107657000D01*
X86538110Y-107657000D01*
X86690974Y-107641944D01*
X86887109Y-107582447D01*
X87067868Y-107485830D01*
X87226304Y-107355804D01*
X87356330Y-107197368D01*
X87376000Y-107160568D01*
X87376000Y-110077250D01*
X87378345Y-110107050D01*
X87394328Y-110207962D01*
X87384790Y-110215789D01*
X87366866Y-110237630D01*
X87337178Y-110273804D01*
X87318017Y-110309652D01*
X87299099Y-110317488D01*
X87256030Y-110342354D01*
X87152477Y-110421814D01*
X87117314Y-110456977D01*
X87037854Y-110560530D01*
X87012988Y-110603599D01*
X86963038Y-110724189D01*
X86950167Y-110772225D01*
X86933130Y-110901635D01*
X86931500Y-110926500D01*
X86931500Y-113411000D01*
X86935161Y-113448166D01*
X86946001Y-113483903D01*
X86964600Y-113528804D01*
X86982203Y-113561736D01*
X87005894Y-113590604D01*
X87034762Y-113614295D01*
X87067696Y-113631900D01*
X87112597Y-113650499D01*
X87148335Y-113661340D01*
X87185500Y-113665000D01*
X89416000Y-113665000D01*
X89440865Y-113663370D01*
X89570275Y-113646333D01*
X89618311Y-113633462D01*
X89738901Y-113583512D01*
X89781970Y-113558646D01*
X89885523Y-113479186D01*
X89920686Y-113444023D01*
X90000146Y-113340470D01*
X90025012Y-113297401D01*
X90074962Y-113176811D01*
X90087833Y-113128775D01*
X90093552Y-113085335D01*
X90105801Y-113125716D01*
X90143705Y-113196629D01*
X90194715Y-113258785D01*
X90256871Y-113309795D01*
X90327784Y-113347699D01*
X90404730Y-113371040D01*
X90484750Y-113378921D01*
X90922250Y-113378921D01*
X91002270Y-113371040D01*
X91079216Y-113347699D01*
X91150129Y-113309795D01*
X91212285Y-113258785D01*
X91263295Y-113196629D01*
X91301199Y-113125716D01*
X91324540Y-113048770D01*
X91332421Y-112968750D01*
X91332421Y-112456250D01*
X91324540Y-112376230D01*
X91301199Y-112299284D01*
X91263295Y-112228371D01*
X91212285Y-112166215D01*
X91150129Y-112115205D01*
X91079216Y-112077301D01*
X91072911Y-112075388D01*
X91109711Y-112020313D01*
X91141032Y-111944697D01*
X91157000Y-111864423D01*
X91157000Y-111782577D01*
X91141032Y-111702303D01*
X91132530Y-111681778D01*
X91175529Y-111658795D01*
X91237685Y-111607785D01*
X91288695Y-111545629D01*
X91326599Y-111474716D01*
X91349940Y-111397770D01*
X91355819Y-111338077D01*
X94834500Y-111338077D01*
X94834500Y-111419923D01*
X94850468Y-111500197D01*
X94881789Y-111575813D01*
X94927260Y-111643866D01*
X94985134Y-111701740D01*
X95053187Y-111747211D01*
X95128803Y-111778532D01*
X95209077Y-111794500D01*
X95290923Y-111794500D01*
X95371197Y-111778532D01*
X95446813Y-111747211D01*
X95514866Y-111701740D01*
X95572740Y-111643866D01*
X95618211Y-111575813D01*
X95649532Y-111500197D01*
X95665500Y-111419923D01*
X95665500Y-111338077D01*
X95662950Y-111325260D01*
X96053710Y-110934500D01*
X109599444Y-110934500D01*
X109546832Y-110969654D01*
X109450654Y-111065832D01*
X109375087Y-111178926D01*
X109323036Y-111304589D01*
X109296500Y-111437992D01*
X109296500Y-111574008D01*
X109323036Y-111707411D01*
X109375087Y-111833074D01*
X109450654Y-111946168D01*
X109518491Y-112014005D01*
X108653018Y-112014005D01*
X108410537Y-111771525D01*
X108410533Y-111771520D01*
X108365500Y-111726487D01*
X108365500Y-111719077D01*
X108349532Y-111638803D01*
X108318211Y-111563187D01*
X108272740Y-111495134D01*
X108214866Y-111437260D01*
X108146813Y-111391789D01*
X108071197Y-111360468D01*
X107990923Y-111344500D01*
X107909077Y-111344500D01*
X107828803Y-111360468D01*
X107753187Y-111391789D01*
X107685134Y-111437260D01*
X107627260Y-111495134D01*
X107581789Y-111563187D01*
X107550468Y-111638803D01*
X107534500Y-111719077D01*
X107534500Y-111800923D01*
X107550468Y-111881197D01*
X107581789Y-111956813D01*
X107627260Y-112024866D01*
X107685134Y-112082740D01*
X107753187Y-112128211D01*
X107828803Y-112159532D01*
X107909077Y-112175500D01*
X107916487Y-112175500D01*
X107961520Y-112220533D01*
X107961525Y-112220537D01*
X108285968Y-112544980D01*
X108295912Y-112557098D01*
X108344258Y-112596774D01*
X108399415Y-112626256D01*
X108459264Y-112644411D01*
X108505909Y-112649005D01*
X108505911Y-112649005D01*
X108521504Y-112650541D01*
X108537097Y-112649005D01*
X125396899Y-112649005D01*
X125412495Y-112650541D01*
X125428091Y-112649005D01*
X125474736Y-112644411D01*
X125534585Y-112626256D01*
X125589742Y-112596774D01*
X125638088Y-112557098D01*
X125648037Y-112544975D01*
X126144513Y-112048500D01*
X126151923Y-112048500D01*
X126232197Y-112032532D01*
X126307813Y-112001211D01*
X126375866Y-111955740D01*
X126433740Y-111897866D01*
X126479211Y-111829813D01*
X126510532Y-111754197D01*
X126526500Y-111673923D01*
X126526500Y-111592077D01*
X126510532Y-111511803D01*
X126479211Y-111436187D01*
X126433740Y-111368134D01*
X126375866Y-111310260D01*
X126307813Y-111264789D01*
X126232197Y-111233468D01*
X126151923Y-111217500D01*
X126070077Y-111217500D01*
X125989803Y-111233468D01*
X125914187Y-111264789D01*
X125846134Y-111310260D01*
X125788260Y-111368134D01*
X125742789Y-111436187D01*
X125711468Y-111511803D01*
X125695500Y-111592077D01*
X125695500Y-111599487D01*
X125280983Y-112014005D01*
X112355509Y-112014005D01*
X112423346Y-111946168D01*
X112498913Y-111833074D01*
X112550964Y-111707411D01*
X112577500Y-111574008D01*
X112577500Y-111437992D01*
X112550964Y-111304589D01*
X112498913Y-111178926D01*
X112423346Y-111065832D01*
X112327168Y-110969654D01*
X112274556Y-110934500D01*
X124294063Y-110934500D01*
X124338803Y-110953032D01*
X124419077Y-110969000D01*
X124500923Y-110969000D01*
X124581197Y-110953032D01*
X124656813Y-110921711D01*
X124724866Y-110876240D01*
X124782740Y-110818366D01*
X124828211Y-110750313D01*
X124859532Y-110674697D01*
X124875500Y-110594423D01*
X124875500Y-110512577D01*
X124859532Y-110432303D01*
X124842838Y-110391999D01*
X125367205Y-110391999D01*
X125382801Y-110393535D01*
X125398397Y-110391999D01*
X125445042Y-110387405D01*
X125478583Y-110377230D01*
X125533187Y-110413715D01*
X125608803Y-110445036D01*
X125689077Y-110461004D01*
X125770923Y-110461004D01*
X125851197Y-110445036D01*
X125926813Y-110413715D01*
X125994866Y-110368244D01*
X126052740Y-110310370D01*
X126098211Y-110242317D01*
X126129532Y-110166701D01*
X126145500Y-110086427D01*
X126145500Y-110004581D01*
X126129532Y-109924307D01*
X126098211Y-109848691D01*
X126079374Y-109820499D01*
X143024043Y-109820499D01*
X143036501Y-109821726D01*
X143048959Y-109820499D01*
X143048970Y-109820499D01*
X143086294Y-109816823D01*
X143134173Y-109802299D01*
X143178298Y-109778713D01*
X143198052Y-109762501D01*
X143207289Y-109754921D01*
X143207292Y-109754918D01*
X143216974Y-109746972D01*
X143224919Y-109737291D01*
X143710260Y-109251950D01*
X143723077Y-109254500D01*
X143804923Y-109254500D01*
X143885197Y-109238532D01*
X143960813Y-109207211D01*
X144028866Y-109161740D01*
X144086740Y-109103866D01*
X144132211Y-109035813D01*
X144163532Y-108960197D01*
X144179500Y-108879923D01*
X144179500Y-108798077D01*
X144163532Y-108717803D01*
X144132211Y-108642187D01*
X144086740Y-108574134D01*
X144028866Y-108516260D01*
X143960813Y-108470789D01*
X143885197Y-108439468D01*
X143804923Y-108423500D01*
X143723077Y-108423500D01*
X143642803Y-108439468D01*
X143567187Y-108470789D01*
X143499134Y-108516260D01*
X143441260Y-108574134D01*
X143395789Y-108642187D01*
X143364468Y-108717803D01*
X143348500Y-108798077D01*
X143348500Y-108879923D01*
X143351050Y-108892740D01*
X142931291Y-109312499D01*
X125543016Y-109312499D01*
X125530558Y-109311272D01*
X125518100Y-109312499D01*
X125518090Y-109312499D01*
X125480766Y-109316175D01*
X125432887Y-109330699D01*
X125412701Y-109341489D01*
X124633265Y-109341489D01*
X124626005Y-109330623D01*
X124568131Y-109272749D01*
X124500078Y-109227278D01*
X124424462Y-109195957D01*
X124344188Y-109179989D01*
X124262342Y-109179989D01*
X124182068Y-109195957D01*
X124106452Y-109227278D01*
X124038399Y-109272749D01*
X123980525Y-109330623D01*
X123973265Y-109341489D01*
X117726911Y-109341489D01*
X117714453Y-109340262D01*
X117701995Y-109341489D01*
X117701984Y-109341489D01*
X117664660Y-109345165D01*
X117616781Y-109359689D01*
X117601411Y-109367904D01*
X117572656Y-109383274D01*
X117553890Y-109398676D01*
X117533980Y-109415016D01*
X117526032Y-109424701D01*
X117442231Y-109508501D01*
X101676212Y-109508501D01*
X101504950Y-109337240D01*
X101507500Y-109324423D01*
X101507500Y-109242577D01*
X101491532Y-109162303D01*
X101460211Y-109086687D01*
X101414740Y-109018634D01*
X101356866Y-108960760D01*
X101288813Y-108915289D01*
X101213197Y-108883968D01*
X101132923Y-108868000D01*
X101051077Y-108868000D01*
X100970803Y-108883968D01*
X100895187Y-108915289D01*
X100827134Y-108960760D01*
X100769260Y-109018634D01*
X100723789Y-109086687D01*
X100692468Y-109162303D01*
X100676500Y-109242577D01*
X100676500Y-109324423D01*
X100692468Y-109404697D01*
X100723789Y-109480313D01*
X100769260Y-109548366D01*
X100827134Y-109606240D01*
X100895187Y-109651711D01*
X100970803Y-109683032D01*
X101051077Y-109699000D01*
X101132923Y-109699000D01*
X101145740Y-109696450D01*
X101382587Y-109933298D01*
X101390528Y-109942974D01*
X101396031Y-109947490D01*
X101108106Y-109947490D01*
X101102866Y-109942250D01*
X101034813Y-109896779D01*
X100959197Y-109865458D01*
X100878923Y-109849490D01*
X100797077Y-109849490D01*
X100716803Y-109865458D01*
X100641187Y-109896779D01*
X100573134Y-109942250D01*
X100515260Y-110000124D01*
X100469789Y-110068177D01*
X100438468Y-110143793D01*
X100422500Y-110224067D01*
X100422500Y-110305913D01*
X100438468Y-110386187D01*
X100455166Y-110426500D01*
X95960957Y-110426500D01*
X95948499Y-110425273D01*
X95936041Y-110426500D01*
X95936031Y-110426500D01*
X95898707Y-110430176D01*
X95850828Y-110444700D01*
X95806703Y-110468286D01*
X95777711Y-110492079D01*
X95777709Y-110492081D01*
X95768027Y-110500027D01*
X95760081Y-110509709D01*
X95303740Y-110966050D01*
X95290923Y-110963500D01*
X95209077Y-110963500D01*
X95128803Y-110979468D01*
X95053187Y-111010789D01*
X94985134Y-111056260D01*
X94927260Y-111114134D01*
X94881789Y-111182187D01*
X94850468Y-111257803D01*
X94834500Y-111338077D01*
X91355819Y-111338077D01*
X91357821Y-111317750D01*
X91357821Y-110805250D01*
X91349940Y-110725230D01*
X91326599Y-110648284D01*
X91288695Y-110577371D01*
X91237685Y-110515215D01*
X91175529Y-110464205D01*
X91104616Y-110426301D01*
X91027670Y-110402960D01*
X90947650Y-110395079D01*
X90510150Y-110395079D01*
X90430130Y-110402960D01*
X90353184Y-110426301D01*
X90282271Y-110464205D01*
X90220115Y-110515215D01*
X90169105Y-110577371D01*
X90131201Y-110648284D01*
X90107860Y-110725230D01*
X90099979Y-110805250D01*
X90099979Y-111317750D01*
X90107860Y-111397770D01*
X90131201Y-111474716D01*
X90169105Y-111545629D01*
X90220115Y-111607785D01*
X90282271Y-111658795D01*
X90345902Y-111692806D01*
X90341968Y-111702303D01*
X90326000Y-111782577D01*
X90326000Y-111864423D01*
X90341968Y-111944697D01*
X90373289Y-112020313D01*
X90397281Y-112056220D01*
X90327784Y-112077301D01*
X90256871Y-112115205D01*
X90194715Y-112166215D01*
X90143705Y-112228371D01*
X90105801Y-112299284D01*
X90093552Y-112339665D01*
X90087833Y-112296225D01*
X90074962Y-112248189D01*
X90025012Y-112127599D01*
X90000146Y-112084530D01*
X89920686Y-111980977D01*
X89885523Y-111945814D01*
X89781970Y-111866354D01*
X89738901Y-111841488D01*
X89618311Y-111791538D01*
X89570275Y-111778667D01*
X89440865Y-111761630D01*
X89416000Y-111760000D01*
X88904484Y-111760000D01*
X88812321Y-111747867D01*
X88738073Y-111717112D01*
X88674313Y-111668187D01*
X88625388Y-111604427D01*
X88594633Y-111530179D01*
X88582500Y-111438016D01*
X88582500Y-110926500D01*
X88580870Y-110901635D01*
X88563833Y-110772225D01*
X88550962Y-110724189D01*
X88501012Y-110603599D01*
X88476146Y-110560530D01*
X88416188Y-110482392D01*
X88445383Y-110452595D01*
X88460584Y-110435061D01*
X88480266Y-110403324D01*
X88536812Y-110288315D01*
X88545764Y-110266904D01*
X88554528Y-110230603D01*
X88572248Y-110103676D01*
X88574038Y-110073449D01*
X88528437Y-107839000D01*
X90995579Y-107839000D01*
X90995579Y-109839000D01*
X90999257Y-109876344D01*
X91010150Y-109912254D01*
X91027839Y-109945348D01*
X91051645Y-109974355D01*
X91080652Y-109998161D01*
X91113746Y-110015850D01*
X91149656Y-110026743D01*
X91187000Y-110030421D01*
X93187000Y-110030421D01*
X93224344Y-110026743D01*
X93260254Y-110015850D01*
X93293348Y-109998161D01*
X93322355Y-109974355D01*
X93346161Y-109945348D01*
X93363850Y-109912254D01*
X93374743Y-109876344D01*
X93378421Y-109839000D01*
X93378421Y-107839000D01*
X97995579Y-107839000D01*
X97995579Y-109839000D01*
X97999257Y-109876344D01*
X98010150Y-109912254D01*
X98027839Y-109945348D01*
X98051645Y-109974355D01*
X98080652Y-109998161D01*
X98113746Y-110015850D01*
X98149656Y-110026743D01*
X98187000Y-110030421D01*
X100187000Y-110030421D01*
X100224344Y-110026743D01*
X100260254Y-110015850D01*
X100293348Y-109998161D01*
X100322355Y-109974355D01*
X100346161Y-109945348D01*
X100363850Y-109912254D01*
X100374743Y-109876344D01*
X100378421Y-109839000D01*
X100378421Y-107839000D01*
X100374743Y-107801656D01*
X100363850Y-107765746D01*
X100346161Y-107732652D01*
X100322355Y-107703645D01*
X100293348Y-107679839D01*
X100260254Y-107662150D01*
X100224344Y-107651257D01*
X100187000Y-107647579D01*
X98187000Y-107647579D01*
X98149656Y-107651257D01*
X98113746Y-107662150D01*
X98080652Y-107679839D01*
X98051645Y-107703645D01*
X98027839Y-107732652D01*
X98010150Y-107765746D01*
X97999257Y-107801656D01*
X97995579Y-107839000D01*
X93378421Y-107839000D01*
X93374743Y-107801656D01*
X93363850Y-107765746D01*
X93346161Y-107732652D01*
X93322355Y-107703645D01*
X93293348Y-107679839D01*
X93260254Y-107662150D01*
X93224344Y-107651257D01*
X93187000Y-107647579D01*
X91187000Y-107647579D01*
X91149656Y-107651257D01*
X91113746Y-107662150D01*
X91080652Y-107679839D01*
X91051645Y-107703645D01*
X91027839Y-107732652D01*
X91010150Y-107765746D01*
X90999257Y-107801656D01*
X90995579Y-107839000D01*
X88528437Y-107839000D01*
X88520580Y-107454009D01*
X88527378Y-107323336D01*
X88548033Y-107158096D01*
X88578644Y-107027200D01*
X88611933Y-106956577D01*
X88992500Y-106956577D01*
X88992500Y-107038423D01*
X89008468Y-107118697D01*
X89039789Y-107194313D01*
X89085260Y-107262366D01*
X89143134Y-107320240D01*
X89211187Y-107365711D01*
X89286803Y-107397032D01*
X89367077Y-107413000D01*
X89448923Y-107413000D01*
X89529197Y-107397032D01*
X89604813Y-107365711D01*
X89672866Y-107320240D01*
X89678106Y-107315000D01*
X103936579Y-107315000D01*
X103936579Y-107779000D01*
X103940257Y-107816344D01*
X103951150Y-107852254D01*
X103968839Y-107885348D01*
X103992645Y-107914355D01*
X104021652Y-107938161D01*
X104054746Y-107955850D01*
X104090656Y-107966743D01*
X104128000Y-107970421D01*
X105549814Y-107970421D01*
X105683516Y-108041886D01*
X105718018Y-108056177D01*
X105905611Y-108113082D01*
X105942237Y-108120368D01*
X106137327Y-108139583D01*
X106156000Y-108140500D01*
X115332000Y-108140500D01*
X115350673Y-108139583D01*
X115545763Y-108120368D01*
X115582389Y-108113082D01*
X115769982Y-108056177D01*
X115804484Y-108041886D01*
X115977371Y-107949476D01*
X116008422Y-107928729D01*
X116159959Y-107804366D01*
X116186366Y-107777959D01*
X116310729Y-107626422D01*
X116331476Y-107595371D01*
X116423886Y-107422484D01*
X116438177Y-107387982D01*
X116495082Y-107200389D01*
X116502368Y-107163763D01*
X116521583Y-106968673D01*
X116522500Y-106950000D01*
X116522500Y-103478489D01*
X116543158Y-103291520D01*
X116600714Y-103123561D01*
X116693547Y-102972220D01*
X116824535Y-102837217D01*
X119088606Y-100966897D01*
X119253600Y-100859887D01*
X119428246Y-100797080D01*
X119623598Y-100774500D01*
X131437141Y-100774500D01*
X131591909Y-100788596D01*
X131733199Y-100828079D01*
X131865040Y-100892442D01*
X131990078Y-100984727D01*
X134536579Y-103248283D01*
X134536579Y-107779000D01*
X134540257Y-107816344D01*
X134551150Y-107852254D01*
X134568839Y-107885348D01*
X134592645Y-107914355D01*
X134621652Y-107938161D01*
X134654746Y-107955850D01*
X134690656Y-107966743D01*
X134728000Y-107970421D01*
X139207299Y-107970421D01*
X139278077Y-107984500D01*
X139359923Y-107984500D01*
X139430701Y-107970421D01*
X140728000Y-107970421D01*
X140765344Y-107966743D01*
X140801254Y-107955850D01*
X140834348Y-107938161D01*
X140863355Y-107914355D01*
X140887161Y-107885348D01*
X140904850Y-107852254D01*
X140915743Y-107816344D01*
X140919421Y-107779000D01*
X140919421Y-102279000D01*
X140915743Y-102241656D01*
X140904850Y-102205746D01*
X140887161Y-102172652D01*
X140863355Y-102143645D01*
X140834348Y-102119839D01*
X140801254Y-102102150D01*
X140765344Y-102091257D01*
X140728000Y-102087579D01*
X137376141Y-102087579D01*
X134522726Y-99551210D01*
X134509290Y-99540317D01*
X134363328Y-99432589D01*
X134333775Y-99414673D01*
X134170753Y-99335088D01*
X134138450Y-99322807D01*
X133963733Y-99273984D01*
X133929743Y-99267740D01*
X133749080Y-99251285D01*
X133731801Y-99250500D01*
X118806222Y-99250500D01*
X118786865Y-99251486D01*
X118584693Y-99272136D01*
X118546778Y-99279963D01*
X118352956Y-99341060D01*
X118317407Y-99356391D01*
X118139939Y-99455412D01*
X118123515Y-99465704D01*
X114837937Y-101765609D01*
X114685945Y-101850415D01*
X114529236Y-101899813D01*
X114356074Y-101917500D01*
X106156000Y-101917500D01*
X106137327Y-101918417D01*
X105942237Y-101937632D01*
X105905611Y-101944918D01*
X105718018Y-102001823D01*
X105683516Y-102016114D01*
X105549814Y-102087579D01*
X104128000Y-102087579D01*
X104090656Y-102091257D01*
X104054746Y-102102150D01*
X104021652Y-102119839D01*
X103992645Y-102143645D01*
X103968839Y-102172652D01*
X103951150Y-102205746D01*
X103940257Y-102241656D01*
X103936579Y-102279000D01*
X103936579Y-106680000D01*
X89678106Y-106680000D01*
X89672866Y-106674760D01*
X89604813Y-106629289D01*
X89529197Y-106597968D01*
X89448923Y-106582000D01*
X89367077Y-106582000D01*
X89286803Y-106597968D01*
X89211187Y-106629289D01*
X89143134Y-106674760D01*
X89085260Y-106732634D01*
X89039789Y-106800687D01*
X89008468Y-106876303D01*
X88992500Y-106956577D01*
X88611933Y-106956577D01*
X88631653Y-106914741D01*
X88713138Y-106807825D01*
X92279007Y-103030421D01*
X93187000Y-103030421D01*
X93224344Y-103026743D01*
X93260254Y-103015850D01*
X93293348Y-102998161D01*
X93322355Y-102974355D01*
X93346161Y-102945348D01*
X93363850Y-102912254D01*
X93374743Y-102876344D01*
X93378421Y-102839000D01*
X93378421Y-101865788D01*
X94347708Y-100839000D01*
X97995579Y-100839000D01*
X97995579Y-102839000D01*
X97999257Y-102876344D01*
X98010150Y-102912254D01*
X98027839Y-102945348D01*
X98051645Y-102974355D01*
X98080652Y-102998161D01*
X98113746Y-103015850D01*
X98149656Y-103026743D01*
X98187000Y-103030421D01*
X100187000Y-103030421D01*
X100224344Y-103026743D01*
X100260254Y-103015850D01*
X100293348Y-102998161D01*
X100322355Y-102974355D01*
X100346161Y-102945348D01*
X100363850Y-102912254D01*
X100374743Y-102876344D01*
X100378421Y-102839000D01*
X100378421Y-100839000D01*
X100374743Y-100801656D01*
X100363850Y-100765746D01*
X100346161Y-100732652D01*
X100322355Y-100703645D01*
X100293348Y-100679839D01*
X100260254Y-100662150D01*
X100224344Y-100651257D01*
X100187000Y-100647579D01*
X99610631Y-100647579D01*
X100055211Y-100203000D01*
X108001000Y-100203000D01*
X108008260Y-100213866D01*
X108066134Y-100271740D01*
X108134187Y-100317211D01*
X108209803Y-100348532D01*
X108290077Y-100364500D01*
X108371923Y-100364500D01*
X108452197Y-100348532D01*
X108527813Y-100317211D01*
X108595866Y-100271740D01*
X108653740Y-100213866D01*
X108699211Y-100145813D01*
X108730532Y-100070197D01*
X108746500Y-99989923D01*
X108746500Y-99908077D01*
X108730532Y-99827803D01*
X108699211Y-99752187D01*
X108653740Y-99684134D01*
X108595866Y-99626260D01*
X108527813Y-99580789D01*
X108452197Y-99549468D01*
X108371923Y-99533500D01*
X108290077Y-99533500D01*
X108209803Y-99549468D01*
X108134187Y-99580789D01*
X108066134Y-99626260D01*
X108008260Y-99684134D01*
X108001000Y-99695000D01*
X99962458Y-99695000D01*
X99950000Y-99693773D01*
X99937542Y-99695000D01*
X99937531Y-99695000D01*
X99900207Y-99698676D01*
X99852328Y-99713200D01*
X99808203Y-99736786D01*
X99779211Y-99760578D01*
X99779203Y-99760586D01*
X99769527Y-99768527D01*
X99761586Y-99778203D01*
X99016208Y-100523582D01*
X99006527Y-100531527D01*
X98998581Y-100541209D01*
X98998578Y-100541212D01*
X98988349Y-100553677D01*
X98974786Y-100570203D01*
X98951200Y-100614329D01*
X98941114Y-100647579D01*
X98187000Y-100647579D01*
X98149656Y-100651257D01*
X98113746Y-100662150D01*
X98080652Y-100679839D01*
X98051645Y-100703645D01*
X98027839Y-100732652D01*
X98010150Y-100765746D01*
X97999257Y-100801656D01*
X97995579Y-100839000D01*
X94347708Y-100839000D01*
X95720880Y-99384369D01*
X95852587Y-99270607D01*
X95996057Y-99190568D01*
X96152751Y-99141182D01*
X96325887Y-99123500D01*
X112405174Y-99123500D01*
X112376468Y-99192803D01*
X112360500Y-99273077D01*
X112360500Y-99354923D01*
X112363049Y-99367740D01*
X110892790Y-100838000D01*
X103263457Y-100838000D01*
X103250999Y-100836773D01*
X103238541Y-100838000D01*
X103238531Y-100838000D01*
X103201207Y-100841676D01*
X103153328Y-100856200D01*
X103124573Y-100871571D01*
X103109202Y-100879786D01*
X103080211Y-100903579D01*
X103080209Y-100903581D01*
X103070527Y-100911527D01*
X103062581Y-100921209D01*
X101780740Y-102203050D01*
X101767923Y-102200500D01*
X101686077Y-102200500D01*
X101605803Y-102216468D01*
X101530187Y-102247789D01*
X101462134Y-102293260D01*
X101404260Y-102351134D01*
X101358789Y-102419187D01*
X101327468Y-102494803D01*
X101311500Y-102575077D01*
X101311500Y-102656923D01*
X101327468Y-102737197D01*
X101358789Y-102812813D01*
X101404260Y-102880866D01*
X101462134Y-102938740D01*
X101530187Y-102984211D01*
X101605803Y-103015532D01*
X101686077Y-103031500D01*
X101767923Y-103031500D01*
X101848197Y-103015532D01*
X101923813Y-102984211D01*
X101991866Y-102938740D01*
X102049740Y-102880866D01*
X102095211Y-102812813D01*
X102126532Y-102737197D01*
X102142500Y-102656923D01*
X102142500Y-102575077D01*
X102139950Y-102562260D01*
X103356210Y-101346000D01*
X110985542Y-101346000D01*
X110998000Y-101347227D01*
X111010458Y-101346000D01*
X111010469Y-101346000D01*
X111047793Y-101342324D01*
X111095672Y-101327800D01*
X111139797Y-101304214D01*
X111156323Y-101290651D01*
X111168788Y-101280422D01*
X111168791Y-101280419D01*
X111178473Y-101272473D01*
X111186421Y-101262789D01*
X112722260Y-99726951D01*
X112735077Y-99729500D01*
X112816923Y-99729500D01*
X112897197Y-99713532D01*
X112972813Y-99682211D01*
X113040866Y-99636740D01*
X113098740Y-99578866D01*
X113144211Y-99510813D01*
X113175532Y-99435197D01*
X113191500Y-99354923D01*
X113191500Y-99273077D01*
X113175532Y-99192803D01*
X113146826Y-99123500D01*
X139446000Y-99123500D01*
X139470866Y-99121870D01*
X139602346Y-99104560D01*
X139650381Y-99091689D01*
X139772901Y-99040940D01*
X139815970Y-99016074D01*
X139921180Y-98935343D01*
X139956343Y-98900180D01*
X140037074Y-98794970D01*
X140061940Y-98751901D01*
X140112689Y-98629381D01*
X140125560Y-98581346D01*
X140142870Y-98449866D01*
X140142864Y-98400090D01*
X140125541Y-98268750D01*
X140112625Y-98220635D01*
X140061842Y-98098278D01*
X140036892Y-98055157D01*
X139956122Y-97950150D01*
X139920844Y-97914971D01*
X139815610Y-97834497D01*
X139772419Y-97809669D01*
X139649919Y-97759231D01*
X139601768Y-97746450D01*
X139470380Y-97729497D01*
X139445465Y-97727932D01*
X95298409Y-97852290D01*
X95279107Y-97853325D01*
X95077531Y-97874432D01*
X95039735Y-97882324D01*
X94846555Y-97943643D01*
X94811129Y-97958993D01*
X94634280Y-98058004D01*
X94602675Y-98080182D01*
X94449423Y-98212818D01*
X94435467Y-98226194D01*
X92153014Y-100647579D01*
X91187000Y-100647579D01*
X91149656Y-100651257D01*
X91113746Y-100662150D01*
X91080652Y-100679839D01*
X91051645Y-100703645D01*
X91027839Y-100732652D01*
X91010150Y-100765746D01*
X90999257Y-100801656D01*
X90995579Y-100839000D01*
X90995579Y-101875467D01*
X87700204Y-105371430D01*
X87688495Y-105385091D01*
X87572601Y-105533992D01*
X87553297Y-105564313D01*
X87467437Y-105732332D01*
X87454174Y-105765740D01*
X87401403Y-105946898D01*
X87394651Y-105982204D01*
X87384579Y-106088483D01*
X87356330Y-106035632D01*
X87226304Y-105877196D01*
X87067868Y-105747170D01*
X86887109Y-105650553D01*
X86690974Y-105591056D01*
X86538110Y-105576000D01*
X86435890Y-105576000D01*
X86283026Y-105591056D01*
X86086891Y-105650553D01*
X85906132Y-105747170D01*
X85747696Y-105877196D01*
X85617670Y-106035632D01*
X85521053Y-106216391D01*
X85461556Y-106412526D01*
X85441466Y-106616500D01*
X84772500Y-106616500D01*
X84772500Y-104800513D01*
X85179013Y-104394000D01*
X85495994Y-104394000D01*
X85521053Y-104476609D01*
X85617670Y-104657368D01*
X85747696Y-104815804D01*
X85906132Y-104945830D01*
X86086891Y-105042447D01*
X86283026Y-105101944D01*
X86435890Y-105117000D01*
X86538110Y-105117000D01*
X86690974Y-105101944D01*
X86887109Y-105042447D01*
X87067868Y-104945830D01*
X87226304Y-104815804D01*
X87356330Y-104657368D01*
X87452947Y-104476609D01*
X87512444Y-104280474D01*
X87532534Y-104076500D01*
X87512444Y-103872526D01*
X87452947Y-103676391D01*
X87356330Y-103495632D01*
X87226304Y-103337196D01*
X87067868Y-103207170D01*
X86887109Y-103110553D01*
X86690974Y-103051056D01*
X86538110Y-103036000D01*
X86435890Y-103036000D01*
X86283026Y-103051056D01*
X86086891Y-103110553D01*
X85906132Y-103207170D01*
X85747696Y-103337196D01*
X85617670Y-103495632D01*
X85521053Y-103676391D01*
X85495994Y-103759000D01*
X85063095Y-103759000D01*
X85047499Y-103757464D01*
X84985258Y-103763594D01*
X84925410Y-103781749D01*
X84870253Y-103811231D01*
X84821907Y-103850907D01*
X84811963Y-103863024D01*
X84772500Y-103902487D01*
X84772500Y-101536500D01*
X85441466Y-101536500D01*
X85461556Y-101740474D01*
X85521053Y-101936609D01*
X85617670Y-102117368D01*
X85747696Y-102275804D01*
X85906132Y-102405830D01*
X86086891Y-102502447D01*
X86283026Y-102561944D01*
X86435890Y-102577000D01*
X86538110Y-102577000D01*
X86690974Y-102561944D01*
X86887109Y-102502447D01*
X87067868Y-102405830D01*
X87226304Y-102275804D01*
X87356330Y-102117368D01*
X87452947Y-101936609D01*
X87512444Y-101740474D01*
X87532534Y-101536500D01*
X87512444Y-101332526D01*
X87452947Y-101136391D01*
X87356330Y-100955632D01*
X87226304Y-100797196D01*
X87067868Y-100667170D01*
X86887109Y-100570553D01*
X86690974Y-100511056D01*
X86538110Y-100496000D01*
X86435890Y-100496000D01*
X86283026Y-100511056D01*
X86086891Y-100570553D01*
X85906132Y-100667170D01*
X85747696Y-100797196D01*
X85617670Y-100955632D01*
X85521053Y-101136391D01*
X85461556Y-101332526D01*
X85441466Y-101536500D01*
X84772500Y-101536500D01*
X84772500Y-98996500D01*
X85441466Y-98996500D01*
X85461556Y-99200474D01*
X85521053Y-99396609D01*
X85617670Y-99577368D01*
X85747696Y-99735804D01*
X85906132Y-99865830D01*
X86086891Y-99962447D01*
X86283026Y-100021944D01*
X86435890Y-100037000D01*
X86538110Y-100037000D01*
X86690974Y-100021944D01*
X86887109Y-99962447D01*
X87067868Y-99865830D01*
X87226304Y-99735804D01*
X87356330Y-99577368D01*
X87452947Y-99396609D01*
X87512444Y-99200474D01*
X87532534Y-98996500D01*
X87512444Y-98792526D01*
X87452947Y-98596391D01*
X87356330Y-98415632D01*
X87226304Y-98257196D01*
X87067868Y-98127170D01*
X86887109Y-98030553D01*
X86690974Y-97971056D01*
X86538110Y-97956000D01*
X86435890Y-97956000D01*
X86283026Y-97971056D01*
X86086891Y-98030553D01*
X85906132Y-98127170D01*
X85747696Y-98257196D01*
X85617670Y-98415632D01*
X85521053Y-98596391D01*
X85461556Y-98792526D01*
X85441466Y-98996500D01*
X84772500Y-98996500D01*
X84772500Y-96549001D01*
X103089500Y-96549001D01*
X103089500Y-96560923D01*
X103105468Y-96641197D01*
X103136789Y-96716813D01*
X103182260Y-96784866D01*
X103240134Y-96842740D01*
X103308187Y-96888211D01*
X103383803Y-96919532D01*
X103464077Y-96935500D01*
X103545923Y-96935500D01*
X103626197Y-96919532D01*
X103701813Y-96888211D01*
X103769866Y-96842740D01*
X103827740Y-96784866D01*
X103873211Y-96716813D01*
X103904532Y-96641197D01*
X103920500Y-96560923D01*
X103920500Y-96479077D01*
X103904532Y-96398803D01*
X103873211Y-96323187D01*
X103827740Y-96255134D01*
X103769866Y-96197260D01*
X103701813Y-96151789D01*
X103626197Y-96120468D01*
X103545923Y-96104500D01*
X103464077Y-96104500D01*
X103451342Y-96107033D01*
X103450792Y-96106582D01*
X103450789Y-96106579D01*
X103438324Y-96096350D01*
X103421798Y-96082787D01*
X103377673Y-96059201D01*
X103329794Y-96044677D01*
X103292470Y-96041001D01*
X103292459Y-96041001D01*
X103280001Y-96039774D01*
X103267543Y-96041001D01*
X84772500Y-96041001D01*
X84772500Y-95270898D01*
X104235213Y-95270900D01*
X104235213Y-95270900D01*
G37*
X104235213Y-95270900D02*
X104584853Y-95305183D01*
X104908681Y-95402952D01*
X105207349Y-95561757D01*
X105472086Y-95777671D01*
X105647930Y-95979706D01*
X105934027Y-96308418D01*
X105949116Y-96322670D01*
X105963636Y-96337497D01*
X105966492Y-96339860D01*
X106420220Y-96709912D01*
X106440296Y-96723250D01*
X106460118Y-96736823D01*
X106463379Y-96738587D01*
X106980343Y-97013461D01*
X107002593Y-97022632D01*
X107024709Y-97032111D01*
X107028246Y-97033206D01*
X107028252Y-97033208D01*
X107588758Y-97202434D01*
X107612373Y-97207110D01*
X107635901Y-97212111D01*
X107639586Y-97212499D01*
X107639588Y-97212499D01*
X108222290Y-97269634D01*
X108222298Y-97269634D01*
X108235163Y-97270901D01*
X202936388Y-97270898D01*
X218647091Y-105005399D01*
X202936390Y-112739899D01*
X108235162Y-112739899D01*
X108225571Y-112740844D01*
X107794288Y-112772251D01*
X107773822Y-112775773D01*
X107753259Y-112778491D01*
X107749655Y-112779358D01*
X107181377Y-112920309D01*
X107158655Y-112928369D01*
X107135909Y-112936081D01*
X107132542Y-112937631D01*
X106602464Y-113186278D01*
X106581787Y-113198569D01*
X106560925Y-113210580D01*
X106557929Y-113212752D01*
X106557923Y-113212755D01*
X106557918Y-113212759D01*
X106086236Y-113559626D01*
X106068326Y-113575712D01*
X106050208Y-113591534D01*
X106047686Y-113594251D01*
X105652359Y-114026131D01*
X105406384Y-114294850D01*
X105133871Y-114495252D01*
X104827623Y-114638906D01*
X104496049Y-114721147D01*
X104238543Y-114739899D01*
X84772500Y-114739899D01*
X84772500Y-108537628D01*
X84778303Y-108540032D01*
X84858577Y-108556000D01*
X84940423Y-108556000D01*
X85020697Y-108540032D01*
X85096313Y-108508711D01*
X85164366Y-108463240D01*
X85222240Y-108405366D01*
X85267711Y-108337313D01*
X85299032Y-108261697D01*
X85315000Y-108181423D01*
X85315000Y-108099577D01*
X85299032Y-108019303D01*
X85267711Y-107943687D01*
X85222240Y-107875634D01*
X85164366Y-107817760D01*
X85096313Y-107772289D01*
X85020697Y-107740968D01*
X84940423Y-107725000D01*
X84858577Y-107725000D01*
X84778303Y-107740968D01*
X84772500Y-107743372D01*
X84772500Y-106616500D01*
X85441466Y-106616500D01*
X85461556Y-106820474D01*
X85521053Y-107016609D01*
X85617670Y-107197368D01*
X85747696Y-107355804D01*
X85906132Y-107485830D01*
X86086891Y-107582447D01*
X86283026Y-107641944D01*
X86435890Y-107657000D01*
X86538110Y-107657000D01*
X86690974Y-107641944D01*
X86887109Y-107582447D01*
X87067868Y-107485830D01*
X87226304Y-107355804D01*
X87356330Y-107197368D01*
X87376000Y-107160568D01*
X87376000Y-110077250D01*
X87378345Y-110107050D01*
X87394328Y-110207962D01*
X87384790Y-110215789D01*
X87366866Y-110237630D01*
X87337178Y-110273804D01*
X87318017Y-110309652D01*
X87299099Y-110317488D01*
X87256030Y-110342354D01*
X87152477Y-110421814D01*
X87117314Y-110456977D01*
X87037854Y-110560530D01*
X87012988Y-110603599D01*
X86963038Y-110724189D01*
X86950167Y-110772225D01*
X86933130Y-110901635D01*
X86931500Y-110926500D01*
X86931500Y-113411000D01*
X86935161Y-113448166D01*
X86946001Y-113483903D01*
X86964600Y-113528804D01*
X86982203Y-113561736D01*
X87005894Y-113590604D01*
X87034762Y-113614295D01*
X87067696Y-113631900D01*
X87112597Y-113650499D01*
X87148335Y-113661340D01*
X87185500Y-113665000D01*
X89416000Y-113665000D01*
X89440865Y-113663370D01*
X89570275Y-113646333D01*
X89618311Y-113633462D01*
X89738901Y-113583512D01*
X89781970Y-113558646D01*
X89885523Y-113479186D01*
X89920686Y-113444023D01*
X90000146Y-113340470D01*
X90025012Y-113297401D01*
X90074962Y-113176811D01*
X90087833Y-113128775D01*
X90093552Y-113085335D01*
X90105801Y-113125716D01*
X90143705Y-113196629D01*
X90194715Y-113258785D01*
X90256871Y-113309795D01*
X90327784Y-113347699D01*
X90404730Y-113371040D01*
X90484750Y-113378921D01*
X90922250Y-113378921D01*
X91002270Y-113371040D01*
X91079216Y-113347699D01*
X91150129Y-113309795D01*
X91212285Y-113258785D01*
X91263295Y-113196629D01*
X91301199Y-113125716D01*
X91324540Y-113048770D01*
X91332421Y-112968750D01*
X91332421Y-112456250D01*
X91324540Y-112376230D01*
X91301199Y-112299284D01*
X91263295Y-112228371D01*
X91212285Y-112166215D01*
X91150129Y-112115205D01*
X91079216Y-112077301D01*
X91072911Y-112075388D01*
X91109711Y-112020313D01*
X91141032Y-111944697D01*
X91157000Y-111864423D01*
X91157000Y-111782577D01*
X91141032Y-111702303D01*
X91132530Y-111681778D01*
X91175529Y-111658795D01*
X91237685Y-111607785D01*
X91288695Y-111545629D01*
X91326599Y-111474716D01*
X91349940Y-111397770D01*
X91355819Y-111338077D01*
X94834500Y-111338077D01*
X94834500Y-111419923D01*
X94850468Y-111500197D01*
X94881789Y-111575813D01*
X94927260Y-111643866D01*
X94985134Y-111701740D01*
X95053187Y-111747211D01*
X95128803Y-111778532D01*
X95209077Y-111794500D01*
X95290923Y-111794500D01*
X95371197Y-111778532D01*
X95446813Y-111747211D01*
X95514866Y-111701740D01*
X95572740Y-111643866D01*
X95618211Y-111575813D01*
X95649532Y-111500197D01*
X95665500Y-111419923D01*
X95665500Y-111338077D01*
X95662950Y-111325260D01*
X96053710Y-110934500D01*
X109599444Y-110934500D01*
X109546832Y-110969654D01*
X109450654Y-111065832D01*
X109375087Y-111178926D01*
X109323036Y-111304589D01*
X109296500Y-111437992D01*
X109296500Y-111574008D01*
X109323036Y-111707411D01*
X109375087Y-111833074D01*
X109450654Y-111946168D01*
X109518491Y-112014005D01*
X108653018Y-112014005D01*
X108410537Y-111771525D01*
X108410533Y-111771520D01*
X108365500Y-111726487D01*
X108365500Y-111719077D01*
X108349532Y-111638803D01*
X108318211Y-111563187D01*
X108272740Y-111495134D01*
X108214866Y-111437260D01*
X108146813Y-111391789D01*
X108071197Y-111360468D01*
X107990923Y-111344500D01*
X107909077Y-111344500D01*
X107828803Y-111360468D01*
X107753187Y-111391789D01*
X107685134Y-111437260D01*
X107627260Y-111495134D01*
X107581789Y-111563187D01*
X107550468Y-111638803D01*
X107534500Y-111719077D01*
X107534500Y-111800923D01*
X107550468Y-111881197D01*
X107581789Y-111956813D01*
X107627260Y-112024866D01*
X107685134Y-112082740D01*
X107753187Y-112128211D01*
X107828803Y-112159532D01*
X107909077Y-112175500D01*
X107916487Y-112175500D01*
X107961520Y-112220533D01*
X107961525Y-112220537D01*
X108285968Y-112544980D01*
X108295912Y-112557098D01*
X108344258Y-112596774D01*
X108399415Y-112626256D01*
X108459264Y-112644411D01*
X108505909Y-112649005D01*
X108505911Y-112649005D01*
X108521504Y-112650541D01*
X108537097Y-112649005D01*
X125396899Y-112649005D01*
X125412495Y-112650541D01*
X125428091Y-112649005D01*
X125474736Y-112644411D01*
X125534585Y-112626256D01*
X125589742Y-112596774D01*
X125638088Y-112557098D01*
X125648037Y-112544975D01*
X126144513Y-112048500D01*
X126151923Y-112048500D01*
X126232197Y-112032532D01*
X126307813Y-112001211D01*
X126375866Y-111955740D01*
X126433740Y-111897866D01*
X126479211Y-111829813D01*
X126510532Y-111754197D01*
X126526500Y-111673923D01*
X126526500Y-111592077D01*
X126510532Y-111511803D01*
X126479211Y-111436187D01*
X126433740Y-111368134D01*
X126375866Y-111310260D01*
X126307813Y-111264789D01*
X126232197Y-111233468D01*
X126151923Y-111217500D01*
X126070077Y-111217500D01*
X125989803Y-111233468D01*
X125914187Y-111264789D01*
X125846134Y-111310260D01*
X125788260Y-111368134D01*
X125742789Y-111436187D01*
X125711468Y-111511803D01*
X125695500Y-111592077D01*
X125695500Y-111599487D01*
X125280983Y-112014005D01*
X112355509Y-112014005D01*
X112423346Y-111946168D01*
X112498913Y-111833074D01*
X112550964Y-111707411D01*
X112577500Y-111574008D01*
X112577500Y-111437992D01*
X112550964Y-111304589D01*
X112498913Y-111178926D01*
X112423346Y-111065832D01*
X112327168Y-110969654D01*
X112274556Y-110934500D01*
X124294063Y-110934500D01*
X124338803Y-110953032D01*
X124419077Y-110969000D01*
X124500923Y-110969000D01*
X124581197Y-110953032D01*
X124656813Y-110921711D01*
X124724866Y-110876240D01*
X124782740Y-110818366D01*
X124828211Y-110750313D01*
X124859532Y-110674697D01*
X124875500Y-110594423D01*
X124875500Y-110512577D01*
X124859532Y-110432303D01*
X124842838Y-110391999D01*
X125367205Y-110391999D01*
X125382801Y-110393535D01*
X125398397Y-110391999D01*
X125445042Y-110387405D01*
X125478583Y-110377230D01*
X125533187Y-110413715D01*
X125608803Y-110445036D01*
X125689077Y-110461004D01*
X125770923Y-110461004D01*
X125851197Y-110445036D01*
X125926813Y-110413715D01*
X125994866Y-110368244D01*
X126052740Y-110310370D01*
X126098211Y-110242317D01*
X126129532Y-110166701D01*
X126145500Y-110086427D01*
X126145500Y-110004581D01*
X126129532Y-109924307D01*
X126098211Y-109848691D01*
X126079374Y-109820499D01*
X143024043Y-109820499D01*
X143036501Y-109821726D01*
X143048959Y-109820499D01*
X143048970Y-109820499D01*
X143086294Y-109816823D01*
X143134173Y-109802299D01*
X143178298Y-109778713D01*
X143198052Y-109762501D01*
X143207289Y-109754921D01*
X143207292Y-109754918D01*
X143216974Y-109746972D01*
X143224919Y-109737291D01*
X143710260Y-109251950D01*
X143723077Y-109254500D01*
X143804923Y-109254500D01*
X143885197Y-109238532D01*
X143960813Y-109207211D01*
X144028866Y-109161740D01*
X144086740Y-109103866D01*
X144132211Y-109035813D01*
X144163532Y-108960197D01*
X144179500Y-108879923D01*
X144179500Y-108798077D01*
X144163532Y-108717803D01*
X144132211Y-108642187D01*
X144086740Y-108574134D01*
X144028866Y-108516260D01*
X143960813Y-108470789D01*
X143885197Y-108439468D01*
X143804923Y-108423500D01*
X143723077Y-108423500D01*
X143642803Y-108439468D01*
X143567187Y-108470789D01*
X143499134Y-108516260D01*
X143441260Y-108574134D01*
X143395789Y-108642187D01*
X143364468Y-108717803D01*
X143348500Y-108798077D01*
X143348500Y-108879923D01*
X143351050Y-108892740D01*
X142931291Y-109312499D01*
X125543016Y-109312499D01*
X125530558Y-109311272D01*
X125518100Y-109312499D01*
X125518090Y-109312499D01*
X125480766Y-109316175D01*
X125432887Y-109330699D01*
X125412701Y-109341489D01*
X124633265Y-109341489D01*
X124626005Y-109330623D01*
X124568131Y-109272749D01*
X124500078Y-109227278D01*
X124424462Y-109195957D01*
X124344188Y-109179989D01*
X124262342Y-109179989D01*
X124182068Y-109195957D01*
X124106452Y-109227278D01*
X124038399Y-109272749D01*
X123980525Y-109330623D01*
X123973265Y-109341489D01*
X117726911Y-109341489D01*
X117714453Y-109340262D01*
X117701995Y-109341489D01*
X117701984Y-109341489D01*
X117664660Y-109345165D01*
X117616781Y-109359689D01*
X117601411Y-109367904D01*
X117572656Y-109383274D01*
X117553890Y-109398676D01*
X117533980Y-109415016D01*
X117526032Y-109424701D01*
X117442231Y-109508501D01*
X101676212Y-109508501D01*
X101504950Y-109337240D01*
X101507500Y-109324423D01*
X101507500Y-109242577D01*
X101491532Y-109162303D01*
X101460211Y-109086687D01*
X101414740Y-109018634D01*
X101356866Y-108960760D01*
X101288813Y-108915289D01*
X101213197Y-108883968D01*
X101132923Y-108868000D01*
X101051077Y-108868000D01*
X100970803Y-108883968D01*
X100895187Y-108915289D01*
X100827134Y-108960760D01*
X100769260Y-109018634D01*
X100723789Y-109086687D01*
X100692468Y-109162303D01*
X100676500Y-109242577D01*
X100676500Y-109324423D01*
X100692468Y-109404697D01*
X100723789Y-109480313D01*
X100769260Y-109548366D01*
X100827134Y-109606240D01*
X100895187Y-109651711D01*
X100970803Y-109683032D01*
X101051077Y-109699000D01*
X101132923Y-109699000D01*
X101145740Y-109696450D01*
X101382587Y-109933298D01*
X101390528Y-109942974D01*
X101396031Y-109947490D01*
X101108106Y-109947490D01*
X101102866Y-109942250D01*
X101034813Y-109896779D01*
X100959197Y-109865458D01*
X100878923Y-109849490D01*
X100797077Y-109849490D01*
X100716803Y-109865458D01*
X100641187Y-109896779D01*
X100573134Y-109942250D01*
X100515260Y-110000124D01*
X100469789Y-110068177D01*
X100438468Y-110143793D01*
X100422500Y-110224067D01*
X100422500Y-110305913D01*
X100438468Y-110386187D01*
X100455166Y-110426500D01*
X95960957Y-110426500D01*
X95948499Y-110425273D01*
X95936041Y-110426500D01*
X95936031Y-110426500D01*
X95898707Y-110430176D01*
X95850828Y-110444700D01*
X95806703Y-110468286D01*
X95777711Y-110492079D01*
X95777709Y-110492081D01*
X95768027Y-110500027D01*
X95760081Y-110509709D01*
X95303740Y-110966050D01*
X95290923Y-110963500D01*
X95209077Y-110963500D01*
X95128803Y-110979468D01*
X95053187Y-111010789D01*
X94985134Y-111056260D01*
X94927260Y-111114134D01*
X94881789Y-111182187D01*
X94850468Y-111257803D01*
X94834500Y-111338077D01*
X91355819Y-111338077D01*
X91357821Y-111317750D01*
X91357821Y-110805250D01*
X91349940Y-110725230D01*
X91326599Y-110648284D01*
X91288695Y-110577371D01*
X91237685Y-110515215D01*
X91175529Y-110464205D01*
X91104616Y-110426301D01*
X91027670Y-110402960D01*
X90947650Y-110395079D01*
X90510150Y-110395079D01*
X90430130Y-110402960D01*
X90353184Y-110426301D01*
X90282271Y-110464205D01*
X90220115Y-110515215D01*
X90169105Y-110577371D01*
X90131201Y-110648284D01*
X90107860Y-110725230D01*
X90099979Y-110805250D01*
X90099979Y-111317750D01*
X90107860Y-111397770D01*
X90131201Y-111474716D01*
X90169105Y-111545629D01*
X90220115Y-111607785D01*
X90282271Y-111658795D01*
X90345902Y-111692806D01*
X90341968Y-111702303D01*
X90326000Y-111782577D01*
X90326000Y-111864423D01*
X90341968Y-111944697D01*
X90373289Y-112020313D01*
X90397281Y-112056220D01*
X90327784Y-112077301D01*
X90256871Y-112115205D01*
X90194715Y-112166215D01*
X90143705Y-112228371D01*
X90105801Y-112299284D01*
X90093552Y-112339665D01*
X90087833Y-112296225D01*
X90074962Y-112248189D01*
X90025012Y-112127599D01*
X90000146Y-112084530D01*
X89920686Y-111980977D01*
X89885523Y-111945814D01*
X89781970Y-111866354D01*
X89738901Y-111841488D01*
X89618311Y-111791538D01*
X89570275Y-111778667D01*
X89440865Y-111761630D01*
X89416000Y-111760000D01*
X88904484Y-111760000D01*
X88812321Y-111747867D01*
X88738073Y-111717112D01*
X88674313Y-111668187D01*
X88625388Y-111604427D01*
X88594633Y-111530179D01*
X88582500Y-111438016D01*
X88582500Y-110926500D01*
X88580870Y-110901635D01*
X88563833Y-110772225D01*
X88550962Y-110724189D01*
X88501012Y-110603599D01*
X88476146Y-110560530D01*
X88416188Y-110482392D01*
X88445383Y-110452595D01*
X88460584Y-110435061D01*
X88480266Y-110403324D01*
X88536812Y-110288315D01*
X88545764Y-110266904D01*
X88554528Y-110230603D01*
X88572248Y-110103676D01*
X88574038Y-110073449D01*
X88528437Y-107839000D01*
X90995579Y-107839000D01*
X90995579Y-109839000D01*
X90999257Y-109876344D01*
X91010150Y-109912254D01*
X91027839Y-109945348D01*
X91051645Y-109974355D01*
X91080652Y-109998161D01*
X91113746Y-110015850D01*
X91149656Y-110026743D01*
X91187000Y-110030421D01*
X93187000Y-110030421D01*
X93224344Y-110026743D01*
X93260254Y-110015850D01*
X93293348Y-109998161D01*
X93322355Y-109974355D01*
X93346161Y-109945348D01*
X93363850Y-109912254D01*
X93374743Y-109876344D01*
X93378421Y-109839000D01*
X93378421Y-107839000D01*
X97995579Y-107839000D01*
X97995579Y-109839000D01*
X97999257Y-109876344D01*
X98010150Y-109912254D01*
X98027839Y-109945348D01*
X98051645Y-109974355D01*
X98080652Y-109998161D01*
X98113746Y-110015850D01*
X98149656Y-110026743D01*
X98187000Y-110030421D01*
X100187000Y-110030421D01*
X100224344Y-110026743D01*
X100260254Y-110015850D01*
X100293348Y-109998161D01*
X100322355Y-109974355D01*
X100346161Y-109945348D01*
X100363850Y-109912254D01*
X100374743Y-109876344D01*
X100378421Y-109839000D01*
X100378421Y-107839000D01*
X100374743Y-107801656D01*
X100363850Y-107765746D01*
X100346161Y-107732652D01*
X100322355Y-107703645D01*
X100293348Y-107679839D01*
X100260254Y-107662150D01*
X100224344Y-107651257D01*
X100187000Y-107647579D01*
X98187000Y-107647579D01*
X98149656Y-107651257D01*
X98113746Y-107662150D01*
X98080652Y-107679839D01*
X98051645Y-107703645D01*
X98027839Y-107732652D01*
X98010150Y-107765746D01*
X97999257Y-107801656D01*
X97995579Y-107839000D01*
X93378421Y-107839000D01*
X93374743Y-107801656D01*
X93363850Y-107765746D01*
X93346161Y-107732652D01*
X93322355Y-107703645D01*
X93293348Y-107679839D01*
X93260254Y-107662150D01*
X93224344Y-107651257D01*
X93187000Y-107647579D01*
X91187000Y-107647579D01*
X91149656Y-107651257D01*
X91113746Y-107662150D01*
X91080652Y-107679839D01*
X91051645Y-107703645D01*
X91027839Y-107732652D01*
X91010150Y-107765746D01*
X90999257Y-107801656D01*
X90995579Y-107839000D01*
X88528437Y-107839000D01*
X88520580Y-107454009D01*
X88527378Y-107323336D01*
X88548033Y-107158096D01*
X88578644Y-107027200D01*
X88611933Y-106956577D01*
X88992500Y-106956577D01*
X88992500Y-107038423D01*
X89008468Y-107118697D01*
X89039789Y-107194313D01*
X89085260Y-107262366D01*
X89143134Y-107320240D01*
X89211187Y-107365711D01*
X89286803Y-107397032D01*
X89367077Y-107413000D01*
X89448923Y-107413000D01*
X89529197Y-107397032D01*
X89604813Y-107365711D01*
X89672866Y-107320240D01*
X89678106Y-107315000D01*
X103936579Y-107315000D01*
X103936579Y-107779000D01*
X103940257Y-107816344D01*
X103951150Y-107852254D01*
X103968839Y-107885348D01*
X103992645Y-107914355D01*
X104021652Y-107938161D01*
X104054746Y-107955850D01*
X104090656Y-107966743D01*
X104128000Y-107970421D01*
X105549814Y-107970421D01*
X105683516Y-108041886D01*
X105718018Y-108056177D01*
X105905611Y-108113082D01*
X105942237Y-108120368D01*
X106137327Y-108139583D01*
X106156000Y-108140500D01*
X115332000Y-108140500D01*
X115350673Y-108139583D01*
X115545763Y-108120368D01*
X115582389Y-108113082D01*
X115769982Y-108056177D01*
X115804484Y-108041886D01*
X115977371Y-107949476D01*
X116008422Y-107928729D01*
X116159959Y-107804366D01*
X116186366Y-107777959D01*
X116310729Y-107626422D01*
X116331476Y-107595371D01*
X116423886Y-107422484D01*
X116438177Y-107387982D01*
X116495082Y-107200389D01*
X116502368Y-107163763D01*
X116521583Y-106968673D01*
X116522500Y-106950000D01*
X116522500Y-103478489D01*
X116543158Y-103291520D01*
X116600714Y-103123561D01*
X116693547Y-102972220D01*
X116824535Y-102837217D01*
X119088606Y-100966897D01*
X119253600Y-100859887D01*
X119428246Y-100797080D01*
X119623598Y-100774500D01*
X131437141Y-100774500D01*
X131591909Y-100788596D01*
X131733199Y-100828079D01*
X131865040Y-100892442D01*
X131990078Y-100984727D01*
X134536579Y-103248283D01*
X134536579Y-107779000D01*
X134540257Y-107816344D01*
X134551150Y-107852254D01*
X134568839Y-107885348D01*
X134592645Y-107914355D01*
X134621652Y-107938161D01*
X134654746Y-107955850D01*
X134690656Y-107966743D01*
X134728000Y-107970421D01*
X139207299Y-107970421D01*
X139278077Y-107984500D01*
X139359923Y-107984500D01*
X139430701Y-107970421D01*
X140728000Y-107970421D01*
X140765344Y-107966743D01*
X140801254Y-107955850D01*
X140834348Y-107938161D01*
X140863355Y-107914355D01*
X140887161Y-107885348D01*
X140904850Y-107852254D01*
X140915743Y-107816344D01*
X140919421Y-107779000D01*
X140919421Y-102279000D01*
X140915743Y-102241656D01*
X140904850Y-102205746D01*
X140887161Y-102172652D01*
X140863355Y-102143645D01*
X140834348Y-102119839D01*
X140801254Y-102102150D01*
X140765344Y-102091257D01*
X140728000Y-102087579D01*
X137376141Y-102087579D01*
X134522726Y-99551210D01*
X134509290Y-99540317D01*
X134363328Y-99432589D01*
X134333775Y-99414673D01*
X134170753Y-99335088D01*
X134138450Y-99322807D01*
X133963733Y-99273984D01*
X133929743Y-99267740D01*
X133749080Y-99251285D01*
X133731801Y-99250500D01*
X118806222Y-99250500D01*
X118786865Y-99251486D01*
X118584693Y-99272136D01*
X118546778Y-99279963D01*
X118352956Y-99341060D01*
X118317407Y-99356391D01*
X118139939Y-99455412D01*
X118123515Y-99465704D01*
X114837937Y-101765609D01*
X114685945Y-101850415D01*
X114529236Y-101899813D01*
X114356074Y-101917500D01*
X106156000Y-101917500D01*
X106137327Y-101918417D01*
X105942237Y-101937632D01*
X105905611Y-101944918D01*
X105718018Y-102001823D01*
X105683516Y-102016114D01*
X105549814Y-102087579D01*
X104128000Y-102087579D01*
X104090656Y-102091257D01*
X104054746Y-102102150D01*
X104021652Y-102119839D01*
X103992645Y-102143645D01*
X103968839Y-102172652D01*
X103951150Y-102205746D01*
X103940257Y-102241656D01*
X103936579Y-102279000D01*
X103936579Y-106680000D01*
X89678106Y-106680000D01*
X89672866Y-106674760D01*
X89604813Y-106629289D01*
X89529197Y-106597968D01*
X89448923Y-106582000D01*
X89367077Y-106582000D01*
X89286803Y-106597968D01*
X89211187Y-106629289D01*
X89143134Y-106674760D01*
X89085260Y-106732634D01*
X89039789Y-106800687D01*
X89008468Y-106876303D01*
X88992500Y-106956577D01*
X88611933Y-106956577D01*
X88631653Y-106914741D01*
X88713138Y-106807825D01*
X92279007Y-103030421D01*
X93187000Y-103030421D01*
X93224344Y-103026743D01*
X93260254Y-103015850D01*
X93293348Y-102998161D01*
X93322355Y-102974355D01*
X93346161Y-102945348D01*
X93363850Y-102912254D01*
X93374743Y-102876344D01*
X93378421Y-102839000D01*
X93378421Y-101865788D01*
X94347708Y-100839000D01*
X97995579Y-100839000D01*
X97995579Y-102839000D01*
X97999257Y-102876344D01*
X98010150Y-102912254D01*
X98027839Y-102945348D01*
X98051645Y-102974355D01*
X98080652Y-102998161D01*
X98113746Y-103015850D01*
X98149656Y-103026743D01*
X98187000Y-103030421D01*
X100187000Y-103030421D01*
X100224344Y-103026743D01*
X100260254Y-103015850D01*
X100293348Y-102998161D01*
X100322355Y-102974355D01*
X100346161Y-102945348D01*
X100363850Y-102912254D01*
X100374743Y-102876344D01*
X100378421Y-102839000D01*
X100378421Y-100839000D01*
X100374743Y-100801656D01*
X100363850Y-100765746D01*
X100346161Y-100732652D01*
X100322355Y-100703645D01*
X100293348Y-100679839D01*
X100260254Y-100662150D01*
X100224344Y-100651257D01*
X100187000Y-100647579D01*
X99610631Y-100647579D01*
X100055211Y-100203000D01*
X108001000Y-100203000D01*
X108008260Y-100213866D01*
X108066134Y-100271740D01*
X108134187Y-100317211D01*
X108209803Y-100348532D01*
X108290077Y-100364500D01*
X108371923Y-100364500D01*
X108452197Y-100348532D01*
X108527813Y-100317211D01*
X108595866Y-100271740D01*
X108653740Y-100213866D01*
X108699211Y-100145813D01*
X108730532Y-100070197D01*
X108746500Y-99989923D01*
X108746500Y-99908077D01*
X108730532Y-99827803D01*
X108699211Y-99752187D01*
X108653740Y-99684134D01*
X108595866Y-99626260D01*
X108527813Y-99580789D01*
X108452197Y-99549468D01*
X108371923Y-99533500D01*
X108290077Y-99533500D01*
X108209803Y-99549468D01*
X108134187Y-99580789D01*
X108066134Y-99626260D01*
X108008260Y-99684134D01*
X108001000Y-99695000D01*
X99962458Y-99695000D01*
X99950000Y-99693773D01*
X99937542Y-99695000D01*
X99937531Y-99695000D01*
X99900207Y-99698676D01*
X99852328Y-99713200D01*
X99808203Y-99736786D01*
X99779211Y-99760578D01*
X99779203Y-99760586D01*
X99769527Y-99768527D01*
X99761586Y-99778203D01*
X99016208Y-100523582D01*
X99006527Y-100531527D01*
X98998581Y-100541209D01*
X98998578Y-100541212D01*
X98988349Y-100553677D01*
X98974786Y-100570203D01*
X98951200Y-100614329D01*
X98941114Y-100647579D01*
X98187000Y-100647579D01*
X98149656Y-100651257D01*
X98113746Y-100662150D01*
X98080652Y-100679839D01*
X98051645Y-100703645D01*
X98027839Y-100732652D01*
X98010150Y-100765746D01*
X97999257Y-100801656D01*
X97995579Y-100839000D01*
X94347708Y-100839000D01*
X95720880Y-99384369D01*
X95852587Y-99270607D01*
X95996057Y-99190568D01*
X96152751Y-99141182D01*
X96325887Y-99123500D01*
X112405174Y-99123500D01*
X112376468Y-99192803D01*
X112360500Y-99273077D01*
X112360500Y-99354923D01*
X112363049Y-99367740D01*
X110892790Y-100838000D01*
X103263457Y-100838000D01*
X103250999Y-100836773D01*
X103238541Y-100838000D01*
X103238531Y-100838000D01*
X103201207Y-100841676D01*
X103153328Y-100856200D01*
X103124573Y-100871571D01*
X103109202Y-100879786D01*
X103080211Y-100903579D01*
X103080209Y-100903581D01*
X103070527Y-100911527D01*
X103062581Y-100921209D01*
X101780740Y-102203050D01*
X101767923Y-102200500D01*
X101686077Y-102200500D01*
X101605803Y-102216468D01*
X101530187Y-102247789D01*
X101462134Y-102293260D01*
X101404260Y-102351134D01*
X101358789Y-102419187D01*
X101327468Y-102494803D01*
X101311500Y-102575077D01*
X101311500Y-102656923D01*
X101327468Y-102737197D01*
X101358789Y-102812813D01*
X101404260Y-102880866D01*
X101462134Y-102938740D01*
X101530187Y-102984211D01*
X101605803Y-103015532D01*
X101686077Y-103031500D01*
X101767923Y-103031500D01*
X101848197Y-103015532D01*
X101923813Y-102984211D01*
X101991866Y-102938740D01*
X102049740Y-102880866D01*
X102095211Y-102812813D01*
X102126532Y-102737197D01*
X102142500Y-102656923D01*
X102142500Y-102575077D01*
X102139950Y-102562260D01*
X103356210Y-101346000D01*
X110985542Y-101346000D01*
X110998000Y-101347227D01*
X111010458Y-101346000D01*
X111010469Y-101346000D01*
X111047793Y-101342324D01*
X111095672Y-101327800D01*
X111139797Y-101304214D01*
X111156323Y-101290651D01*
X111168788Y-101280422D01*
X111168791Y-101280419D01*
X111178473Y-101272473D01*
X111186421Y-101262789D01*
X112722260Y-99726951D01*
X112735077Y-99729500D01*
X112816923Y-99729500D01*
X112897197Y-99713532D01*
X112972813Y-99682211D01*
X113040866Y-99636740D01*
X113098740Y-99578866D01*
X113144211Y-99510813D01*
X113175532Y-99435197D01*
X113191500Y-99354923D01*
X113191500Y-99273077D01*
X113175532Y-99192803D01*
X113146826Y-99123500D01*
X139446000Y-99123500D01*
X139470866Y-99121870D01*
X139602346Y-99104560D01*
X139650381Y-99091689D01*
X139772901Y-99040940D01*
X139815970Y-99016074D01*
X139921180Y-98935343D01*
X139956343Y-98900180D01*
X140037074Y-98794970D01*
X140061940Y-98751901D01*
X140112689Y-98629381D01*
X140125560Y-98581346D01*
X140142870Y-98449866D01*
X140142864Y-98400090D01*
X140125541Y-98268750D01*
X140112625Y-98220635D01*
X140061842Y-98098278D01*
X140036892Y-98055157D01*
X139956122Y-97950150D01*
X139920844Y-97914971D01*
X139815610Y-97834497D01*
X139772419Y-97809669D01*
X139649919Y-97759231D01*
X139601768Y-97746450D01*
X139470380Y-97729497D01*
X139445465Y-97727932D01*
X95298409Y-97852290D01*
X95279107Y-97853325D01*
X95077531Y-97874432D01*
X95039735Y-97882324D01*
X94846555Y-97943643D01*
X94811129Y-97958993D01*
X94634280Y-98058004D01*
X94602675Y-98080182D01*
X94449423Y-98212818D01*
X94435467Y-98226194D01*
X92153014Y-100647579D01*
X91187000Y-100647579D01*
X91149656Y-100651257D01*
X91113746Y-100662150D01*
X91080652Y-100679839D01*
X91051645Y-100703645D01*
X91027839Y-100732652D01*
X91010150Y-100765746D01*
X90999257Y-100801656D01*
X90995579Y-100839000D01*
X90995579Y-101875467D01*
X87700204Y-105371430D01*
X87688495Y-105385091D01*
X87572601Y-105533992D01*
X87553297Y-105564313D01*
X87467437Y-105732332D01*
X87454174Y-105765740D01*
X87401403Y-105946898D01*
X87394651Y-105982204D01*
X87384579Y-106088483D01*
X87356330Y-106035632D01*
X87226304Y-105877196D01*
X87067868Y-105747170D01*
X86887109Y-105650553D01*
X86690974Y-105591056D01*
X86538110Y-105576000D01*
X86435890Y-105576000D01*
X86283026Y-105591056D01*
X86086891Y-105650553D01*
X85906132Y-105747170D01*
X85747696Y-105877196D01*
X85617670Y-106035632D01*
X85521053Y-106216391D01*
X85461556Y-106412526D01*
X85441466Y-106616500D01*
X84772500Y-106616500D01*
X84772500Y-104800513D01*
X85179013Y-104394000D01*
X85495994Y-104394000D01*
X85521053Y-104476609D01*
X85617670Y-104657368D01*
X85747696Y-104815804D01*
X85906132Y-104945830D01*
X86086891Y-105042447D01*
X86283026Y-105101944D01*
X86435890Y-105117000D01*
X86538110Y-105117000D01*
X86690974Y-105101944D01*
X86887109Y-105042447D01*
X87067868Y-104945830D01*
X87226304Y-104815804D01*
X87356330Y-104657368D01*
X87452947Y-104476609D01*
X87512444Y-104280474D01*
X87532534Y-104076500D01*
X87512444Y-103872526D01*
X87452947Y-103676391D01*
X87356330Y-103495632D01*
X87226304Y-103337196D01*
X87067868Y-103207170D01*
X86887109Y-103110553D01*
X86690974Y-103051056D01*
X86538110Y-103036000D01*
X86435890Y-103036000D01*
X86283026Y-103051056D01*
X86086891Y-103110553D01*
X85906132Y-103207170D01*
X85747696Y-103337196D01*
X85617670Y-103495632D01*
X85521053Y-103676391D01*
X85495994Y-103759000D01*
X85063095Y-103759000D01*
X85047499Y-103757464D01*
X84985258Y-103763594D01*
X84925410Y-103781749D01*
X84870253Y-103811231D01*
X84821907Y-103850907D01*
X84811963Y-103863024D01*
X84772500Y-103902487D01*
X84772500Y-101536500D01*
X85441466Y-101536500D01*
X85461556Y-101740474D01*
X85521053Y-101936609D01*
X85617670Y-102117368D01*
X85747696Y-102275804D01*
X85906132Y-102405830D01*
X86086891Y-102502447D01*
X86283026Y-102561944D01*
X86435890Y-102577000D01*
X86538110Y-102577000D01*
X86690974Y-102561944D01*
X86887109Y-102502447D01*
X87067868Y-102405830D01*
X87226304Y-102275804D01*
X87356330Y-102117368D01*
X87452947Y-101936609D01*
X87512444Y-101740474D01*
X87532534Y-101536500D01*
X87512444Y-101332526D01*
X87452947Y-101136391D01*
X87356330Y-100955632D01*
X87226304Y-100797196D01*
X87067868Y-100667170D01*
X86887109Y-100570553D01*
X86690974Y-100511056D01*
X86538110Y-100496000D01*
X86435890Y-100496000D01*
X86283026Y-100511056D01*
X86086891Y-100570553D01*
X85906132Y-100667170D01*
X85747696Y-100797196D01*
X85617670Y-100955632D01*
X85521053Y-101136391D01*
X85461556Y-101332526D01*
X85441466Y-101536500D01*
X84772500Y-101536500D01*
X84772500Y-98996500D01*
X85441466Y-98996500D01*
X85461556Y-99200474D01*
X85521053Y-99396609D01*
X85617670Y-99577368D01*
X85747696Y-99735804D01*
X85906132Y-99865830D01*
X86086891Y-99962447D01*
X86283026Y-100021944D01*
X86435890Y-100037000D01*
X86538110Y-100037000D01*
X86690974Y-100021944D01*
X86887109Y-99962447D01*
X87067868Y-99865830D01*
X87226304Y-99735804D01*
X87356330Y-99577368D01*
X87452947Y-99396609D01*
X87512444Y-99200474D01*
X87532534Y-98996500D01*
X87512444Y-98792526D01*
X87452947Y-98596391D01*
X87356330Y-98415632D01*
X87226304Y-98257196D01*
X87067868Y-98127170D01*
X86887109Y-98030553D01*
X86690974Y-97971056D01*
X86538110Y-97956000D01*
X86435890Y-97956000D01*
X86283026Y-97971056D01*
X86086891Y-98030553D01*
X85906132Y-98127170D01*
X85747696Y-98257196D01*
X85617670Y-98415632D01*
X85521053Y-98596391D01*
X85461556Y-98792526D01*
X85441466Y-98996500D01*
X84772500Y-98996500D01*
X84772500Y-96549001D01*
X103089500Y-96549001D01*
X103089500Y-96560923D01*
X103105468Y-96641197D01*
X103136789Y-96716813D01*
X103182260Y-96784866D01*
X103240134Y-96842740D01*
X103308187Y-96888211D01*
X103383803Y-96919532D01*
X103464077Y-96935500D01*
X103545923Y-96935500D01*
X103626197Y-96919532D01*
X103701813Y-96888211D01*
X103769866Y-96842740D01*
X103827740Y-96784866D01*
X103873211Y-96716813D01*
X103904532Y-96641197D01*
X103920500Y-96560923D01*
X103920500Y-96479077D01*
X103904532Y-96398803D01*
X103873211Y-96323187D01*
X103827740Y-96255134D01*
X103769866Y-96197260D01*
X103701813Y-96151789D01*
X103626197Y-96120468D01*
X103545923Y-96104500D01*
X103464077Y-96104500D01*
X103451342Y-96107033D01*
X103450792Y-96106582D01*
X103450789Y-96106579D01*
X103438324Y-96096350D01*
X103421798Y-96082787D01*
X103377673Y-96059201D01*
X103329794Y-96044677D01*
X103292470Y-96041001D01*
X103292459Y-96041001D01*
X103280001Y-96039774D01*
X103267543Y-96041001D01*
X84772500Y-96041001D01*
X84772500Y-95270898D01*
X104235213Y-95270900D01*
G36*
X88004836Y-110505403D02*
G01*
X88109973Y-110548952D01*
X88200264Y-110618236D01*
X88269548Y-110708527D01*
X88313097Y-110813664D01*
X88328500Y-110930663D01*
X88328500Y-111450500D01*
X88329043Y-111458788D01*
X88346080Y-111588198D01*
X88350371Y-111604210D01*
X88400321Y-111724800D01*
X88408609Y-111739157D01*
X88488069Y-111842710D01*
X88499790Y-111854431D01*
X88603343Y-111933891D01*
X88617700Y-111942179D01*
X88738290Y-111992129D01*
X88754302Y-111996420D01*
X88883712Y-112013457D01*
X88892000Y-112014000D01*
X89411837Y-112014000D01*
X89528836Y-112029403D01*
X89633973Y-112072952D01*
X89724264Y-112142236D01*
X89793548Y-112232527D01*
X89837097Y-112337664D01*
X89852500Y-112454663D01*
X89852500Y-112970337D01*
X89837097Y-113087336D01*
X89793548Y-113192473D01*
X89724264Y-113282764D01*
X89633973Y-113352048D01*
X89528836Y-113395597D01*
X89411837Y-113411000D01*
X87198131Y-113411000D01*
X87189200Y-113407300D01*
X87185500Y-113398369D01*
X87185500Y-110930663D01*
X87200903Y-110813664D01*
X87244452Y-110708527D01*
X87313736Y-110618236D01*
X87404027Y-110548952D01*
X87509164Y-110505403D01*
X87626163Y-110490000D01*
X87887837Y-110490000D01*
X88004836Y-110505403D01*
X88004836Y-110505403D01*
G37*
X88004836Y-110505403D02*
X88109973Y-110548952D01*
X88200264Y-110618236D01*
X88269548Y-110708527D01*
X88313097Y-110813664D01*
X88328500Y-110930663D01*
X88328500Y-111450500D01*
X88329043Y-111458788D01*
X88346080Y-111588198D01*
X88350371Y-111604210D01*
X88400321Y-111724800D01*
X88408609Y-111739157D01*
X88488069Y-111842710D01*
X88499790Y-111854431D01*
X88603343Y-111933891D01*
X88617700Y-111942179D01*
X88738290Y-111992129D01*
X88754302Y-111996420D01*
X88883712Y-112013457D01*
X88892000Y-112014000D01*
X89411837Y-112014000D01*
X89528836Y-112029403D01*
X89633973Y-112072952D01*
X89724264Y-112142236D01*
X89793548Y-112232527D01*
X89837097Y-112337664D01*
X89852500Y-112454663D01*
X89852500Y-112970337D01*
X89837097Y-113087336D01*
X89793548Y-113192473D01*
X89724264Y-113282764D01*
X89633973Y-113352048D01*
X89528836Y-113395597D01*
X89411837Y-113411000D01*
X87198131Y-113411000D01*
X87189200Y-113407300D01*
X87185500Y-113398369D01*
X87185500Y-110930663D01*
X87200903Y-110813664D01*
X87244452Y-110708527D01*
X87313736Y-110618236D01*
X87404027Y-110548952D01*
X87509164Y-110505403D01*
X87626163Y-110490000D01*
X87887837Y-110490000D01*
X88004836Y-110505403D01*
G36*
X133900943Y-99520168D02*
G01*
X134064523Y-99565879D01*
X134217149Y-99640389D01*
X134356134Y-99742968D01*
X137260068Y-102324242D01*
X137392287Y-102468718D01*
X137490475Y-102634365D01*
X137552695Y-102816596D01*
X137576313Y-103007694D01*
X137560334Y-103199590D01*
X137505432Y-103384153D01*
X137413931Y-103553578D01*
X137287570Y-103703221D01*
X137022869Y-103958120D01*
X136862705Y-104082391D01*
X136682938Y-104168469D01*
X136489028Y-104214539D01*
X136289761Y-104218513D01*
X136094162Y-104180212D01*
X135911109Y-104101374D01*
X135746114Y-103983586D01*
X132152352Y-100789131D01*
X132147873Y-100785500D01*
X132001911Y-100677772D01*
X131992060Y-100671800D01*
X131829038Y-100592215D01*
X131818271Y-100588121D01*
X131643554Y-100539298D01*
X131632224Y-100537217D01*
X131451561Y-100520762D01*
X131445801Y-100520500D01*
X119612625Y-100520500D01*
X119605334Y-100520920D01*
X119377211Y-100547288D01*
X119363013Y-100550615D01*
X119146921Y-100628327D01*
X119133857Y-100634804D01*
X118941190Y-100759762D01*
X118935301Y-100764082D01*
X118846331Y-100837579D01*
X118428000Y-100837579D01*
X118390656Y-100841257D01*
X118354746Y-100852150D01*
X118321652Y-100869839D01*
X118292645Y-100893645D01*
X118268839Y-100922652D01*
X118251150Y-100955746D01*
X118240257Y-100991656D01*
X118236579Y-101029000D01*
X118236579Y-101341287D01*
X116654677Y-102648076D01*
X116649545Y-102652813D01*
X116496595Y-102810451D01*
X116488041Y-102821468D01*
X116373195Y-103008695D01*
X116367252Y-103021312D01*
X116296051Y-103229094D01*
X116293006Y-103242705D01*
X116268884Y-103461020D01*
X116268500Y-103467994D01*
X116268500Y-106946883D01*
X116250204Y-107132639D01*
X116196929Y-107308266D01*
X116110415Y-107470122D01*
X115993989Y-107611989D01*
X115852122Y-107728415D01*
X115690266Y-107814929D01*
X115514639Y-107868204D01*
X115328883Y-107886500D01*
X106159117Y-107886500D01*
X105973361Y-107868204D01*
X105797734Y-107814929D01*
X105635878Y-107728415D01*
X105494011Y-107611989D01*
X105377585Y-107470122D01*
X105291071Y-107308266D01*
X105237796Y-107132639D01*
X105219500Y-106946883D01*
X105219500Y-103111117D01*
X105237796Y-102925361D01*
X105291071Y-102749734D01*
X105377585Y-102587878D01*
X105494011Y-102446011D01*
X105635878Y-102329585D01*
X105797734Y-102243071D01*
X105973361Y-102189796D01*
X106159117Y-102171500D01*
X114365778Y-102171500D01*
X114372230Y-102171171D01*
X114574402Y-102150521D01*
X114587041Y-102147912D01*
X114780863Y-102086815D01*
X114792712Y-102081705D01*
X114970180Y-101982684D01*
X114975655Y-101979253D01*
X118266527Y-99675643D01*
X118435504Y-99581359D01*
X118616955Y-99524162D01*
X118809453Y-99504500D01*
X133728918Y-99504500D01*
X133900943Y-99520168D01*
X133900943Y-99520168D01*
G37*
X133900943Y-99520168D02*
X134064523Y-99565879D01*
X134217149Y-99640389D01*
X134356134Y-99742968D01*
X137260068Y-102324242D01*
X137392287Y-102468718D01*
X137490475Y-102634365D01*
X137552695Y-102816596D01*
X137576313Y-103007694D01*
X137560334Y-103199590D01*
X137505432Y-103384153D01*
X137413931Y-103553578D01*
X137287570Y-103703221D01*
X137022869Y-103958120D01*
X136862705Y-104082391D01*
X136682938Y-104168469D01*
X136489028Y-104214539D01*
X136289761Y-104218513D01*
X136094162Y-104180212D01*
X135911109Y-104101374D01*
X135746114Y-103983586D01*
X132152352Y-100789131D01*
X132147873Y-100785500D01*
X132001911Y-100677772D01*
X131992060Y-100671800D01*
X131829038Y-100592215D01*
X131818271Y-100588121D01*
X131643554Y-100539298D01*
X131632224Y-100537217D01*
X131451561Y-100520762D01*
X131445801Y-100520500D01*
X119612625Y-100520500D01*
X119605334Y-100520920D01*
X119377211Y-100547288D01*
X119363013Y-100550615D01*
X119146921Y-100628327D01*
X119133857Y-100634804D01*
X118941190Y-100759762D01*
X118935301Y-100764082D01*
X118846331Y-100837579D01*
X118428000Y-100837579D01*
X118390656Y-100841257D01*
X118354746Y-100852150D01*
X118321652Y-100869839D01*
X118292645Y-100893645D01*
X118268839Y-100922652D01*
X118251150Y-100955746D01*
X118240257Y-100991656D01*
X118236579Y-101029000D01*
X118236579Y-101341287D01*
X116654677Y-102648076D01*
X116649545Y-102652813D01*
X116496595Y-102810451D01*
X116488041Y-102821468D01*
X116373195Y-103008695D01*
X116367252Y-103021312D01*
X116296051Y-103229094D01*
X116293006Y-103242705D01*
X116268884Y-103461020D01*
X116268500Y-103467994D01*
X116268500Y-106946883D01*
X116250204Y-107132639D01*
X116196929Y-107308266D01*
X116110415Y-107470122D01*
X115993989Y-107611989D01*
X115852122Y-107728415D01*
X115690266Y-107814929D01*
X115514639Y-107868204D01*
X115328883Y-107886500D01*
X106159117Y-107886500D01*
X105973361Y-107868204D01*
X105797734Y-107814929D01*
X105635878Y-107728415D01*
X105494011Y-107611989D01*
X105377585Y-107470122D01*
X105291071Y-107308266D01*
X105237796Y-107132639D01*
X105219500Y-106946883D01*
X105219500Y-103111117D01*
X105237796Y-102925361D01*
X105291071Y-102749734D01*
X105377585Y-102587878D01*
X105494011Y-102446011D01*
X105635878Y-102329585D01*
X105797734Y-102243071D01*
X105973361Y-102189796D01*
X106159117Y-102171500D01*
X114365778Y-102171500D01*
X114372230Y-102171171D01*
X114574402Y-102150521D01*
X114587041Y-102147912D01*
X114780863Y-102086815D01*
X114792712Y-102081705D01*
X114970180Y-101982684D01*
X114975655Y-101979253D01*
X118266527Y-99675643D01*
X118435504Y-99581359D01*
X118616955Y-99524162D01*
X118809453Y-99504500D01*
X133728918Y-99504500D01*
X133900943Y-99520168D01*
G36*
X139560957Y-97997290D02*
G01*
X139667970Y-98041351D01*
X139759898Y-98111650D01*
X139830456Y-98203381D01*
X139874817Y-98310266D01*
X139889951Y-98425007D01*
X139874824Y-98539906D01*
X139830476Y-98646973D01*
X139759921Y-98738921D01*
X139667973Y-98809476D01*
X139560906Y-98853824D01*
X139441835Y-98869500D01*
X96316186Y-98869500D01*
X96309734Y-98869829D01*
X96107587Y-98890474D01*
X96094951Y-98893082D01*
X95901151Y-98954163D01*
X95889302Y-98959272D01*
X95711851Y-99058269D01*
X95701280Y-99065667D01*
X95547503Y-99198491D01*
X95542835Y-99202957D01*
X88521540Y-106640770D01*
X88517212Y-106645869D01*
X88417424Y-106776801D01*
X88410489Y-106788217D01*
X88340298Y-106937127D01*
X88335905Y-106949742D01*
X88298418Y-107110040D01*
X88297240Y-107116624D01*
X88274483Y-107298677D01*
X88274079Y-107303254D01*
X88266565Y-107447693D01*
X88266492Y-107452288D01*
X88319988Y-110073572D01*
X88304377Y-110185390D01*
X88256824Y-110282109D01*
X88181394Y-110359094D01*
X88085668Y-110408609D01*
X87979182Y-110425698D01*
X87871572Y-110408655D01*
X87774430Y-110359158D01*
X87697342Y-110282070D01*
X87647845Y-110184928D01*
X87630000Y-110072254D01*
X87630000Y-106191026D01*
X87646950Y-106012156D01*
X87696355Y-105842556D01*
X87776740Y-105685249D01*
X87887090Y-105543472D01*
X94618081Y-98402768D01*
X94764008Y-98276471D01*
X94929564Y-98183783D01*
X95110415Y-98126377D01*
X95302351Y-98106280D01*
X139442013Y-97981943D01*
X139560957Y-97997290D01*
X139560957Y-97997290D01*
G37*
X139560957Y-97997290D02*
X139667970Y-98041351D01*
X139759898Y-98111650D01*
X139830456Y-98203381D01*
X139874817Y-98310266D01*
X139889951Y-98425007D01*
X139874824Y-98539906D01*
X139830476Y-98646973D01*
X139759921Y-98738921D01*
X139667973Y-98809476D01*
X139560906Y-98853824D01*
X139441835Y-98869500D01*
X96316186Y-98869500D01*
X96309734Y-98869829D01*
X96107587Y-98890474D01*
X96094951Y-98893082D01*
X95901151Y-98954163D01*
X95889302Y-98959272D01*
X95711851Y-99058269D01*
X95701280Y-99065667D01*
X95547503Y-99198491D01*
X95542835Y-99202957D01*
X88521540Y-106640770D01*
X88517212Y-106645869D01*
X88417424Y-106776801D01*
X88410489Y-106788217D01*
X88340298Y-106937127D01*
X88335905Y-106949742D01*
X88298418Y-107110040D01*
X88297240Y-107116624D01*
X88274483Y-107298677D01*
X88274079Y-107303254D01*
X88266565Y-107447693D01*
X88266492Y-107452288D01*
X88319988Y-110073572D01*
X88304377Y-110185390D01*
X88256824Y-110282109D01*
X88181394Y-110359094D01*
X88085668Y-110408609D01*
X87979182Y-110425698D01*
X87871572Y-110408655D01*
X87774430Y-110359158D01*
X87697342Y-110282070D01*
X87647845Y-110184928D01*
X87630000Y-110072254D01*
X87630000Y-106191026D01*
X87646950Y-106012156D01*
X87696355Y-105842556D01*
X87776740Y-105685249D01*
X87887090Y-105543472D01*
X94618081Y-98402768D01*
X94764008Y-98276471D01*
X94929564Y-98183783D01*
X95110415Y-98126377D01*
X95302351Y-98106280D01*
X139442013Y-97981943D01*
X139560957Y-97997290D01*
M02*
