G04 #@! TF.GenerationSoftware,KiCad,Pcbnew,(5.1.4)-1*
G04 #@! TF.CreationDate,2020-11-25T16:32:24+01:00*
G04 #@! TF.ProjectId,iot_plant_watering_sensor_esp32,696f745f-706c-4616-9e74-5f7761746572,rev?*
G04 #@! TF.SameCoordinates,Original*
G04 #@! TF.FileFunction,Soldermask,Bot*
G04 #@! TF.FilePolarity,Negative*
%FSLAX46Y46*%
G04 Gerber Fmt 4.6, Leading zero omitted, Abs format (unit mm)*
G04 Created by KiCad (PCBNEW (5.1.4)-1) date 2020-11-25 16:32:24*
%MOMM*%
%LPD*%
G04 APERTURE LIST*
%ADD10C,0.100000*%
G04 APERTURE END LIST*
D10*
G36*
X87997591Y-112190585D02*
G01*
X88031569Y-112200893D01*
X88062890Y-112217634D01*
X88090339Y-112240161D01*
X88112866Y-112267610D01*
X88129607Y-112298931D01*
X88139915Y-112332909D01*
X88144000Y-112374390D01*
X88144000Y-113050610D01*
X88139915Y-113092091D01*
X88129607Y-113126069D01*
X88112866Y-113157390D01*
X88090339Y-113184839D01*
X88062890Y-113207366D01*
X88031569Y-113224107D01*
X87997591Y-113234415D01*
X87956110Y-113238500D01*
X87354890Y-113238500D01*
X87313409Y-113234415D01*
X87279431Y-113224107D01*
X87248110Y-113207366D01*
X87220661Y-113184839D01*
X87198134Y-113157390D01*
X87181393Y-113126069D01*
X87171085Y-113092091D01*
X87167000Y-113050610D01*
X87167000Y-112374390D01*
X87171085Y-112332909D01*
X87181393Y-112298931D01*
X87198134Y-112267610D01*
X87220661Y-112240161D01*
X87248110Y-112217634D01*
X87279431Y-112200893D01*
X87313409Y-112190585D01*
X87354890Y-112186500D01*
X87956110Y-112186500D01*
X87997591Y-112190585D01*
X87997591Y-112190585D01*
G37*
G36*
X89470591Y-112190585D02*
G01*
X89504569Y-112200893D01*
X89535890Y-112217634D01*
X89563339Y-112240161D01*
X89585866Y-112267610D01*
X89602607Y-112298931D01*
X89612915Y-112332909D01*
X89617000Y-112374390D01*
X89617000Y-113050610D01*
X89612915Y-113092091D01*
X89602607Y-113126069D01*
X89585866Y-113157390D01*
X89563339Y-113184839D01*
X89535890Y-113207366D01*
X89504569Y-113224107D01*
X89470591Y-113234415D01*
X89429110Y-113238500D01*
X88827890Y-113238500D01*
X88786409Y-113234415D01*
X88752431Y-113224107D01*
X88721110Y-113207366D01*
X88693661Y-113184839D01*
X88671134Y-113157390D01*
X88654393Y-113126069D01*
X88644085Y-113092091D01*
X88640000Y-113050610D01*
X88640000Y-112374390D01*
X88644085Y-112332909D01*
X88654393Y-112298931D01*
X88671134Y-112267610D01*
X88693661Y-112240161D01*
X88721110Y-112217634D01*
X88752431Y-112200893D01*
X88786409Y-112190585D01*
X88827890Y-112186500D01*
X89429110Y-112186500D01*
X89470591Y-112190585D01*
X89470591Y-112190585D01*
G37*
G36*
X91045591Y-112190585D02*
G01*
X91079569Y-112200893D01*
X91110890Y-112217634D01*
X91138339Y-112240161D01*
X91160866Y-112267610D01*
X91177607Y-112298931D01*
X91187915Y-112332909D01*
X91192000Y-112374390D01*
X91192000Y-113050610D01*
X91187915Y-113092091D01*
X91177607Y-113126069D01*
X91160866Y-113157390D01*
X91138339Y-113184839D01*
X91110890Y-113207366D01*
X91079569Y-113224107D01*
X91045591Y-113234415D01*
X91004110Y-113238500D01*
X90402890Y-113238500D01*
X90361409Y-113234415D01*
X90327431Y-113224107D01*
X90296110Y-113207366D01*
X90268661Y-113184839D01*
X90246134Y-113157390D01*
X90229393Y-113126069D01*
X90219085Y-113092091D01*
X90215000Y-113050610D01*
X90215000Y-112374390D01*
X90219085Y-112332909D01*
X90229393Y-112298931D01*
X90246134Y-112267610D01*
X90268661Y-112240161D01*
X90296110Y-112217634D01*
X90327431Y-112200893D01*
X90361409Y-112190585D01*
X90402890Y-112186500D01*
X91004110Y-112186500D01*
X91045591Y-112190585D01*
X91045591Y-112190585D01*
G37*
G36*
X86422591Y-112190585D02*
G01*
X86456569Y-112200893D01*
X86487890Y-112217634D01*
X86515339Y-112240161D01*
X86537866Y-112267610D01*
X86554607Y-112298931D01*
X86564915Y-112332909D01*
X86569000Y-112374390D01*
X86569000Y-113050610D01*
X86564915Y-113092091D01*
X86554607Y-113126069D01*
X86537866Y-113157390D01*
X86515339Y-113184839D01*
X86487890Y-113207366D01*
X86456569Y-113224107D01*
X86422591Y-113234415D01*
X86381110Y-113238500D01*
X85779890Y-113238500D01*
X85738409Y-113234415D01*
X85704431Y-113224107D01*
X85673110Y-113207366D01*
X85645661Y-113184839D01*
X85623134Y-113157390D01*
X85606393Y-113126069D01*
X85596085Y-113092091D01*
X85592000Y-113050610D01*
X85592000Y-112374390D01*
X85596085Y-112332909D01*
X85606393Y-112298931D01*
X85623134Y-112267610D01*
X85645661Y-112240161D01*
X85673110Y-112217634D01*
X85704431Y-112200893D01*
X85738409Y-112190585D01*
X85779890Y-112186500D01*
X86381110Y-112186500D01*
X86422591Y-112190585D01*
X86422591Y-112190585D01*
G37*
G36*
X82962000Y-112964000D02*
G01*
X81960000Y-112964000D01*
X81960000Y-111862000D01*
X82962000Y-111862000D01*
X82962000Y-112964000D01*
X82962000Y-112964000D01*
G37*
G36*
X81362000Y-112964000D02*
G01*
X80360000Y-112964000D01*
X80360000Y-111862000D01*
X81362000Y-111862000D01*
X81362000Y-112964000D01*
X81362000Y-112964000D01*
G37*
G36*
X110147721Y-110976174D02*
G01*
X110247995Y-111017709D01*
X110247996Y-111017710D01*
X110338242Y-111078010D01*
X110414990Y-111154758D01*
X110414991Y-111154760D01*
X110475291Y-111245005D01*
X110516826Y-111345279D01*
X110538000Y-111451730D01*
X110538000Y-111560270D01*
X110516826Y-111666721D01*
X110475291Y-111766995D01*
X110475290Y-111766996D01*
X110414990Y-111857242D01*
X110338242Y-111933990D01*
X110292812Y-111964345D01*
X110247995Y-111994291D01*
X110147721Y-112035826D01*
X110041270Y-112057000D01*
X109932730Y-112057000D01*
X109826279Y-112035826D01*
X109726005Y-111994291D01*
X109681188Y-111964345D01*
X109635758Y-111933990D01*
X109559010Y-111857242D01*
X109498710Y-111766996D01*
X109498709Y-111766995D01*
X109457174Y-111666721D01*
X109436000Y-111560270D01*
X109436000Y-111451730D01*
X109457174Y-111345279D01*
X109498709Y-111245005D01*
X109559009Y-111154760D01*
X109559010Y-111154758D01*
X109635758Y-111078010D01*
X109726004Y-111017710D01*
X109726005Y-111017709D01*
X109826279Y-110976174D01*
X109932730Y-110955000D01*
X110041270Y-110955000D01*
X110147721Y-110976174D01*
X110147721Y-110976174D01*
G37*
G36*
X112047721Y-110976174D02*
G01*
X112147995Y-111017709D01*
X112147996Y-111017710D01*
X112238242Y-111078010D01*
X112314990Y-111154758D01*
X112314991Y-111154760D01*
X112375291Y-111245005D01*
X112416826Y-111345279D01*
X112438000Y-111451730D01*
X112438000Y-111560270D01*
X112416826Y-111666721D01*
X112375291Y-111766995D01*
X112375290Y-111766996D01*
X112314990Y-111857242D01*
X112238242Y-111933990D01*
X112192812Y-111964345D01*
X112147995Y-111994291D01*
X112047721Y-112035826D01*
X111941270Y-112057000D01*
X111832730Y-112057000D01*
X111726279Y-112035826D01*
X111626005Y-111994291D01*
X111581188Y-111964345D01*
X111535758Y-111933990D01*
X111459010Y-111857242D01*
X111398710Y-111766996D01*
X111398709Y-111766995D01*
X111357174Y-111666721D01*
X111336000Y-111560270D01*
X111336000Y-111451730D01*
X111357174Y-111345279D01*
X111398709Y-111245005D01*
X111459009Y-111154760D01*
X111459010Y-111154758D01*
X111535758Y-111078010D01*
X111626004Y-111017710D01*
X111626005Y-111017709D01*
X111726279Y-110976174D01*
X111832730Y-110955000D01*
X111941270Y-110955000D01*
X112047721Y-110976174D01*
X112047721Y-110976174D01*
G37*
G36*
X91070991Y-110539585D02*
G01*
X91104969Y-110549893D01*
X91136290Y-110566634D01*
X91163739Y-110589161D01*
X91186266Y-110616610D01*
X91203007Y-110647931D01*
X91213315Y-110681909D01*
X91217400Y-110723390D01*
X91217400Y-111399610D01*
X91213315Y-111441091D01*
X91203007Y-111475069D01*
X91186266Y-111506390D01*
X91163739Y-111533839D01*
X91136290Y-111556366D01*
X91104969Y-111573107D01*
X91070991Y-111583415D01*
X91029510Y-111587500D01*
X90428290Y-111587500D01*
X90386809Y-111583415D01*
X90352831Y-111573107D01*
X90321510Y-111556366D01*
X90294061Y-111533839D01*
X90271534Y-111506390D01*
X90254793Y-111475069D01*
X90244485Y-111441091D01*
X90240400Y-111399610D01*
X90240400Y-110723390D01*
X90244485Y-110681909D01*
X90254793Y-110647931D01*
X90271534Y-110616610D01*
X90294061Y-110589161D01*
X90321510Y-110566634D01*
X90352831Y-110549893D01*
X90386809Y-110539585D01*
X90428290Y-110535500D01*
X91029510Y-110535500D01*
X91070991Y-110539585D01*
X91070991Y-110539585D01*
G37*
G36*
X86422591Y-110539585D02*
G01*
X86456569Y-110549893D01*
X86487890Y-110566634D01*
X86515339Y-110589161D01*
X86537866Y-110616610D01*
X86554607Y-110647931D01*
X86564915Y-110681909D01*
X86569000Y-110723390D01*
X86569000Y-111399610D01*
X86564915Y-111441091D01*
X86554607Y-111475069D01*
X86537866Y-111506390D01*
X86515339Y-111533839D01*
X86487890Y-111556366D01*
X86456569Y-111573107D01*
X86422591Y-111583415D01*
X86381110Y-111587500D01*
X85779890Y-111587500D01*
X85738409Y-111583415D01*
X85704431Y-111573107D01*
X85673110Y-111556366D01*
X85645661Y-111533839D01*
X85623134Y-111506390D01*
X85606393Y-111475069D01*
X85596085Y-111441091D01*
X85592000Y-111399610D01*
X85592000Y-110723390D01*
X85596085Y-110681909D01*
X85606393Y-110647931D01*
X85623134Y-110616610D01*
X85645661Y-110589161D01*
X85673110Y-110566634D01*
X85704431Y-110549893D01*
X85738409Y-110539585D01*
X85779890Y-110535500D01*
X86381110Y-110535500D01*
X86422591Y-110539585D01*
X86422591Y-110539585D01*
G37*
G36*
X87997591Y-110539585D02*
G01*
X88031569Y-110549893D01*
X88062890Y-110566634D01*
X88090339Y-110589161D01*
X88112866Y-110616610D01*
X88129607Y-110647931D01*
X88139915Y-110681909D01*
X88144000Y-110723390D01*
X88144000Y-111399610D01*
X88139915Y-111441091D01*
X88129607Y-111475069D01*
X88112866Y-111506390D01*
X88090339Y-111533839D01*
X88062890Y-111556366D01*
X88031569Y-111573107D01*
X87997591Y-111583415D01*
X87956110Y-111587500D01*
X87354890Y-111587500D01*
X87313409Y-111583415D01*
X87279431Y-111573107D01*
X87248110Y-111556366D01*
X87220661Y-111533839D01*
X87198134Y-111506390D01*
X87181393Y-111475069D01*
X87171085Y-111441091D01*
X87167000Y-111399610D01*
X87167000Y-110723390D01*
X87171085Y-110681909D01*
X87181393Y-110647931D01*
X87198134Y-110616610D01*
X87220661Y-110589161D01*
X87248110Y-110566634D01*
X87279431Y-110549893D01*
X87313409Y-110539585D01*
X87354890Y-110535500D01*
X87956110Y-110535500D01*
X87997591Y-110539585D01*
X87997591Y-110539585D01*
G37*
G36*
X89495991Y-110539585D02*
G01*
X89529969Y-110549893D01*
X89561290Y-110566634D01*
X89588739Y-110589161D01*
X89611266Y-110616610D01*
X89628007Y-110647931D01*
X89638315Y-110681909D01*
X89642400Y-110723390D01*
X89642400Y-111399610D01*
X89638315Y-111441091D01*
X89628007Y-111475069D01*
X89611266Y-111506390D01*
X89588739Y-111533839D01*
X89561290Y-111556366D01*
X89529969Y-111573107D01*
X89495991Y-111583415D01*
X89454510Y-111587500D01*
X88853290Y-111587500D01*
X88811809Y-111583415D01*
X88777831Y-111573107D01*
X88746510Y-111556366D01*
X88719061Y-111533839D01*
X88696534Y-111506390D01*
X88679793Y-111475069D01*
X88669485Y-111441091D01*
X88665400Y-111399610D01*
X88665400Y-110723390D01*
X88669485Y-110681909D01*
X88679793Y-110647931D01*
X88696534Y-110616610D01*
X88719061Y-110589161D01*
X88746510Y-110566634D01*
X88777831Y-110549893D01*
X88811809Y-110539585D01*
X88853290Y-110535500D01*
X89454510Y-110535500D01*
X89495991Y-110539585D01*
X89495991Y-110539585D01*
G37*
G36*
X87388000Y-110057500D02*
G01*
X85586000Y-110057500D01*
X85586000Y-108255500D01*
X87388000Y-108255500D01*
X87388000Y-110057500D01*
X87388000Y-110057500D01*
G37*
G36*
X93238000Y-109890000D02*
G01*
X91136000Y-109890000D01*
X91136000Y-107788000D01*
X93238000Y-107788000D01*
X93238000Y-109890000D01*
X93238000Y-109890000D01*
G37*
G36*
X100238000Y-109890000D02*
G01*
X98136000Y-109890000D01*
X98136000Y-107788000D01*
X100238000Y-107788000D01*
X100238000Y-109890000D01*
X100238000Y-109890000D01*
G37*
G36*
X126479000Y-109080000D02*
G01*
X118377000Y-109080000D01*
X118377000Y-100978000D01*
X126479000Y-100978000D01*
X126479000Y-109080000D01*
X126479000Y-109080000D01*
G37*
G36*
X82962000Y-108864000D02*
G01*
X81960000Y-108864000D01*
X81960000Y-107762000D01*
X82962000Y-107762000D01*
X82962000Y-108864000D01*
X82962000Y-108864000D01*
G37*
G36*
X81362000Y-108864000D02*
G01*
X80360000Y-108864000D01*
X80360000Y-107762000D01*
X81362000Y-107762000D01*
X81362000Y-108864000D01*
X81362000Y-108864000D01*
G37*
G36*
X140779000Y-107830000D02*
G01*
X134677000Y-107830000D01*
X134677000Y-102228000D01*
X140779000Y-102228000D01*
X140779000Y-107830000D01*
X140779000Y-107830000D01*
G37*
G36*
X110179000Y-107830000D02*
G01*
X104077000Y-107830000D01*
X104077000Y-102228000D01*
X110179000Y-102228000D01*
X110179000Y-107830000D01*
X110179000Y-107830000D01*
G37*
G36*
X86597443Y-105722019D02*
G01*
X86663627Y-105728537D01*
X86833466Y-105780057D01*
X86989991Y-105863722D01*
X87025729Y-105893052D01*
X87127186Y-105976314D01*
X87210448Y-106077771D01*
X87239778Y-106113509D01*
X87323443Y-106270034D01*
X87374963Y-106439873D01*
X87392359Y-106616500D01*
X87374963Y-106793127D01*
X87323443Y-106962966D01*
X87239778Y-107119491D01*
X87210448Y-107155229D01*
X87127186Y-107256686D01*
X87025729Y-107339948D01*
X86989991Y-107369278D01*
X86833466Y-107452943D01*
X86663627Y-107504463D01*
X86597442Y-107510982D01*
X86531260Y-107517500D01*
X86442740Y-107517500D01*
X86376558Y-107510982D01*
X86310373Y-107504463D01*
X86140534Y-107452943D01*
X85984009Y-107369278D01*
X85948271Y-107339948D01*
X85846814Y-107256686D01*
X85763552Y-107155229D01*
X85734222Y-107119491D01*
X85650557Y-106962966D01*
X85599037Y-106793127D01*
X85581641Y-106616500D01*
X85599037Y-106439873D01*
X85650557Y-106270034D01*
X85734222Y-106113509D01*
X85763552Y-106077771D01*
X85846814Y-105976314D01*
X85948271Y-105893052D01*
X85984009Y-105863722D01*
X86140534Y-105780057D01*
X86310373Y-105728537D01*
X86376557Y-105722019D01*
X86442740Y-105715500D01*
X86531260Y-105715500D01*
X86597443Y-105722019D01*
X86597443Y-105722019D01*
G37*
G36*
X132800887Y-103752596D02*
G01*
X133037653Y-103850668D01*
X133037655Y-103850669D01*
X133250739Y-103993047D01*
X133431953Y-104174261D01*
X133484650Y-104253127D01*
X133574332Y-104387347D01*
X133672404Y-104624113D01*
X133722400Y-104875461D01*
X133722400Y-105131739D01*
X133672404Y-105383087D01*
X133574332Y-105619853D01*
X133574331Y-105619855D01*
X133431953Y-105832939D01*
X133250739Y-106014153D01*
X133037655Y-106156531D01*
X133037654Y-106156532D01*
X133037653Y-106156532D01*
X132800887Y-106254604D01*
X132549539Y-106304600D01*
X132293261Y-106304600D01*
X132041913Y-106254604D01*
X131805147Y-106156532D01*
X131805146Y-106156532D01*
X131805145Y-106156531D01*
X131592061Y-106014153D01*
X131410847Y-105832939D01*
X131268469Y-105619855D01*
X131268468Y-105619853D01*
X131170396Y-105383087D01*
X131120400Y-105131739D01*
X131120400Y-104875461D01*
X131170396Y-104624113D01*
X131268468Y-104387347D01*
X131358151Y-104253127D01*
X131410847Y-104174261D01*
X131592061Y-103993047D01*
X131805145Y-103850669D01*
X131805147Y-103850668D01*
X132041913Y-103752596D01*
X132293261Y-103702600D01*
X132549539Y-103702600D01*
X132800887Y-103752596D01*
X132800887Y-103752596D01*
G37*
G36*
X115150887Y-103752596D02*
G01*
X115387653Y-103850668D01*
X115387655Y-103850669D01*
X115600739Y-103993047D01*
X115781953Y-104174261D01*
X115834650Y-104253127D01*
X115924332Y-104387347D01*
X116022404Y-104624113D01*
X116072400Y-104875461D01*
X116072400Y-105131739D01*
X116022404Y-105383087D01*
X115924332Y-105619853D01*
X115924331Y-105619855D01*
X115781953Y-105832939D01*
X115600739Y-106014153D01*
X115387655Y-106156531D01*
X115387654Y-106156532D01*
X115387653Y-106156532D01*
X115150887Y-106254604D01*
X114899539Y-106304600D01*
X114643261Y-106304600D01*
X114391913Y-106254604D01*
X114155147Y-106156532D01*
X114155146Y-106156532D01*
X114155145Y-106156531D01*
X113942061Y-106014153D01*
X113760847Y-105832939D01*
X113618469Y-105619855D01*
X113618468Y-105619853D01*
X113520396Y-105383087D01*
X113470400Y-105131739D01*
X113470400Y-104875461D01*
X113520396Y-104624113D01*
X113618468Y-104387347D01*
X113708151Y-104253127D01*
X113760847Y-104174261D01*
X113942061Y-103993047D01*
X114155145Y-103850669D01*
X114155147Y-103850668D01*
X114391913Y-103752596D01*
X114643261Y-103702600D01*
X114899539Y-103702600D01*
X115150887Y-103752596D01*
X115150887Y-103752596D01*
G37*
G36*
X86597442Y-103182018D02*
G01*
X86663627Y-103188537D01*
X86833466Y-103240057D01*
X86989991Y-103323722D01*
X87025729Y-103353052D01*
X87127186Y-103436314D01*
X87210448Y-103537771D01*
X87239778Y-103573509D01*
X87323443Y-103730034D01*
X87374963Y-103899873D01*
X87392359Y-104076500D01*
X87374963Y-104253127D01*
X87323443Y-104422966D01*
X87239778Y-104579491D01*
X87210448Y-104615229D01*
X87127186Y-104716686D01*
X87025729Y-104799948D01*
X86989991Y-104829278D01*
X86833466Y-104912943D01*
X86663627Y-104964463D01*
X86597442Y-104970982D01*
X86531260Y-104977500D01*
X86442740Y-104977500D01*
X86376558Y-104970982D01*
X86310373Y-104964463D01*
X86140534Y-104912943D01*
X85984009Y-104829278D01*
X85948271Y-104799948D01*
X85846814Y-104716686D01*
X85763552Y-104615229D01*
X85734222Y-104579491D01*
X85650557Y-104422966D01*
X85599037Y-104253127D01*
X85581641Y-104076500D01*
X85599037Y-103899873D01*
X85650557Y-103730034D01*
X85734222Y-103573509D01*
X85763552Y-103537771D01*
X85846814Y-103436314D01*
X85948271Y-103353052D01*
X85984009Y-103323722D01*
X86140534Y-103240057D01*
X86310373Y-103188537D01*
X86376558Y-103182018D01*
X86442740Y-103175500D01*
X86531260Y-103175500D01*
X86597442Y-103182018D01*
X86597442Y-103182018D01*
G37*
G36*
X93238000Y-102890000D02*
G01*
X91136000Y-102890000D01*
X91136000Y-100788000D01*
X93238000Y-100788000D01*
X93238000Y-102890000D01*
X93238000Y-102890000D01*
G37*
G36*
X100238000Y-102890000D02*
G01*
X98136000Y-102890000D01*
X98136000Y-100788000D01*
X100238000Y-100788000D01*
X100238000Y-102890000D01*
X100238000Y-102890000D01*
G37*
G36*
X86597442Y-100642018D02*
G01*
X86663627Y-100648537D01*
X86833466Y-100700057D01*
X86989991Y-100783722D01*
X87025729Y-100813052D01*
X87127186Y-100896314D01*
X87194223Y-100978000D01*
X87239778Y-101033509D01*
X87323443Y-101190034D01*
X87374963Y-101359873D01*
X87392359Y-101536500D01*
X87374963Y-101713127D01*
X87323443Y-101882966D01*
X87239778Y-102039491D01*
X87210448Y-102075229D01*
X87127186Y-102176686D01*
X87025729Y-102259948D01*
X86989991Y-102289278D01*
X86833466Y-102372943D01*
X86663627Y-102424463D01*
X86597443Y-102430981D01*
X86531260Y-102437500D01*
X86442740Y-102437500D01*
X86376558Y-102430982D01*
X86310373Y-102424463D01*
X86140534Y-102372943D01*
X85984009Y-102289278D01*
X85948271Y-102259948D01*
X85846814Y-102176686D01*
X85763552Y-102075229D01*
X85734222Y-102039491D01*
X85650557Y-101882966D01*
X85599037Y-101713127D01*
X85581641Y-101536500D01*
X85599037Y-101359873D01*
X85650557Y-101190034D01*
X85734222Y-101033509D01*
X85779777Y-100978000D01*
X85846814Y-100896314D01*
X85948271Y-100813052D01*
X85984009Y-100783722D01*
X86140534Y-100700057D01*
X86310373Y-100648537D01*
X86376557Y-100642019D01*
X86442740Y-100635500D01*
X86531260Y-100635500D01*
X86597442Y-100642018D01*
X86597442Y-100642018D01*
G37*
G36*
X81387400Y-102169000D02*
G01*
X80385400Y-102169000D01*
X80385400Y-101067000D01*
X81387400Y-101067000D01*
X81387400Y-102169000D01*
X81387400Y-102169000D01*
G37*
G36*
X82987400Y-102169000D02*
G01*
X81985400Y-102169000D01*
X81985400Y-101067000D01*
X82987400Y-101067000D01*
X82987400Y-102169000D01*
X82987400Y-102169000D01*
G37*
G36*
X86597442Y-98102018D02*
G01*
X86663627Y-98108537D01*
X86833466Y-98160057D01*
X86989991Y-98243722D01*
X87025729Y-98273052D01*
X87127186Y-98356314D01*
X87210448Y-98457771D01*
X87239778Y-98493509D01*
X87323443Y-98650034D01*
X87374963Y-98819873D01*
X87392359Y-98996500D01*
X87374963Y-99173127D01*
X87323443Y-99342966D01*
X87239778Y-99499491D01*
X87210448Y-99535229D01*
X87127186Y-99636686D01*
X87025729Y-99719948D01*
X86989991Y-99749278D01*
X86833466Y-99832943D01*
X86663627Y-99884463D01*
X86597443Y-99890981D01*
X86531260Y-99897500D01*
X86442740Y-99897500D01*
X86376557Y-99890981D01*
X86310373Y-99884463D01*
X86140534Y-99832943D01*
X85984009Y-99749278D01*
X85948271Y-99719948D01*
X85846814Y-99636686D01*
X85763552Y-99535229D01*
X85734222Y-99499491D01*
X85650557Y-99342966D01*
X85599037Y-99173127D01*
X85581641Y-98996500D01*
X85599037Y-98819873D01*
X85650557Y-98650034D01*
X85734222Y-98493509D01*
X85763552Y-98457771D01*
X85846814Y-98356314D01*
X85948271Y-98273052D01*
X85984009Y-98243722D01*
X86140534Y-98160057D01*
X86310373Y-98108537D01*
X86376558Y-98102018D01*
X86442740Y-98095500D01*
X86531260Y-98095500D01*
X86597442Y-98102018D01*
X86597442Y-98102018D01*
G37*
G36*
X82987400Y-98069000D02*
G01*
X81985400Y-98069000D01*
X81985400Y-96967000D01*
X82987400Y-96967000D01*
X82987400Y-98069000D01*
X82987400Y-98069000D01*
G37*
G36*
X81387400Y-98069000D02*
G01*
X80385400Y-98069000D01*
X80385400Y-96967000D01*
X81387400Y-96967000D01*
X81387400Y-98069000D01*
X81387400Y-98069000D01*
G37*
M02*
