G04 #@! TF.GenerationSoftware,KiCad,Pcbnew,(5.1.4)-1*
G04 #@! TF.CreationDate,2020-11-25T16:32:24+01:00*
G04 #@! TF.ProjectId,iot_plant_watering_sensor_esp32,696f745f-706c-4616-9e74-5f7761746572,rev?*
G04 #@! TF.SameCoordinates,Original*
G04 #@! TF.FileFunction,Soldermask,Top*
G04 #@! TF.FilePolarity,Negative*
%FSLAX46Y46*%
G04 Gerber Fmt 4.6, Leading zero omitted, Abs format (unit mm)*
G04 Created by KiCad (PCBNEW (5.1.4)-1) date 2020-11-25 16:32:24*
%MOMM*%
%LPD*%
G04 APERTURE LIST*
%ADD10C,0.100000*%
G04 APERTURE END LIST*
D10*
G36*
X103117000Y-114580000D02*
G01*
X102115000Y-114580000D01*
X102115000Y-112478000D01*
X103117000Y-112478000D01*
X103117000Y-114580000D01*
X103117000Y-114580000D01*
G37*
G36*
X101847000Y-114580000D02*
G01*
X100845000Y-114580000D01*
X100845000Y-112478000D01*
X101847000Y-112478000D01*
X101847000Y-114580000D01*
X101847000Y-114580000D01*
G37*
G36*
X86607000Y-114580000D02*
G01*
X85605000Y-114580000D01*
X85605000Y-112478000D01*
X86607000Y-112478000D01*
X86607000Y-114580000D01*
X86607000Y-114580000D01*
G37*
G36*
X87877000Y-114580000D02*
G01*
X86875000Y-114580000D01*
X86875000Y-112478000D01*
X87877000Y-112478000D01*
X87877000Y-114580000D01*
X87877000Y-114580000D01*
G37*
G36*
X89147000Y-114580000D02*
G01*
X88145000Y-114580000D01*
X88145000Y-112478000D01*
X89147000Y-112478000D01*
X89147000Y-114580000D01*
X89147000Y-114580000D01*
G37*
G36*
X90417000Y-114580000D02*
G01*
X89415000Y-114580000D01*
X89415000Y-112478000D01*
X90417000Y-112478000D01*
X90417000Y-114580000D01*
X90417000Y-114580000D01*
G37*
G36*
X91687000Y-114580000D02*
G01*
X90685000Y-114580000D01*
X90685000Y-112478000D01*
X91687000Y-112478000D01*
X91687000Y-114580000D01*
X91687000Y-114580000D01*
G37*
G36*
X92957000Y-114580000D02*
G01*
X91955000Y-114580000D01*
X91955000Y-112478000D01*
X92957000Y-112478000D01*
X92957000Y-114580000D01*
X92957000Y-114580000D01*
G37*
G36*
X95497000Y-114580000D02*
G01*
X94495000Y-114580000D01*
X94495000Y-112478000D01*
X95497000Y-112478000D01*
X95497000Y-114580000D01*
X95497000Y-114580000D01*
G37*
G36*
X94227000Y-114580000D02*
G01*
X93225000Y-114580000D01*
X93225000Y-112478000D01*
X94227000Y-112478000D01*
X94227000Y-114580000D01*
X94227000Y-114580000D01*
G37*
G36*
X100577000Y-114580000D02*
G01*
X99575000Y-114580000D01*
X99575000Y-112478000D01*
X100577000Y-112478000D01*
X100577000Y-114580000D01*
X100577000Y-114580000D01*
G37*
G36*
X99307000Y-114580000D02*
G01*
X98305000Y-114580000D01*
X98305000Y-112478000D01*
X99307000Y-112478000D01*
X99307000Y-114580000D01*
X99307000Y-114580000D01*
G37*
G36*
X96767000Y-114580000D02*
G01*
X95765000Y-114580000D01*
X95765000Y-112478000D01*
X96767000Y-112478000D01*
X96767000Y-114580000D01*
X96767000Y-114580000D01*
G37*
G36*
X98037000Y-114580000D02*
G01*
X97035000Y-114580000D01*
X97035000Y-112478000D01*
X98037000Y-112478000D01*
X98037000Y-114580000D01*
X98037000Y-114580000D01*
G37*
G36*
X110147721Y-110976174D02*
G01*
X110247995Y-111017709D01*
X110271869Y-111033661D01*
X110338242Y-111078010D01*
X110414990Y-111154758D01*
X110445345Y-111200188D01*
X110475291Y-111245005D01*
X110516826Y-111345279D01*
X110538000Y-111451730D01*
X110538000Y-111560270D01*
X110516826Y-111666721D01*
X110475291Y-111766995D01*
X110475290Y-111766996D01*
X110414990Y-111857242D01*
X110338242Y-111933990D01*
X110312949Y-111950890D01*
X110247995Y-111994291D01*
X110147721Y-112035826D01*
X110041270Y-112057000D01*
X109932730Y-112057000D01*
X109826279Y-112035826D01*
X109726005Y-111994291D01*
X109661051Y-111950890D01*
X109635758Y-111933990D01*
X109559010Y-111857242D01*
X109498710Y-111766996D01*
X109498709Y-111766995D01*
X109457174Y-111666721D01*
X109436000Y-111560270D01*
X109436000Y-111451730D01*
X109457174Y-111345279D01*
X109498709Y-111245005D01*
X109528655Y-111200188D01*
X109559010Y-111154758D01*
X109635758Y-111078010D01*
X109702131Y-111033661D01*
X109726005Y-111017709D01*
X109826279Y-110976174D01*
X109932730Y-110955000D01*
X110041270Y-110955000D01*
X110147721Y-110976174D01*
X110147721Y-110976174D01*
G37*
G36*
X112047721Y-110976174D02*
G01*
X112147995Y-111017709D01*
X112171869Y-111033661D01*
X112238242Y-111078010D01*
X112314990Y-111154758D01*
X112345345Y-111200188D01*
X112375291Y-111245005D01*
X112416826Y-111345279D01*
X112438000Y-111451730D01*
X112438000Y-111560270D01*
X112416826Y-111666721D01*
X112375291Y-111766995D01*
X112375290Y-111766996D01*
X112314990Y-111857242D01*
X112238242Y-111933990D01*
X112212949Y-111950890D01*
X112147995Y-111994291D01*
X112047721Y-112035826D01*
X111941270Y-112057000D01*
X111832730Y-112057000D01*
X111726279Y-112035826D01*
X111626005Y-111994291D01*
X111561051Y-111950890D01*
X111535758Y-111933990D01*
X111459010Y-111857242D01*
X111398710Y-111766996D01*
X111398709Y-111766995D01*
X111357174Y-111666721D01*
X111336000Y-111560270D01*
X111336000Y-111451730D01*
X111357174Y-111345279D01*
X111398709Y-111245005D01*
X111428655Y-111200188D01*
X111459010Y-111154758D01*
X111535758Y-111078010D01*
X111602131Y-111033661D01*
X111626005Y-111017709D01*
X111726279Y-110976174D01*
X111832730Y-110955000D01*
X111941270Y-110955000D01*
X112047721Y-110976174D01*
X112047721Y-110976174D01*
G37*
G36*
X122109591Y-110984085D02*
G01*
X122143569Y-110994393D01*
X122174890Y-111011134D01*
X122202339Y-111033661D01*
X122224866Y-111061110D01*
X122241607Y-111092431D01*
X122251915Y-111126409D01*
X122256000Y-111167890D01*
X122256000Y-111844110D01*
X122251915Y-111885591D01*
X122241607Y-111919569D01*
X122224866Y-111950890D01*
X122202339Y-111978339D01*
X122174890Y-112000866D01*
X122143569Y-112017607D01*
X122109591Y-112027915D01*
X122068110Y-112032000D01*
X121466890Y-112032000D01*
X121425409Y-112027915D01*
X121391431Y-112017607D01*
X121360110Y-112000866D01*
X121332661Y-111978339D01*
X121310134Y-111950890D01*
X121293393Y-111919569D01*
X121283085Y-111885591D01*
X121279000Y-111844110D01*
X121279000Y-111167890D01*
X121283085Y-111126409D01*
X121293393Y-111092431D01*
X121310134Y-111061110D01*
X121332661Y-111033661D01*
X121360110Y-111011134D01*
X121391431Y-110994393D01*
X121425409Y-110984085D01*
X121466890Y-110980000D01*
X122068110Y-110980000D01*
X122109591Y-110984085D01*
X122109591Y-110984085D01*
G37*
G36*
X129399591Y-110984085D02*
G01*
X129433569Y-110994393D01*
X129464890Y-111011134D01*
X129492339Y-111033661D01*
X129514866Y-111061110D01*
X129531607Y-111092431D01*
X129541915Y-111126409D01*
X129546000Y-111167890D01*
X129546000Y-111844110D01*
X129541915Y-111885591D01*
X129531607Y-111919569D01*
X129514866Y-111950890D01*
X129492339Y-111978339D01*
X129464890Y-112000866D01*
X129433569Y-112017607D01*
X129399591Y-112027915D01*
X129358110Y-112032000D01*
X128756890Y-112032000D01*
X128715409Y-112027915D01*
X128681431Y-112017607D01*
X128650110Y-112000866D01*
X128622661Y-111978339D01*
X128600134Y-111950890D01*
X128583393Y-111919569D01*
X128573085Y-111885591D01*
X128569000Y-111844110D01*
X128569000Y-111167890D01*
X128573085Y-111126409D01*
X128583393Y-111092431D01*
X128600134Y-111061110D01*
X128622661Y-111033661D01*
X128650110Y-111011134D01*
X128681431Y-110994393D01*
X128715409Y-110984085D01*
X128756890Y-110980000D01*
X129358110Y-110980000D01*
X129399591Y-110984085D01*
X129399591Y-110984085D01*
G37*
G36*
X123684591Y-110984085D02*
G01*
X123718569Y-110994393D01*
X123749890Y-111011134D01*
X123777339Y-111033661D01*
X123799866Y-111061110D01*
X123816607Y-111092431D01*
X123826915Y-111126409D01*
X123831000Y-111167890D01*
X123831000Y-111844110D01*
X123826915Y-111885591D01*
X123816607Y-111919569D01*
X123799866Y-111950890D01*
X123777339Y-111978339D01*
X123749890Y-112000866D01*
X123718569Y-112017607D01*
X123684591Y-112027915D01*
X123643110Y-112032000D01*
X123041890Y-112032000D01*
X123000409Y-112027915D01*
X122966431Y-112017607D01*
X122935110Y-112000866D01*
X122907661Y-111978339D01*
X122885134Y-111950890D01*
X122868393Y-111919569D01*
X122858085Y-111885591D01*
X122854000Y-111844110D01*
X122854000Y-111167890D01*
X122858085Y-111126409D01*
X122868393Y-111092431D01*
X122885134Y-111061110D01*
X122907661Y-111033661D01*
X122935110Y-111011134D01*
X122966431Y-110994393D01*
X123000409Y-110984085D01*
X123041890Y-110980000D01*
X123643110Y-110980000D01*
X123684591Y-110984085D01*
X123684591Y-110984085D01*
G37*
G36*
X127824591Y-110984085D02*
G01*
X127858569Y-110994393D01*
X127889890Y-111011134D01*
X127917339Y-111033661D01*
X127939866Y-111061110D01*
X127956607Y-111092431D01*
X127966915Y-111126409D01*
X127971000Y-111167890D01*
X127971000Y-111844110D01*
X127966915Y-111885591D01*
X127956607Y-111919569D01*
X127939866Y-111950890D01*
X127917339Y-111978339D01*
X127889890Y-112000866D01*
X127858569Y-112017607D01*
X127824591Y-112027915D01*
X127783110Y-112032000D01*
X127181890Y-112032000D01*
X127140409Y-112027915D01*
X127106431Y-112017607D01*
X127075110Y-112000866D01*
X127047661Y-111978339D01*
X127025134Y-111950890D01*
X127008393Y-111919569D01*
X126998085Y-111885591D01*
X126994000Y-111844110D01*
X126994000Y-111167890D01*
X126998085Y-111126409D01*
X127008393Y-111092431D01*
X127025134Y-111061110D01*
X127047661Y-111033661D01*
X127075110Y-111011134D01*
X127106431Y-110994393D01*
X127140409Y-110984085D01*
X127181890Y-110980000D01*
X127783110Y-110980000D01*
X127824591Y-110984085D01*
X127824591Y-110984085D01*
G37*
G36*
X120503928Y-111157764D02*
G01*
X120525009Y-111164160D01*
X120544445Y-111174548D01*
X120561476Y-111188524D01*
X120575452Y-111205555D01*
X120585840Y-111224991D01*
X120592236Y-111246072D01*
X120595000Y-111274140D01*
X120595000Y-111737860D01*
X120592236Y-111765928D01*
X120585840Y-111787009D01*
X120575452Y-111806445D01*
X120561476Y-111823476D01*
X120544445Y-111837452D01*
X120525009Y-111847840D01*
X120503928Y-111854236D01*
X120475860Y-111857000D01*
X118662140Y-111857000D01*
X118634072Y-111854236D01*
X118612991Y-111847840D01*
X118593555Y-111837452D01*
X118576524Y-111823476D01*
X118562548Y-111806445D01*
X118552160Y-111787009D01*
X118545764Y-111765928D01*
X118543000Y-111737860D01*
X118543000Y-111274140D01*
X118545764Y-111246072D01*
X118552160Y-111224991D01*
X118562548Y-111205555D01*
X118576524Y-111188524D01*
X118593555Y-111174548D01*
X118612991Y-111164160D01*
X118634072Y-111157764D01*
X118662140Y-111155000D01*
X120475860Y-111155000D01*
X120503928Y-111157764D01*
X120503928Y-111157764D01*
G37*
G36*
X115553928Y-111157764D02*
G01*
X115575009Y-111164160D01*
X115594445Y-111174548D01*
X115611476Y-111188524D01*
X115625452Y-111205555D01*
X115635840Y-111224991D01*
X115642236Y-111246072D01*
X115645000Y-111274140D01*
X115645000Y-111737860D01*
X115642236Y-111765928D01*
X115635840Y-111787009D01*
X115625452Y-111806445D01*
X115611476Y-111823476D01*
X115594445Y-111837452D01*
X115575009Y-111847840D01*
X115553928Y-111854236D01*
X115525860Y-111857000D01*
X113712140Y-111857000D01*
X113684072Y-111854236D01*
X113662991Y-111847840D01*
X113643555Y-111837452D01*
X113626524Y-111823476D01*
X113612548Y-111806445D01*
X113602160Y-111787009D01*
X113595764Y-111765928D01*
X113593000Y-111737860D01*
X113593000Y-111274140D01*
X113595764Y-111246072D01*
X113602160Y-111224991D01*
X113612548Y-111205555D01*
X113626524Y-111188524D01*
X113643555Y-111174548D01*
X113662991Y-111164160D01*
X113684072Y-111157764D01*
X113712140Y-111155000D01*
X115525860Y-111155000D01*
X115553928Y-111157764D01*
X115553928Y-111157764D01*
G37*
G36*
X104667000Y-111245000D02*
G01*
X102565000Y-111245000D01*
X102565000Y-110243000D01*
X104667000Y-110243000D01*
X104667000Y-111245000D01*
X104667000Y-111245000D01*
G37*
G36*
X142761604Y-107848347D02*
G01*
X142798144Y-107859432D01*
X142831821Y-107877433D01*
X142861341Y-107901659D01*
X142885567Y-107931179D01*
X142903568Y-107964856D01*
X142914653Y-108001396D01*
X142919000Y-108045538D01*
X142919000Y-110394462D01*
X142914653Y-110438604D01*
X142903568Y-110475144D01*
X142885567Y-110508821D01*
X142861341Y-110538341D01*
X142831821Y-110562567D01*
X142798144Y-110580568D01*
X142761604Y-110591653D01*
X142717462Y-110596000D01*
X141768538Y-110596000D01*
X141724396Y-110591653D01*
X141687856Y-110580568D01*
X141654179Y-110562567D01*
X141624659Y-110538341D01*
X141600433Y-110508821D01*
X141582432Y-110475144D01*
X141571347Y-110438604D01*
X141567000Y-110394462D01*
X141567000Y-108045538D01*
X141571347Y-108001396D01*
X141582432Y-107964856D01*
X141600433Y-107931179D01*
X141624659Y-107901659D01*
X141654179Y-107877433D01*
X141687856Y-107859432D01*
X141724396Y-107848347D01*
X141768538Y-107844000D01*
X142717462Y-107844000D01*
X142761604Y-107848347D01*
X142761604Y-107848347D01*
G37*
G36*
X139961604Y-107848347D02*
G01*
X139998144Y-107859432D01*
X140031821Y-107877433D01*
X140061341Y-107901659D01*
X140085567Y-107931179D01*
X140103568Y-107964856D01*
X140114653Y-108001396D01*
X140119000Y-108045538D01*
X140119000Y-110394462D01*
X140114653Y-110438604D01*
X140103568Y-110475144D01*
X140085567Y-110508821D01*
X140061341Y-110538341D01*
X140031821Y-110562567D01*
X139998144Y-110580568D01*
X139961604Y-110591653D01*
X139917462Y-110596000D01*
X138968538Y-110596000D01*
X138924396Y-110591653D01*
X138887856Y-110580568D01*
X138854179Y-110562567D01*
X138824659Y-110538341D01*
X138800433Y-110508821D01*
X138782432Y-110475144D01*
X138771347Y-110438604D01*
X138767000Y-110394462D01*
X138767000Y-108045538D01*
X138771347Y-108001396D01*
X138782432Y-107964856D01*
X138800433Y-107931179D01*
X138824659Y-107901659D01*
X138854179Y-107877433D01*
X138887856Y-107859432D01*
X138924396Y-107848347D01*
X138968538Y-107844000D01*
X139917462Y-107844000D01*
X139961604Y-107848347D01*
X139961604Y-107848347D01*
G37*
G36*
X120503928Y-109887764D02*
G01*
X120525009Y-109894160D01*
X120544445Y-109904548D01*
X120561476Y-109918524D01*
X120575452Y-109935555D01*
X120585840Y-109954991D01*
X120592236Y-109976072D01*
X120595000Y-110004140D01*
X120595000Y-110467860D01*
X120592236Y-110495928D01*
X120585840Y-110517009D01*
X120575452Y-110536445D01*
X120561476Y-110553476D01*
X120544445Y-110567452D01*
X120525009Y-110577840D01*
X120503928Y-110584236D01*
X120475860Y-110587000D01*
X118662140Y-110587000D01*
X118634072Y-110584236D01*
X118612991Y-110577840D01*
X118593555Y-110567452D01*
X118576524Y-110553476D01*
X118562548Y-110536445D01*
X118552160Y-110517009D01*
X118545764Y-110495928D01*
X118543000Y-110467860D01*
X118543000Y-110004140D01*
X118545764Y-109976072D01*
X118552160Y-109954991D01*
X118562548Y-109935555D01*
X118576524Y-109918524D01*
X118593555Y-109904548D01*
X118612991Y-109894160D01*
X118634072Y-109887764D01*
X118662140Y-109885000D01*
X120475860Y-109885000D01*
X120503928Y-109887764D01*
X120503928Y-109887764D01*
G37*
G36*
X115553928Y-109887764D02*
G01*
X115575009Y-109894160D01*
X115594445Y-109904548D01*
X115611476Y-109918524D01*
X115625452Y-109935555D01*
X115635840Y-109954991D01*
X115642236Y-109976072D01*
X115645000Y-110004140D01*
X115645000Y-110467860D01*
X115642236Y-110495928D01*
X115635840Y-110517009D01*
X115625452Y-110536445D01*
X115611476Y-110553476D01*
X115594445Y-110567452D01*
X115575009Y-110577840D01*
X115553928Y-110584236D01*
X115525860Y-110587000D01*
X113712140Y-110587000D01*
X113684072Y-110584236D01*
X113662991Y-110577840D01*
X113643555Y-110567452D01*
X113626524Y-110553476D01*
X113612548Y-110536445D01*
X113602160Y-110517009D01*
X113595764Y-110495928D01*
X113593000Y-110467860D01*
X113593000Y-110004140D01*
X113595764Y-109976072D01*
X113602160Y-109954991D01*
X113612548Y-109935555D01*
X113626524Y-109918524D01*
X113643555Y-109904548D01*
X113662991Y-109894160D01*
X113684072Y-109887764D01*
X113712140Y-109885000D01*
X115525860Y-109885000D01*
X115553928Y-109887764D01*
X115553928Y-109887764D01*
G37*
G36*
X135262604Y-108679347D02*
G01*
X135299144Y-108690432D01*
X135332821Y-108708433D01*
X135362341Y-108732659D01*
X135386567Y-108762179D01*
X135404568Y-108795856D01*
X135415653Y-108832396D01*
X135420000Y-108876538D01*
X135420000Y-110325462D01*
X135415653Y-110369604D01*
X135404568Y-110406144D01*
X135386567Y-110439821D01*
X135362341Y-110469341D01*
X135332821Y-110493567D01*
X135299144Y-110511568D01*
X135262604Y-110522653D01*
X135218462Y-110527000D01*
X134269538Y-110527000D01*
X134225396Y-110522653D01*
X134188856Y-110511568D01*
X134155179Y-110493567D01*
X134125659Y-110469341D01*
X134101433Y-110439821D01*
X134083432Y-110406144D01*
X134072347Y-110369604D01*
X134068000Y-110325462D01*
X134068000Y-108876538D01*
X134072347Y-108832396D01*
X134083432Y-108795856D01*
X134101433Y-108762179D01*
X134125659Y-108732659D01*
X134155179Y-108708433D01*
X134188856Y-108690432D01*
X134225396Y-108679347D01*
X134269538Y-108675000D01*
X135218462Y-108675000D01*
X135262604Y-108679347D01*
X135262604Y-108679347D01*
G37*
G36*
X138062604Y-108679347D02*
G01*
X138099144Y-108690432D01*
X138132821Y-108708433D01*
X138162341Y-108732659D01*
X138186567Y-108762179D01*
X138204568Y-108795856D01*
X138215653Y-108832396D01*
X138220000Y-108876538D01*
X138220000Y-110325462D01*
X138215653Y-110369604D01*
X138204568Y-110406144D01*
X138186567Y-110439821D01*
X138162341Y-110469341D01*
X138132821Y-110493567D01*
X138099144Y-110511568D01*
X138062604Y-110522653D01*
X138018462Y-110527000D01*
X137069538Y-110527000D01*
X137025396Y-110522653D01*
X136988856Y-110511568D01*
X136955179Y-110493567D01*
X136925659Y-110469341D01*
X136901433Y-110439821D01*
X136883432Y-110406144D01*
X136872347Y-110369604D01*
X136868000Y-110325462D01*
X136868000Y-108876538D01*
X136872347Y-108832396D01*
X136883432Y-108795856D01*
X136901433Y-108762179D01*
X136925659Y-108732659D01*
X136955179Y-108708433D01*
X136988856Y-108690432D01*
X137025396Y-108679347D01*
X137069538Y-108675000D01*
X138018462Y-108675000D01*
X138062604Y-108679347D01*
X138062604Y-108679347D01*
G37*
G36*
X123684591Y-109333085D02*
G01*
X123718569Y-109343393D01*
X123749890Y-109360134D01*
X123777339Y-109382661D01*
X123799866Y-109410110D01*
X123816607Y-109441431D01*
X123826915Y-109475409D01*
X123831000Y-109516890D01*
X123831000Y-110193110D01*
X123826915Y-110234591D01*
X123816607Y-110268569D01*
X123799866Y-110299890D01*
X123777339Y-110327339D01*
X123749890Y-110349866D01*
X123718569Y-110366607D01*
X123684591Y-110376915D01*
X123643110Y-110381000D01*
X123041890Y-110381000D01*
X123000409Y-110376915D01*
X122966431Y-110366607D01*
X122935110Y-110349866D01*
X122907661Y-110327339D01*
X122885134Y-110299890D01*
X122868393Y-110268569D01*
X122858085Y-110234591D01*
X122854000Y-110193110D01*
X122854000Y-109516890D01*
X122858085Y-109475409D01*
X122868393Y-109441431D01*
X122885134Y-109410110D01*
X122907661Y-109382661D01*
X122935110Y-109360134D01*
X122966431Y-109343393D01*
X123000409Y-109333085D01*
X123041890Y-109329000D01*
X123643110Y-109329000D01*
X123684591Y-109333085D01*
X123684591Y-109333085D01*
G37*
G36*
X122109591Y-109333085D02*
G01*
X122143569Y-109343393D01*
X122174890Y-109360134D01*
X122202339Y-109382661D01*
X122224866Y-109410110D01*
X122241607Y-109441431D01*
X122251915Y-109475409D01*
X122256000Y-109516890D01*
X122256000Y-110193110D01*
X122251915Y-110234591D01*
X122241607Y-110268569D01*
X122224866Y-110299890D01*
X122202339Y-110327339D01*
X122174890Y-110349866D01*
X122143569Y-110366607D01*
X122109591Y-110376915D01*
X122068110Y-110381000D01*
X121466890Y-110381000D01*
X121425409Y-110376915D01*
X121391431Y-110366607D01*
X121360110Y-110349866D01*
X121332661Y-110327339D01*
X121310134Y-110299890D01*
X121293393Y-110268569D01*
X121283085Y-110234591D01*
X121279000Y-110193110D01*
X121279000Y-109516890D01*
X121283085Y-109475409D01*
X121293393Y-109441431D01*
X121310134Y-109410110D01*
X121332661Y-109382661D01*
X121360110Y-109360134D01*
X121391431Y-109343393D01*
X121425409Y-109333085D01*
X121466890Y-109329000D01*
X122068110Y-109329000D01*
X122109591Y-109333085D01*
X122109591Y-109333085D01*
G37*
G36*
X129321000Y-110256000D02*
G01*
X128619000Y-110256000D01*
X128619000Y-109454000D01*
X129321000Y-109454000D01*
X129321000Y-110256000D01*
X129321000Y-110256000D01*
G37*
G36*
X127921000Y-110256000D02*
G01*
X127219000Y-110256000D01*
X127219000Y-109454000D01*
X127921000Y-109454000D01*
X127921000Y-110256000D01*
X127921000Y-110256000D01*
G37*
G36*
X87388000Y-110057500D02*
G01*
X85586000Y-110057500D01*
X85586000Y-108255500D01*
X87388000Y-108255500D01*
X87388000Y-110057500D01*
X87388000Y-110057500D01*
G37*
G36*
X104667000Y-109975000D02*
G01*
X102565000Y-109975000D01*
X102565000Y-108973000D01*
X104667000Y-108973000D01*
X104667000Y-109975000D01*
X104667000Y-109975000D01*
G37*
G36*
X115553928Y-108617764D02*
G01*
X115575009Y-108624160D01*
X115594445Y-108634548D01*
X115611476Y-108648524D01*
X115625452Y-108665555D01*
X115635840Y-108684991D01*
X115642236Y-108706072D01*
X115645000Y-108734140D01*
X115645000Y-109197860D01*
X115642236Y-109225928D01*
X115635840Y-109247009D01*
X115625452Y-109266445D01*
X115611476Y-109283476D01*
X115594445Y-109297452D01*
X115575009Y-109307840D01*
X115553928Y-109314236D01*
X115525860Y-109317000D01*
X113712140Y-109317000D01*
X113684072Y-109314236D01*
X113662991Y-109307840D01*
X113643555Y-109297452D01*
X113626524Y-109283476D01*
X113612548Y-109266445D01*
X113602160Y-109247009D01*
X113595764Y-109225928D01*
X113593000Y-109197860D01*
X113593000Y-108734140D01*
X113595764Y-108706072D01*
X113602160Y-108684991D01*
X113612548Y-108665555D01*
X113626524Y-108648524D01*
X113643555Y-108634548D01*
X113662991Y-108624160D01*
X113684072Y-108617764D01*
X113712140Y-108615000D01*
X115525860Y-108615000D01*
X115553928Y-108617764D01*
X115553928Y-108617764D01*
G37*
G36*
X120503928Y-108617764D02*
G01*
X120525009Y-108624160D01*
X120544445Y-108634548D01*
X120561476Y-108648524D01*
X120575452Y-108665555D01*
X120585840Y-108684991D01*
X120592236Y-108706072D01*
X120595000Y-108734140D01*
X120595000Y-109197860D01*
X120592236Y-109225928D01*
X120585840Y-109247009D01*
X120575452Y-109266445D01*
X120561476Y-109283476D01*
X120544445Y-109297452D01*
X120525009Y-109307840D01*
X120503928Y-109314236D01*
X120475860Y-109317000D01*
X118662140Y-109317000D01*
X118634072Y-109314236D01*
X118612991Y-109307840D01*
X118593555Y-109297452D01*
X118576524Y-109283476D01*
X118562548Y-109266445D01*
X118552160Y-109247009D01*
X118545764Y-109225928D01*
X118543000Y-109197860D01*
X118543000Y-108734140D01*
X118545764Y-108706072D01*
X118552160Y-108684991D01*
X118562548Y-108665555D01*
X118576524Y-108648524D01*
X118593555Y-108634548D01*
X118612991Y-108624160D01*
X118634072Y-108617764D01*
X118662140Y-108615000D01*
X120475860Y-108615000D01*
X120503928Y-108617764D01*
X120503928Y-108617764D01*
G37*
G36*
X129399591Y-107809085D02*
G01*
X129433569Y-107819393D01*
X129464890Y-107836134D01*
X129492339Y-107858661D01*
X129514866Y-107886110D01*
X129531607Y-107917431D01*
X129541915Y-107951409D01*
X129546000Y-107992890D01*
X129546000Y-108669110D01*
X129541915Y-108710591D01*
X129531607Y-108744569D01*
X129514866Y-108775890D01*
X129492339Y-108803339D01*
X129464890Y-108825866D01*
X129433569Y-108842607D01*
X129399591Y-108852915D01*
X129358110Y-108857000D01*
X128756890Y-108857000D01*
X128715409Y-108852915D01*
X128681431Y-108842607D01*
X128650110Y-108825866D01*
X128622661Y-108803339D01*
X128600134Y-108775890D01*
X128583393Y-108744569D01*
X128573085Y-108710591D01*
X128569000Y-108669110D01*
X128569000Y-107992890D01*
X128573085Y-107951409D01*
X128583393Y-107917431D01*
X128600134Y-107886110D01*
X128622661Y-107858661D01*
X128650110Y-107836134D01*
X128681431Y-107819393D01*
X128715409Y-107809085D01*
X128756890Y-107805000D01*
X129358110Y-107805000D01*
X129399591Y-107809085D01*
X129399591Y-107809085D01*
G37*
G36*
X127824591Y-107809085D02*
G01*
X127858569Y-107819393D01*
X127889890Y-107836134D01*
X127917339Y-107858661D01*
X127939866Y-107886110D01*
X127956607Y-107917431D01*
X127966915Y-107951409D01*
X127971000Y-107992890D01*
X127971000Y-108669110D01*
X127966915Y-108710591D01*
X127956607Y-108744569D01*
X127939866Y-108775890D01*
X127917339Y-108803339D01*
X127889890Y-108825866D01*
X127858569Y-108842607D01*
X127824591Y-108852915D01*
X127783110Y-108857000D01*
X127181890Y-108857000D01*
X127140409Y-108852915D01*
X127106431Y-108842607D01*
X127075110Y-108825866D01*
X127047661Y-108803339D01*
X127025134Y-108775890D01*
X127008393Y-108744569D01*
X126998085Y-108710591D01*
X126994000Y-108669110D01*
X126994000Y-107992890D01*
X126998085Y-107951409D01*
X127008393Y-107917431D01*
X127025134Y-107886110D01*
X127047661Y-107858661D01*
X127075110Y-107836134D01*
X127106431Y-107819393D01*
X127140409Y-107809085D01*
X127181890Y-107805000D01*
X127783110Y-107805000D01*
X127824591Y-107809085D01*
X127824591Y-107809085D01*
G37*
G36*
X123684591Y-107809085D02*
G01*
X123718569Y-107819393D01*
X123749890Y-107836134D01*
X123777339Y-107858661D01*
X123799866Y-107886110D01*
X123816607Y-107917431D01*
X123826915Y-107951409D01*
X123831000Y-107992890D01*
X123831000Y-108669110D01*
X123826915Y-108710591D01*
X123816607Y-108744569D01*
X123799866Y-108775890D01*
X123777339Y-108803339D01*
X123749890Y-108825866D01*
X123718569Y-108842607D01*
X123684591Y-108852915D01*
X123643110Y-108857000D01*
X123041890Y-108857000D01*
X123000409Y-108852915D01*
X122966431Y-108842607D01*
X122935110Y-108825866D01*
X122907661Y-108803339D01*
X122885134Y-108775890D01*
X122868393Y-108744569D01*
X122858085Y-108710591D01*
X122854000Y-108669110D01*
X122854000Y-107992890D01*
X122858085Y-107951409D01*
X122868393Y-107917431D01*
X122885134Y-107886110D01*
X122907661Y-107858661D01*
X122935110Y-107836134D01*
X122966431Y-107819393D01*
X123000409Y-107809085D01*
X123041890Y-107805000D01*
X123643110Y-107805000D01*
X123684591Y-107809085D01*
X123684591Y-107809085D01*
G37*
G36*
X122109591Y-107809085D02*
G01*
X122143569Y-107819393D01*
X122174890Y-107836134D01*
X122202339Y-107858661D01*
X122224866Y-107886110D01*
X122241607Y-107917431D01*
X122251915Y-107951409D01*
X122256000Y-107992890D01*
X122256000Y-108669110D01*
X122251915Y-108710591D01*
X122241607Y-108744569D01*
X122224866Y-108775890D01*
X122202339Y-108803339D01*
X122174890Y-108825866D01*
X122143569Y-108842607D01*
X122109591Y-108852915D01*
X122068110Y-108857000D01*
X121466890Y-108857000D01*
X121425409Y-108852915D01*
X121391431Y-108842607D01*
X121360110Y-108825866D01*
X121332661Y-108803339D01*
X121310134Y-108775890D01*
X121293393Y-108744569D01*
X121283085Y-108710591D01*
X121279000Y-108669110D01*
X121279000Y-107992890D01*
X121283085Y-107951409D01*
X121293393Y-107917431D01*
X121310134Y-107886110D01*
X121332661Y-107858661D01*
X121360110Y-107836134D01*
X121391431Y-107819393D01*
X121425409Y-107809085D01*
X121466890Y-107805000D01*
X122068110Y-107805000D01*
X122109591Y-107809085D01*
X122109591Y-107809085D01*
G37*
G36*
X104667000Y-108705000D02*
G01*
X102565000Y-108705000D01*
X102565000Y-107703000D01*
X104667000Y-107703000D01*
X104667000Y-108705000D01*
X104667000Y-108705000D01*
G37*
G36*
X96157000Y-108580000D02*
G01*
X91055000Y-108580000D01*
X91055000Y-103478000D01*
X96157000Y-103478000D01*
X96157000Y-108580000D01*
X96157000Y-108580000D01*
G37*
G36*
X120503928Y-107347764D02*
G01*
X120525009Y-107354160D01*
X120544445Y-107364548D01*
X120561476Y-107378524D01*
X120575452Y-107395555D01*
X120585840Y-107414991D01*
X120592236Y-107436072D01*
X120595000Y-107464140D01*
X120595000Y-107927860D01*
X120592236Y-107955928D01*
X120585840Y-107977009D01*
X120575452Y-107996445D01*
X120561476Y-108013476D01*
X120544445Y-108027452D01*
X120525009Y-108037840D01*
X120503928Y-108044236D01*
X120475860Y-108047000D01*
X118662140Y-108047000D01*
X118634072Y-108044236D01*
X118612991Y-108037840D01*
X118593555Y-108027452D01*
X118576524Y-108013476D01*
X118562548Y-107996445D01*
X118552160Y-107977009D01*
X118545764Y-107955928D01*
X118543000Y-107927860D01*
X118543000Y-107464140D01*
X118545764Y-107436072D01*
X118552160Y-107414991D01*
X118562548Y-107395555D01*
X118576524Y-107378524D01*
X118593555Y-107364548D01*
X118612991Y-107354160D01*
X118634072Y-107347764D01*
X118662140Y-107345000D01*
X120475860Y-107345000D01*
X120503928Y-107347764D01*
X120503928Y-107347764D01*
G37*
G36*
X115553928Y-107347764D02*
G01*
X115575009Y-107354160D01*
X115594445Y-107364548D01*
X115611476Y-107378524D01*
X115625452Y-107395555D01*
X115635840Y-107414991D01*
X115642236Y-107436072D01*
X115645000Y-107464140D01*
X115645000Y-107927860D01*
X115642236Y-107955928D01*
X115635840Y-107977009D01*
X115625452Y-107996445D01*
X115611476Y-108013476D01*
X115594445Y-108027452D01*
X115575009Y-108037840D01*
X115553928Y-108044236D01*
X115525860Y-108047000D01*
X113712140Y-108047000D01*
X113684072Y-108044236D01*
X113662991Y-108037840D01*
X113643555Y-108027452D01*
X113626524Y-108013476D01*
X113612548Y-107996445D01*
X113602160Y-107977009D01*
X113595764Y-107955928D01*
X113593000Y-107927860D01*
X113593000Y-107464140D01*
X113595764Y-107436072D01*
X113602160Y-107414991D01*
X113612548Y-107395555D01*
X113626524Y-107378524D01*
X113643555Y-107364548D01*
X113662991Y-107354160D01*
X113684072Y-107347764D01*
X113712140Y-107345000D01*
X115525860Y-107345000D01*
X115553928Y-107347764D01*
X115553928Y-107347764D01*
G37*
G36*
X137908591Y-106920085D02*
G01*
X137942569Y-106930393D01*
X137973890Y-106947134D01*
X138001339Y-106969661D01*
X138023866Y-106997110D01*
X138040607Y-107028431D01*
X138050915Y-107062409D01*
X138055000Y-107103890D01*
X138055000Y-107780110D01*
X138050915Y-107821591D01*
X138040607Y-107855569D01*
X138023866Y-107886890D01*
X138001339Y-107914339D01*
X137973890Y-107936866D01*
X137942569Y-107953607D01*
X137908591Y-107963915D01*
X137867110Y-107968000D01*
X137265890Y-107968000D01*
X137224409Y-107963915D01*
X137190431Y-107953607D01*
X137159110Y-107936866D01*
X137131661Y-107914339D01*
X137109134Y-107886890D01*
X137092393Y-107855569D01*
X137082085Y-107821591D01*
X137078000Y-107780110D01*
X137078000Y-107103890D01*
X137082085Y-107062409D01*
X137092393Y-107028431D01*
X137109134Y-106997110D01*
X137131661Y-106969661D01*
X137159110Y-106947134D01*
X137190431Y-106930393D01*
X137224409Y-106920085D01*
X137265890Y-106916000D01*
X137867110Y-106916000D01*
X137908591Y-106920085D01*
X137908591Y-106920085D01*
G37*
G36*
X136333591Y-106920085D02*
G01*
X136367569Y-106930393D01*
X136398890Y-106947134D01*
X136426339Y-106969661D01*
X136448866Y-106997110D01*
X136465607Y-107028431D01*
X136475915Y-107062409D01*
X136480000Y-107103890D01*
X136480000Y-107780110D01*
X136475915Y-107821591D01*
X136465607Y-107855569D01*
X136448866Y-107886890D01*
X136426339Y-107914339D01*
X136398890Y-107936866D01*
X136367569Y-107953607D01*
X136333591Y-107963915D01*
X136292110Y-107968000D01*
X135690890Y-107968000D01*
X135649409Y-107963915D01*
X135615431Y-107953607D01*
X135584110Y-107936866D01*
X135556661Y-107914339D01*
X135534134Y-107886890D01*
X135517393Y-107855569D01*
X135507085Y-107821591D01*
X135503000Y-107780110D01*
X135503000Y-107103890D01*
X135507085Y-107062409D01*
X135517393Y-107028431D01*
X135534134Y-106997110D01*
X135556661Y-106969661D01*
X135584110Y-106947134D01*
X135615431Y-106930393D01*
X135649409Y-106920085D01*
X135690890Y-106916000D01*
X136292110Y-106916000D01*
X136333591Y-106920085D01*
X136333591Y-106920085D01*
G37*
G36*
X86597443Y-105722019D02*
G01*
X86663627Y-105728537D01*
X86833466Y-105780057D01*
X86989991Y-105863722D01*
X87025729Y-105893052D01*
X87127186Y-105976314D01*
X87206328Y-106072750D01*
X87239778Y-106113509D01*
X87323443Y-106270034D01*
X87374963Y-106439873D01*
X87392359Y-106616500D01*
X87374963Y-106793127D01*
X87323443Y-106962966D01*
X87239778Y-107119491D01*
X87225900Y-107136401D01*
X87127186Y-107256686D01*
X87039914Y-107328307D01*
X86989991Y-107369278D01*
X86833466Y-107452943D01*
X86663627Y-107504463D01*
X86597442Y-107510982D01*
X86531260Y-107517500D01*
X86442740Y-107517500D01*
X86376558Y-107510982D01*
X86310373Y-107504463D01*
X86140534Y-107452943D01*
X85984009Y-107369278D01*
X85934086Y-107328307D01*
X85846814Y-107256686D01*
X85748100Y-107136401D01*
X85734222Y-107119491D01*
X85650557Y-106962966D01*
X85599037Y-106793127D01*
X85581641Y-106616500D01*
X85599037Y-106439873D01*
X85650557Y-106270034D01*
X85734222Y-106113509D01*
X85767672Y-106072750D01*
X85846814Y-105976314D01*
X85948271Y-105893052D01*
X85984009Y-105863722D01*
X86140534Y-105780057D01*
X86310373Y-105728537D01*
X86376557Y-105722019D01*
X86442740Y-105715500D01*
X86531260Y-105715500D01*
X86597443Y-105722019D01*
X86597443Y-105722019D01*
G37*
G36*
X104667000Y-107435000D02*
G01*
X102565000Y-107435000D01*
X102565000Y-106433000D01*
X104667000Y-106433000D01*
X104667000Y-107435000D01*
X104667000Y-107435000D01*
G37*
G36*
X129399591Y-106285085D02*
G01*
X129433569Y-106295393D01*
X129464890Y-106312134D01*
X129492339Y-106334661D01*
X129514866Y-106362110D01*
X129531607Y-106393431D01*
X129541915Y-106427409D01*
X129546000Y-106468890D01*
X129546000Y-107145110D01*
X129541915Y-107186591D01*
X129531607Y-107220569D01*
X129514866Y-107251890D01*
X129492339Y-107279339D01*
X129464890Y-107301866D01*
X129433569Y-107318607D01*
X129399591Y-107328915D01*
X129358110Y-107333000D01*
X128756890Y-107333000D01*
X128715409Y-107328915D01*
X128681431Y-107318607D01*
X128650110Y-107301866D01*
X128622661Y-107279339D01*
X128600134Y-107251890D01*
X128583393Y-107220569D01*
X128573085Y-107186591D01*
X128569000Y-107145110D01*
X128569000Y-106468890D01*
X128573085Y-106427409D01*
X128583393Y-106393431D01*
X128600134Y-106362110D01*
X128622661Y-106334661D01*
X128650110Y-106312134D01*
X128681431Y-106295393D01*
X128715409Y-106285085D01*
X128756890Y-106281000D01*
X129358110Y-106281000D01*
X129399591Y-106285085D01*
X129399591Y-106285085D01*
G37*
G36*
X123684591Y-106285085D02*
G01*
X123718569Y-106295393D01*
X123749890Y-106312134D01*
X123777339Y-106334661D01*
X123799866Y-106362110D01*
X123816607Y-106393431D01*
X123826915Y-106427409D01*
X123831000Y-106468890D01*
X123831000Y-107145110D01*
X123826915Y-107186591D01*
X123816607Y-107220569D01*
X123799866Y-107251890D01*
X123777339Y-107279339D01*
X123749890Y-107301866D01*
X123718569Y-107318607D01*
X123684591Y-107328915D01*
X123643110Y-107333000D01*
X123041890Y-107333000D01*
X123000409Y-107328915D01*
X122966431Y-107318607D01*
X122935110Y-107301866D01*
X122907661Y-107279339D01*
X122885134Y-107251890D01*
X122868393Y-107220569D01*
X122858085Y-107186591D01*
X122854000Y-107145110D01*
X122854000Y-106468890D01*
X122858085Y-106427409D01*
X122868393Y-106393431D01*
X122885134Y-106362110D01*
X122907661Y-106334661D01*
X122935110Y-106312134D01*
X122966431Y-106295393D01*
X123000409Y-106285085D01*
X123041890Y-106281000D01*
X123643110Y-106281000D01*
X123684591Y-106285085D01*
X123684591Y-106285085D01*
G37*
G36*
X122109591Y-106285085D02*
G01*
X122143569Y-106295393D01*
X122174890Y-106312134D01*
X122202339Y-106334661D01*
X122224866Y-106362110D01*
X122241607Y-106393431D01*
X122251915Y-106427409D01*
X122256000Y-106468890D01*
X122256000Y-107145110D01*
X122251915Y-107186591D01*
X122241607Y-107220569D01*
X122224866Y-107251890D01*
X122202339Y-107279339D01*
X122174890Y-107301866D01*
X122143569Y-107318607D01*
X122109591Y-107328915D01*
X122068110Y-107333000D01*
X121466890Y-107333000D01*
X121425409Y-107328915D01*
X121391431Y-107318607D01*
X121360110Y-107301866D01*
X121332661Y-107279339D01*
X121310134Y-107251890D01*
X121293393Y-107220569D01*
X121283085Y-107186591D01*
X121279000Y-107145110D01*
X121279000Y-106468890D01*
X121283085Y-106427409D01*
X121293393Y-106393431D01*
X121310134Y-106362110D01*
X121332661Y-106334661D01*
X121360110Y-106312134D01*
X121391431Y-106295393D01*
X121425409Y-106285085D01*
X121466890Y-106281000D01*
X122068110Y-106281000D01*
X122109591Y-106285085D01*
X122109591Y-106285085D01*
G37*
G36*
X127824591Y-106285085D02*
G01*
X127858569Y-106295393D01*
X127889890Y-106312134D01*
X127917339Y-106334661D01*
X127939866Y-106362110D01*
X127956607Y-106393431D01*
X127966915Y-106427409D01*
X127971000Y-106468890D01*
X127971000Y-107145110D01*
X127966915Y-107186591D01*
X127956607Y-107220569D01*
X127939866Y-107251890D01*
X127917339Y-107279339D01*
X127889890Y-107301866D01*
X127858569Y-107318607D01*
X127824591Y-107328915D01*
X127783110Y-107333000D01*
X127181890Y-107333000D01*
X127140409Y-107328915D01*
X127106431Y-107318607D01*
X127075110Y-107301866D01*
X127047661Y-107279339D01*
X127025134Y-107251890D01*
X127008393Y-107220569D01*
X126998085Y-107186591D01*
X126994000Y-107145110D01*
X126994000Y-106468890D01*
X126998085Y-106427409D01*
X127008393Y-106393431D01*
X127025134Y-106362110D01*
X127047661Y-106334661D01*
X127075110Y-106312134D01*
X127106431Y-106295393D01*
X127140409Y-106285085D01*
X127181890Y-106281000D01*
X127783110Y-106281000D01*
X127824591Y-106285085D01*
X127824591Y-106285085D01*
G37*
G36*
X141210591Y-105269085D02*
G01*
X141244569Y-105279393D01*
X141275890Y-105296134D01*
X141303339Y-105318661D01*
X141325866Y-105346110D01*
X141342607Y-105377431D01*
X141352915Y-105411409D01*
X141357000Y-105452890D01*
X141357000Y-106129110D01*
X141352915Y-106170591D01*
X141342607Y-106204569D01*
X141325866Y-106235890D01*
X141303339Y-106263339D01*
X141275890Y-106285866D01*
X141244569Y-106302607D01*
X141210591Y-106312915D01*
X141169110Y-106317000D01*
X140567890Y-106317000D01*
X140526409Y-106312915D01*
X140492431Y-106302607D01*
X140461110Y-106285866D01*
X140433661Y-106263339D01*
X140411134Y-106235890D01*
X140394393Y-106204569D01*
X140384085Y-106170591D01*
X140380000Y-106129110D01*
X140380000Y-105452890D01*
X140384085Y-105411409D01*
X140394393Y-105377431D01*
X140411134Y-105346110D01*
X140433661Y-105318661D01*
X140461110Y-105296134D01*
X140492431Y-105279393D01*
X140526409Y-105269085D01*
X140567890Y-105265000D01*
X141169110Y-105265000D01*
X141210591Y-105269085D01*
X141210591Y-105269085D01*
G37*
G36*
X139635591Y-105269085D02*
G01*
X139669569Y-105279393D01*
X139700890Y-105296134D01*
X139728339Y-105318661D01*
X139750866Y-105346110D01*
X139767607Y-105377431D01*
X139777915Y-105411409D01*
X139782000Y-105452890D01*
X139782000Y-106129110D01*
X139777915Y-106170591D01*
X139767607Y-106204569D01*
X139750866Y-106235890D01*
X139728339Y-106263339D01*
X139700890Y-106285866D01*
X139669569Y-106302607D01*
X139635591Y-106312915D01*
X139594110Y-106317000D01*
X138992890Y-106317000D01*
X138951409Y-106312915D01*
X138917431Y-106302607D01*
X138886110Y-106285866D01*
X138858661Y-106263339D01*
X138836134Y-106235890D01*
X138819393Y-106204569D01*
X138809085Y-106170591D01*
X138805000Y-106129110D01*
X138805000Y-105452890D01*
X138809085Y-105411409D01*
X138819393Y-105377431D01*
X138836134Y-105346110D01*
X138858661Y-105318661D01*
X138886110Y-105296134D01*
X138917431Y-105279393D01*
X138951409Y-105269085D01*
X138992890Y-105265000D01*
X139594110Y-105265000D01*
X139635591Y-105269085D01*
X139635591Y-105269085D01*
G37*
G36*
X115150887Y-103752596D02*
G01*
X115387653Y-103850668D01*
X115387655Y-103850669D01*
X115600739Y-103993047D01*
X115781953Y-104174261D01*
X115917548Y-104377193D01*
X115924332Y-104387347D01*
X116022404Y-104624113D01*
X116072400Y-104875461D01*
X116072400Y-105131739D01*
X116022404Y-105383087D01*
X115932187Y-105600890D01*
X115924331Y-105619855D01*
X115781953Y-105832939D01*
X115600739Y-106014153D01*
X115387655Y-106156531D01*
X115387654Y-106156532D01*
X115387653Y-106156532D01*
X115150887Y-106254604D01*
X114899539Y-106304600D01*
X114643261Y-106304600D01*
X114391913Y-106254604D01*
X114155147Y-106156532D01*
X114155146Y-106156532D01*
X114155145Y-106156531D01*
X113942061Y-106014153D01*
X113760847Y-105832939D01*
X113618469Y-105619855D01*
X113610613Y-105600890D01*
X113520396Y-105383087D01*
X113470400Y-105131739D01*
X113470400Y-104875461D01*
X113520396Y-104624113D01*
X113618468Y-104387347D01*
X113625253Y-104377193D01*
X113760847Y-104174261D01*
X113942061Y-103993047D01*
X114155145Y-103850669D01*
X114155147Y-103850668D01*
X114391913Y-103752596D01*
X114643261Y-103702600D01*
X114899539Y-103702600D01*
X115150887Y-103752596D01*
X115150887Y-103752596D01*
G37*
G36*
X107530887Y-103752596D02*
G01*
X107767653Y-103850668D01*
X107767655Y-103850669D01*
X107980739Y-103993047D01*
X108161953Y-104174261D01*
X108297548Y-104377193D01*
X108304332Y-104387347D01*
X108402404Y-104624113D01*
X108452400Y-104875461D01*
X108452400Y-105131739D01*
X108402404Y-105383087D01*
X108312187Y-105600890D01*
X108304331Y-105619855D01*
X108161953Y-105832939D01*
X107980739Y-106014153D01*
X107767655Y-106156531D01*
X107767654Y-106156532D01*
X107767653Y-106156532D01*
X107530887Y-106254604D01*
X107279539Y-106304600D01*
X107023261Y-106304600D01*
X106771913Y-106254604D01*
X106535147Y-106156532D01*
X106535146Y-106156532D01*
X106535145Y-106156531D01*
X106322061Y-106014153D01*
X106140847Y-105832939D01*
X105998469Y-105619855D01*
X105990613Y-105600890D01*
X105900396Y-105383087D01*
X105850400Y-105131739D01*
X105850400Y-104875461D01*
X105900396Y-104624113D01*
X105998468Y-104387347D01*
X106005253Y-104377193D01*
X106140847Y-104174261D01*
X106322061Y-103993047D01*
X106535145Y-103850669D01*
X106535147Y-103850668D01*
X106771913Y-103752596D01*
X107023261Y-103702600D01*
X107279539Y-103702600D01*
X107530887Y-103752596D01*
X107530887Y-103752596D01*
G37*
G36*
X125180887Y-103752596D02*
G01*
X125417653Y-103850668D01*
X125417655Y-103850669D01*
X125630739Y-103993047D01*
X125811953Y-104174261D01*
X125947548Y-104377193D01*
X125954332Y-104387347D01*
X126052404Y-104624113D01*
X126102400Y-104875461D01*
X126102400Y-105131739D01*
X126052404Y-105383087D01*
X125962187Y-105600890D01*
X125954331Y-105619855D01*
X125811953Y-105832939D01*
X125630739Y-106014153D01*
X125417655Y-106156531D01*
X125417654Y-106156532D01*
X125417653Y-106156532D01*
X125180887Y-106254604D01*
X124929539Y-106304600D01*
X124673261Y-106304600D01*
X124421913Y-106254604D01*
X124185147Y-106156532D01*
X124185146Y-106156532D01*
X124185145Y-106156531D01*
X123972061Y-106014153D01*
X123790847Y-105832939D01*
X123648469Y-105619855D01*
X123640613Y-105600890D01*
X123550396Y-105383087D01*
X123500400Y-105131739D01*
X123500400Y-104875461D01*
X123550396Y-104624113D01*
X123648468Y-104387347D01*
X123655253Y-104377193D01*
X123790847Y-104174261D01*
X123972061Y-103993047D01*
X124185145Y-103850669D01*
X124185147Y-103850668D01*
X124421913Y-103752596D01*
X124673261Y-103702600D01*
X124929539Y-103702600D01*
X125180887Y-103752596D01*
X125180887Y-103752596D01*
G37*
G36*
X132800887Y-103752596D02*
G01*
X133037653Y-103850668D01*
X133037655Y-103850669D01*
X133250739Y-103993047D01*
X133431953Y-104174261D01*
X133567548Y-104377193D01*
X133574332Y-104387347D01*
X133672404Y-104624113D01*
X133722400Y-104875461D01*
X133722400Y-105131739D01*
X133672404Y-105383087D01*
X133582187Y-105600890D01*
X133574331Y-105619855D01*
X133431953Y-105832939D01*
X133250739Y-106014153D01*
X133037655Y-106156531D01*
X133037654Y-106156532D01*
X133037653Y-106156532D01*
X132800887Y-106254604D01*
X132549539Y-106304600D01*
X132293261Y-106304600D01*
X132041913Y-106254604D01*
X131805147Y-106156532D01*
X131805146Y-106156532D01*
X131805145Y-106156531D01*
X131592061Y-106014153D01*
X131410847Y-105832939D01*
X131268469Y-105619855D01*
X131260613Y-105600890D01*
X131170396Y-105383087D01*
X131120400Y-105131739D01*
X131120400Y-104875461D01*
X131170396Y-104624113D01*
X131268468Y-104387347D01*
X131275253Y-104377193D01*
X131410847Y-104174261D01*
X131592061Y-103993047D01*
X131805145Y-103850669D01*
X131805147Y-103850668D01*
X132041913Y-103752596D01*
X132293261Y-103702600D01*
X132549539Y-103702600D01*
X132800887Y-103752596D01*
X132800887Y-103752596D01*
G37*
G36*
X137908591Y-105142085D02*
G01*
X137942569Y-105152393D01*
X137973890Y-105169134D01*
X138001339Y-105191661D01*
X138023866Y-105219110D01*
X138040607Y-105250431D01*
X138050915Y-105284409D01*
X138055000Y-105325890D01*
X138055000Y-106002110D01*
X138050915Y-106043591D01*
X138040607Y-106077569D01*
X138023866Y-106108890D01*
X138001339Y-106136339D01*
X137973890Y-106158866D01*
X137942569Y-106175607D01*
X137908591Y-106185915D01*
X137867110Y-106190000D01*
X137265890Y-106190000D01*
X137224409Y-106185915D01*
X137190431Y-106175607D01*
X137159110Y-106158866D01*
X137131661Y-106136339D01*
X137109134Y-106108890D01*
X137092393Y-106077569D01*
X137082085Y-106043591D01*
X137078000Y-106002110D01*
X137078000Y-105325890D01*
X137082085Y-105284409D01*
X137092393Y-105250431D01*
X137109134Y-105219110D01*
X137131661Y-105191661D01*
X137159110Y-105169134D01*
X137190431Y-105152393D01*
X137224409Y-105142085D01*
X137265890Y-105138000D01*
X137867110Y-105138000D01*
X137908591Y-105142085D01*
X137908591Y-105142085D01*
G37*
G36*
X136333591Y-105142085D02*
G01*
X136367569Y-105152393D01*
X136398890Y-105169134D01*
X136426339Y-105191661D01*
X136448866Y-105219110D01*
X136465607Y-105250431D01*
X136475915Y-105284409D01*
X136480000Y-105325890D01*
X136480000Y-106002110D01*
X136475915Y-106043591D01*
X136465607Y-106077569D01*
X136448866Y-106108890D01*
X136426339Y-106136339D01*
X136398890Y-106158866D01*
X136367569Y-106175607D01*
X136333591Y-106185915D01*
X136292110Y-106190000D01*
X135690890Y-106190000D01*
X135649409Y-106185915D01*
X135615431Y-106175607D01*
X135584110Y-106158866D01*
X135556661Y-106136339D01*
X135534134Y-106108890D01*
X135517393Y-106077569D01*
X135507085Y-106043591D01*
X135503000Y-106002110D01*
X135503000Y-105325890D01*
X135507085Y-105284409D01*
X135517393Y-105250431D01*
X135534134Y-105219110D01*
X135556661Y-105191661D01*
X135584110Y-105169134D01*
X135615431Y-105152393D01*
X135649409Y-105142085D01*
X135690890Y-105138000D01*
X136292110Y-105138000D01*
X136333591Y-105142085D01*
X136333591Y-105142085D01*
G37*
G36*
X104667000Y-106165000D02*
G01*
X102565000Y-106165000D01*
X102565000Y-105163000D01*
X104667000Y-105163000D01*
X104667000Y-106165000D01*
X104667000Y-106165000D01*
G37*
G36*
X127824591Y-104634085D02*
G01*
X127858569Y-104644393D01*
X127889890Y-104661134D01*
X127917339Y-104683661D01*
X127939866Y-104711110D01*
X127956607Y-104742431D01*
X127966915Y-104776409D01*
X127971000Y-104817890D01*
X127971000Y-105494110D01*
X127966915Y-105535591D01*
X127956607Y-105569569D01*
X127939866Y-105600890D01*
X127917339Y-105628339D01*
X127889890Y-105650866D01*
X127858569Y-105667607D01*
X127824591Y-105677915D01*
X127783110Y-105682000D01*
X127181890Y-105682000D01*
X127140409Y-105677915D01*
X127106431Y-105667607D01*
X127075110Y-105650866D01*
X127047661Y-105628339D01*
X127025134Y-105600890D01*
X127008393Y-105569569D01*
X126998085Y-105535591D01*
X126994000Y-105494110D01*
X126994000Y-104817890D01*
X126998085Y-104776409D01*
X127008393Y-104742431D01*
X127025134Y-104711110D01*
X127047661Y-104683661D01*
X127075110Y-104661134D01*
X127106431Y-104644393D01*
X127140409Y-104634085D01*
X127181890Y-104630000D01*
X127783110Y-104630000D01*
X127824591Y-104634085D01*
X127824591Y-104634085D01*
G37*
G36*
X129399591Y-104634085D02*
G01*
X129433569Y-104644393D01*
X129464890Y-104661134D01*
X129492339Y-104683661D01*
X129514866Y-104711110D01*
X129531607Y-104742431D01*
X129541915Y-104776409D01*
X129546000Y-104817890D01*
X129546000Y-105494110D01*
X129541915Y-105535591D01*
X129531607Y-105569569D01*
X129514866Y-105600890D01*
X129492339Y-105628339D01*
X129464890Y-105650866D01*
X129433569Y-105667607D01*
X129399591Y-105677915D01*
X129358110Y-105682000D01*
X128756890Y-105682000D01*
X128715409Y-105677915D01*
X128681431Y-105667607D01*
X128650110Y-105650866D01*
X128622661Y-105628339D01*
X128600134Y-105600890D01*
X128583393Y-105569569D01*
X128573085Y-105535591D01*
X128569000Y-105494110D01*
X128569000Y-104817890D01*
X128573085Y-104776409D01*
X128583393Y-104742431D01*
X128600134Y-104711110D01*
X128622661Y-104683661D01*
X128650110Y-104661134D01*
X128681431Y-104644393D01*
X128715409Y-104634085D01*
X128756890Y-104630000D01*
X129358110Y-104630000D01*
X129399591Y-104634085D01*
X129399591Y-104634085D01*
G37*
G36*
X117676791Y-104366885D02*
G01*
X117710769Y-104377193D01*
X117742090Y-104393934D01*
X117769539Y-104416461D01*
X117792066Y-104443910D01*
X117808807Y-104475231D01*
X117819115Y-104509209D01*
X117823200Y-104550690D01*
X117823200Y-105151910D01*
X117819115Y-105193391D01*
X117808807Y-105227369D01*
X117792066Y-105258690D01*
X117769539Y-105286139D01*
X117742090Y-105308666D01*
X117710769Y-105325407D01*
X117676791Y-105335715D01*
X117635310Y-105339800D01*
X116959090Y-105339800D01*
X116917609Y-105335715D01*
X116883631Y-105325407D01*
X116852310Y-105308666D01*
X116824861Y-105286139D01*
X116802334Y-105258690D01*
X116785593Y-105227369D01*
X116775285Y-105193391D01*
X116771200Y-105151910D01*
X116771200Y-104550690D01*
X116775285Y-104509209D01*
X116785593Y-104475231D01*
X116802334Y-104443910D01*
X116824861Y-104416461D01*
X116852310Y-104393934D01*
X116883631Y-104377193D01*
X116917609Y-104366885D01*
X116959090Y-104362800D01*
X117635310Y-104362800D01*
X117676791Y-104366885D01*
X117676791Y-104366885D01*
G37*
G36*
X119442711Y-104366885D02*
G01*
X119476689Y-104377193D01*
X119508010Y-104393934D01*
X119535459Y-104416461D01*
X119557986Y-104443910D01*
X119574727Y-104475231D01*
X119585035Y-104509209D01*
X119589120Y-104550690D01*
X119589120Y-105151910D01*
X119585035Y-105193391D01*
X119574727Y-105227369D01*
X119557986Y-105258690D01*
X119535459Y-105286139D01*
X119508010Y-105308666D01*
X119476689Y-105325407D01*
X119442711Y-105335715D01*
X119401230Y-105339800D01*
X118725010Y-105339800D01*
X118683529Y-105335715D01*
X118649551Y-105325407D01*
X118618230Y-105308666D01*
X118590781Y-105286139D01*
X118568254Y-105258690D01*
X118551513Y-105227369D01*
X118541205Y-105193391D01*
X118537120Y-105151910D01*
X118537120Y-104550690D01*
X118541205Y-104509209D01*
X118551513Y-104475231D01*
X118568254Y-104443910D01*
X118590781Y-104416461D01*
X118618230Y-104393934D01*
X118649551Y-104377193D01*
X118683529Y-104366885D01*
X118725010Y-104362800D01*
X119401230Y-104362800D01*
X119442711Y-104366885D01*
X119442711Y-104366885D01*
G37*
G36*
X121067000Y-105066000D02*
G01*
X120265000Y-105066000D01*
X120265000Y-104514000D01*
X121067000Y-104514000D01*
X121067000Y-105066000D01*
X121067000Y-105066000D01*
G37*
G36*
X86597442Y-103182018D02*
G01*
X86663627Y-103188537D01*
X86833466Y-103240057D01*
X86989991Y-103323722D01*
X87022315Y-103350250D01*
X87127186Y-103436314D01*
X87210448Y-103537771D01*
X87239778Y-103573509D01*
X87323443Y-103730034D01*
X87374963Y-103899873D01*
X87392359Y-104076500D01*
X87374963Y-104253127D01*
X87323443Y-104422966D01*
X87239778Y-104579491D01*
X87217161Y-104607050D01*
X87127186Y-104716686D01*
X87054412Y-104776409D01*
X86989991Y-104829278D01*
X86833466Y-104912943D01*
X86663627Y-104964463D01*
X86597442Y-104970982D01*
X86531260Y-104977500D01*
X86442740Y-104977500D01*
X86376558Y-104970982D01*
X86310373Y-104964463D01*
X86140534Y-104912943D01*
X85984009Y-104829278D01*
X85919588Y-104776409D01*
X85846814Y-104716686D01*
X85756839Y-104607050D01*
X85734222Y-104579491D01*
X85650557Y-104422966D01*
X85599037Y-104253127D01*
X85581641Y-104076500D01*
X85599037Y-103899873D01*
X85650557Y-103730034D01*
X85734222Y-103573509D01*
X85763552Y-103537771D01*
X85846814Y-103436314D01*
X85951685Y-103350250D01*
X85984009Y-103323722D01*
X86140534Y-103240057D01*
X86310373Y-103188537D01*
X86376558Y-103182018D01*
X86442740Y-103175500D01*
X86531260Y-103175500D01*
X86597442Y-103182018D01*
X86597442Y-103182018D01*
G37*
G36*
X104667000Y-104895000D02*
G01*
X102565000Y-104895000D01*
X102565000Y-103893000D01*
X104667000Y-103893000D01*
X104667000Y-104895000D01*
X104667000Y-104895000D01*
G37*
G36*
X123067000Y-104416000D02*
G01*
X122265000Y-104416000D01*
X122265000Y-103864000D01*
X123067000Y-103864000D01*
X123067000Y-104416000D01*
X123067000Y-104416000D01*
G37*
G36*
X137908591Y-103364085D02*
G01*
X137942569Y-103374393D01*
X137973890Y-103391134D01*
X138001339Y-103413661D01*
X138023866Y-103441110D01*
X138040607Y-103472431D01*
X138050915Y-103506409D01*
X138055000Y-103547890D01*
X138055000Y-104224110D01*
X138050915Y-104265591D01*
X138040607Y-104299569D01*
X138023866Y-104330890D01*
X138001339Y-104358339D01*
X137973890Y-104380866D01*
X137942569Y-104397607D01*
X137908591Y-104407915D01*
X137867110Y-104412000D01*
X137265890Y-104412000D01*
X137224409Y-104407915D01*
X137190431Y-104397607D01*
X137159110Y-104380866D01*
X137131661Y-104358339D01*
X137109134Y-104330890D01*
X137092393Y-104299569D01*
X137082085Y-104265591D01*
X137078000Y-104224110D01*
X137078000Y-103547890D01*
X137082085Y-103506409D01*
X137092393Y-103472431D01*
X137109134Y-103441110D01*
X137131661Y-103413661D01*
X137159110Y-103391134D01*
X137190431Y-103374393D01*
X137224409Y-103364085D01*
X137265890Y-103360000D01*
X137867110Y-103360000D01*
X137908591Y-103364085D01*
X137908591Y-103364085D01*
G37*
G36*
X136333591Y-103364085D02*
G01*
X136367569Y-103374393D01*
X136398890Y-103391134D01*
X136426339Y-103413661D01*
X136448866Y-103441110D01*
X136465607Y-103472431D01*
X136475915Y-103506409D01*
X136480000Y-103547890D01*
X136480000Y-104224110D01*
X136475915Y-104265591D01*
X136465607Y-104299569D01*
X136448866Y-104330890D01*
X136426339Y-104358339D01*
X136398890Y-104380866D01*
X136367569Y-104397607D01*
X136333591Y-104407915D01*
X136292110Y-104412000D01*
X135690890Y-104412000D01*
X135649409Y-104407915D01*
X135615431Y-104397607D01*
X135584110Y-104380866D01*
X135556661Y-104358339D01*
X135534134Y-104330890D01*
X135517393Y-104299569D01*
X135507085Y-104265591D01*
X135503000Y-104224110D01*
X135503000Y-103547890D01*
X135507085Y-103506409D01*
X135517393Y-103472431D01*
X135534134Y-103441110D01*
X135556661Y-103413661D01*
X135584110Y-103391134D01*
X135615431Y-103374393D01*
X135649409Y-103364085D01*
X135690890Y-103360000D01*
X136292110Y-103360000D01*
X136333591Y-103364085D01*
X136333591Y-103364085D01*
G37*
G36*
X142195200Y-104334800D02*
G01*
X141033200Y-104334800D01*
X141033200Y-101682800D01*
X142195200Y-101682800D01*
X142195200Y-104334800D01*
X142195200Y-104334800D01*
G37*
G36*
X139995200Y-104334800D02*
G01*
X138833200Y-104334800D01*
X138833200Y-101682800D01*
X139995200Y-101682800D01*
X139995200Y-104334800D01*
X139995200Y-104334800D01*
G37*
G36*
X129399591Y-103110085D02*
G01*
X129433569Y-103120393D01*
X129464890Y-103137134D01*
X129492339Y-103159661D01*
X129514866Y-103187110D01*
X129531607Y-103218431D01*
X129541915Y-103252409D01*
X129546000Y-103293890D01*
X129546000Y-103970110D01*
X129541915Y-104011591D01*
X129531607Y-104045569D01*
X129514866Y-104076890D01*
X129492339Y-104104339D01*
X129464890Y-104126866D01*
X129433569Y-104143607D01*
X129399591Y-104153915D01*
X129358110Y-104158000D01*
X128756890Y-104158000D01*
X128715409Y-104153915D01*
X128681431Y-104143607D01*
X128650110Y-104126866D01*
X128622661Y-104104339D01*
X128600134Y-104076890D01*
X128583393Y-104045569D01*
X128573085Y-104011591D01*
X128569000Y-103970110D01*
X128569000Y-103293890D01*
X128573085Y-103252409D01*
X128583393Y-103218431D01*
X128600134Y-103187110D01*
X128622661Y-103159661D01*
X128650110Y-103137134D01*
X128681431Y-103120393D01*
X128715409Y-103110085D01*
X128756890Y-103106000D01*
X129358110Y-103106000D01*
X129399591Y-103110085D01*
X129399591Y-103110085D01*
G37*
G36*
X127824591Y-103110085D02*
G01*
X127858569Y-103120393D01*
X127889890Y-103137134D01*
X127917339Y-103159661D01*
X127939866Y-103187110D01*
X127956607Y-103218431D01*
X127966915Y-103252409D01*
X127971000Y-103293890D01*
X127971000Y-103970110D01*
X127966915Y-104011591D01*
X127956607Y-104045569D01*
X127939866Y-104076890D01*
X127917339Y-104104339D01*
X127889890Y-104126866D01*
X127858569Y-104143607D01*
X127824591Y-104153915D01*
X127783110Y-104158000D01*
X127181890Y-104158000D01*
X127140409Y-104153915D01*
X127106431Y-104143607D01*
X127075110Y-104126866D01*
X127047661Y-104104339D01*
X127025134Y-104076890D01*
X127008393Y-104045569D01*
X126998085Y-104011591D01*
X126994000Y-103970110D01*
X126994000Y-103293890D01*
X126998085Y-103252409D01*
X127008393Y-103218431D01*
X127025134Y-103187110D01*
X127047661Y-103159661D01*
X127075110Y-103137134D01*
X127106431Y-103120393D01*
X127140409Y-103110085D01*
X127181890Y-103106000D01*
X127783110Y-103106000D01*
X127824591Y-103110085D01*
X127824591Y-103110085D01*
G37*
G36*
X121067000Y-103766000D02*
G01*
X120265000Y-103766000D01*
X120265000Y-103214000D01*
X121067000Y-103214000D01*
X121067000Y-103766000D01*
X121067000Y-103766000D01*
G37*
G36*
X117676791Y-102791885D02*
G01*
X117710769Y-102802193D01*
X117742090Y-102818934D01*
X117769539Y-102841461D01*
X117792066Y-102868910D01*
X117808807Y-102900231D01*
X117819115Y-102934209D01*
X117823200Y-102975690D01*
X117823200Y-103576910D01*
X117819115Y-103618391D01*
X117808807Y-103652369D01*
X117792066Y-103683690D01*
X117769539Y-103711139D01*
X117742090Y-103733666D01*
X117710769Y-103750407D01*
X117676791Y-103760715D01*
X117635310Y-103764800D01*
X116959090Y-103764800D01*
X116917609Y-103760715D01*
X116883631Y-103750407D01*
X116852310Y-103733666D01*
X116824861Y-103711139D01*
X116802334Y-103683690D01*
X116785593Y-103652369D01*
X116775285Y-103618391D01*
X116771200Y-103576910D01*
X116771200Y-102975690D01*
X116775285Y-102934209D01*
X116785593Y-102900231D01*
X116802334Y-102868910D01*
X116824861Y-102841461D01*
X116852310Y-102818934D01*
X116883631Y-102802193D01*
X116917609Y-102791885D01*
X116959090Y-102787800D01*
X117635310Y-102787800D01*
X117676791Y-102791885D01*
X117676791Y-102791885D01*
G37*
G36*
X119442711Y-102791885D02*
G01*
X119476689Y-102802193D01*
X119508010Y-102818934D01*
X119535459Y-102841461D01*
X119557986Y-102868910D01*
X119574727Y-102900231D01*
X119585035Y-102934209D01*
X119589120Y-102975690D01*
X119589120Y-103576910D01*
X119585035Y-103618391D01*
X119574727Y-103652369D01*
X119557986Y-103683690D01*
X119535459Y-103711139D01*
X119508010Y-103733666D01*
X119476689Y-103750407D01*
X119442711Y-103760715D01*
X119401230Y-103764800D01*
X118725010Y-103764800D01*
X118683529Y-103760715D01*
X118649551Y-103750407D01*
X118618230Y-103733666D01*
X118590781Y-103711139D01*
X118568254Y-103683690D01*
X118551513Y-103652369D01*
X118541205Y-103618391D01*
X118537120Y-103576910D01*
X118537120Y-102975690D01*
X118541205Y-102934209D01*
X118551513Y-102900231D01*
X118568254Y-102868910D01*
X118590781Y-102841461D01*
X118618230Y-102818934D01*
X118649551Y-102802193D01*
X118683529Y-102791885D01*
X118725010Y-102787800D01*
X119401230Y-102787800D01*
X119442711Y-102791885D01*
X119442711Y-102791885D01*
G37*
G36*
X104667000Y-103625000D02*
G01*
X102565000Y-103625000D01*
X102565000Y-102623000D01*
X104667000Y-102623000D01*
X104667000Y-103625000D01*
X104667000Y-103625000D01*
G37*
G36*
X129399591Y-101586085D02*
G01*
X129433569Y-101596393D01*
X129464890Y-101613134D01*
X129492339Y-101635661D01*
X129514866Y-101663110D01*
X129531607Y-101694431D01*
X129541915Y-101728409D01*
X129546000Y-101769890D01*
X129546000Y-102446110D01*
X129541915Y-102487591D01*
X129531607Y-102521569D01*
X129514866Y-102552890D01*
X129492339Y-102580339D01*
X129464890Y-102602866D01*
X129433569Y-102619607D01*
X129399591Y-102629915D01*
X129358110Y-102634000D01*
X128756890Y-102634000D01*
X128715409Y-102629915D01*
X128681431Y-102619607D01*
X128650110Y-102602866D01*
X128622661Y-102580339D01*
X128600134Y-102552890D01*
X128583393Y-102521569D01*
X128573085Y-102487591D01*
X128569000Y-102446110D01*
X128569000Y-101769890D01*
X128573085Y-101728409D01*
X128583393Y-101694431D01*
X128600134Y-101663110D01*
X128622661Y-101635661D01*
X128650110Y-101613134D01*
X128681431Y-101596393D01*
X128715409Y-101586085D01*
X128756890Y-101582000D01*
X129358110Y-101582000D01*
X129399591Y-101586085D01*
X129399591Y-101586085D01*
G37*
G36*
X127824591Y-101586085D02*
G01*
X127858569Y-101596393D01*
X127889890Y-101613134D01*
X127917339Y-101635661D01*
X127939866Y-101663110D01*
X127956607Y-101694431D01*
X127966915Y-101728409D01*
X127971000Y-101769890D01*
X127971000Y-102446110D01*
X127966915Y-102487591D01*
X127956607Y-102521569D01*
X127939866Y-102552890D01*
X127917339Y-102580339D01*
X127889890Y-102602866D01*
X127858569Y-102619607D01*
X127824591Y-102629915D01*
X127783110Y-102634000D01*
X127181890Y-102634000D01*
X127140409Y-102629915D01*
X127106431Y-102619607D01*
X127075110Y-102602866D01*
X127047661Y-102580339D01*
X127025134Y-102552890D01*
X127008393Y-102521569D01*
X126998085Y-102487591D01*
X126994000Y-102446110D01*
X126994000Y-101769890D01*
X126998085Y-101728409D01*
X127008393Y-101694431D01*
X127025134Y-101663110D01*
X127047661Y-101635661D01*
X127075110Y-101613134D01*
X127106431Y-101596393D01*
X127140409Y-101586085D01*
X127181890Y-101582000D01*
X127783110Y-101582000D01*
X127824591Y-101586085D01*
X127824591Y-101586085D01*
G37*
G36*
X136333591Y-101459085D02*
G01*
X136367569Y-101469393D01*
X136398890Y-101486134D01*
X136426339Y-101508661D01*
X136448866Y-101536110D01*
X136465607Y-101567431D01*
X136475915Y-101601409D01*
X136480000Y-101642890D01*
X136480000Y-102319110D01*
X136475915Y-102360591D01*
X136465607Y-102394569D01*
X136448866Y-102425890D01*
X136426339Y-102453339D01*
X136398890Y-102475866D01*
X136367569Y-102492607D01*
X136333591Y-102502915D01*
X136292110Y-102507000D01*
X135690890Y-102507000D01*
X135649409Y-102502915D01*
X135615431Y-102492607D01*
X135584110Y-102475866D01*
X135556661Y-102453339D01*
X135534134Y-102425890D01*
X135517393Y-102394569D01*
X135507085Y-102360591D01*
X135503000Y-102319110D01*
X135503000Y-101642890D01*
X135507085Y-101601409D01*
X135517393Y-101567431D01*
X135534134Y-101536110D01*
X135556661Y-101508661D01*
X135584110Y-101486134D01*
X135615431Y-101469393D01*
X135649409Y-101459085D01*
X135690890Y-101455000D01*
X136292110Y-101455000D01*
X136333591Y-101459085D01*
X136333591Y-101459085D01*
G37*
G36*
X137908591Y-101459085D02*
G01*
X137942569Y-101469393D01*
X137973890Y-101486134D01*
X138001339Y-101508661D01*
X138023866Y-101536110D01*
X138040607Y-101567431D01*
X138050915Y-101601409D01*
X138055000Y-101642890D01*
X138055000Y-102319110D01*
X138050915Y-102360591D01*
X138040607Y-102394569D01*
X138023866Y-102425890D01*
X138001339Y-102453339D01*
X137973890Y-102475866D01*
X137942569Y-102492607D01*
X137908591Y-102502915D01*
X137867110Y-102507000D01*
X137265890Y-102507000D01*
X137224409Y-102502915D01*
X137190431Y-102492607D01*
X137159110Y-102475866D01*
X137131661Y-102453339D01*
X137109134Y-102425890D01*
X137092393Y-102394569D01*
X137082085Y-102360591D01*
X137078000Y-102319110D01*
X137078000Y-101642890D01*
X137082085Y-101601409D01*
X137092393Y-101567431D01*
X137109134Y-101536110D01*
X137131661Y-101508661D01*
X137159110Y-101486134D01*
X137190431Y-101469393D01*
X137224409Y-101459085D01*
X137265890Y-101455000D01*
X137867110Y-101455000D01*
X137908591Y-101459085D01*
X137908591Y-101459085D01*
G37*
G36*
X86597442Y-100642018D02*
G01*
X86663627Y-100648537D01*
X86833466Y-100700057D01*
X86989991Y-100783722D01*
X87025729Y-100813052D01*
X87127186Y-100896314D01*
X87210283Y-100997569D01*
X87239778Y-101033509D01*
X87323443Y-101190034D01*
X87374963Y-101359873D01*
X87392359Y-101536500D01*
X87374963Y-101713127D01*
X87323443Y-101882966D01*
X87239778Y-102039491D01*
X87210448Y-102075229D01*
X87127186Y-102176686D01*
X87025729Y-102259948D01*
X86989991Y-102289278D01*
X86833466Y-102372943D01*
X86663627Y-102424463D01*
X86597443Y-102430981D01*
X86531260Y-102437500D01*
X86442740Y-102437500D01*
X86376558Y-102430982D01*
X86310373Y-102424463D01*
X86140534Y-102372943D01*
X85984009Y-102289278D01*
X85948271Y-102259948D01*
X85846814Y-102176686D01*
X85763552Y-102075229D01*
X85734222Y-102039491D01*
X85650557Y-101882966D01*
X85599037Y-101713127D01*
X85581641Y-101536500D01*
X85599037Y-101359873D01*
X85650557Y-101190034D01*
X85734222Y-101033509D01*
X85763717Y-100997569D01*
X85846814Y-100896314D01*
X85948271Y-100813052D01*
X85984009Y-100783722D01*
X86140534Y-100700057D01*
X86310373Y-100648537D01*
X86376557Y-100642019D01*
X86442740Y-100635500D01*
X86531260Y-100635500D01*
X86597442Y-100642018D01*
X86597442Y-100642018D01*
G37*
G36*
X104667000Y-102355000D02*
G01*
X102565000Y-102355000D01*
X102565000Y-101353000D01*
X104667000Y-101353000D01*
X104667000Y-102355000D01*
X104667000Y-102355000D01*
G37*
G36*
X116588960Y-101451600D02*
G01*
X115586960Y-101451600D01*
X115586960Y-100549600D01*
X116588960Y-100549600D01*
X116588960Y-101451600D01*
X116588960Y-101451600D01*
G37*
G36*
X121969391Y-100404485D02*
G01*
X122003369Y-100414793D01*
X122034690Y-100431534D01*
X122062139Y-100454061D01*
X122084666Y-100481510D01*
X122101407Y-100512831D01*
X122111715Y-100546809D01*
X122115800Y-100588290D01*
X122115800Y-101189510D01*
X122111715Y-101230991D01*
X122101407Y-101264969D01*
X122084666Y-101296290D01*
X122062139Y-101323739D01*
X122034690Y-101346266D01*
X122003369Y-101363007D01*
X121969391Y-101373315D01*
X121927910Y-101377400D01*
X121251690Y-101377400D01*
X121210209Y-101373315D01*
X121176231Y-101363007D01*
X121144910Y-101346266D01*
X121117461Y-101323739D01*
X121094934Y-101296290D01*
X121078193Y-101264969D01*
X121067885Y-101230991D01*
X121063800Y-101189510D01*
X121063800Y-100588290D01*
X121067885Y-100546809D01*
X121078193Y-100512831D01*
X121094934Y-100481510D01*
X121117461Y-100454061D01*
X121144910Y-100431534D01*
X121176231Y-100414793D01*
X121210209Y-100404485D01*
X121251690Y-100400400D01*
X121927910Y-100400400D01*
X121969391Y-100404485D01*
X121969391Y-100404485D01*
G37*
G36*
X120203471Y-100404485D02*
G01*
X120237449Y-100414793D01*
X120268770Y-100431534D01*
X120296219Y-100454061D01*
X120318746Y-100481510D01*
X120335487Y-100512831D01*
X120345795Y-100546809D01*
X120349880Y-100588290D01*
X120349880Y-101189510D01*
X120345795Y-101230991D01*
X120335487Y-101264969D01*
X120318746Y-101296290D01*
X120296219Y-101323739D01*
X120268770Y-101346266D01*
X120237449Y-101363007D01*
X120203471Y-101373315D01*
X120161990Y-101377400D01*
X119485770Y-101377400D01*
X119444289Y-101373315D01*
X119410311Y-101363007D01*
X119378990Y-101346266D01*
X119351541Y-101323739D01*
X119329014Y-101296290D01*
X119312273Y-101264969D01*
X119301965Y-101230991D01*
X119297880Y-101189510D01*
X119297880Y-100588290D01*
X119301965Y-100546809D01*
X119312273Y-100512831D01*
X119329014Y-100481510D01*
X119351541Y-100454061D01*
X119378990Y-100431534D01*
X119410311Y-100414793D01*
X119444289Y-100404485D01*
X119485770Y-100400400D01*
X120161990Y-100400400D01*
X120203471Y-100404485D01*
X120203471Y-100404485D01*
G37*
G36*
X114731631Y-100353685D02*
G01*
X114765609Y-100363993D01*
X114796930Y-100380734D01*
X114824379Y-100403261D01*
X114846906Y-100430710D01*
X114863647Y-100462031D01*
X114873955Y-100496009D01*
X114878040Y-100537490D01*
X114878040Y-101138710D01*
X114873955Y-101180191D01*
X114863647Y-101214169D01*
X114846906Y-101245490D01*
X114824379Y-101272939D01*
X114796930Y-101295466D01*
X114765609Y-101312207D01*
X114731631Y-101322515D01*
X114690150Y-101326600D01*
X114013930Y-101326600D01*
X113972449Y-101322515D01*
X113938471Y-101312207D01*
X113907150Y-101295466D01*
X113879701Y-101272939D01*
X113857174Y-101245490D01*
X113840433Y-101214169D01*
X113830125Y-101180191D01*
X113826040Y-101138710D01*
X113826040Y-100537490D01*
X113830125Y-100496009D01*
X113840433Y-100462031D01*
X113857174Y-100430710D01*
X113879701Y-100403261D01*
X113907150Y-100380734D01*
X113938471Y-100363993D01*
X113972449Y-100353685D01*
X114013930Y-100349600D01*
X114690150Y-100349600D01*
X114731631Y-100353685D01*
X114731631Y-100353685D01*
G37*
G36*
X129399591Y-100062085D02*
G01*
X129433569Y-100072393D01*
X129464890Y-100089134D01*
X129492339Y-100111661D01*
X129514866Y-100139110D01*
X129531607Y-100170431D01*
X129541915Y-100204409D01*
X129546000Y-100245890D01*
X129546000Y-100922110D01*
X129541915Y-100963591D01*
X129531607Y-100997569D01*
X129514866Y-101028890D01*
X129492339Y-101056339D01*
X129464890Y-101078866D01*
X129433569Y-101095607D01*
X129399591Y-101105915D01*
X129358110Y-101110000D01*
X128756890Y-101110000D01*
X128715409Y-101105915D01*
X128681431Y-101095607D01*
X128650110Y-101078866D01*
X128622661Y-101056339D01*
X128600134Y-101028890D01*
X128583393Y-100997569D01*
X128573085Y-100963591D01*
X128569000Y-100922110D01*
X128569000Y-100245890D01*
X128573085Y-100204409D01*
X128583393Y-100170431D01*
X128600134Y-100139110D01*
X128622661Y-100111661D01*
X128650110Y-100089134D01*
X128681431Y-100072393D01*
X128715409Y-100062085D01*
X128756890Y-100058000D01*
X129358110Y-100058000D01*
X129399591Y-100062085D01*
X129399591Y-100062085D01*
G37*
G36*
X127824591Y-100062085D02*
G01*
X127858569Y-100072393D01*
X127889890Y-100089134D01*
X127917339Y-100111661D01*
X127939866Y-100139110D01*
X127956607Y-100170431D01*
X127966915Y-100204409D01*
X127971000Y-100245890D01*
X127971000Y-100922110D01*
X127966915Y-100963591D01*
X127956607Y-100997569D01*
X127939866Y-101028890D01*
X127917339Y-101056339D01*
X127889890Y-101078866D01*
X127858569Y-101095607D01*
X127824591Y-101105915D01*
X127783110Y-101110000D01*
X127181890Y-101110000D01*
X127140409Y-101105915D01*
X127106431Y-101095607D01*
X127075110Y-101078866D01*
X127047661Y-101056339D01*
X127025134Y-101028890D01*
X127008393Y-100997569D01*
X126998085Y-100963591D01*
X126994000Y-100922110D01*
X126994000Y-100245890D01*
X126998085Y-100204409D01*
X127008393Y-100170431D01*
X127025134Y-100139110D01*
X127047661Y-100111661D01*
X127075110Y-100089134D01*
X127106431Y-100072393D01*
X127140409Y-100062085D01*
X127181890Y-100058000D01*
X127783110Y-100058000D01*
X127824591Y-100062085D01*
X127824591Y-100062085D01*
G37*
G36*
X104667000Y-101085000D02*
G01*
X102565000Y-101085000D01*
X102565000Y-100083000D01*
X104667000Y-100083000D01*
X104667000Y-101085000D01*
X104667000Y-101085000D01*
G37*
G36*
X123861000Y-100875000D02*
G01*
X123059000Y-100875000D01*
X123059000Y-100323000D01*
X123861000Y-100323000D01*
X123861000Y-100875000D01*
X123861000Y-100875000D01*
G37*
G36*
X141210591Y-99681085D02*
G01*
X141244569Y-99691393D01*
X141275890Y-99708134D01*
X141303339Y-99730661D01*
X141325866Y-99758110D01*
X141342607Y-99789431D01*
X141352915Y-99823409D01*
X141357000Y-99864890D01*
X141357000Y-100541110D01*
X141352915Y-100582591D01*
X141342607Y-100616569D01*
X141325866Y-100647890D01*
X141303339Y-100675339D01*
X141275890Y-100697866D01*
X141244569Y-100714607D01*
X141210591Y-100724915D01*
X141169110Y-100729000D01*
X140567890Y-100729000D01*
X140526409Y-100724915D01*
X140492431Y-100714607D01*
X140461110Y-100697866D01*
X140433661Y-100675339D01*
X140411134Y-100647890D01*
X140394393Y-100616569D01*
X140384085Y-100582591D01*
X140380000Y-100541110D01*
X140380000Y-99864890D01*
X140384085Y-99823409D01*
X140394393Y-99789431D01*
X140411134Y-99758110D01*
X140433661Y-99730661D01*
X140461110Y-99708134D01*
X140492431Y-99691393D01*
X140526409Y-99681085D01*
X140567890Y-99677000D01*
X141169110Y-99677000D01*
X141210591Y-99681085D01*
X141210591Y-99681085D01*
G37*
G36*
X139635591Y-99681085D02*
G01*
X139669569Y-99691393D01*
X139700890Y-99708134D01*
X139728339Y-99730661D01*
X139750866Y-99758110D01*
X139767607Y-99789431D01*
X139777915Y-99823409D01*
X139782000Y-99864890D01*
X139782000Y-100541110D01*
X139777915Y-100582591D01*
X139767607Y-100616569D01*
X139750866Y-100647890D01*
X139728339Y-100675339D01*
X139700890Y-100697866D01*
X139669569Y-100714607D01*
X139635591Y-100724915D01*
X139594110Y-100729000D01*
X138992890Y-100729000D01*
X138951409Y-100724915D01*
X138917431Y-100714607D01*
X138886110Y-100697866D01*
X138858661Y-100675339D01*
X138836134Y-100647890D01*
X138819393Y-100616569D01*
X138809085Y-100582591D01*
X138805000Y-100541110D01*
X138805000Y-99864890D01*
X138809085Y-99823409D01*
X138819393Y-99789431D01*
X138836134Y-99758110D01*
X138858661Y-99730661D01*
X138886110Y-99708134D01*
X138917431Y-99691393D01*
X138951409Y-99681085D01*
X138992890Y-99677000D01*
X139594110Y-99677000D01*
X139635591Y-99681085D01*
X139635591Y-99681085D01*
G37*
G36*
X137908591Y-99681085D02*
G01*
X137942569Y-99691393D01*
X137973890Y-99708134D01*
X138001339Y-99730661D01*
X138023866Y-99758110D01*
X138040607Y-99789431D01*
X138050915Y-99823409D01*
X138055000Y-99864890D01*
X138055000Y-100541110D01*
X138050915Y-100582591D01*
X138040607Y-100616569D01*
X138023866Y-100647890D01*
X138001339Y-100675339D01*
X137973890Y-100697866D01*
X137942569Y-100714607D01*
X137908591Y-100724915D01*
X137867110Y-100729000D01*
X137265890Y-100729000D01*
X137224409Y-100724915D01*
X137190431Y-100714607D01*
X137159110Y-100697866D01*
X137131661Y-100675339D01*
X137109134Y-100647890D01*
X137092393Y-100616569D01*
X137082085Y-100582591D01*
X137078000Y-100541110D01*
X137078000Y-99864890D01*
X137082085Y-99823409D01*
X137092393Y-99789431D01*
X137109134Y-99758110D01*
X137131661Y-99730661D01*
X137159110Y-99708134D01*
X137190431Y-99691393D01*
X137224409Y-99681085D01*
X137265890Y-99677000D01*
X137867110Y-99677000D01*
X137908591Y-99681085D01*
X137908591Y-99681085D01*
G37*
G36*
X136333591Y-99681085D02*
G01*
X136367569Y-99691393D01*
X136398890Y-99708134D01*
X136426339Y-99730661D01*
X136448866Y-99758110D01*
X136465607Y-99789431D01*
X136475915Y-99823409D01*
X136480000Y-99864890D01*
X136480000Y-100541110D01*
X136475915Y-100582591D01*
X136465607Y-100616569D01*
X136448866Y-100647890D01*
X136426339Y-100675339D01*
X136398890Y-100697866D01*
X136367569Y-100714607D01*
X136333591Y-100724915D01*
X136292110Y-100729000D01*
X135690890Y-100729000D01*
X135649409Y-100724915D01*
X135615431Y-100714607D01*
X135584110Y-100697866D01*
X135556661Y-100675339D01*
X135534134Y-100647890D01*
X135517393Y-100616569D01*
X135507085Y-100582591D01*
X135503000Y-100541110D01*
X135503000Y-99864890D01*
X135507085Y-99823409D01*
X135517393Y-99789431D01*
X135534134Y-99758110D01*
X135556661Y-99730661D01*
X135584110Y-99708134D01*
X135615431Y-99691393D01*
X135649409Y-99681085D01*
X135690890Y-99677000D01*
X136292110Y-99677000D01*
X136333591Y-99681085D01*
X136333591Y-99681085D01*
G37*
G36*
X118588960Y-100501600D02*
G01*
X117586960Y-100501600D01*
X117586960Y-99599600D01*
X118588960Y-99599600D01*
X118588960Y-100501600D01*
X118588960Y-100501600D01*
G37*
G36*
X125861000Y-100225000D02*
G01*
X125059000Y-100225000D01*
X125059000Y-99673000D01*
X125861000Y-99673000D01*
X125861000Y-100225000D01*
X125861000Y-100225000D01*
G37*
G36*
X86597442Y-98102018D02*
G01*
X86663627Y-98108537D01*
X86833466Y-98160057D01*
X86989991Y-98243722D01*
X87025729Y-98273052D01*
X87127186Y-98356314D01*
X87210448Y-98457771D01*
X87239778Y-98493509D01*
X87323443Y-98650034D01*
X87374963Y-98819873D01*
X87392359Y-98996500D01*
X87374963Y-99173127D01*
X87323443Y-99342966D01*
X87239778Y-99499491D01*
X87235347Y-99504890D01*
X87127186Y-99636686D01*
X87040125Y-99708134D01*
X86989991Y-99749278D01*
X86989989Y-99749279D01*
X86890608Y-99802400D01*
X86833466Y-99832943D01*
X86663627Y-99884463D01*
X86597443Y-99890981D01*
X86531260Y-99897500D01*
X86442740Y-99897500D01*
X86376557Y-99890981D01*
X86310373Y-99884463D01*
X86140534Y-99832943D01*
X86083393Y-99802400D01*
X85984011Y-99749279D01*
X85984009Y-99749278D01*
X85933875Y-99708134D01*
X85846814Y-99636686D01*
X85738653Y-99504890D01*
X85734222Y-99499491D01*
X85650557Y-99342966D01*
X85599037Y-99173127D01*
X85581641Y-98996500D01*
X85599037Y-98819873D01*
X85650557Y-98650034D01*
X85734222Y-98493509D01*
X85763552Y-98457771D01*
X85846814Y-98356314D01*
X85948271Y-98273052D01*
X85984009Y-98243722D01*
X86140534Y-98160057D01*
X86310373Y-98108537D01*
X86376558Y-98102018D01*
X86442740Y-98095500D01*
X86531260Y-98095500D01*
X86597442Y-98102018D01*
X86597442Y-98102018D01*
G37*
G36*
X104667000Y-99815000D02*
G01*
X102565000Y-99815000D01*
X102565000Y-98813000D01*
X104667000Y-98813000D01*
X104667000Y-99815000D01*
X104667000Y-99815000D01*
G37*
G36*
X121969391Y-98829485D02*
G01*
X122003369Y-98839793D01*
X122034690Y-98856534D01*
X122062139Y-98879061D01*
X122084666Y-98906510D01*
X122101407Y-98937831D01*
X122111715Y-98971809D01*
X122115800Y-99013290D01*
X122115800Y-99614510D01*
X122111715Y-99655991D01*
X122101407Y-99689969D01*
X122084666Y-99721290D01*
X122062139Y-99748739D01*
X122034690Y-99771266D01*
X122003369Y-99788007D01*
X121969391Y-99798315D01*
X121927910Y-99802400D01*
X121251690Y-99802400D01*
X121210209Y-99798315D01*
X121176231Y-99788007D01*
X121144910Y-99771266D01*
X121117461Y-99748739D01*
X121094934Y-99721290D01*
X121078193Y-99689969D01*
X121067885Y-99655991D01*
X121063800Y-99614510D01*
X121063800Y-99013290D01*
X121067885Y-98971809D01*
X121078193Y-98937831D01*
X121094934Y-98906510D01*
X121117461Y-98879061D01*
X121144910Y-98856534D01*
X121176231Y-98839793D01*
X121210209Y-98829485D01*
X121251690Y-98825400D01*
X121927910Y-98825400D01*
X121969391Y-98829485D01*
X121969391Y-98829485D01*
G37*
G36*
X120203471Y-98829485D02*
G01*
X120237449Y-98839793D01*
X120268770Y-98856534D01*
X120296219Y-98879061D01*
X120318746Y-98906510D01*
X120335487Y-98937831D01*
X120345795Y-98971809D01*
X120349880Y-99013290D01*
X120349880Y-99614510D01*
X120345795Y-99655991D01*
X120335487Y-99689969D01*
X120318746Y-99721290D01*
X120296219Y-99748739D01*
X120268770Y-99771266D01*
X120237449Y-99788007D01*
X120203471Y-99798315D01*
X120161990Y-99802400D01*
X119485770Y-99802400D01*
X119444289Y-99798315D01*
X119410311Y-99788007D01*
X119378990Y-99771266D01*
X119351541Y-99748739D01*
X119329014Y-99721290D01*
X119312273Y-99689969D01*
X119301965Y-99655991D01*
X119297880Y-99614510D01*
X119297880Y-99013290D01*
X119301965Y-98971809D01*
X119312273Y-98937831D01*
X119329014Y-98906510D01*
X119351541Y-98879061D01*
X119378990Y-98856534D01*
X119410311Y-98839793D01*
X119444289Y-98829485D01*
X119485770Y-98825400D01*
X120161990Y-98825400D01*
X120203471Y-98829485D01*
X120203471Y-98829485D01*
G37*
G36*
X114731631Y-98778685D02*
G01*
X114765609Y-98788993D01*
X114796930Y-98805734D01*
X114824379Y-98828261D01*
X114846906Y-98855710D01*
X114863647Y-98887031D01*
X114873955Y-98921009D01*
X114878040Y-98962490D01*
X114878040Y-99563710D01*
X114873955Y-99605191D01*
X114863647Y-99639169D01*
X114846906Y-99670490D01*
X114824379Y-99697939D01*
X114796930Y-99720466D01*
X114765609Y-99737207D01*
X114731631Y-99747515D01*
X114690150Y-99751600D01*
X114013930Y-99751600D01*
X113972449Y-99747515D01*
X113938471Y-99737207D01*
X113907150Y-99720466D01*
X113879701Y-99697939D01*
X113857174Y-99670490D01*
X113840433Y-99639169D01*
X113830125Y-99605191D01*
X113826040Y-99563710D01*
X113826040Y-98962490D01*
X113830125Y-98921009D01*
X113840433Y-98887031D01*
X113857174Y-98855710D01*
X113879701Y-98828261D01*
X113907150Y-98805734D01*
X113938471Y-98788993D01*
X113972449Y-98778685D01*
X114013930Y-98774600D01*
X114690150Y-98774600D01*
X114731631Y-98778685D01*
X114731631Y-98778685D01*
G37*
G36*
X129399591Y-98538085D02*
G01*
X129433569Y-98548393D01*
X129464890Y-98565134D01*
X129492339Y-98587661D01*
X129514866Y-98615110D01*
X129531607Y-98646431D01*
X129541915Y-98680409D01*
X129546000Y-98721890D01*
X129546000Y-99398110D01*
X129541915Y-99439591D01*
X129531607Y-99473569D01*
X129514866Y-99504890D01*
X129492339Y-99532339D01*
X129464890Y-99554866D01*
X129433569Y-99571607D01*
X129399591Y-99581915D01*
X129358110Y-99586000D01*
X128756890Y-99586000D01*
X128715409Y-99581915D01*
X128681431Y-99571607D01*
X128650110Y-99554866D01*
X128622661Y-99532339D01*
X128600134Y-99504890D01*
X128583393Y-99473569D01*
X128573085Y-99439591D01*
X128569000Y-99398110D01*
X128569000Y-98721890D01*
X128573085Y-98680409D01*
X128583393Y-98646431D01*
X128600134Y-98615110D01*
X128622661Y-98587661D01*
X128650110Y-98565134D01*
X128681431Y-98548393D01*
X128715409Y-98538085D01*
X128756890Y-98534000D01*
X129358110Y-98534000D01*
X129399591Y-98538085D01*
X129399591Y-98538085D01*
G37*
G36*
X127824591Y-98538085D02*
G01*
X127858569Y-98548393D01*
X127889890Y-98565134D01*
X127917339Y-98587661D01*
X127939866Y-98615110D01*
X127956607Y-98646431D01*
X127966915Y-98680409D01*
X127971000Y-98721890D01*
X127971000Y-99398110D01*
X127966915Y-99439591D01*
X127956607Y-99473569D01*
X127939866Y-99504890D01*
X127917339Y-99532339D01*
X127889890Y-99554866D01*
X127858569Y-99571607D01*
X127824591Y-99581915D01*
X127783110Y-99586000D01*
X127181890Y-99586000D01*
X127140409Y-99581915D01*
X127106431Y-99571607D01*
X127075110Y-99554866D01*
X127047661Y-99532339D01*
X127025134Y-99504890D01*
X127008393Y-99473569D01*
X126998085Y-99439591D01*
X126994000Y-99398110D01*
X126994000Y-98721890D01*
X126998085Y-98680409D01*
X127008393Y-98646431D01*
X127025134Y-98615110D01*
X127047661Y-98587661D01*
X127075110Y-98565134D01*
X127106431Y-98548393D01*
X127140409Y-98538085D01*
X127181890Y-98534000D01*
X127783110Y-98534000D01*
X127824591Y-98538085D01*
X127824591Y-98538085D01*
G37*
G36*
X123861000Y-99575000D02*
G01*
X123059000Y-99575000D01*
X123059000Y-99023000D01*
X123861000Y-99023000D01*
X123861000Y-99575000D01*
X123861000Y-99575000D01*
G37*
G36*
X116588960Y-99551600D02*
G01*
X115586960Y-99551600D01*
X115586960Y-98649600D01*
X116588960Y-98649600D01*
X116588960Y-99551600D01*
X116588960Y-99551600D01*
G37*
G36*
X89147000Y-97580000D02*
G01*
X88145000Y-97580000D01*
X88145000Y-95478000D01*
X89147000Y-95478000D01*
X89147000Y-97580000D01*
X89147000Y-97580000D01*
G37*
G36*
X87877000Y-97580000D02*
G01*
X86875000Y-97580000D01*
X86875000Y-95478000D01*
X87877000Y-95478000D01*
X87877000Y-97580000D01*
X87877000Y-97580000D01*
G37*
G36*
X86607000Y-97580000D02*
G01*
X85605000Y-97580000D01*
X85605000Y-95478000D01*
X86607000Y-95478000D01*
X86607000Y-97580000D01*
X86607000Y-97580000D01*
G37*
G36*
X96767000Y-97580000D02*
G01*
X95765000Y-97580000D01*
X95765000Y-95478000D01*
X96767000Y-95478000D01*
X96767000Y-97580000D01*
X96767000Y-97580000D01*
G37*
G36*
X90417000Y-97580000D02*
G01*
X89415000Y-97580000D01*
X89415000Y-95478000D01*
X90417000Y-95478000D01*
X90417000Y-97580000D01*
X90417000Y-97580000D01*
G37*
G36*
X103117000Y-97580000D02*
G01*
X102115000Y-97580000D01*
X102115000Y-95478000D01*
X103117000Y-95478000D01*
X103117000Y-97580000D01*
X103117000Y-97580000D01*
G37*
G36*
X101847000Y-97580000D02*
G01*
X100845000Y-97580000D01*
X100845000Y-95478000D01*
X101847000Y-95478000D01*
X101847000Y-97580000D01*
X101847000Y-97580000D01*
G37*
G36*
X100577000Y-97580000D02*
G01*
X99575000Y-97580000D01*
X99575000Y-95478000D01*
X100577000Y-95478000D01*
X100577000Y-97580000D01*
X100577000Y-97580000D01*
G37*
G36*
X91687000Y-97580000D02*
G01*
X90685000Y-97580000D01*
X90685000Y-95478000D01*
X91687000Y-95478000D01*
X91687000Y-97580000D01*
X91687000Y-97580000D01*
G37*
G36*
X99307000Y-97580000D02*
G01*
X98305000Y-97580000D01*
X98305000Y-95478000D01*
X99307000Y-95478000D01*
X99307000Y-97580000D01*
X99307000Y-97580000D01*
G37*
G36*
X92957000Y-97580000D02*
G01*
X91955000Y-97580000D01*
X91955000Y-95478000D01*
X92957000Y-95478000D01*
X92957000Y-97580000D01*
X92957000Y-97580000D01*
G37*
G36*
X98037000Y-97580000D02*
G01*
X97035000Y-97580000D01*
X97035000Y-95478000D01*
X98037000Y-95478000D01*
X98037000Y-97580000D01*
X98037000Y-97580000D01*
G37*
G36*
X95497000Y-97580000D02*
G01*
X94495000Y-97580000D01*
X94495000Y-95478000D01*
X95497000Y-95478000D01*
X95497000Y-97580000D01*
X95497000Y-97580000D01*
G37*
G36*
X94227000Y-97580000D02*
G01*
X93225000Y-97580000D01*
X93225000Y-95478000D01*
X94227000Y-95478000D01*
X94227000Y-97580000D01*
X94227000Y-97580000D01*
G37*
M02*
