G04 #@! TF.GenerationSoftware,KiCad,Pcbnew,(5.1.4)-1*
G04 #@! TF.CreationDate,2020-11-25T16:32:24+01:00*
G04 #@! TF.ProjectId,iot_plant_watering_sensor_esp32,696f745f-706c-4616-9e74-5f7761746572,rev?*
G04 #@! TF.SameCoordinates,Original*
G04 #@! TF.FileFunction,Paste,Top*
G04 #@! TF.FilePolarity,Positive*
%FSLAX46Y46*%
G04 Gerber Fmt 4.6, Leading zero omitted, Abs format (unit mm)*
G04 Created by KiCad (PCBNEW (5.1.4)-1) date 2020-11-25 16:32:24*
%MOMM*%
%LPD*%
G04 APERTURE LIST*
%ADD10R,0.700000X0.450000*%
%ADD11C,0.100000*%
%ADD12C,0.875000*%
%ADD13C,1.250000*%
%ADD14R,1.060000X0.650000*%
%ADD15C,0.600000*%
%ADD16R,5.000000X5.000000*%
%ADD17R,0.900000X2.000000*%
%ADD18R,2.000000X0.900000*%
%ADD19R,0.900000X0.800000*%
%ADD20R,0.600000X0.700000*%
G04 APERTURE END LIST*
D10*
X123460000Y-99299000D03*
X123460000Y-100599000D03*
X125460000Y-99949000D03*
D11*
G36*
X129297691Y-104682053D02*
G01*
X129318926Y-104685203D01*
X129339750Y-104690419D01*
X129359962Y-104697651D01*
X129379368Y-104706830D01*
X129397781Y-104717866D01*
X129415024Y-104730654D01*
X129430930Y-104745070D01*
X129445346Y-104760976D01*
X129458134Y-104778219D01*
X129469170Y-104796632D01*
X129478349Y-104816038D01*
X129485581Y-104836250D01*
X129490797Y-104857074D01*
X129493947Y-104878309D01*
X129495000Y-104899750D01*
X129495000Y-105412250D01*
X129493947Y-105433691D01*
X129490797Y-105454926D01*
X129485581Y-105475750D01*
X129478349Y-105495962D01*
X129469170Y-105515368D01*
X129458134Y-105533781D01*
X129445346Y-105551024D01*
X129430930Y-105566930D01*
X129415024Y-105581346D01*
X129397781Y-105594134D01*
X129379368Y-105605170D01*
X129359962Y-105614349D01*
X129339750Y-105621581D01*
X129318926Y-105626797D01*
X129297691Y-105629947D01*
X129276250Y-105631000D01*
X128838750Y-105631000D01*
X128817309Y-105629947D01*
X128796074Y-105626797D01*
X128775250Y-105621581D01*
X128755038Y-105614349D01*
X128735632Y-105605170D01*
X128717219Y-105594134D01*
X128699976Y-105581346D01*
X128684070Y-105566930D01*
X128669654Y-105551024D01*
X128656866Y-105533781D01*
X128645830Y-105515368D01*
X128636651Y-105495962D01*
X128629419Y-105475750D01*
X128624203Y-105454926D01*
X128621053Y-105433691D01*
X128620000Y-105412250D01*
X128620000Y-104899750D01*
X128621053Y-104878309D01*
X128624203Y-104857074D01*
X128629419Y-104836250D01*
X128636651Y-104816038D01*
X128645830Y-104796632D01*
X128656866Y-104778219D01*
X128669654Y-104760976D01*
X128684070Y-104745070D01*
X128699976Y-104730654D01*
X128717219Y-104717866D01*
X128735632Y-104706830D01*
X128755038Y-104697651D01*
X128775250Y-104690419D01*
X128796074Y-104685203D01*
X128817309Y-104682053D01*
X128838750Y-104681000D01*
X129276250Y-104681000D01*
X129297691Y-104682053D01*
X129297691Y-104682053D01*
G37*
D12*
X129057500Y-105156000D03*
D11*
G36*
X127722691Y-104682053D02*
G01*
X127743926Y-104685203D01*
X127764750Y-104690419D01*
X127784962Y-104697651D01*
X127804368Y-104706830D01*
X127822781Y-104717866D01*
X127840024Y-104730654D01*
X127855930Y-104745070D01*
X127870346Y-104760976D01*
X127883134Y-104778219D01*
X127894170Y-104796632D01*
X127903349Y-104816038D01*
X127910581Y-104836250D01*
X127915797Y-104857074D01*
X127918947Y-104878309D01*
X127920000Y-104899750D01*
X127920000Y-105412250D01*
X127918947Y-105433691D01*
X127915797Y-105454926D01*
X127910581Y-105475750D01*
X127903349Y-105495962D01*
X127894170Y-105515368D01*
X127883134Y-105533781D01*
X127870346Y-105551024D01*
X127855930Y-105566930D01*
X127840024Y-105581346D01*
X127822781Y-105594134D01*
X127804368Y-105605170D01*
X127784962Y-105614349D01*
X127764750Y-105621581D01*
X127743926Y-105626797D01*
X127722691Y-105629947D01*
X127701250Y-105631000D01*
X127263750Y-105631000D01*
X127242309Y-105629947D01*
X127221074Y-105626797D01*
X127200250Y-105621581D01*
X127180038Y-105614349D01*
X127160632Y-105605170D01*
X127142219Y-105594134D01*
X127124976Y-105581346D01*
X127109070Y-105566930D01*
X127094654Y-105551024D01*
X127081866Y-105533781D01*
X127070830Y-105515368D01*
X127061651Y-105495962D01*
X127054419Y-105475750D01*
X127049203Y-105454926D01*
X127046053Y-105433691D01*
X127045000Y-105412250D01*
X127045000Y-104899750D01*
X127046053Y-104878309D01*
X127049203Y-104857074D01*
X127054419Y-104836250D01*
X127061651Y-104816038D01*
X127070830Y-104796632D01*
X127081866Y-104778219D01*
X127094654Y-104760976D01*
X127109070Y-104745070D01*
X127124976Y-104730654D01*
X127142219Y-104717866D01*
X127160632Y-104706830D01*
X127180038Y-104697651D01*
X127200250Y-104690419D01*
X127221074Y-104685203D01*
X127242309Y-104682053D01*
X127263750Y-104681000D01*
X127701250Y-104681000D01*
X127722691Y-104682053D01*
X127722691Y-104682053D01*
G37*
D12*
X127482500Y-105156000D03*
D11*
G36*
X127722691Y-103158053D02*
G01*
X127743926Y-103161203D01*
X127764750Y-103166419D01*
X127784962Y-103173651D01*
X127804368Y-103182830D01*
X127822781Y-103193866D01*
X127840024Y-103206654D01*
X127855930Y-103221070D01*
X127870346Y-103236976D01*
X127883134Y-103254219D01*
X127894170Y-103272632D01*
X127903349Y-103292038D01*
X127910581Y-103312250D01*
X127915797Y-103333074D01*
X127918947Y-103354309D01*
X127920000Y-103375750D01*
X127920000Y-103888250D01*
X127918947Y-103909691D01*
X127915797Y-103930926D01*
X127910581Y-103951750D01*
X127903349Y-103971962D01*
X127894170Y-103991368D01*
X127883134Y-104009781D01*
X127870346Y-104027024D01*
X127855930Y-104042930D01*
X127840024Y-104057346D01*
X127822781Y-104070134D01*
X127804368Y-104081170D01*
X127784962Y-104090349D01*
X127764750Y-104097581D01*
X127743926Y-104102797D01*
X127722691Y-104105947D01*
X127701250Y-104107000D01*
X127263750Y-104107000D01*
X127242309Y-104105947D01*
X127221074Y-104102797D01*
X127200250Y-104097581D01*
X127180038Y-104090349D01*
X127160632Y-104081170D01*
X127142219Y-104070134D01*
X127124976Y-104057346D01*
X127109070Y-104042930D01*
X127094654Y-104027024D01*
X127081866Y-104009781D01*
X127070830Y-103991368D01*
X127061651Y-103971962D01*
X127054419Y-103951750D01*
X127049203Y-103930926D01*
X127046053Y-103909691D01*
X127045000Y-103888250D01*
X127045000Y-103375750D01*
X127046053Y-103354309D01*
X127049203Y-103333074D01*
X127054419Y-103312250D01*
X127061651Y-103292038D01*
X127070830Y-103272632D01*
X127081866Y-103254219D01*
X127094654Y-103236976D01*
X127109070Y-103221070D01*
X127124976Y-103206654D01*
X127142219Y-103193866D01*
X127160632Y-103182830D01*
X127180038Y-103173651D01*
X127200250Y-103166419D01*
X127221074Y-103161203D01*
X127242309Y-103158053D01*
X127263750Y-103157000D01*
X127701250Y-103157000D01*
X127722691Y-103158053D01*
X127722691Y-103158053D01*
G37*
D12*
X127482500Y-103632000D03*
D11*
G36*
X129297691Y-103158053D02*
G01*
X129318926Y-103161203D01*
X129339750Y-103166419D01*
X129359962Y-103173651D01*
X129379368Y-103182830D01*
X129397781Y-103193866D01*
X129415024Y-103206654D01*
X129430930Y-103221070D01*
X129445346Y-103236976D01*
X129458134Y-103254219D01*
X129469170Y-103272632D01*
X129478349Y-103292038D01*
X129485581Y-103312250D01*
X129490797Y-103333074D01*
X129493947Y-103354309D01*
X129495000Y-103375750D01*
X129495000Y-103888250D01*
X129493947Y-103909691D01*
X129490797Y-103930926D01*
X129485581Y-103951750D01*
X129478349Y-103971962D01*
X129469170Y-103991368D01*
X129458134Y-104009781D01*
X129445346Y-104027024D01*
X129430930Y-104042930D01*
X129415024Y-104057346D01*
X129397781Y-104070134D01*
X129379368Y-104081170D01*
X129359962Y-104090349D01*
X129339750Y-104097581D01*
X129318926Y-104102797D01*
X129297691Y-104105947D01*
X129276250Y-104107000D01*
X128838750Y-104107000D01*
X128817309Y-104105947D01*
X128796074Y-104102797D01*
X128775250Y-104097581D01*
X128755038Y-104090349D01*
X128735632Y-104081170D01*
X128717219Y-104070134D01*
X128699976Y-104057346D01*
X128684070Y-104042930D01*
X128669654Y-104027024D01*
X128656866Y-104009781D01*
X128645830Y-103991368D01*
X128636651Y-103971962D01*
X128629419Y-103951750D01*
X128624203Y-103930926D01*
X128621053Y-103909691D01*
X128620000Y-103888250D01*
X128620000Y-103375750D01*
X128621053Y-103354309D01*
X128624203Y-103333074D01*
X128629419Y-103312250D01*
X128636651Y-103292038D01*
X128645830Y-103272632D01*
X128656866Y-103254219D01*
X128669654Y-103236976D01*
X128684070Y-103221070D01*
X128699976Y-103206654D01*
X128717219Y-103193866D01*
X128735632Y-103182830D01*
X128755038Y-103173651D01*
X128775250Y-103166419D01*
X128796074Y-103161203D01*
X128817309Y-103158053D01*
X128838750Y-103157000D01*
X129276250Y-103157000D01*
X129297691Y-103158053D01*
X129297691Y-103158053D01*
G37*
D12*
X129057500Y-103632000D03*
D11*
G36*
X129297691Y-101634053D02*
G01*
X129318926Y-101637203D01*
X129339750Y-101642419D01*
X129359962Y-101649651D01*
X129379368Y-101658830D01*
X129397781Y-101669866D01*
X129415024Y-101682654D01*
X129430930Y-101697070D01*
X129445346Y-101712976D01*
X129458134Y-101730219D01*
X129469170Y-101748632D01*
X129478349Y-101768038D01*
X129485581Y-101788250D01*
X129490797Y-101809074D01*
X129493947Y-101830309D01*
X129495000Y-101851750D01*
X129495000Y-102364250D01*
X129493947Y-102385691D01*
X129490797Y-102406926D01*
X129485581Y-102427750D01*
X129478349Y-102447962D01*
X129469170Y-102467368D01*
X129458134Y-102485781D01*
X129445346Y-102503024D01*
X129430930Y-102518930D01*
X129415024Y-102533346D01*
X129397781Y-102546134D01*
X129379368Y-102557170D01*
X129359962Y-102566349D01*
X129339750Y-102573581D01*
X129318926Y-102578797D01*
X129297691Y-102581947D01*
X129276250Y-102583000D01*
X128838750Y-102583000D01*
X128817309Y-102581947D01*
X128796074Y-102578797D01*
X128775250Y-102573581D01*
X128755038Y-102566349D01*
X128735632Y-102557170D01*
X128717219Y-102546134D01*
X128699976Y-102533346D01*
X128684070Y-102518930D01*
X128669654Y-102503024D01*
X128656866Y-102485781D01*
X128645830Y-102467368D01*
X128636651Y-102447962D01*
X128629419Y-102427750D01*
X128624203Y-102406926D01*
X128621053Y-102385691D01*
X128620000Y-102364250D01*
X128620000Y-101851750D01*
X128621053Y-101830309D01*
X128624203Y-101809074D01*
X128629419Y-101788250D01*
X128636651Y-101768038D01*
X128645830Y-101748632D01*
X128656866Y-101730219D01*
X128669654Y-101712976D01*
X128684070Y-101697070D01*
X128699976Y-101682654D01*
X128717219Y-101669866D01*
X128735632Y-101658830D01*
X128755038Y-101649651D01*
X128775250Y-101642419D01*
X128796074Y-101637203D01*
X128817309Y-101634053D01*
X128838750Y-101633000D01*
X129276250Y-101633000D01*
X129297691Y-101634053D01*
X129297691Y-101634053D01*
G37*
D12*
X129057500Y-102108000D03*
D11*
G36*
X127722691Y-101634053D02*
G01*
X127743926Y-101637203D01*
X127764750Y-101642419D01*
X127784962Y-101649651D01*
X127804368Y-101658830D01*
X127822781Y-101669866D01*
X127840024Y-101682654D01*
X127855930Y-101697070D01*
X127870346Y-101712976D01*
X127883134Y-101730219D01*
X127894170Y-101748632D01*
X127903349Y-101768038D01*
X127910581Y-101788250D01*
X127915797Y-101809074D01*
X127918947Y-101830309D01*
X127920000Y-101851750D01*
X127920000Y-102364250D01*
X127918947Y-102385691D01*
X127915797Y-102406926D01*
X127910581Y-102427750D01*
X127903349Y-102447962D01*
X127894170Y-102467368D01*
X127883134Y-102485781D01*
X127870346Y-102503024D01*
X127855930Y-102518930D01*
X127840024Y-102533346D01*
X127822781Y-102546134D01*
X127804368Y-102557170D01*
X127784962Y-102566349D01*
X127764750Y-102573581D01*
X127743926Y-102578797D01*
X127722691Y-102581947D01*
X127701250Y-102583000D01*
X127263750Y-102583000D01*
X127242309Y-102581947D01*
X127221074Y-102578797D01*
X127200250Y-102573581D01*
X127180038Y-102566349D01*
X127160632Y-102557170D01*
X127142219Y-102546134D01*
X127124976Y-102533346D01*
X127109070Y-102518930D01*
X127094654Y-102503024D01*
X127081866Y-102485781D01*
X127070830Y-102467368D01*
X127061651Y-102447962D01*
X127054419Y-102427750D01*
X127049203Y-102406926D01*
X127046053Y-102385691D01*
X127045000Y-102364250D01*
X127045000Y-101851750D01*
X127046053Y-101830309D01*
X127049203Y-101809074D01*
X127054419Y-101788250D01*
X127061651Y-101768038D01*
X127070830Y-101748632D01*
X127081866Y-101730219D01*
X127094654Y-101712976D01*
X127109070Y-101697070D01*
X127124976Y-101682654D01*
X127142219Y-101669866D01*
X127160632Y-101658830D01*
X127180038Y-101649651D01*
X127200250Y-101642419D01*
X127221074Y-101637203D01*
X127242309Y-101634053D01*
X127263750Y-101633000D01*
X127701250Y-101633000D01*
X127722691Y-101634053D01*
X127722691Y-101634053D01*
G37*
D12*
X127482500Y-102108000D03*
D11*
G36*
X127722691Y-100110053D02*
G01*
X127743926Y-100113203D01*
X127764750Y-100118419D01*
X127784962Y-100125651D01*
X127804368Y-100134830D01*
X127822781Y-100145866D01*
X127840024Y-100158654D01*
X127855930Y-100173070D01*
X127870346Y-100188976D01*
X127883134Y-100206219D01*
X127894170Y-100224632D01*
X127903349Y-100244038D01*
X127910581Y-100264250D01*
X127915797Y-100285074D01*
X127918947Y-100306309D01*
X127920000Y-100327750D01*
X127920000Y-100840250D01*
X127918947Y-100861691D01*
X127915797Y-100882926D01*
X127910581Y-100903750D01*
X127903349Y-100923962D01*
X127894170Y-100943368D01*
X127883134Y-100961781D01*
X127870346Y-100979024D01*
X127855930Y-100994930D01*
X127840024Y-101009346D01*
X127822781Y-101022134D01*
X127804368Y-101033170D01*
X127784962Y-101042349D01*
X127764750Y-101049581D01*
X127743926Y-101054797D01*
X127722691Y-101057947D01*
X127701250Y-101059000D01*
X127263750Y-101059000D01*
X127242309Y-101057947D01*
X127221074Y-101054797D01*
X127200250Y-101049581D01*
X127180038Y-101042349D01*
X127160632Y-101033170D01*
X127142219Y-101022134D01*
X127124976Y-101009346D01*
X127109070Y-100994930D01*
X127094654Y-100979024D01*
X127081866Y-100961781D01*
X127070830Y-100943368D01*
X127061651Y-100923962D01*
X127054419Y-100903750D01*
X127049203Y-100882926D01*
X127046053Y-100861691D01*
X127045000Y-100840250D01*
X127045000Y-100327750D01*
X127046053Y-100306309D01*
X127049203Y-100285074D01*
X127054419Y-100264250D01*
X127061651Y-100244038D01*
X127070830Y-100224632D01*
X127081866Y-100206219D01*
X127094654Y-100188976D01*
X127109070Y-100173070D01*
X127124976Y-100158654D01*
X127142219Y-100145866D01*
X127160632Y-100134830D01*
X127180038Y-100125651D01*
X127200250Y-100118419D01*
X127221074Y-100113203D01*
X127242309Y-100110053D01*
X127263750Y-100109000D01*
X127701250Y-100109000D01*
X127722691Y-100110053D01*
X127722691Y-100110053D01*
G37*
D12*
X127482500Y-100584000D03*
D11*
G36*
X129297691Y-100110053D02*
G01*
X129318926Y-100113203D01*
X129339750Y-100118419D01*
X129359962Y-100125651D01*
X129379368Y-100134830D01*
X129397781Y-100145866D01*
X129415024Y-100158654D01*
X129430930Y-100173070D01*
X129445346Y-100188976D01*
X129458134Y-100206219D01*
X129469170Y-100224632D01*
X129478349Y-100244038D01*
X129485581Y-100264250D01*
X129490797Y-100285074D01*
X129493947Y-100306309D01*
X129495000Y-100327750D01*
X129495000Y-100840250D01*
X129493947Y-100861691D01*
X129490797Y-100882926D01*
X129485581Y-100903750D01*
X129478349Y-100923962D01*
X129469170Y-100943368D01*
X129458134Y-100961781D01*
X129445346Y-100979024D01*
X129430930Y-100994930D01*
X129415024Y-101009346D01*
X129397781Y-101022134D01*
X129379368Y-101033170D01*
X129359962Y-101042349D01*
X129339750Y-101049581D01*
X129318926Y-101054797D01*
X129297691Y-101057947D01*
X129276250Y-101059000D01*
X128838750Y-101059000D01*
X128817309Y-101057947D01*
X128796074Y-101054797D01*
X128775250Y-101049581D01*
X128755038Y-101042349D01*
X128735632Y-101033170D01*
X128717219Y-101022134D01*
X128699976Y-101009346D01*
X128684070Y-100994930D01*
X128669654Y-100979024D01*
X128656866Y-100961781D01*
X128645830Y-100943368D01*
X128636651Y-100923962D01*
X128629419Y-100903750D01*
X128624203Y-100882926D01*
X128621053Y-100861691D01*
X128620000Y-100840250D01*
X128620000Y-100327750D01*
X128621053Y-100306309D01*
X128624203Y-100285074D01*
X128629419Y-100264250D01*
X128636651Y-100244038D01*
X128645830Y-100224632D01*
X128656866Y-100206219D01*
X128669654Y-100188976D01*
X128684070Y-100173070D01*
X128699976Y-100158654D01*
X128717219Y-100145866D01*
X128735632Y-100134830D01*
X128755038Y-100125651D01*
X128775250Y-100118419D01*
X128796074Y-100113203D01*
X128817309Y-100110053D01*
X128838750Y-100109000D01*
X129276250Y-100109000D01*
X129297691Y-100110053D01*
X129297691Y-100110053D01*
G37*
D12*
X129057500Y-100584000D03*
D11*
G36*
X136231691Y-106968053D02*
G01*
X136252926Y-106971203D01*
X136273750Y-106976419D01*
X136293962Y-106983651D01*
X136313368Y-106992830D01*
X136331781Y-107003866D01*
X136349024Y-107016654D01*
X136364930Y-107031070D01*
X136379346Y-107046976D01*
X136392134Y-107064219D01*
X136403170Y-107082632D01*
X136412349Y-107102038D01*
X136419581Y-107122250D01*
X136424797Y-107143074D01*
X136427947Y-107164309D01*
X136429000Y-107185750D01*
X136429000Y-107698250D01*
X136427947Y-107719691D01*
X136424797Y-107740926D01*
X136419581Y-107761750D01*
X136412349Y-107781962D01*
X136403170Y-107801368D01*
X136392134Y-107819781D01*
X136379346Y-107837024D01*
X136364930Y-107852930D01*
X136349024Y-107867346D01*
X136331781Y-107880134D01*
X136313368Y-107891170D01*
X136293962Y-107900349D01*
X136273750Y-107907581D01*
X136252926Y-107912797D01*
X136231691Y-107915947D01*
X136210250Y-107917000D01*
X135772750Y-107917000D01*
X135751309Y-107915947D01*
X135730074Y-107912797D01*
X135709250Y-107907581D01*
X135689038Y-107900349D01*
X135669632Y-107891170D01*
X135651219Y-107880134D01*
X135633976Y-107867346D01*
X135618070Y-107852930D01*
X135603654Y-107837024D01*
X135590866Y-107819781D01*
X135579830Y-107801368D01*
X135570651Y-107781962D01*
X135563419Y-107761750D01*
X135558203Y-107740926D01*
X135555053Y-107719691D01*
X135554000Y-107698250D01*
X135554000Y-107185750D01*
X135555053Y-107164309D01*
X135558203Y-107143074D01*
X135563419Y-107122250D01*
X135570651Y-107102038D01*
X135579830Y-107082632D01*
X135590866Y-107064219D01*
X135603654Y-107046976D01*
X135618070Y-107031070D01*
X135633976Y-107016654D01*
X135651219Y-107003866D01*
X135669632Y-106992830D01*
X135689038Y-106983651D01*
X135709250Y-106976419D01*
X135730074Y-106971203D01*
X135751309Y-106968053D01*
X135772750Y-106967000D01*
X136210250Y-106967000D01*
X136231691Y-106968053D01*
X136231691Y-106968053D01*
G37*
D12*
X135991500Y-107442000D03*
D11*
G36*
X137806691Y-106968053D02*
G01*
X137827926Y-106971203D01*
X137848750Y-106976419D01*
X137868962Y-106983651D01*
X137888368Y-106992830D01*
X137906781Y-107003866D01*
X137924024Y-107016654D01*
X137939930Y-107031070D01*
X137954346Y-107046976D01*
X137967134Y-107064219D01*
X137978170Y-107082632D01*
X137987349Y-107102038D01*
X137994581Y-107122250D01*
X137999797Y-107143074D01*
X138002947Y-107164309D01*
X138004000Y-107185750D01*
X138004000Y-107698250D01*
X138002947Y-107719691D01*
X137999797Y-107740926D01*
X137994581Y-107761750D01*
X137987349Y-107781962D01*
X137978170Y-107801368D01*
X137967134Y-107819781D01*
X137954346Y-107837024D01*
X137939930Y-107852930D01*
X137924024Y-107867346D01*
X137906781Y-107880134D01*
X137888368Y-107891170D01*
X137868962Y-107900349D01*
X137848750Y-107907581D01*
X137827926Y-107912797D01*
X137806691Y-107915947D01*
X137785250Y-107917000D01*
X137347750Y-107917000D01*
X137326309Y-107915947D01*
X137305074Y-107912797D01*
X137284250Y-107907581D01*
X137264038Y-107900349D01*
X137244632Y-107891170D01*
X137226219Y-107880134D01*
X137208976Y-107867346D01*
X137193070Y-107852930D01*
X137178654Y-107837024D01*
X137165866Y-107819781D01*
X137154830Y-107801368D01*
X137145651Y-107781962D01*
X137138419Y-107761750D01*
X137133203Y-107740926D01*
X137130053Y-107719691D01*
X137129000Y-107698250D01*
X137129000Y-107185750D01*
X137130053Y-107164309D01*
X137133203Y-107143074D01*
X137138419Y-107122250D01*
X137145651Y-107102038D01*
X137154830Y-107082632D01*
X137165866Y-107064219D01*
X137178654Y-107046976D01*
X137193070Y-107031070D01*
X137208976Y-107016654D01*
X137226219Y-107003866D01*
X137244632Y-106992830D01*
X137264038Y-106983651D01*
X137284250Y-106976419D01*
X137305074Y-106971203D01*
X137326309Y-106968053D01*
X137347750Y-106967000D01*
X137785250Y-106967000D01*
X137806691Y-106968053D01*
X137806691Y-106968053D01*
G37*
D12*
X137566500Y-107442000D03*
D11*
G36*
X136231691Y-105190053D02*
G01*
X136252926Y-105193203D01*
X136273750Y-105198419D01*
X136293962Y-105205651D01*
X136313368Y-105214830D01*
X136331781Y-105225866D01*
X136349024Y-105238654D01*
X136364930Y-105253070D01*
X136379346Y-105268976D01*
X136392134Y-105286219D01*
X136403170Y-105304632D01*
X136412349Y-105324038D01*
X136419581Y-105344250D01*
X136424797Y-105365074D01*
X136427947Y-105386309D01*
X136429000Y-105407750D01*
X136429000Y-105920250D01*
X136427947Y-105941691D01*
X136424797Y-105962926D01*
X136419581Y-105983750D01*
X136412349Y-106003962D01*
X136403170Y-106023368D01*
X136392134Y-106041781D01*
X136379346Y-106059024D01*
X136364930Y-106074930D01*
X136349024Y-106089346D01*
X136331781Y-106102134D01*
X136313368Y-106113170D01*
X136293962Y-106122349D01*
X136273750Y-106129581D01*
X136252926Y-106134797D01*
X136231691Y-106137947D01*
X136210250Y-106139000D01*
X135772750Y-106139000D01*
X135751309Y-106137947D01*
X135730074Y-106134797D01*
X135709250Y-106129581D01*
X135689038Y-106122349D01*
X135669632Y-106113170D01*
X135651219Y-106102134D01*
X135633976Y-106089346D01*
X135618070Y-106074930D01*
X135603654Y-106059024D01*
X135590866Y-106041781D01*
X135579830Y-106023368D01*
X135570651Y-106003962D01*
X135563419Y-105983750D01*
X135558203Y-105962926D01*
X135555053Y-105941691D01*
X135554000Y-105920250D01*
X135554000Y-105407750D01*
X135555053Y-105386309D01*
X135558203Y-105365074D01*
X135563419Y-105344250D01*
X135570651Y-105324038D01*
X135579830Y-105304632D01*
X135590866Y-105286219D01*
X135603654Y-105268976D01*
X135618070Y-105253070D01*
X135633976Y-105238654D01*
X135651219Y-105225866D01*
X135669632Y-105214830D01*
X135689038Y-105205651D01*
X135709250Y-105198419D01*
X135730074Y-105193203D01*
X135751309Y-105190053D01*
X135772750Y-105189000D01*
X136210250Y-105189000D01*
X136231691Y-105190053D01*
X136231691Y-105190053D01*
G37*
D12*
X135991500Y-105664000D03*
D11*
G36*
X137806691Y-105190053D02*
G01*
X137827926Y-105193203D01*
X137848750Y-105198419D01*
X137868962Y-105205651D01*
X137888368Y-105214830D01*
X137906781Y-105225866D01*
X137924024Y-105238654D01*
X137939930Y-105253070D01*
X137954346Y-105268976D01*
X137967134Y-105286219D01*
X137978170Y-105304632D01*
X137987349Y-105324038D01*
X137994581Y-105344250D01*
X137999797Y-105365074D01*
X138002947Y-105386309D01*
X138004000Y-105407750D01*
X138004000Y-105920250D01*
X138002947Y-105941691D01*
X137999797Y-105962926D01*
X137994581Y-105983750D01*
X137987349Y-106003962D01*
X137978170Y-106023368D01*
X137967134Y-106041781D01*
X137954346Y-106059024D01*
X137939930Y-106074930D01*
X137924024Y-106089346D01*
X137906781Y-106102134D01*
X137888368Y-106113170D01*
X137868962Y-106122349D01*
X137848750Y-106129581D01*
X137827926Y-106134797D01*
X137806691Y-106137947D01*
X137785250Y-106139000D01*
X137347750Y-106139000D01*
X137326309Y-106137947D01*
X137305074Y-106134797D01*
X137284250Y-106129581D01*
X137264038Y-106122349D01*
X137244632Y-106113170D01*
X137226219Y-106102134D01*
X137208976Y-106089346D01*
X137193070Y-106074930D01*
X137178654Y-106059024D01*
X137165866Y-106041781D01*
X137154830Y-106023368D01*
X137145651Y-106003962D01*
X137138419Y-105983750D01*
X137133203Y-105962926D01*
X137130053Y-105941691D01*
X137129000Y-105920250D01*
X137129000Y-105407750D01*
X137130053Y-105386309D01*
X137133203Y-105365074D01*
X137138419Y-105344250D01*
X137145651Y-105324038D01*
X137154830Y-105304632D01*
X137165866Y-105286219D01*
X137178654Y-105268976D01*
X137193070Y-105253070D01*
X137208976Y-105238654D01*
X137226219Y-105225866D01*
X137244632Y-105214830D01*
X137264038Y-105205651D01*
X137284250Y-105198419D01*
X137305074Y-105193203D01*
X137326309Y-105190053D01*
X137347750Y-105189000D01*
X137785250Y-105189000D01*
X137806691Y-105190053D01*
X137806691Y-105190053D01*
G37*
D12*
X137566500Y-105664000D03*
D11*
G36*
X136231691Y-99729053D02*
G01*
X136252926Y-99732203D01*
X136273750Y-99737419D01*
X136293962Y-99744651D01*
X136313368Y-99753830D01*
X136331781Y-99764866D01*
X136349024Y-99777654D01*
X136364930Y-99792070D01*
X136379346Y-99807976D01*
X136392134Y-99825219D01*
X136403170Y-99843632D01*
X136412349Y-99863038D01*
X136419581Y-99883250D01*
X136424797Y-99904074D01*
X136427947Y-99925309D01*
X136429000Y-99946750D01*
X136429000Y-100459250D01*
X136427947Y-100480691D01*
X136424797Y-100501926D01*
X136419581Y-100522750D01*
X136412349Y-100542962D01*
X136403170Y-100562368D01*
X136392134Y-100580781D01*
X136379346Y-100598024D01*
X136364930Y-100613930D01*
X136349024Y-100628346D01*
X136331781Y-100641134D01*
X136313368Y-100652170D01*
X136293962Y-100661349D01*
X136273750Y-100668581D01*
X136252926Y-100673797D01*
X136231691Y-100676947D01*
X136210250Y-100678000D01*
X135772750Y-100678000D01*
X135751309Y-100676947D01*
X135730074Y-100673797D01*
X135709250Y-100668581D01*
X135689038Y-100661349D01*
X135669632Y-100652170D01*
X135651219Y-100641134D01*
X135633976Y-100628346D01*
X135618070Y-100613930D01*
X135603654Y-100598024D01*
X135590866Y-100580781D01*
X135579830Y-100562368D01*
X135570651Y-100542962D01*
X135563419Y-100522750D01*
X135558203Y-100501926D01*
X135555053Y-100480691D01*
X135554000Y-100459250D01*
X135554000Y-99946750D01*
X135555053Y-99925309D01*
X135558203Y-99904074D01*
X135563419Y-99883250D01*
X135570651Y-99863038D01*
X135579830Y-99843632D01*
X135590866Y-99825219D01*
X135603654Y-99807976D01*
X135618070Y-99792070D01*
X135633976Y-99777654D01*
X135651219Y-99764866D01*
X135669632Y-99753830D01*
X135689038Y-99744651D01*
X135709250Y-99737419D01*
X135730074Y-99732203D01*
X135751309Y-99729053D01*
X135772750Y-99728000D01*
X136210250Y-99728000D01*
X136231691Y-99729053D01*
X136231691Y-99729053D01*
G37*
D12*
X135991500Y-100203000D03*
D11*
G36*
X137806691Y-99729053D02*
G01*
X137827926Y-99732203D01*
X137848750Y-99737419D01*
X137868962Y-99744651D01*
X137888368Y-99753830D01*
X137906781Y-99764866D01*
X137924024Y-99777654D01*
X137939930Y-99792070D01*
X137954346Y-99807976D01*
X137967134Y-99825219D01*
X137978170Y-99843632D01*
X137987349Y-99863038D01*
X137994581Y-99883250D01*
X137999797Y-99904074D01*
X138002947Y-99925309D01*
X138004000Y-99946750D01*
X138004000Y-100459250D01*
X138002947Y-100480691D01*
X137999797Y-100501926D01*
X137994581Y-100522750D01*
X137987349Y-100542962D01*
X137978170Y-100562368D01*
X137967134Y-100580781D01*
X137954346Y-100598024D01*
X137939930Y-100613930D01*
X137924024Y-100628346D01*
X137906781Y-100641134D01*
X137888368Y-100652170D01*
X137868962Y-100661349D01*
X137848750Y-100668581D01*
X137827926Y-100673797D01*
X137806691Y-100676947D01*
X137785250Y-100678000D01*
X137347750Y-100678000D01*
X137326309Y-100676947D01*
X137305074Y-100673797D01*
X137284250Y-100668581D01*
X137264038Y-100661349D01*
X137244632Y-100652170D01*
X137226219Y-100641134D01*
X137208976Y-100628346D01*
X137193070Y-100613930D01*
X137178654Y-100598024D01*
X137165866Y-100580781D01*
X137154830Y-100562368D01*
X137145651Y-100542962D01*
X137138419Y-100522750D01*
X137133203Y-100501926D01*
X137130053Y-100480691D01*
X137129000Y-100459250D01*
X137129000Y-99946750D01*
X137130053Y-99925309D01*
X137133203Y-99904074D01*
X137138419Y-99883250D01*
X137145651Y-99863038D01*
X137154830Y-99843632D01*
X137165866Y-99825219D01*
X137178654Y-99807976D01*
X137193070Y-99792070D01*
X137208976Y-99777654D01*
X137226219Y-99764866D01*
X137244632Y-99753830D01*
X137264038Y-99744651D01*
X137284250Y-99737419D01*
X137305074Y-99732203D01*
X137326309Y-99729053D01*
X137347750Y-99728000D01*
X137785250Y-99728000D01*
X137806691Y-99729053D01*
X137806691Y-99729053D01*
G37*
D12*
X137566500Y-100203000D03*
D11*
G36*
X142642504Y-107896204D02*
G01*
X142666773Y-107899804D01*
X142690571Y-107905765D01*
X142713671Y-107914030D01*
X142735849Y-107924520D01*
X142756893Y-107937133D01*
X142776598Y-107951747D01*
X142794777Y-107968223D01*
X142811253Y-107986402D01*
X142825867Y-108006107D01*
X142838480Y-108027151D01*
X142848970Y-108049329D01*
X142857235Y-108072429D01*
X142863196Y-108096227D01*
X142866796Y-108120496D01*
X142868000Y-108145000D01*
X142868000Y-110295000D01*
X142866796Y-110319504D01*
X142863196Y-110343773D01*
X142857235Y-110367571D01*
X142848970Y-110390671D01*
X142838480Y-110412849D01*
X142825867Y-110433893D01*
X142811253Y-110453598D01*
X142794777Y-110471777D01*
X142776598Y-110488253D01*
X142756893Y-110502867D01*
X142735849Y-110515480D01*
X142713671Y-110525970D01*
X142690571Y-110534235D01*
X142666773Y-110540196D01*
X142642504Y-110543796D01*
X142618000Y-110545000D01*
X141868000Y-110545000D01*
X141843496Y-110543796D01*
X141819227Y-110540196D01*
X141795429Y-110534235D01*
X141772329Y-110525970D01*
X141750151Y-110515480D01*
X141729107Y-110502867D01*
X141709402Y-110488253D01*
X141691223Y-110471777D01*
X141674747Y-110453598D01*
X141660133Y-110433893D01*
X141647520Y-110412849D01*
X141637030Y-110390671D01*
X141628765Y-110367571D01*
X141622804Y-110343773D01*
X141619204Y-110319504D01*
X141618000Y-110295000D01*
X141618000Y-108145000D01*
X141619204Y-108120496D01*
X141622804Y-108096227D01*
X141628765Y-108072429D01*
X141637030Y-108049329D01*
X141647520Y-108027151D01*
X141660133Y-108006107D01*
X141674747Y-107986402D01*
X141691223Y-107968223D01*
X141709402Y-107951747D01*
X141729107Y-107937133D01*
X141750151Y-107924520D01*
X141772329Y-107914030D01*
X141795429Y-107905765D01*
X141819227Y-107899804D01*
X141843496Y-107896204D01*
X141868000Y-107895000D01*
X142618000Y-107895000D01*
X142642504Y-107896204D01*
X142642504Y-107896204D01*
G37*
D13*
X142243000Y-109220000D03*
D11*
G36*
X139842504Y-107896204D02*
G01*
X139866773Y-107899804D01*
X139890571Y-107905765D01*
X139913671Y-107914030D01*
X139935849Y-107924520D01*
X139956893Y-107937133D01*
X139976598Y-107951747D01*
X139994777Y-107968223D01*
X140011253Y-107986402D01*
X140025867Y-108006107D01*
X140038480Y-108027151D01*
X140048970Y-108049329D01*
X140057235Y-108072429D01*
X140063196Y-108096227D01*
X140066796Y-108120496D01*
X140068000Y-108145000D01*
X140068000Y-110295000D01*
X140066796Y-110319504D01*
X140063196Y-110343773D01*
X140057235Y-110367571D01*
X140048970Y-110390671D01*
X140038480Y-110412849D01*
X140025867Y-110433893D01*
X140011253Y-110453598D01*
X139994777Y-110471777D01*
X139976598Y-110488253D01*
X139956893Y-110502867D01*
X139935849Y-110515480D01*
X139913671Y-110525970D01*
X139890571Y-110534235D01*
X139866773Y-110540196D01*
X139842504Y-110543796D01*
X139818000Y-110545000D01*
X139068000Y-110545000D01*
X139043496Y-110543796D01*
X139019227Y-110540196D01*
X138995429Y-110534235D01*
X138972329Y-110525970D01*
X138950151Y-110515480D01*
X138929107Y-110502867D01*
X138909402Y-110488253D01*
X138891223Y-110471777D01*
X138874747Y-110453598D01*
X138860133Y-110433893D01*
X138847520Y-110412849D01*
X138837030Y-110390671D01*
X138828765Y-110367571D01*
X138822804Y-110343773D01*
X138819204Y-110319504D01*
X138818000Y-110295000D01*
X138818000Y-108145000D01*
X138819204Y-108120496D01*
X138822804Y-108096227D01*
X138828765Y-108072429D01*
X138837030Y-108049329D01*
X138847520Y-108027151D01*
X138860133Y-108006107D01*
X138874747Y-107986402D01*
X138891223Y-107968223D01*
X138909402Y-107951747D01*
X138929107Y-107937133D01*
X138950151Y-107924520D01*
X138972329Y-107914030D01*
X138995429Y-107905765D01*
X139019227Y-107899804D01*
X139043496Y-107896204D01*
X139068000Y-107895000D01*
X139818000Y-107895000D01*
X139842504Y-107896204D01*
X139842504Y-107896204D01*
G37*
D13*
X139443000Y-109220000D03*
D14*
X139414200Y-103008800D03*
X139414200Y-103958800D03*
X139414200Y-102058800D03*
X141614200Y-102058800D03*
X141614200Y-103008800D03*
X141614200Y-103958800D03*
D11*
G36*
X136231691Y-103412053D02*
G01*
X136252926Y-103415203D01*
X136273750Y-103420419D01*
X136293962Y-103427651D01*
X136313368Y-103436830D01*
X136331781Y-103447866D01*
X136349024Y-103460654D01*
X136364930Y-103475070D01*
X136379346Y-103490976D01*
X136392134Y-103508219D01*
X136403170Y-103526632D01*
X136412349Y-103546038D01*
X136419581Y-103566250D01*
X136424797Y-103587074D01*
X136427947Y-103608309D01*
X136429000Y-103629750D01*
X136429000Y-104142250D01*
X136427947Y-104163691D01*
X136424797Y-104184926D01*
X136419581Y-104205750D01*
X136412349Y-104225962D01*
X136403170Y-104245368D01*
X136392134Y-104263781D01*
X136379346Y-104281024D01*
X136364930Y-104296930D01*
X136349024Y-104311346D01*
X136331781Y-104324134D01*
X136313368Y-104335170D01*
X136293962Y-104344349D01*
X136273750Y-104351581D01*
X136252926Y-104356797D01*
X136231691Y-104359947D01*
X136210250Y-104361000D01*
X135772750Y-104361000D01*
X135751309Y-104359947D01*
X135730074Y-104356797D01*
X135709250Y-104351581D01*
X135689038Y-104344349D01*
X135669632Y-104335170D01*
X135651219Y-104324134D01*
X135633976Y-104311346D01*
X135618070Y-104296930D01*
X135603654Y-104281024D01*
X135590866Y-104263781D01*
X135579830Y-104245368D01*
X135570651Y-104225962D01*
X135563419Y-104205750D01*
X135558203Y-104184926D01*
X135555053Y-104163691D01*
X135554000Y-104142250D01*
X135554000Y-103629750D01*
X135555053Y-103608309D01*
X135558203Y-103587074D01*
X135563419Y-103566250D01*
X135570651Y-103546038D01*
X135579830Y-103526632D01*
X135590866Y-103508219D01*
X135603654Y-103490976D01*
X135618070Y-103475070D01*
X135633976Y-103460654D01*
X135651219Y-103447866D01*
X135669632Y-103436830D01*
X135689038Y-103427651D01*
X135709250Y-103420419D01*
X135730074Y-103415203D01*
X135751309Y-103412053D01*
X135772750Y-103411000D01*
X136210250Y-103411000D01*
X136231691Y-103412053D01*
X136231691Y-103412053D01*
G37*
D12*
X135991500Y-103886000D03*
D11*
G36*
X137806691Y-103412053D02*
G01*
X137827926Y-103415203D01*
X137848750Y-103420419D01*
X137868962Y-103427651D01*
X137888368Y-103436830D01*
X137906781Y-103447866D01*
X137924024Y-103460654D01*
X137939930Y-103475070D01*
X137954346Y-103490976D01*
X137967134Y-103508219D01*
X137978170Y-103526632D01*
X137987349Y-103546038D01*
X137994581Y-103566250D01*
X137999797Y-103587074D01*
X138002947Y-103608309D01*
X138004000Y-103629750D01*
X138004000Y-104142250D01*
X138002947Y-104163691D01*
X137999797Y-104184926D01*
X137994581Y-104205750D01*
X137987349Y-104225962D01*
X137978170Y-104245368D01*
X137967134Y-104263781D01*
X137954346Y-104281024D01*
X137939930Y-104296930D01*
X137924024Y-104311346D01*
X137906781Y-104324134D01*
X137888368Y-104335170D01*
X137868962Y-104344349D01*
X137848750Y-104351581D01*
X137827926Y-104356797D01*
X137806691Y-104359947D01*
X137785250Y-104361000D01*
X137347750Y-104361000D01*
X137326309Y-104359947D01*
X137305074Y-104356797D01*
X137284250Y-104351581D01*
X137264038Y-104344349D01*
X137244632Y-104335170D01*
X137226219Y-104324134D01*
X137208976Y-104311346D01*
X137193070Y-104296930D01*
X137178654Y-104281024D01*
X137165866Y-104263781D01*
X137154830Y-104245368D01*
X137145651Y-104225962D01*
X137138419Y-104205750D01*
X137133203Y-104184926D01*
X137130053Y-104163691D01*
X137129000Y-104142250D01*
X137129000Y-103629750D01*
X137130053Y-103608309D01*
X137133203Y-103587074D01*
X137138419Y-103566250D01*
X137145651Y-103546038D01*
X137154830Y-103526632D01*
X137165866Y-103508219D01*
X137178654Y-103490976D01*
X137193070Y-103475070D01*
X137208976Y-103460654D01*
X137226219Y-103447866D01*
X137244632Y-103436830D01*
X137264038Y-103427651D01*
X137284250Y-103420419D01*
X137305074Y-103415203D01*
X137326309Y-103412053D01*
X137347750Y-103411000D01*
X137785250Y-103411000D01*
X137806691Y-103412053D01*
X137806691Y-103412053D01*
G37*
D12*
X137566500Y-103886000D03*
D11*
G36*
X137806691Y-101507053D02*
G01*
X137827926Y-101510203D01*
X137848750Y-101515419D01*
X137868962Y-101522651D01*
X137888368Y-101531830D01*
X137906781Y-101542866D01*
X137924024Y-101555654D01*
X137939930Y-101570070D01*
X137954346Y-101585976D01*
X137967134Y-101603219D01*
X137978170Y-101621632D01*
X137987349Y-101641038D01*
X137994581Y-101661250D01*
X137999797Y-101682074D01*
X138002947Y-101703309D01*
X138004000Y-101724750D01*
X138004000Y-102237250D01*
X138002947Y-102258691D01*
X137999797Y-102279926D01*
X137994581Y-102300750D01*
X137987349Y-102320962D01*
X137978170Y-102340368D01*
X137967134Y-102358781D01*
X137954346Y-102376024D01*
X137939930Y-102391930D01*
X137924024Y-102406346D01*
X137906781Y-102419134D01*
X137888368Y-102430170D01*
X137868962Y-102439349D01*
X137848750Y-102446581D01*
X137827926Y-102451797D01*
X137806691Y-102454947D01*
X137785250Y-102456000D01*
X137347750Y-102456000D01*
X137326309Y-102454947D01*
X137305074Y-102451797D01*
X137284250Y-102446581D01*
X137264038Y-102439349D01*
X137244632Y-102430170D01*
X137226219Y-102419134D01*
X137208976Y-102406346D01*
X137193070Y-102391930D01*
X137178654Y-102376024D01*
X137165866Y-102358781D01*
X137154830Y-102340368D01*
X137145651Y-102320962D01*
X137138419Y-102300750D01*
X137133203Y-102279926D01*
X137130053Y-102258691D01*
X137129000Y-102237250D01*
X137129000Y-101724750D01*
X137130053Y-101703309D01*
X137133203Y-101682074D01*
X137138419Y-101661250D01*
X137145651Y-101641038D01*
X137154830Y-101621632D01*
X137165866Y-101603219D01*
X137178654Y-101585976D01*
X137193070Y-101570070D01*
X137208976Y-101555654D01*
X137226219Y-101542866D01*
X137244632Y-101531830D01*
X137264038Y-101522651D01*
X137284250Y-101515419D01*
X137305074Y-101510203D01*
X137326309Y-101507053D01*
X137347750Y-101506000D01*
X137785250Y-101506000D01*
X137806691Y-101507053D01*
X137806691Y-101507053D01*
G37*
D12*
X137566500Y-101981000D03*
D11*
G36*
X136231691Y-101507053D02*
G01*
X136252926Y-101510203D01*
X136273750Y-101515419D01*
X136293962Y-101522651D01*
X136313368Y-101531830D01*
X136331781Y-101542866D01*
X136349024Y-101555654D01*
X136364930Y-101570070D01*
X136379346Y-101585976D01*
X136392134Y-101603219D01*
X136403170Y-101621632D01*
X136412349Y-101641038D01*
X136419581Y-101661250D01*
X136424797Y-101682074D01*
X136427947Y-101703309D01*
X136429000Y-101724750D01*
X136429000Y-102237250D01*
X136427947Y-102258691D01*
X136424797Y-102279926D01*
X136419581Y-102300750D01*
X136412349Y-102320962D01*
X136403170Y-102340368D01*
X136392134Y-102358781D01*
X136379346Y-102376024D01*
X136364930Y-102391930D01*
X136349024Y-102406346D01*
X136331781Y-102419134D01*
X136313368Y-102430170D01*
X136293962Y-102439349D01*
X136273750Y-102446581D01*
X136252926Y-102451797D01*
X136231691Y-102454947D01*
X136210250Y-102456000D01*
X135772750Y-102456000D01*
X135751309Y-102454947D01*
X135730074Y-102451797D01*
X135709250Y-102446581D01*
X135689038Y-102439349D01*
X135669632Y-102430170D01*
X135651219Y-102419134D01*
X135633976Y-102406346D01*
X135618070Y-102391930D01*
X135603654Y-102376024D01*
X135590866Y-102358781D01*
X135579830Y-102340368D01*
X135570651Y-102320962D01*
X135563419Y-102300750D01*
X135558203Y-102279926D01*
X135555053Y-102258691D01*
X135554000Y-102237250D01*
X135554000Y-101724750D01*
X135555053Y-101703309D01*
X135558203Y-101682074D01*
X135563419Y-101661250D01*
X135570651Y-101641038D01*
X135579830Y-101621632D01*
X135590866Y-101603219D01*
X135603654Y-101585976D01*
X135618070Y-101570070D01*
X135633976Y-101555654D01*
X135651219Y-101542866D01*
X135669632Y-101531830D01*
X135689038Y-101522651D01*
X135709250Y-101515419D01*
X135730074Y-101510203D01*
X135751309Y-101507053D01*
X135772750Y-101506000D01*
X136210250Y-101506000D01*
X136231691Y-101507053D01*
X136231691Y-101507053D01*
G37*
D12*
X135991500Y-101981000D03*
D11*
G36*
X141108691Y-99729053D02*
G01*
X141129926Y-99732203D01*
X141150750Y-99737419D01*
X141170962Y-99744651D01*
X141190368Y-99753830D01*
X141208781Y-99764866D01*
X141226024Y-99777654D01*
X141241930Y-99792070D01*
X141256346Y-99807976D01*
X141269134Y-99825219D01*
X141280170Y-99843632D01*
X141289349Y-99863038D01*
X141296581Y-99883250D01*
X141301797Y-99904074D01*
X141304947Y-99925309D01*
X141306000Y-99946750D01*
X141306000Y-100459250D01*
X141304947Y-100480691D01*
X141301797Y-100501926D01*
X141296581Y-100522750D01*
X141289349Y-100542962D01*
X141280170Y-100562368D01*
X141269134Y-100580781D01*
X141256346Y-100598024D01*
X141241930Y-100613930D01*
X141226024Y-100628346D01*
X141208781Y-100641134D01*
X141190368Y-100652170D01*
X141170962Y-100661349D01*
X141150750Y-100668581D01*
X141129926Y-100673797D01*
X141108691Y-100676947D01*
X141087250Y-100678000D01*
X140649750Y-100678000D01*
X140628309Y-100676947D01*
X140607074Y-100673797D01*
X140586250Y-100668581D01*
X140566038Y-100661349D01*
X140546632Y-100652170D01*
X140528219Y-100641134D01*
X140510976Y-100628346D01*
X140495070Y-100613930D01*
X140480654Y-100598024D01*
X140467866Y-100580781D01*
X140456830Y-100562368D01*
X140447651Y-100542962D01*
X140440419Y-100522750D01*
X140435203Y-100501926D01*
X140432053Y-100480691D01*
X140431000Y-100459250D01*
X140431000Y-99946750D01*
X140432053Y-99925309D01*
X140435203Y-99904074D01*
X140440419Y-99883250D01*
X140447651Y-99863038D01*
X140456830Y-99843632D01*
X140467866Y-99825219D01*
X140480654Y-99807976D01*
X140495070Y-99792070D01*
X140510976Y-99777654D01*
X140528219Y-99764866D01*
X140546632Y-99753830D01*
X140566038Y-99744651D01*
X140586250Y-99737419D01*
X140607074Y-99732203D01*
X140628309Y-99729053D01*
X140649750Y-99728000D01*
X141087250Y-99728000D01*
X141108691Y-99729053D01*
X141108691Y-99729053D01*
G37*
D12*
X140868500Y-100203000D03*
D11*
G36*
X139533691Y-99729053D02*
G01*
X139554926Y-99732203D01*
X139575750Y-99737419D01*
X139595962Y-99744651D01*
X139615368Y-99753830D01*
X139633781Y-99764866D01*
X139651024Y-99777654D01*
X139666930Y-99792070D01*
X139681346Y-99807976D01*
X139694134Y-99825219D01*
X139705170Y-99843632D01*
X139714349Y-99863038D01*
X139721581Y-99883250D01*
X139726797Y-99904074D01*
X139729947Y-99925309D01*
X139731000Y-99946750D01*
X139731000Y-100459250D01*
X139729947Y-100480691D01*
X139726797Y-100501926D01*
X139721581Y-100522750D01*
X139714349Y-100542962D01*
X139705170Y-100562368D01*
X139694134Y-100580781D01*
X139681346Y-100598024D01*
X139666930Y-100613930D01*
X139651024Y-100628346D01*
X139633781Y-100641134D01*
X139615368Y-100652170D01*
X139595962Y-100661349D01*
X139575750Y-100668581D01*
X139554926Y-100673797D01*
X139533691Y-100676947D01*
X139512250Y-100678000D01*
X139074750Y-100678000D01*
X139053309Y-100676947D01*
X139032074Y-100673797D01*
X139011250Y-100668581D01*
X138991038Y-100661349D01*
X138971632Y-100652170D01*
X138953219Y-100641134D01*
X138935976Y-100628346D01*
X138920070Y-100613930D01*
X138905654Y-100598024D01*
X138892866Y-100580781D01*
X138881830Y-100562368D01*
X138872651Y-100542962D01*
X138865419Y-100522750D01*
X138860203Y-100501926D01*
X138857053Y-100480691D01*
X138856000Y-100459250D01*
X138856000Y-99946750D01*
X138857053Y-99925309D01*
X138860203Y-99904074D01*
X138865419Y-99883250D01*
X138872651Y-99863038D01*
X138881830Y-99843632D01*
X138892866Y-99825219D01*
X138905654Y-99807976D01*
X138920070Y-99792070D01*
X138935976Y-99777654D01*
X138953219Y-99764866D01*
X138971632Y-99753830D01*
X138991038Y-99744651D01*
X139011250Y-99737419D01*
X139032074Y-99732203D01*
X139053309Y-99729053D01*
X139074750Y-99728000D01*
X139512250Y-99728000D01*
X139533691Y-99729053D01*
X139533691Y-99729053D01*
G37*
D12*
X139293500Y-100203000D03*
D11*
G36*
X141108691Y-105317053D02*
G01*
X141129926Y-105320203D01*
X141150750Y-105325419D01*
X141170962Y-105332651D01*
X141190368Y-105341830D01*
X141208781Y-105352866D01*
X141226024Y-105365654D01*
X141241930Y-105380070D01*
X141256346Y-105395976D01*
X141269134Y-105413219D01*
X141280170Y-105431632D01*
X141289349Y-105451038D01*
X141296581Y-105471250D01*
X141301797Y-105492074D01*
X141304947Y-105513309D01*
X141306000Y-105534750D01*
X141306000Y-106047250D01*
X141304947Y-106068691D01*
X141301797Y-106089926D01*
X141296581Y-106110750D01*
X141289349Y-106130962D01*
X141280170Y-106150368D01*
X141269134Y-106168781D01*
X141256346Y-106186024D01*
X141241930Y-106201930D01*
X141226024Y-106216346D01*
X141208781Y-106229134D01*
X141190368Y-106240170D01*
X141170962Y-106249349D01*
X141150750Y-106256581D01*
X141129926Y-106261797D01*
X141108691Y-106264947D01*
X141087250Y-106266000D01*
X140649750Y-106266000D01*
X140628309Y-106264947D01*
X140607074Y-106261797D01*
X140586250Y-106256581D01*
X140566038Y-106249349D01*
X140546632Y-106240170D01*
X140528219Y-106229134D01*
X140510976Y-106216346D01*
X140495070Y-106201930D01*
X140480654Y-106186024D01*
X140467866Y-106168781D01*
X140456830Y-106150368D01*
X140447651Y-106130962D01*
X140440419Y-106110750D01*
X140435203Y-106089926D01*
X140432053Y-106068691D01*
X140431000Y-106047250D01*
X140431000Y-105534750D01*
X140432053Y-105513309D01*
X140435203Y-105492074D01*
X140440419Y-105471250D01*
X140447651Y-105451038D01*
X140456830Y-105431632D01*
X140467866Y-105413219D01*
X140480654Y-105395976D01*
X140495070Y-105380070D01*
X140510976Y-105365654D01*
X140528219Y-105352866D01*
X140546632Y-105341830D01*
X140566038Y-105332651D01*
X140586250Y-105325419D01*
X140607074Y-105320203D01*
X140628309Y-105317053D01*
X140649750Y-105316000D01*
X141087250Y-105316000D01*
X141108691Y-105317053D01*
X141108691Y-105317053D01*
G37*
D12*
X140868500Y-105791000D03*
D11*
G36*
X139533691Y-105317053D02*
G01*
X139554926Y-105320203D01*
X139575750Y-105325419D01*
X139595962Y-105332651D01*
X139615368Y-105341830D01*
X139633781Y-105352866D01*
X139651024Y-105365654D01*
X139666930Y-105380070D01*
X139681346Y-105395976D01*
X139694134Y-105413219D01*
X139705170Y-105431632D01*
X139714349Y-105451038D01*
X139721581Y-105471250D01*
X139726797Y-105492074D01*
X139729947Y-105513309D01*
X139731000Y-105534750D01*
X139731000Y-106047250D01*
X139729947Y-106068691D01*
X139726797Y-106089926D01*
X139721581Y-106110750D01*
X139714349Y-106130962D01*
X139705170Y-106150368D01*
X139694134Y-106168781D01*
X139681346Y-106186024D01*
X139666930Y-106201930D01*
X139651024Y-106216346D01*
X139633781Y-106229134D01*
X139615368Y-106240170D01*
X139595962Y-106249349D01*
X139575750Y-106256581D01*
X139554926Y-106261797D01*
X139533691Y-106264947D01*
X139512250Y-106266000D01*
X139074750Y-106266000D01*
X139053309Y-106264947D01*
X139032074Y-106261797D01*
X139011250Y-106256581D01*
X138991038Y-106249349D01*
X138971632Y-106240170D01*
X138953219Y-106229134D01*
X138935976Y-106216346D01*
X138920070Y-106201930D01*
X138905654Y-106186024D01*
X138892866Y-106168781D01*
X138881830Y-106150368D01*
X138872651Y-106130962D01*
X138865419Y-106110750D01*
X138860203Y-106089926D01*
X138857053Y-106068691D01*
X138856000Y-106047250D01*
X138856000Y-105534750D01*
X138857053Y-105513309D01*
X138860203Y-105492074D01*
X138865419Y-105471250D01*
X138872651Y-105451038D01*
X138881830Y-105431632D01*
X138892866Y-105413219D01*
X138905654Y-105395976D01*
X138920070Y-105380070D01*
X138935976Y-105365654D01*
X138953219Y-105352866D01*
X138971632Y-105341830D01*
X138991038Y-105332651D01*
X139011250Y-105325419D01*
X139032074Y-105320203D01*
X139053309Y-105317053D01*
X139074750Y-105316000D01*
X139512250Y-105316000D01*
X139533691Y-105317053D01*
X139533691Y-105317053D01*
G37*
D12*
X139293500Y-105791000D03*
D11*
G36*
X135143504Y-108727204D02*
G01*
X135167773Y-108730804D01*
X135191571Y-108736765D01*
X135214671Y-108745030D01*
X135236849Y-108755520D01*
X135257893Y-108768133D01*
X135277598Y-108782747D01*
X135295777Y-108799223D01*
X135312253Y-108817402D01*
X135326867Y-108837107D01*
X135339480Y-108858151D01*
X135349970Y-108880329D01*
X135358235Y-108903429D01*
X135364196Y-108927227D01*
X135367796Y-108951496D01*
X135369000Y-108976000D01*
X135369000Y-110226000D01*
X135367796Y-110250504D01*
X135364196Y-110274773D01*
X135358235Y-110298571D01*
X135349970Y-110321671D01*
X135339480Y-110343849D01*
X135326867Y-110364893D01*
X135312253Y-110384598D01*
X135295777Y-110402777D01*
X135277598Y-110419253D01*
X135257893Y-110433867D01*
X135236849Y-110446480D01*
X135214671Y-110456970D01*
X135191571Y-110465235D01*
X135167773Y-110471196D01*
X135143504Y-110474796D01*
X135119000Y-110476000D01*
X134369000Y-110476000D01*
X134344496Y-110474796D01*
X134320227Y-110471196D01*
X134296429Y-110465235D01*
X134273329Y-110456970D01*
X134251151Y-110446480D01*
X134230107Y-110433867D01*
X134210402Y-110419253D01*
X134192223Y-110402777D01*
X134175747Y-110384598D01*
X134161133Y-110364893D01*
X134148520Y-110343849D01*
X134138030Y-110321671D01*
X134129765Y-110298571D01*
X134123804Y-110274773D01*
X134120204Y-110250504D01*
X134119000Y-110226000D01*
X134119000Y-108976000D01*
X134120204Y-108951496D01*
X134123804Y-108927227D01*
X134129765Y-108903429D01*
X134138030Y-108880329D01*
X134148520Y-108858151D01*
X134161133Y-108837107D01*
X134175747Y-108817402D01*
X134192223Y-108799223D01*
X134210402Y-108782747D01*
X134230107Y-108768133D01*
X134251151Y-108755520D01*
X134273329Y-108745030D01*
X134296429Y-108736765D01*
X134320227Y-108730804D01*
X134344496Y-108727204D01*
X134369000Y-108726000D01*
X135119000Y-108726000D01*
X135143504Y-108727204D01*
X135143504Y-108727204D01*
G37*
D13*
X134744000Y-109601000D03*
D11*
G36*
X137943504Y-108727204D02*
G01*
X137967773Y-108730804D01*
X137991571Y-108736765D01*
X138014671Y-108745030D01*
X138036849Y-108755520D01*
X138057893Y-108768133D01*
X138077598Y-108782747D01*
X138095777Y-108799223D01*
X138112253Y-108817402D01*
X138126867Y-108837107D01*
X138139480Y-108858151D01*
X138149970Y-108880329D01*
X138158235Y-108903429D01*
X138164196Y-108927227D01*
X138167796Y-108951496D01*
X138169000Y-108976000D01*
X138169000Y-110226000D01*
X138167796Y-110250504D01*
X138164196Y-110274773D01*
X138158235Y-110298571D01*
X138149970Y-110321671D01*
X138139480Y-110343849D01*
X138126867Y-110364893D01*
X138112253Y-110384598D01*
X138095777Y-110402777D01*
X138077598Y-110419253D01*
X138057893Y-110433867D01*
X138036849Y-110446480D01*
X138014671Y-110456970D01*
X137991571Y-110465235D01*
X137967773Y-110471196D01*
X137943504Y-110474796D01*
X137919000Y-110476000D01*
X137169000Y-110476000D01*
X137144496Y-110474796D01*
X137120227Y-110471196D01*
X137096429Y-110465235D01*
X137073329Y-110456970D01*
X137051151Y-110446480D01*
X137030107Y-110433867D01*
X137010402Y-110419253D01*
X136992223Y-110402777D01*
X136975747Y-110384598D01*
X136961133Y-110364893D01*
X136948520Y-110343849D01*
X136938030Y-110321671D01*
X136929765Y-110298571D01*
X136923804Y-110274773D01*
X136920204Y-110250504D01*
X136919000Y-110226000D01*
X136919000Y-108976000D01*
X136920204Y-108951496D01*
X136923804Y-108927227D01*
X136929765Y-108903429D01*
X136938030Y-108880329D01*
X136948520Y-108858151D01*
X136961133Y-108837107D01*
X136975747Y-108817402D01*
X136992223Y-108799223D01*
X137010402Y-108782747D01*
X137030107Y-108768133D01*
X137051151Y-108755520D01*
X137073329Y-108745030D01*
X137096429Y-108736765D01*
X137120227Y-108730804D01*
X137144496Y-108727204D01*
X137169000Y-108726000D01*
X137919000Y-108726000D01*
X137943504Y-108727204D01*
X137943504Y-108727204D01*
G37*
D13*
X137544000Y-109601000D03*
D11*
G36*
X129297691Y-98586053D02*
G01*
X129318926Y-98589203D01*
X129339750Y-98594419D01*
X129359962Y-98601651D01*
X129379368Y-98610830D01*
X129397781Y-98621866D01*
X129415024Y-98634654D01*
X129430930Y-98649070D01*
X129445346Y-98664976D01*
X129458134Y-98682219D01*
X129469170Y-98700632D01*
X129478349Y-98720038D01*
X129485581Y-98740250D01*
X129490797Y-98761074D01*
X129493947Y-98782309D01*
X129495000Y-98803750D01*
X129495000Y-99316250D01*
X129493947Y-99337691D01*
X129490797Y-99358926D01*
X129485581Y-99379750D01*
X129478349Y-99399962D01*
X129469170Y-99419368D01*
X129458134Y-99437781D01*
X129445346Y-99455024D01*
X129430930Y-99470930D01*
X129415024Y-99485346D01*
X129397781Y-99498134D01*
X129379368Y-99509170D01*
X129359962Y-99518349D01*
X129339750Y-99525581D01*
X129318926Y-99530797D01*
X129297691Y-99533947D01*
X129276250Y-99535000D01*
X128838750Y-99535000D01*
X128817309Y-99533947D01*
X128796074Y-99530797D01*
X128775250Y-99525581D01*
X128755038Y-99518349D01*
X128735632Y-99509170D01*
X128717219Y-99498134D01*
X128699976Y-99485346D01*
X128684070Y-99470930D01*
X128669654Y-99455024D01*
X128656866Y-99437781D01*
X128645830Y-99419368D01*
X128636651Y-99399962D01*
X128629419Y-99379750D01*
X128624203Y-99358926D01*
X128621053Y-99337691D01*
X128620000Y-99316250D01*
X128620000Y-98803750D01*
X128621053Y-98782309D01*
X128624203Y-98761074D01*
X128629419Y-98740250D01*
X128636651Y-98720038D01*
X128645830Y-98700632D01*
X128656866Y-98682219D01*
X128669654Y-98664976D01*
X128684070Y-98649070D01*
X128699976Y-98634654D01*
X128717219Y-98621866D01*
X128735632Y-98610830D01*
X128755038Y-98601651D01*
X128775250Y-98594419D01*
X128796074Y-98589203D01*
X128817309Y-98586053D01*
X128838750Y-98585000D01*
X129276250Y-98585000D01*
X129297691Y-98586053D01*
X129297691Y-98586053D01*
G37*
D12*
X129057500Y-99060000D03*
D11*
G36*
X127722691Y-98586053D02*
G01*
X127743926Y-98589203D01*
X127764750Y-98594419D01*
X127784962Y-98601651D01*
X127804368Y-98610830D01*
X127822781Y-98621866D01*
X127840024Y-98634654D01*
X127855930Y-98649070D01*
X127870346Y-98664976D01*
X127883134Y-98682219D01*
X127894170Y-98700632D01*
X127903349Y-98720038D01*
X127910581Y-98740250D01*
X127915797Y-98761074D01*
X127918947Y-98782309D01*
X127920000Y-98803750D01*
X127920000Y-99316250D01*
X127918947Y-99337691D01*
X127915797Y-99358926D01*
X127910581Y-99379750D01*
X127903349Y-99399962D01*
X127894170Y-99419368D01*
X127883134Y-99437781D01*
X127870346Y-99455024D01*
X127855930Y-99470930D01*
X127840024Y-99485346D01*
X127822781Y-99498134D01*
X127804368Y-99509170D01*
X127784962Y-99518349D01*
X127764750Y-99525581D01*
X127743926Y-99530797D01*
X127722691Y-99533947D01*
X127701250Y-99535000D01*
X127263750Y-99535000D01*
X127242309Y-99533947D01*
X127221074Y-99530797D01*
X127200250Y-99525581D01*
X127180038Y-99518349D01*
X127160632Y-99509170D01*
X127142219Y-99498134D01*
X127124976Y-99485346D01*
X127109070Y-99470930D01*
X127094654Y-99455024D01*
X127081866Y-99437781D01*
X127070830Y-99419368D01*
X127061651Y-99399962D01*
X127054419Y-99379750D01*
X127049203Y-99358926D01*
X127046053Y-99337691D01*
X127045000Y-99316250D01*
X127045000Y-98803750D01*
X127046053Y-98782309D01*
X127049203Y-98761074D01*
X127054419Y-98740250D01*
X127061651Y-98720038D01*
X127070830Y-98700632D01*
X127081866Y-98682219D01*
X127094654Y-98664976D01*
X127109070Y-98649070D01*
X127124976Y-98634654D01*
X127142219Y-98621866D01*
X127160632Y-98610830D01*
X127180038Y-98601651D01*
X127200250Y-98594419D01*
X127221074Y-98589203D01*
X127242309Y-98586053D01*
X127263750Y-98585000D01*
X127701250Y-98585000D01*
X127722691Y-98586053D01*
X127722691Y-98586053D01*
G37*
D12*
X127482500Y-99060000D03*
D11*
G36*
X123582691Y-109381053D02*
G01*
X123603926Y-109384203D01*
X123624750Y-109389419D01*
X123644962Y-109396651D01*
X123664368Y-109405830D01*
X123682781Y-109416866D01*
X123700024Y-109429654D01*
X123715930Y-109444070D01*
X123730346Y-109459976D01*
X123743134Y-109477219D01*
X123754170Y-109495632D01*
X123763349Y-109515038D01*
X123770581Y-109535250D01*
X123775797Y-109556074D01*
X123778947Y-109577309D01*
X123780000Y-109598750D01*
X123780000Y-110111250D01*
X123778947Y-110132691D01*
X123775797Y-110153926D01*
X123770581Y-110174750D01*
X123763349Y-110194962D01*
X123754170Y-110214368D01*
X123743134Y-110232781D01*
X123730346Y-110250024D01*
X123715930Y-110265930D01*
X123700024Y-110280346D01*
X123682781Y-110293134D01*
X123664368Y-110304170D01*
X123644962Y-110313349D01*
X123624750Y-110320581D01*
X123603926Y-110325797D01*
X123582691Y-110328947D01*
X123561250Y-110330000D01*
X123123750Y-110330000D01*
X123102309Y-110328947D01*
X123081074Y-110325797D01*
X123060250Y-110320581D01*
X123040038Y-110313349D01*
X123020632Y-110304170D01*
X123002219Y-110293134D01*
X122984976Y-110280346D01*
X122969070Y-110265930D01*
X122954654Y-110250024D01*
X122941866Y-110232781D01*
X122930830Y-110214368D01*
X122921651Y-110194962D01*
X122914419Y-110174750D01*
X122909203Y-110153926D01*
X122906053Y-110132691D01*
X122905000Y-110111250D01*
X122905000Y-109598750D01*
X122906053Y-109577309D01*
X122909203Y-109556074D01*
X122914419Y-109535250D01*
X122921651Y-109515038D01*
X122930830Y-109495632D01*
X122941866Y-109477219D01*
X122954654Y-109459976D01*
X122969070Y-109444070D01*
X122984976Y-109429654D01*
X123002219Y-109416866D01*
X123020632Y-109405830D01*
X123040038Y-109396651D01*
X123060250Y-109389419D01*
X123081074Y-109384203D01*
X123102309Y-109381053D01*
X123123750Y-109380000D01*
X123561250Y-109380000D01*
X123582691Y-109381053D01*
X123582691Y-109381053D01*
G37*
D12*
X123342500Y-109855000D03*
D11*
G36*
X122007691Y-109381053D02*
G01*
X122028926Y-109384203D01*
X122049750Y-109389419D01*
X122069962Y-109396651D01*
X122089368Y-109405830D01*
X122107781Y-109416866D01*
X122125024Y-109429654D01*
X122140930Y-109444070D01*
X122155346Y-109459976D01*
X122168134Y-109477219D01*
X122179170Y-109495632D01*
X122188349Y-109515038D01*
X122195581Y-109535250D01*
X122200797Y-109556074D01*
X122203947Y-109577309D01*
X122205000Y-109598750D01*
X122205000Y-110111250D01*
X122203947Y-110132691D01*
X122200797Y-110153926D01*
X122195581Y-110174750D01*
X122188349Y-110194962D01*
X122179170Y-110214368D01*
X122168134Y-110232781D01*
X122155346Y-110250024D01*
X122140930Y-110265930D01*
X122125024Y-110280346D01*
X122107781Y-110293134D01*
X122089368Y-110304170D01*
X122069962Y-110313349D01*
X122049750Y-110320581D01*
X122028926Y-110325797D01*
X122007691Y-110328947D01*
X121986250Y-110330000D01*
X121548750Y-110330000D01*
X121527309Y-110328947D01*
X121506074Y-110325797D01*
X121485250Y-110320581D01*
X121465038Y-110313349D01*
X121445632Y-110304170D01*
X121427219Y-110293134D01*
X121409976Y-110280346D01*
X121394070Y-110265930D01*
X121379654Y-110250024D01*
X121366866Y-110232781D01*
X121355830Y-110214368D01*
X121346651Y-110194962D01*
X121339419Y-110174750D01*
X121334203Y-110153926D01*
X121331053Y-110132691D01*
X121330000Y-110111250D01*
X121330000Y-109598750D01*
X121331053Y-109577309D01*
X121334203Y-109556074D01*
X121339419Y-109535250D01*
X121346651Y-109515038D01*
X121355830Y-109495632D01*
X121366866Y-109477219D01*
X121379654Y-109459976D01*
X121394070Y-109444070D01*
X121409976Y-109429654D01*
X121427219Y-109416866D01*
X121445632Y-109405830D01*
X121465038Y-109396651D01*
X121485250Y-109389419D01*
X121506074Y-109384203D01*
X121527309Y-109381053D01*
X121548750Y-109380000D01*
X121986250Y-109380000D01*
X122007691Y-109381053D01*
X122007691Y-109381053D01*
G37*
D12*
X121767500Y-109855000D03*
D11*
G36*
X123582691Y-107857053D02*
G01*
X123603926Y-107860203D01*
X123624750Y-107865419D01*
X123644962Y-107872651D01*
X123664368Y-107881830D01*
X123682781Y-107892866D01*
X123700024Y-107905654D01*
X123715930Y-107920070D01*
X123730346Y-107935976D01*
X123743134Y-107953219D01*
X123754170Y-107971632D01*
X123763349Y-107991038D01*
X123770581Y-108011250D01*
X123775797Y-108032074D01*
X123778947Y-108053309D01*
X123780000Y-108074750D01*
X123780000Y-108587250D01*
X123778947Y-108608691D01*
X123775797Y-108629926D01*
X123770581Y-108650750D01*
X123763349Y-108670962D01*
X123754170Y-108690368D01*
X123743134Y-108708781D01*
X123730346Y-108726024D01*
X123715930Y-108741930D01*
X123700024Y-108756346D01*
X123682781Y-108769134D01*
X123664368Y-108780170D01*
X123644962Y-108789349D01*
X123624750Y-108796581D01*
X123603926Y-108801797D01*
X123582691Y-108804947D01*
X123561250Y-108806000D01*
X123123750Y-108806000D01*
X123102309Y-108804947D01*
X123081074Y-108801797D01*
X123060250Y-108796581D01*
X123040038Y-108789349D01*
X123020632Y-108780170D01*
X123002219Y-108769134D01*
X122984976Y-108756346D01*
X122969070Y-108741930D01*
X122954654Y-108726024D01*
X122941866Y-108708781D01*
X122930830Y-108690368D01*
X122921651Y-108670962D01*
X122914419Y-108650750D01*
X122909203Y-108629926D01*
X122906053Y-108608691D01*
X122905000Y-108587250D01*
X122905000Y-108074750D01*
X122906053Y-108053309D01*
X122909203Y-108032074D01*
X122914419Y-108011250D01*
X122921651Y-107991038D01*
X122930830Y-107971632D01*
X122941866Y-107953219D01*
X122954654Y-107935976D01*
X122969070Y-107920070D01*
X122984976Y-107905654D01*
X123002219Y-107892866D01*
X123020632Y-107881830D01*
X123040038Y-107872651D01*
X123060250Y-107865419D01*
X123081074Y-107860203D01*
X123102309Y-107857053D01*
X123123750Y-107856000D01*
X123561250Y-107856000D01*
X123582691Y-107857053D01*
X123582691Y-107857053D01*
G37*
D12*
X123342500Y-108331000D03*
D11*
G36*
X122007691Y-107857053D02*
G01*
X122028926Y-107860203D01*
X122049750Y-107865419D01*
X122069962Y-107872651D01*
X122089368Y-107881830D01*
X122107781Y-107892866D01*
X122125024Y-107905654D01*
X122140930Y-107920070D01*
X122155346Y-107935976D01*
X122168134Y-107953219D01*
X122179170Y-107971632D01*
X122188349Y-107991038D01*
X122195581Y-108011250D01*
X122200797Y-108032074D01*
X122203947Y-108053309D01*
X122205000Y-108074750D01*
X122205000Y-108587250D01*
X122203947Y-108608691D01*
X122200797Y-108629926D01*
X122195581Y-108650750D01*
X122188349Y-108670962D01*
X122179170Y-108690368D01*
X122168134Y-108708781D01*
X122155346Y-108726024D01*
X122140930Y-108741930D01*
X122125024Y-108756346D01*
X122107781Y-108769134D01*
X122089368Y-108780170D01*
X122069962Y-108789349D01*
X122049750Y-108796581D01*
X122028926Y-108801797D01*
X122007691Y-108804947D01*
X121986250Y-108806000D01*
X121548750Y-108806000D01*
X121527309Y-108804947D01*
X121506074Y-108801797D01*
X121485250Y-108796581D01*
X121465038Y-108789349D01*
X121445632Y-108780170D01*
X121427219Y-108769134D01*
X121409976Y-108756346D01*
X121394070Y-108741930D01*
X121379654Y-108726024D01*
X121366866Y-108708781D01*
X121355830Y-108690368D01*
X121346651Y-108670962D01*
X121339419Y-108650750D01*
X121334203Y-108629926D01*
X121331053Y-108608691D01*
X121330000Y-108587250D01*
X121330000Y-108074750D01*
X121331053Y-108053309D01*
X121334203Y-108032074D01*
X121339419Y-108011250D01*
X121346651Y-107991038D01*
X121355830Y-107971632D01*
X121366866Y-107953219D01*
X121379654Y-107935976D01*
X121394070Y-107920070D01*
X121409976Y-107905654D01*
X121427219Y-107892866D01*
X121445632Y-107881830D01*
X121465038Y-107872651D01*
X121485250Y-107865419D01*
X121506074Y-107860203D01*
X121527309Y-107857053D01*
X121548750Y-107856000D01*
X121986250Y-107856000D01*
X122007691Y-107857053D01*
X122007691Y-107857053D01*
G37*
D12*
X121767500Y-108331000D03*
D10*
X122666000Y-104140000D03*
X120666000Y-104790000D03*
X120666000Y-103490000D03*
D11*
G36*
X120408703Y-111206722D02*
G01*
X120423264Y-111208882D01*
X120437543Y-111212459D01*
X120451403Y-111217418D01*
X120464710Y-111223712D01*
X120477336Y-111231280D01*
X120489159Y-111240048D01*
X120500066Y-111249934D01*
X120509952Y-111260841D01*
X120518720Y-111272664D01*
X120526288Y-111285290D01*
X120532582Y-111298597D01*
X120537541Y-111312457D01*
X120541118Y-111326736D01*
X120543278Y-111341297D01*
X120544000Y-111356000D01*
X120544000Y-111656000D01*
X120543278Y-111670703D01*
X120541118Y-111685264D01*
X120537541Y-111699543D01*
X120532582Y-111713403D01*
X120526288Y-111726710D01*
X120518720Y-111739336D01*
X120509952Y-111751159D01*
X120500066Y-111762066D01*
X120489159Y-111771952D01*
X120477336Y-111780720D01*
X120464710Y-111788288D01*
X120451403Y-111794582D01*
X120437543Y-111799541D01*
X120423264Y-111803118D01*
X120408703Y-111805278D01*
X120394000Y-111806000D01*
X118744000Y-111806000D01*
X118729297Y-111805278D01*
X118714736Y-111803118D01*
X118700457Y-111799541D01*
X118686597Y-111794582D01*
X118673290Y-111788288D01*
X118660664Y-111780720D01*
X118648841Y-111771952D01*
X118637934Y-111762066D01*
X118628048Y-111751159D01*
X118619280Y-111739336D01*
X118611712Y-111726710D01*
X118605418Y-111713403D01*
X118600459Y-111699543D01*
X118596882Y-111685264D01*
X118594722Y-111670703D01*
X118594000Y-111656000D01*
X118594000Y-111356000D01*
X118594722Y-111341297D01*
X118596882Y-111326736D01*
X118600459Y-111312457D01*
X118605418Y-111298597D01*
X118611712Y-111285290D01*
X118619280Y-111272664D01*
X118628048Y-111260841D01*
X118637934Y-111249934D01*
X118648841Y-111240048D01*
X118660664Y-111231280D01*
X118673290Y-111223712D01*
X118686597Y-111217418D01*
X118700457Y-111212459D01*
X118714736Y-111208882D01*
X118729297Y-111206722D01*
X118744000Y-111206000D01*
X120394000Y-111206000D01*
X120408703Y-111206722D01*
X120408703Y-111206722D01*
G37*
D15*
X119569000Y-111506000D03*
D11*
G36*
X120408703Y-109936722D02*
G01*
X120423264Y-109938882D01*
X120437543Y-109942459D01*
X120451403Y-109947418D01*
X120464710Y-109953712D01*
X120477336Y-109961280D01*
X120489159Y-109970048D01*
X120500066Y-109979934D01*
X120509952Y-109990841D01*
X120518720Y-110002664D01*
X120526288Y-110015290D01*
X120532582Y-110028597D01*
X120537541Y-110042457D01*
X120541118Y-110056736D01*
X120543278Y-110071297D01*
X120544000Y-110086000D01*
X120544000Y-110386000D01*
X120543278Y-110400703D01*
X120541118Y-110415264D01*
X120537541Y-110429543D01*
X120532582Y-110443403D01*
X120526288Y-110456710D01*
X120518720Y-110469336D01*
X120509952Y-110481159D01*
X120500066Y-110492066D01*
X120489159Y-110501952D01*
X120477336Y-110510720D01*
X120464710Y-110518288D01*
X120451403Y-110524582D01*
X120437543Y-110529541D01*
X120423264Y-110533118D01*
X120408703Y-110535278D01*
X120394000Y-110536000D01*
X118744000Y-110536000D01*
X118729297Y-110535278D01*
X118714736Y-110533118D01*
X118700457Y-110529541D01*
X118686597Y-110524582D01*
X118673290Y-110518288D01*
X118660664Y-110510720D01*
X118648841Y-110501952D01*
X118637934Y-110492066D01*
X118628048Y-110481159D01*
X118619280Y-110469336D01*
X118611712Y-110456710D01*
X118605418Y-110443403D01*
X118600459Y-110429543D01*
X118596882Y-110415264D01*
X118594722Y-110400703D01*
X118594000Y-110386000D01*
X118594000Y-110086000D01*
X118594722Y-110071297D01*
X118596882Y-110056736D01*
X118600459Y-110042457D01*
X118605418Y-110028597D01*
X118611712Y-110015290D01*
X118619280Y-110002664D01*
X118628048Y-109990841D01*
X118637934Y-109979934D01*
X118648841Y-109970048D01*
X118660664Y-109961280D01*
X118673290Y-109953712D01*
X118686597Y-109947418D01*
X118700457Y-109942459D01*
X118714736Y-109938882D01*
X118729297Y-109936722D01*
X118744000Y-109936000D01*
X120394000Y-109936000D01*
X120408703Y-109936722D01*
X120408703Y-109936722D01*
G37*
D15*
X119569000Y-110236000D03*
D11*
G36*
X120408703Y-108666722D02*
G01*
X120423264Y-108668882D01*
X120437543Y-108672459D01*
X120451403Y-108677418D01*
X120464710Y-108683712D01*
X120477336Y-108691280D01*
X120489159Y-108700048D01*
X120500066Y-108709934D01*
X120509952Y-108720841D01*
X120518720Y-108732664D01*
X120526288Y-108745290D01*
X120532582Y-108758597D01*
X120537541Y-108772457D01*
X120541118Y-108786736D01*
X120543278Y-108801297D01*
X120544000Y-108816000D01*
X120544000Y-109116000D01*
X120543278Y-109130703D01*
X120541118Y-109145264D01*
X120537541Y-109159543D01*
X120532582Y-109173403D01*
X120526288Y-109186710D01*
X120518720Y-109199336D01*
X120509952Y-109211159D01*
X120500066Y-109222066D01*
X120489159Y-109231952D01*
X120477336Y-109240720D01*
X120464710Y-109248288D01*
X120451403Y-109254582D01*
X120437543Y-109259541D01*
X120423264Y-109263118D01*
X120408703Y-109265278D01*
X120394000Y-109266000D01*
X118744000Y-109266000D01*
X118729297Y-109265278D01*
X118714736Y-109263118D01*
X118700457Y-109259541D01*
X118686597Y-109254582D01*
X118673290Y-109248288D01*
X118660664Y-109240720D01*
X118648841Y-109231952D01*
X118637934Y-109222066D01*
X118628048Y-109211159D01*
X118619280Y-109199336D01*
X118611712Y-109186710D01*
X118605418Y-109173403D01*
X118600459Y-109159543D01*
X118596882Y-109145264D01*
X118594722Y-109130703D01*
X118594000Y-109116000D01*
X118594000Y-108816000D01*
X118594722Y-108801297D01*
X118596882Y-108786736D01*
X118600459Y-108772457D01*
X118605418Y-108758597D01*
X118611712Y-108745290D01*
X118619280Y-108732664D01*
X118628048Y-108720841D01*
X118637934Y-108709934D01*
X118648841Y-108700048D01*
X118660664Y-108691280D01*
X118673290Y-108683712D01*
X118686597Y-108677418D01*
X118700457Y-108672459D01*
X118714736Y-108668882D01*
X118729297Y-108666722D01*
X118744000Y-108666000D01*
X120394000Y-108666000D01*
X120408703Y-108666722D01*
X120408703Y-108666722D01*
G37*
D15*
X119569000Y-108966000D03*
D11*
G36*
X120408703Y-107396722D02*
G01*
X120423264Y-107398882D01*
X120437543Y-107402459D01*
X120451403Y-107407418D01*
X120464710Y-107413712D01*
X120477336Y-107421280D01*
X120489159Y-107430048D01*
X120500066Y-107439934D01*
X120509952Y-107450841D01*
X120518720Y-107462664D01*
X120526288Y-107475290D01*
X120532582Y-107488597D01*
X120537541Y-107502457D01*
X120541118Y-107516736D01*
X120543278Y-107531297D01*
X120544000Y-107546000D01*
X120544000Y-107846000D01*
X120543278Y-107860703D01*
X120541118Y-107875264D01*
X120537541Y-107889543D01*
X120532582Y-107903403D01*
X120526288Y-107916710D01*
X120518720Y-107929336D01*
X120509952Y-107941159D01*
X120500066Y-107952066D01*
X120489159Y-107961952D01*
X120477336Y-107970720D01*
X120464710Y-107978288D01*
X120451403Y-107984582D01*
X120437543Y-107989541D01*
X120423264Y-107993118D01*
X120408703Y-107995278D01*
X120394000Y-107996000D01*
X118744000Y-107996000D01*
X118729297Y-107995278D01*
X118714736Y-107993118D01*
X118700457Y-107989541D01*
X118686597Y-107984582D01*
X118673290Y-107978288D01*
X118660664Y-107970720D01*
X118648841Y-107961952D01*
X118637934Y-107952066D01*
X118628048Y-107941159D01*
X118619280Y-107929336D01*
X118611712Y-107916710D01*
X118605418Y-107903403D01*
X118600459Y-107889543D01*
X118596882Y-107875264D01*
X118594722Y-107860703D01*
X118594000Y-107846000D01*
X118594000Y-107546000D01*
X118594722Y-107531297D01*
X118596882Y-107516736D01*
X118600459Y-107502457D01*
X118605418Y-107488597D01*
X118611712Y-107475290D01*
X118619280Y-107462664D01*
X118628048Y-107450841D01*
X118637934Y-107439934D01*
X118648841Y-107430048D01*
X118660664Y-107421280D01*
X118673290Y-107413712D01*
X118686597Y-107407418D01*
X118700457Y-107402459D01*
X118714736Y-107398882D01*
X118729297Y-107396722D01*
X118744000Y-107396000D01*
X120394000Y-107396000D01*
X120408703Y-107396722D01*
X120408703Y-107396722D01*
G37*
D15*
X119569000Y-107696000D03*
D11*
G36*
X115458703Y-107396722D02*
G01*
X115473264Y-107398882D01*
X115487543Y-107402459D01*
X115501403Y-107407418D01*
X115514710Y-107413712D01*
X115527336Y-107421280D01*
X115539159Y-107430048D01*
X115550066Y-107439934D01*
X115559952Y-107450841D01*
X115568720Y-107462664D01*
X115576288Y-107475290D01*
X115582582Y-107488597D01*
X115587541Y-107502457D01*
X115591118Y-107516736D01*
X115593278Y-107531297D01*
X115594000Y-107546000D01*
X115594000Y-107846000D01*
X115593278Y-107860703D01*
X115591118Y-107875264D01*
X115587541Y-107889543D01*
X115582582Y-107903403D01*
X115576288Y-107916710D01*
X115568720Y-107929336D01*
X115559952Y-107941159D01*
X115550066Y-107952066D01*
X115539159Y-107961952D01*
X115527336Y-107970720D01*
X115514710Y-107978288D01*
X115501403Y-107984582D01*
X115487543Y-107989541D01*
X115473264Y-107993118D01*
X115458703Y-107995278D01*
X115444000Y-107996000D01*
X113794000Y-107996000D01*
X113779297Y-107995278D01*
X113764736Y-107993118D01*
X113750457Y-107989541D01*
X113736597Y-107984582D01*
X113723290Y-107978288D01*
X113710664Y-107970720D01*
X113698841Y-107961952D01*
X113687934Y-107952066D01*
X113678048Y-107941159D01*
X113669280Y-107929336D01*
X113661712Y-107916710D01*
X113655418Y-107903403D01*
X113650459Y-107889543D01*
X113646882Y-107875264D01*
X113644722Y-107860703D01*
X113644000Y-107846000D01*
X113644000Y-107546000D01*
X113644722Y-107531297D01*
X113646882Y-107516736D01*
X113650459Y-107502457D01*
X113655418Y-107488597D01*
X113661712Y-107475290D01*
X113669280Y-107462664D01*
X113678048Y-107450841D01*
X113687934Y-107439934D01*
X113698841Y-107430048D01*
X113710664Y-107421280D01*
X113723290Y-107413712D01*
X113736597Y-107407418D01*
X113750457Y-107402459D01*
X113764736Y-107398882D01*
X113779297Y-107396722D01*
X113794000Y-107396000D01*
X115444000Y-107396000D01*
X115458703Y-107396722D01*
X115458703Y-107396722D01*
G37*
D15*
X114619000Y-107696000D03*
D11*
G36*
X115458703Y-108666722D02*
G01*
X115473264Y-108668882D01*
X115487543Y-108672459D01*
X115501403Y-108677418D01*
X115514710Y-108683712D01*
X115527336Y-108691280D01*
X115539159Y-108700048D01*
X115550066Y-108709934D01*
X115559952Y-108720841D01*
X115568720Y-108732664D01*
X115576288Y-108745290D01*
X115582582Y-108758597D01*
X115587541Y-108772457D01*
X115591118Y-108786736D01*
X115593278Y-108801297D01*
X115594000Y-108816000D01*
X115594000Y-109116000D01*
X115593278Y-109130703D01*
X115591118Y-109145264D01*
X115587541Y-109159543D01*
X115582582Y-109173403D01*
X115576288Y-109186710D01*
X115568720Y-109199336D01*
X115559952Y-109211159D01*
X115550066Y-109222066D01*
X115539159Y-109231952D01*
X115527336Y-109240720D01*
X115514710Y-109248288D01*
X115501403Y-109254582D01*
X115487543Y-109259541D01*
X115473264Y-109263118D01*
X115458703Y-109265278D01*
X115444000Y-109266000D01*
X113794000Y-109266000D01*
X113779297Y-109265278D01*
X113764736Y-109263118D01*
X113750457Y-109259541D01*
X113736597Y-109254582D01*
X113723290Y-109248288D01*
X113710664Y-109240720D01*
X113698841Y-109231952D01*
X113687934Y-109222066D01*
X113678048Y-109211159D01*
X113669280Y-109199336D01*
X113661712Y-109186710D01*
X113655418Y-109173403D01*
X113650459Y-109159543D01*
X113646882Y-109145264D01*
X113644722Y-109130703D01*
X113644000Y-109116000D01*
X113644000Y-108816000D01*
X113644722Y-108801297D01*
X113646882Y-108786736D01*
X113650459Y-108772457D01*
X113655418Y-108758597D01*
X113661712Y-108745290D01*
X113669280Y-108732664D01*
X113678048Y-108720841D01*
X113687934Y-108709934D01*
X113698841Y-108700048D01*
X113710664Y-108691280D01*
X113723290Y-108683712D01*
X113736597Y-108677418D01*
X113750457Y-108672459D01*
X113764736Y-108668882D01*
X113779297Y-108666722D01*
X113794000Y-108666000D01*
X115444000Y-108666000D01*
X115458703Y-108666722D01*
X115458703Y-108666722D01*
G37*
D15*
X114619000Y-108966000D03*
D11*
G36*
X115458703Y-109936722D02*
G01*
X115473264Y-109938882D01*
X115487543Y-109942459D01*
X115501403Y-109947418D01*
X115514710Y-109953712D01*
X115527336Y-109961280D01*
X115539159Y-109970048D01*
X115550066Y-109979934D01*
X115559952Y-109990841D01*
X115568720Y-110002664D01*
X115576288Y-110015290D01*
X115582582Y-110028597D01*
X115587541Y-110042457D01*
X115591118Y-110056736D01*
X115593278Y-110071297D01*
X115594000Y-110086000D01*
X115594000Y-110386000D01*
X115593278Y-110400703D01*
X115591118Y-110415264D01*
X115587541Y-110429543D01*
X115582582Y-110443403D01*
X115576288Y-110456710D01*
X115568720Y-110469336D01*
X115559952Y-110481159D01*
X115550066Y-110492066D01*
X115539159Y-110501952D01*
X115527336Y-110510720D01*
X115514710Y-110518288D01*
X115501403Y-110524582D01*
X115487543Y-110529541D01*
X115473264Y-110533118D01*
X115458703Y-110535278D01*
X115444000Y-110536000D01*
X113794000Y-110536000D01*
X113779297Y-110535278D01*
X113764736Y-110533118D01*
X113750457Y-110529541D01*
X113736597Y-110524582D01*
X113723290Y-110518288D01*
X113710664Y-110510720D01*
X113698841Y-110501952D01*
X113687934Y-110492066D01*
X113678048Y-110481159D01*
X113669280Y-110469336D01*
X113661712Y-110456710D01*
X113655418Y-110443403D01*
X113650459Y-110429543D01*
X113646882Y-110415264D01*
X113644722Y-110400703D01*
X113644000Y-110386000D01*
X113644000Y-110086000D01*
X113644722Y-110071297D01*
X113646882Y-110056736D01*
X113650459Y-110042457D01*
X113655418Y-110028597D01*
X113661712Y-110015290D01*
X113669280Y-110002664D01*
X113678048Y-109990841D01*
X113687934Y-109979934D01*
X113698841Y-109970048D01*
X113710664Y-109961280D01*
X113723290Y-109953712D01*
X113736597Y-109947418D01*
X113750457Y-109942459D01*
X113764736Y-109938882D01*
X113779297Y-109936722D01*
X113794000Y-109936000D01*
X115444000Y-109936000D01*
X115458703Y-109936722D01*
X115458703Y-109936722D01*
G37*
D15*
X114619000Y-110236000D03*
D11*
G36*
X115458703Y-111206722D02*
G01*
X115473264Y-111208882D01*
X115487543Y-111212459D01*
X115501403Y-111217418D01*
X115514710Y-111223712D01*
X115527336Y-111231280D01*
X115539159Y-111240048D01*
X115550066Y-111249934D01*
X115559952Y-111260841D01*
X115568720Y-111272664D01*
X115576288Y-111285290D01*
X115582582Y-111298597D01*
X115587541Y-111312457D01*
X115591118Y-111326736D01*
X115593278Y-111341297D01*
X115594000Y-111356000D01*
X115594000Y-111656000D01*
X115593278Y-111670703D01*
X115591118Y-111685264D01*
X115587541Y-111699543D01*
X115582582Y-111713403D01*
X115576288Y-111726710D01*
X115568720Y-111739336D01*
X115559952Y-111751159D01*
X115550066Y-111762066D01*
X115539159Y-111771952D01*
X115527336Y-111780720D01*
X115514710Y-111788288D01*
X115501403Y-111794582D01*
X115487543Y-111799541D01*
X115473264Y-111803118D01*
X115458703Y-111805278D01*
X115444000Y-111806000D01*
X113794000Y-111806000D01*
X113779297Y-111805278D01*
X113764736Y-111803118D01*
X113750457Y-111799541D01*
X113736597Y-111794582D01*
X113723290Y-111788288D01*
X113710664Y-111780720D01*
X113698841Y-111771952D01*
X113687934Y-111762066D01*
X113678048Y-111751159D01*
X113669280Y-111739336D01*
X113661712Y-111726710D01*
X113655418Y-111713403D01*
X113650459Y-111699543D01*
X113646882Y-111685264D01*
X113644722Y-111670703D01*
X113644000Y-111656000D01*
X113644000Y-111356000D01*
X113644722Y-111341297D01*
X113646882Y-111326736D01*
X113650459Y-111312457D01*
X113655418Y-111298597D01*
X113661712Y-111285290D01*
X113669280Y-111272664D01*
X113678048Y-111260841D01*
X113687934Y-111249934D01*
X113698841Y-111240048D01*
X113710664Y-111231280D01*
X113723290Y-111223712D01*
X113736597Y-111217418D01*
X113750457Y-111212459D01*
X113764736Y-111208882D01*
X113779297Y-111206722D01*
X113794000Y-111206000D01*
X115444000Y-111206000D01*
X115458703Y-111206722D01*
X115458703Y-111206722D01*
G37*
D15*
X114619000Y-111506000D03*
D11*
G36*
X117574891Y-102839853D02*
G01*
X117596126Y-102843003D01*
X117616950Y-102848219D01*
X117637162Y-102855451D01*
X117656568Y-102864630D01*
X117674981Y-102875666D01*
X117692224Y-102888454D01*
X117708130Y-102902870D01*
X117722546Y-102918776D01*
X117735334Y-102936019D01*
X117746370Y-102954432D01*
X117755549Y-102973838D01*
X117762781Y-102994050D01*
X117767997Y-103014874D01*
X117771147Y-103036109D01*
X117772200Y-103057550D01*
X117772200Y-103495050D01*
X117771147Y-103516491D01*
X117767997Y-103537726D01*
X117762781Y-103558550D01*
X117755549Y-103578762D01*
X117746370Y-103598168D01*
X117735334Y-103616581D01*
X117722546Y-103633824D01*
X117708130Y-103649730D01*
X117692224Y-103664146D01*
X117674981Y-103676934D01*
X117656568Y-103687970D01*
X117637162Y-103697149D01*
X117616950Y-103704381D01*
X117596126Y-103709597D01*
X117574891Y-103712747D01*
X117553450Y-103713800D01*
X117040950Y-103713800D01*
X117019509Y-103712747D01*
X116998274Y-103709597D01*
X116977450Y-103704381D01*
X116957238Y-103697149D01*
X116937832Y-103687970D01*
X116919419Y-103676934D01*
X116902176Y-103664146D01*
X116886270Y-103649730D01*
X116871854Y-103633824D01*
X116859066Y-103616581D01*
X116848030Y-103598168D01*
X116838851Y-103578762D01*
X116831619Y-103558550D01*
X116826403Y-103537726D01*
X116823253Y-103516491D01*
X116822200Y-103495050D01*
X116822200Y-103057550D01*
X116823253Y-103036109D01*
X116826403Y-103014874D01*
X116831619Y-102994050D01*
X116838851Y-102973838D01*
X116848030Y-102954432D01*
X116859066Y-102936019D01*
X116871854Y-102918776D01*
X116886270Y-102902870D01*
X116902176Y-102888454D01*
X116919419Y-102875666D01*
X116937832Y-102864630D01*
X116957238Y-102855451D01*
X116977450Y-102848219D01*
X116998274Y-102843003D01*
X117019509Y-102839853D01*
X117040950Y-102838800D01*
X117553450Y-102838800D01*
X117574891Y-102839853D01*
X117574891Y-102839853D01*
G37*
D12*
X117297200Y-103276300D03*
D11*
G36*
X117574891Y-104414853D02*
G01*
X117596126Y-104418003D01*
X117616950Y-104423219D01*
X117637162Y-104430451D01*
X117656568Y-104439630D01*
X117674981Y-104450666D01*
X117692224Y-104463454D01*
X117708130Y-104477870D01*
X117722546Y-104493776D01*
X117735334Y-104511019D01*
X117746370Y-104529432D01*
X117755549Y-104548838D01*
X117762781Y-104569050D01*
X117767997Y-104589874D01*
X117771147Y-104611109D01*
X117772200Y-104632550D01*
X117772200Y-105070050D01*
X117771147Y-105091491D01*
X117767997Y-105112726D01*
X117762781Y-105133550D01*
X117755549Y-105153762D01*
X117746370Y-105173168D01*
X117735334Y-105191581D01*
X117722546Y-105208824D01*
X117708130Y-105224730D01*
X117692224Y-105239146D01*
X117674981Y-105251934D01*
X117656568Y-105262970D01*
X117637162Y-105272149D01*
X117616950Y-105279381D01*
X117596126Y-105284597D01*
X117574891Y-105287747D01*
X117553450Y-105288800D01*
X117040950Y-105288800D01*
X117019509Y-105287747D01*
X116998274Y-105284597D01*
X116977450Y-105279381D01*
X116957238Y-105272149D01*
X116937832Y-105262970D01*
X116919419Y-105251934D01*
X116902176Y-105239146D01*
X116886270Y-105224730D01*
X116871854Y-105208824D01*
X116859066Y-105191581D01*
X116848030Y-105173168D01*
X116838851Y-105153762D01*
X116831619Y-105133550D01*
X116826403Y-105112726D01*
X116823253Y-105091491D01*
X116822200Y-105070050D01*
X116822200Y-104632550D01*
X116823253Y-104611109D01*
X116826403Y-104589874D01*
X116831619Y-104569050D01*
X116838851Y-104548838D01*
X116848030Y-104529432D01*
X116859066Y-104511019D01*
X116871854Y-104493776D01*
X116886270Y-104477870D01*
X116902176Y-104463454D01*
X116919419Y-104450666D01*
X116937832Y-104439630D01*
X116957238Y-104430451D01*
X116977450Y-104423219D01*
X116998274Y-104418003D01*
X117019509Y-104414853D01*
X117040950Y-104413800D01*
X117553450Y-104413800D01*
X117574891Y-104414853D01*
X117574891Y-104414853D01*
G37*
D12*
X117297200Y-104851300D03*
D11*
G36*
X119340811Y-102839853D02*
G01*
X119362046Y-102843003D01*
X119382870Y-102848219D01*
X119403082Y-102855451D01*
X119422488Y-102864630D01*
X119440901Y-102875666D01*
X119458144Y-102888454D01*
X119474050Y-102902870D01*
X119488466Y-102918776D01*
X119501254Y-102936019D01*
X119512290Y-102954432D01*
X119521469Y-102973838D01*
X119528701Y-102994050D01*
X119533917Y-103014874D01*
X119537067Y-103036109D01*
X119538120Y-103057550D01*
X119538120Y-103495050D01*
X119537067Y-103516491D01*
X119533917Y-103537726D01*
X119528701Y-103558550D01*
X119521469Y-103578762D01*
X119512290Y-103598168D01*
X119501254Y-103616581D01*
X119488466Y-103633824D01*
X119474050Y-103649730D01*
X119458144Y-103664146D01*
X119440901Y-103676934D01*
X119422488Y-103687970D01*
X119403082Y-103697149D01*
X119382870Y-103704381D01*
X119362046Y-103709597D01*
X119340811Y-103712747D01*
X119319370Y-103713800D01*
X118806870Y-103713800D01*
X118785429Y-103712747D01*
X118764194Y-103709597D01*
X118743370Y-103704381D01*
X118723158Y-103697149D01*
X118703752Y-103687970D01*
X118685339Y-103676934D01*
X118668096Y-103664146D01*
X118652190Y-103649730D01*
X118637774Y-103633824D01*
X118624986Y-103616581D01*
X118613950Y-103598168D01*
X118604771Y-103578762D01*
X118597539Y-103558550D01*
X118592323Y-103537726D01*
X118589173Y-103516491D01*
X118588120Y-103495050D01*
X118588120Y-103057550D01*
X118589173Y-103036109D01*
X118592323Y-103014874D01*
X118597539Y-102994050D01*
X118604771Y-102973838D01*
X118613950Y-102954432D01*
X118624986Y-102936019D01*
X118637774Y-102918776D01*
X118652190Y-102902870D01*
X118668096Y-102888454D01*
X118685339Y-102875666D01*
X118703752Y-102864630D01*
X118723158Y-102855451D01*
X118743370Y-102848219D01*
X118764194Y-102843003D01*
X118785429Y-102839853D01*
X118806870Y-102838800D01*
X119319370Y-102838800D01*
X119340811Y-102839853D01*
X119340811Y-102839853D01*
G37*
D12*
X119063120Y-103276300D03*
D11*
G36*
X119340811Y-104414853D02*
G01*
X119362046Y-104418003D01*
X119382870Y-104423219D01*
X119403082Y-104430451D01*
X119422488Y-104439630D01*
X119440901Y-104450666D01*
X119458144Y-104463454D01*
X119474050Y-104477870D01*
X119488466Y-104493776D01*
X119501254Y-104511019D01*
X119512290Y-104529432D01*
X119521469Y-104548838D01*
X119528701Y-104569050D01*
X119533917Y-104589874D01*
X119537067Y-104611109D01*
X119538120Y-104632550D01*
X119538120Y-105070050D01*
X119537067Y-105091491D01*
X119533917Y-105112726D01*
X119528701Y-105133550D01*
X119521469Y-105153762D01*
X119512290Y-105173168D01*
X119501254Y-105191581D01*
X119488466Y-105208824D01*
X119474050Y-105224730D01*
X119458144Y-105239146D01*
X119440901Y-105251934D01*
X119422488Y-105262970D01*
X119403082Y-105272149D01*
X119382870Y-105279381D01*
X119362046Y-105284597D01*
X119340811Y-105287747D01*
X119319370Y-105288800D01*
X118806870Y-105288800D01*
X118785429Y-105287747D01*
X118764194Y-105284597D01*
X118743370Y-105279381D01*
X118723158Y-105272149D01*
X118703752Y-105262970D01*
X118685339Y-105251934D01*
X118668096Y-105239146D01*
X118652190Y-105224730D01*
X118637774Y-105208824D01*
X118624986Y-105191581D01*
X118613950Y-105173168D01*
X118604771Y-105153762D01*
X118597539Y-105133550D01*
X118592323Y-105112726D01*
X118589173Y-105091491D01*
X118588120Y-105070050D01*
X118588120Y-104632550D01*
X118589173Y-104611109D01*
X118592323Y-104589874D01*
X118597539Y-104569050D01*
X118604771Y-104548838D01*
X118613950Y-104529432D01*
X118624986Y-104511019D01*
X118637774Y-104493776D01*
X118652190Y-104477870D01*
X118668096Y-104463454D01*
X118685339Y-104450666D01*
X118703752Y-104439630D01*
X118723158Y-104430451D01*
X118743370Y-104423219D01*
X118764194Y-104418003D01*
X118785429Y-104414853D01*
X118806870Y-104413800D01*
X119319370Y-104413800D01*
X119340811Y-104414853D01*
X119340811Y-104414853D01*
G37*
D12*
X119063120Y-104851300D03*
D11*
G36*
X123582691Y-106333053D02*
G01*
X123603926Y-106336203D01*
X123624750Y-106341419D01*
X123644962Y-106348651D01*
X123664368Y-106357830D01*
X123682781Y-106368866D01*
X123700024Y-106381654D01*
X123715930Y-106396070D01*
X123730346Y-106411976D01*
X123743134Y-106429219D01*
X123754170Y-106447632D01*
X123763349Y-106467038D01*
X123770581Y-106487250D01*
X123775797Y-106508074D01*
X123778947Y-106529309D01*
X123780000Y-106550750D01*
X123780000Y-107063250D01*
X123778947Y-107084691D01*
X123775797Y-107105926D01*
X123770581Y-107126750D01*
X123763349Y-107146962D01*
X123754170Y-107166368D01*
X123743134Y-107184781D01*
X123730346Y-107202024D01*
X123715930Y-107217930D01*
X123700024Y-107232346D01*
X123682781Y-107245134D01*
X123664368Y-107256170D01*
X123644962Y-107265349D01*
X123624750Y-107272581D01*
X123603926Y-107277797D01*
X123582691Y-107280947D01*
X123561250Y-107282000D01*
X123123750Y-107282000D01*
X123102309Y-107280947D01*
X123081074Y-107277797D01*
X123060250Y-107272581D01*
X123040038Y-107265349D01*
X123020632Y-107256170D01*
X123002219Y-107245134D01*
X122984976Y-107232346D01*
X122969070Y-107217930D01*
X122954654Y-107202024D01*
X122941866Y-107184781D01*
X122930830Y-107166368D01*
X122921651Y-107146962D01*
X122914419Y-107126750D01*
X122909203Y-107105926D01*
X122906053Y-107084691D01*
X122905000Y-107063250D01*
X122905000Y-106550750D01*
X122906053Y-106529309D01*
X122909203Y-106508074D01*
X122914419Y-106487250D01*
X122921651Y-106467038D01*
X122930830Y-106447632D01*
X122941866Y-106429219D01*
X122954654Y-106411976D01*
X122969070Y-106396070D01*
X122984976Y-106381654D01*
X123002219Y-106368866D01*
X123020632Y-106357830D01*
X123040038Y-106348651D01*
X123060250Y-106341419D01*
X123081074Y-106336203D01*
X123102309Y-106333053D01*
X123123750Y-106332000D01*
X123561250Y-106332000D01*
X123582691Y-106333053D01*
X123582691Y-106333053D01*
G37*
D12*
X123342500Y-106807000D03*
D11*
G36*
X122007691Y-106333053D02*
G01*
X122028926Y-106336203D01*
X122049750Y-106341419D01*
X122069962Y-106348651D01*
X122089368Y-106357830D01*
X122107781Y-106368866D01*
X122125024Y-106381654D01*
X122140930Y-106396070D01*
X122155346Y-106411976D01*
X122168134Y-106429219D01*
X122179170Y-106447632D01*
X122188349Y-106467038D01*
X122195581Y-106487250D01*
X122200797Y-106508074D01*
X122203947Y-106529309D01*
X122205000Y-106550750D01*
X122205000Y-107063250D01*
X122203947Y-107084691D01*
X122200797Y-107105926D01*
X122195581Y-107126750D01*
X122188349Y-107146962D01*
X122179170Y-107166368D01*
X122168134Y-107184781D01*
X122155346Y-107202024D01*
X122140930Y-107217930D01*
X122125024Y-107232346D01*
X122107781Y-107245134D01*
X122089368Y-107256170D01*
X122069962Y-107265349D01*
X122049750Y-107272581D01*
X122028926Y-107277797D01*
X122007691Y-107280947D01*
X121986250Y-107282000D01*
X121548750Y-107282000D01*
X121527309Y-107280947D01*
X121506074Y-107277797D01*
X121485250Y-107272581D01*
X121465038Y-107265349D01*
X121445632Y-107256170D01*
X121427219Y-107245134D01*
X121409976Y-107232346D01*
X121394070Y-107217930D01*
X121379654Y-107202024D01*
X121366866Y-107184781D01*
X121355830Y-107166368D01*
X121346651Y-107146962D01*
X121339419Y-107126750D01*
X121334203Y-107105926D01*
X121331053Y-107084691D01*
X121330000Y-107063250D01*
X121330000Y-106550750D01*
X121331053Y-106529309D01*
X121334203Y-106508074D01*
X121339419Y-106487250D01*
X121346651Y-106467038D01*
X121355830Y-106447632D01*
X121366866Y-106429219D01*
X121379654Y-106411976D01*
X121394070Y-106396070D01*
X121409976Y-106381654D01*
X121427219Y-106368866D01*
X121445632Y-106357830D01*
X121465038Y-106348651D01*
X121485250Y-106341419D01*
X121506074Y-106336203D01*
X121527309Y-106333053D01*
X121548750Y-106332000D01*
X121986250Y-106332000D01*
X122007691Y-106333053D01*
X122007691Y-106333053D01*
G37*
D12*
X121767500Y-106807000D03*
D11*
G36*
X123582691Y-111032053D02*
G01*
X123603926Y-111035203D01*
X123624750Y-111040419D01*
X123644962Y-111047651D01*
X123664368Y-111056830D01*
X123682781Y-111067866D01*
X123700024Y-111080654D01*
X123715930Y-111095070D01*
X123730346Y-111110976D01*
X123743134Y-111128219D01*
X123754170Y-111146632D01*
X123763349Y-111166038D01*
X123770581Y-111186250D01*
X123775797Y-111207074D01*
X123778947Y-111228309D01*
X123780000Y-111249750D01*
X123780000Y-111762250D01*
X123778947Y-111783691D01*
X123775797Y-111804926D01*
X123770581Y-111825750D01*
X123763349Y-111845962D01*
X123754170Y-111865368D01*
X123743134Y-111883781D01*
X123730346Y-111901024D01*
X123715930Y-111916930D01*
X123700024Y-111931346D01*
X123682781Y-111944134D01*
X123664368Y-111955170D01*
X123644962Y-111964349D01*
X123624750Y-111971581D01*
X123603926Y-111976797D01*
X123582691Y-111979947D01*
X123561250Y-111981000D01*
X123123750Y-111981000D01*
X123102309Y-111979947D01*
X123081074Y-111976797D01*
X123060250Y-111971581D01*
X123040038Y-111964349D01*
X123020632Y-111955170D01*
X123002219Y-111944134D01*
X122984976Y-111931346D01*
X122969070Y-111916930D01*
X122954654Y-111901024D01*
X122941866Y-111883781D01*
X122930830Y-111865368D01*
X122921651Y-111845962D01*
X122914419Y-111825750D01*
X122909203Y-111804926D01*
X122906053Y-111783691D01*
X122905000Y-111762250D01*
X122905000Y-111249750D01*
X122906053Y-111228309D01*
X122909203Y-111207074D01*
X122914419Y-111186250D01*
X122921651Y-111166038D01*
X122930830Y-111146632D01*
X122941866Y-111128219D01*
X122954654Y-111110976D01*
X122969070Y-111095070D01*
X122984976Y-111080654D01*
X123002219Y-111067866D01*
X123020632Y-111056830D01*
X123040038Y-111047651D01*
X123060250Y-111040419D01*
X123081074Y-111035203D01*
X123102309Y-111032053D01*
X123123750Y-111031000D01*
X123561250Y-111031000D01*
X123582691Y-111032053D01*
X123582691Y-111032053D01*
G37*
D12*
X123342500Y-111506000D03*
D11*
G36*
X122007691Y-111032053D02*
G01*
X122028926Y-111035203D01*
X122049750Y-111040419D01*
X122069962Y-111047651D01*
X122089368Y-111056830D01*
X122107781Y-111067866D01*
X122125024Y-111080654D01*
X122140930Y-111095070D01*
X122155346Y-111110976D01*
X122168134Y-111128219D01*
X122179170Y-111146632D01*
X122188349Y-111166038D01*
X122195581Y-111186250D01*
X122200797Y-111207074D01*
X122203947Y-111228309D01*
X122205000Y-111249750D01*
X122205000Y-111762250D01*
X122203947Y-111783691D01*
X122200797Y-111804926D01*
X122195581Y-111825750D01*
X122188349Y-111845962D01*
X122179170Y-111865368D01*
X122168134Y-111883781D01*
X122155346Y-111901024D01*
X122140930Y-111916930D01*
X122125024Y-111931346D01*
X122107781Y-111944134D01*
X122089368Y-111955170D01*
X122069962Y-111964349D01*
X122049750Y-111971581D01*
X122028926Y-111976797D01*
X122007691Y-111979947D01*
X121986250Y-111981000D01*
X121548750Y-111981000D01*
X121527309Y-111979947D01*
X121506074Y-111976797D01*
X121485250Y-111971581D01*
X121465038Y-111964349D01*
X121445632Y-111955170D01*
X121427219Y-111944134D01*
X121409976Y-111931346D01*
X121394070Y-111916930D01*
X121379654Y-111901024D01*
X121366866Y-111883781D01*
X121355830Y-111865368D01*
X121346651Y-111845962D01*
X121339419Y-111825750D01*
X121334203Y-111804926D01*
X121331053Y-111783691D01*
X121330000Y-111762250D01*
X121330000Y-111249750D01*
X121331053Y-111228309D01*
X121334203Y-111207074D01*
X121339419Y-111186250D01*
X121346651Y-111166038D01*
X121355830Y-111146632D01*
X121366866Y-111128219D01*
X121379654Y-111110976D01*
X121394070Y-111095070D01*
X121409976Y-111080654D01*
X121427219Y-111067866D01*
X121445632Y-111056830D01*
X121465038Y-111047651D01*
X121485250Y-111040419D01*
X121506074Y-111035203D01*
X121527309Y-111032053D01*
X121548750Y-111031000D01*
X121986250Y-111031000D01*
X122007691Y-111032053D01*
X122007691Y-111032053D01*
G37*
D12*
X121767500Y-111506000D03*
D16*
X93606000Y-106029000D03*
D17*
X86106000Y-113529000D03*
X87376000Y-113529000D03*
X88646000Y-113529000D03*
X89916000Y-113529000D03*
X91186000Y-113529000D03*
X92456000Y-113529000D03*
X93726000Y-113529000D03*
X94996000Y-113529000D03*
X96266000Y-113529000D03*
X97536000Y-113529000D03*
X98806000Y-113529000D03*
X100076000Y-113529000D03*
X101346000Y-113529000D03*
X102616000Y-113529000D03*
D18*
X103616000Y-110744000D03*
X103616000Y-109474000D03*
X103616000Y-108204000D03*
X103616000Y-106934000D03*
X103616000Y-105664000D03*
X103616000Y-104394000D03*
X103616000Y-103124000D03*
X103616000Y-101854000D03*
X103616000Y-100584000D03*
X103616000Y-99314000D03*
D17*
X102616000Y-96529000D03*
X101346000Y-96529000D03*
X100076000Y-96529000D03*
X98806000Y-96529000D03*
X97536000Y-96529000D03*
X96266000Y-96529000D03*
X94996000Y-96529000D03*
X93726000Y-96529000D03*
X92456000Y-96529000D03*
X91186000Y-96529000D03*
X89916000Y-96529000D03*
X88646000Y-96529000D03*
X87376000Y-96529000D03*
X86106000Y-96529000D03*
D11*
G36*
X129297691Y-111032053D02*
G01*
X129318926Y-111035203D01*
X129339750Y-111040419D01*
X129359962Y-111047651D01*
X129379368Y-111056830D01*
X129397781Y-111067866D01*
X129415024Y-111080654D01*
X129430930Y-111095070D01*
X129445346Y-111110976D01*
X129458134Y-111128219D01*
X129469170Y-111146632D01*
X129478349Y-111166038D01*
X129485581Y-111186250D01*
X129490797Y-111207074D01*
X129493947Y-111228309D01*
X129495000Y-111249750D01*
X129495000Y-111762250D01*
X129493947Y-111783691D01*
X129490797Y-111804926D01*
X129485581Y-111825750D01*
X129478349Y-111845962D01*
X129469170Y-111865368D01*
X129458134Y-111883781D01*
X129445346Y-111901024D01*
X129430930Y-111916930D01*
X129415024Y-111931346D01*
X129397781Y-111944134D01*
X129379368Y-111955170D01*
X129359962Y-111964349D01*
X129339750Y-111971581D01*
X129318926Y-111976797D01*
X129297691Y-111979947D01*
X129276250Y-111981000D01*
X128838750Y-111981000D01*
X128817309Y-111979947D01*
X128796074Y-111976797D01*
X128775250Y-111971581D01*
X128755038Y-111964349D01*
X128735632Y-111955170D01*
X128717219Y-111944134D01*
X128699976Y-111931346D01*
X128684070Y-111916930D01*
X128669654Y-111901024D01*
X128656866Y-111883781D01*
X128645830Y-111865368D01*
X128636651Y-111845962D01*
X128629419Y-111825750D01*
X128624203Y-111804926D01*
X128621053Y-111783691D01*
X128620000Y-111762250D01*
X128620000Y-111249750D01*
X128621053Y-111228309D01*
X128624203Y-111207074D01*
X128629419Y-111186250D01*
X128636651Y-111166038D01*
X128645830Y-111146632D01*
X128656866Y-111128219D01*
X128669654Y-111110976D01*
X128684070Y-111095070D01*
X128699976Y-111080654D01*
X128717219Y-111067866D01*
X128735632Y-111056830D01*
X128755038Y-111047651D01*
X128775250Y-111040419D01*
X128796074Y-111035203D01*
X128817309Y-111032053D01*
X128838750Y-111031000D01*
X129276250Y-111031000D01*
X129297691Y-111032053D01*
X129297691Y-111032053D01*
G37*
D12*
X129057500Y-111506000D03*
D11*
G36*
X127722691Y-111032053D02*
G01*
X127743926Y-111035203D01*
X127764750Y-111040419D01*
X127784962Y-111047651D01*
X127804368Y-111056830D01*
X127822781Y-111067866D01*
X127840024Y-111080654D01*
X127855930Y-111095070D01*
X127870346Y-111110976D01*
X127883134Y-111128219D01*
X127894170Y-111146632D01*
X127903349Y-111166038D01*
X127910581Y-111186250D01*
X127915797Y-111207074D01*
X127918947Y-111228309D01*
X127920000Y-111249750D01*
X127920000Y-111762250D01*
X127918947Y-111783691D01*
X127915797Y-111804926D01*
X127910581Y-111825750D01*
X127903349Y-111845962D01*
X127894170Y-111865368D01*
X127883134Y-111883781D01*
X127870346Y-111901024D01*
X127855930Y-111916930D01*
X127840024Y-111931346D01*
X127822781Y-111944134D01*
X127804368Y-111955170D01*
X127784962Y-111964349D01*
X127764750Y-111971581D01*
X127743926Y-111976797D01*
X127722691Y-111979947D01*
X127701250Y-111981000D01*
X127263750Y-111981000D01*
X127242309Y-111979947D01*
X127221074Y-111976797D01*
X127200250Y-111971581D01*
X127180038Y-111964349D01*
X127160632Y-111955170D01*
X127142219Y-111944134D01*
X127124976Y-111931346D01*
X127109070Y-111916930D01*
X127094654Y-111901024D01*
X127081866Y-111883781D01*
X127070830Y-111865368D01*
X127061651Y-111845962D01*
X127054419Y-111825750D01*
X127049203Y-111804926D01*
X127046053Y-111783691D01*
X127045000Y-111762250D01*
X127045000Y-111249750D01*
X127046053Y-111228309D01*
X127049203Y-111207074D01*
X127054419Y-111186250D01*
X127061651Y-111166038D01*
X127070830Y-111146632D01*
X127081866Y-111128219D01*
X127094654Y-111110976D01*
X127109070Y-111095070D01*
X127124976Y-111080654D01*
X127142219Y-111067866D01*
X127160632Y-111056830D01*
X127180038Y-111047651D01*
X127200250Y-111040419D01*
X127221074Y-111035203D01*
X127242309Y-111032053D01*
X127263750Y-111031000D01*
X127701250Y-111031000D01*
X127722691Y-111032053D01*
X127722691Y-111032053D01*
G37*
D12*
X127482500Y-111506000D03*
D11*
G36*
X120101571Y-98877453D02*
G01*
X120122806Y-98880603D01*
X120143630Y-98885819D01*
X120163842Y-98893051D01*
X120183248Y-98902230D01*
X120201661Y-98913266D01*
X120218904Y-98926054D01*
X120234810Y-98940470D01*
X120249226Y-98956376D01*
X120262014Y-98973619D01*
X120273050Y-98992032D01*
X120282229Y-99011438D01*
X120289461Y-99031650D01*
X120294677Y-99052474D01*
X120297827Y-99073709D01*
X120298880Y-99095150D01*
X120298880Y-99532650D01*
X120297827Y-99554091D01*
X120294677Y-99575326D01*
X120289461Y-99596150D01*
X120282229Y-99616362D01*
X120273050Y-99635768D01*
X120262014Y-99654181D01*
X120249226Y-99671424D01*
X120234810Y-99687330D01*
X120218904Y-99701746D01*
X120201661Y-99714534D01*
X120183248Y-99725570D01*
X120163842Y-99734749D01*
X120143630Y-99741981D01*
X120122806Y-99747197D01*
X120101571Y-99750347D01*
X120080130Y-99751400D01*
X119567630Y-99751400D01*
X119546189Y-99750347D01*
X119524954Y-99747197D01*
X119504130Y-99741981D01*
X119483918Y-99734749D01*
X119464512Y-99725570D01*
X119446099Y-99714534D01*
X119428856Y-99701746D01*
X119412950Y-99687330D01*
X119398534Y-99671424D01*
X119385746Y-99654181D01*
X119374710Y-99635768D01*
X119365531Y-99616362D01*
X119358299Y-99596150D01*
X119353083Y-99575326D01*
X119349933Y-99554091D01*
X119348880Y-99532650D01*
X119348880Y-99095150D01*
X119349933Y-99073709D01*
X119353083Y-99052474D01*
X119358299Y-99031650D01*
X119365531Y-99011438D01*
X119374710Y-98992032D01*
X119385746Y-98973619D01*
X119398534Y-98956376D01*
X119412950Y-98940470D01*
X119428856Y-98926054D01*
X119446099Y-98913266D01*
X119464512Y-98902230D01*
X119483918Y-98893051D01*
X119504130Y-98885819D01*
X119524954Y-98880603D01*
X119546189Y-98877453D01*
X119567630Y-98876400D01*
X120080130Y-98876400D01*
X120101571Y-98877453D01*
X120101571Y-98877453D01*
G37*
D12*
X119823880Y-99313900D03*
D11*
G36*
X120101571Y-100452453D02*
G01*
X120122806Y-100455603D01*
X120143630Y-100460819D01*
X120163842Y-100468051D01*
X120183248Y-100477230D01*
X120201661Y-100488266D01*
X120218904Y-100501054D01*
X120234810Y-100515470D01*
X120249226Y-100531376D01*
X120262014Y-100548619D01*
X120273050Y-100567032D01*
X120282229Y-100586438D01*
X120289461Y-100606650D01*
X120294677Y-100627474D01*
X120297827Y-100648709D01*
X120298880Y-100670150D01*
X120298880Y-101107650D01*
X120297827Y-101129091D01*
X120294677Y-101150326D01*
X120289461Y-101171150D01*
X120282229Y-101191362D01*
X120273050Y-101210768D01*
X120262014Y-101229181D01*
X120249226Y-101246424D01*
X120234810Y-101262330D01*
X120218904Y-101276746D01*
X120201661Y-101289534D01*
X120183248Y-101300570D01*
X120163842Y-101309749D01*
X120143630Y-101316981D01*
X120122806Y-101322197D01*
X120101571Y-101325347D01*
X120080130Y-101326400D01*
X119567630Y-101326400D01*
X119546189Y-101325347D01*
X119524954Y-101322197D01*
X119504130Y-101316981D01*
X119483918Y-101309749D01*
X119464512Y-101300570D01*
X119446099Y-101289534D01*
X119428856Y-101276746D01*
X119412950Y-101262330D01*
X119398534Y-101246424D01*
X119385746Y-101229181D01*
X119374710Y-101210768D01*
X119365531Y-101191362D01*
X119358299Y-101171150D01*
X119353083Y-101150326D01*
X119349933Y-101129091D01*
X119348880Y-101107650D01*
X119348880Y-100670150D01*
X119349933Y-100648709D01*
X119353083Y-100627474D01*
X119358299Y-100606650D01*
X119365531Y-100586438D01*
X119374710Y-100567032D01*
X119385746Y-100548619D01*
X119398534Y-100531376D01*
X119412950Y-100515470D01*
X119428856Y-100501054D01*
X119446099Y-100488266D01*
X119464512Y-100477230D01*
X119483918Y-100468051D01*
X119504130Y-100460819D01*
X119524954Y-100455603D01*
X119546189Y-100452453D01*
X119567630Y-100451400D01*
X120080130Y-100451400D01*
X120101571Y-100452453D01*
X120101571Y-100452453D01*
G37*
D12*
X119823880Y-100888900D03*
D11*
G36*
X114629731Y-98826653D02*
G01*
X114650966Y-98829803D01*
X114671790Y-98835019D01*
X114692002Y-98842251D01*
X114711408Y-98851430D01*
X114729821Y-98862466D01*
X114747064Y-98875254D01*
X114762970Y-98889670D01*
X114777386Y-98905576D01*
X114790174Y-98922819D01*
X114801210Y-98941232D01*
X114810389Y-98960638D01*
X114817621Y-98980850D01*
X114822837Y-99001674D01*
X114825987Y-99022909D01*
X114827040Y-99044350D01*
X114827040Y-99481850D01*
X114825987Y-99503291D01*
X114822837Y-99524526D01*
X114817621Y-99545350D01*
X114810389Y-99565562D01*
X114801210Y-99584968D01*
X114790174Y-99603381D01*
X114777386Y-99620624D01*
X114762970Y-99636530D01*
X114747064Y-99650946D01*
X114729821Y-99663734D01*
X114711408Y-99674770D01*
X114692002Y-99683949D01*
X114671790Y-99691181D01*
X114650966Y-99696397D01*
X114629731Y-99699547D01*
X114608290Y-99700600D01*
X114095790Y-99700600D01*
X114074349Y-99699547D01*
X114053114Y-99696397D01*
X114032290Y-99691181D01*
X114012078Y-99683949D01*
X113992672Y-99674770D01*
X113974259Y-99663734D01*
X113957016Y-99650946D01*
X113941110Y-99636530D01*
X113926694Y-99620624D01*
X113913906Y-99603381D01*
X113902870Y-99584968D01*
X113893691Y-99565562D01*
X113886459Y-99545350D01*
X113881243Y-99524526D01*
X113878093Y-99503291D01*
X113877040Y-99481850D01*
X113877040Y-99044350D01*
X113878093Y-99022909D01*
X113881243Y-99001674D01*
X113886459Y-98980850D01*
X113893691Y-98960638D01*
X113902870Y-98941232D01*
X113913906Y-98922819D01*
X113926694Y-98905576D01*
X113941110Y-98889670D01*
X113957016Y-98875254D01*
X113974259Y-98862466D01*
X113992672Y-98851430D01*
X114012078Y-98842251D01*
X114032290Y-98835019D01*
X114053114Y-98829803D01*
X114074349Y-98826653D01*
X114095790Y-98825600D01*
X114608290Y-98825600D01*
X114629731Y-98826653D01*
X114629731Y-98826653D01*
G37*
D12*
X114352040Y-99263100D03*
D11*
G36*
X114629731Y-100401653D02*
G01*
X114650966Y-100404803D01*
X114671790Y-100410019D01*
X114692002Y-100417251D01*
X114711408Y-100426430D01*
X114729821Y-100437466D01*
X114747064Y-100450254D01*
X114762970Y-100464670D01*
X114777386Y-100480576D01*
X114790174Y-100497819D01*
X114801210Y-100516232D01*
X114810389Y-100535638D01*
X114817621Y-100555850D01*
X114822837Y-100576674D01*
X114825987Y-100597909D01*
X114827040Y-100619350D01*
X114827040Y-101056850D01*
X114825987Y-101078291D01*
X114822837Y-101099526D01*
X114817621Y-101120350D01*
X114810389Y-101140562D01*
X114801210Y-101159968D01*
X114790174Y-101178381D01*
X114777386Y-101195624D01*
X114762970Y-101211530D01*
X114747064Y-101225946D01*
X114729821Y-101238734D01*
X114711408Y-101249770D01*
X114692002Y-101258949D01*
X114671790Y-101266181D01*
X114650966Y-101271397D01*
X114629731Y-101274547D01*
X114608290Y-101275600D01*
X114095790Y-101275600D01*
X114074349Y-101274547D01*
X114053114Y-101271397D01*
X114032290Y-101266181D01*
X114012078Y-101258949D01*
X113992672Y-101249770D01*
X113974259Y-101238734D01*
X113957016Y-101225946D01*
X113941110Y-101211530D01*
X113926694Y-101195624D01*
X113913906Y-101178381D01*
X113902870Y-101159968D01*
X113893691Y-101140562D01*
X113886459Y-101120350D01*
X113881243Y-101099526D01*
X113878093Y-101078291D01*
X113877040Y-101056850D01*
X113877040Y-100619350D01*
X113878093Y-100597909D01*
X113881243Y-100576674D01*
X113886459Y-100555850D01*
X113893691Y-100535638D01*
X113902870Y-100516232D01*
X113913906Y-100497819D01*
X113926694Y-100480576D01*
X113941110Y-100464670D01*
X113957016Y-100450254D01*
X113974259Y-100437466D01*
X113992672Y-100426430D01*
X114012078Y-100417251D01*
X114032290Y-100410019D01*
X114053114Y-100404803D01*
X114074349Y-100401653D01*
X114095790Y-100400600D01*
X114608290Y-100400600D01*
X114629731Y-100401653D01*
X114629731Y-100401653D01*
G37*
D12*
X114352040Y-100838100D03*
D11*
G36*
X129297691Y-107857053D02*
G01*
X129318926Y-107860203D01*
X129339750Y-107865419D01*
X129359962Y-107872651D01*
X129379368Y-107881830D01*
X129397781Y-107892866D01*
X129415024Y-107905654D01*
X129430930Y-107920070D01*
X129445346Y-107935976D01*
X129458134Y-107953219D01*
X129469170Y-107971632D01*
X129478349Y-107991038D01*
X129485581Y-108011250D01*
X129490797Y-108032074D01*
X129493947Y-108053309D01*
X129495000Y-108074750D01*
X129495000Y-108587250D01*
X129493947Y-108608691D01*
X129490797Y-108629926D01*
X129485581Y-108650750D01*
X129478349Y-108670962D01*
X129469170Y-108690368D01*
X129458134Y-108708781D01*
X129445346Y-108726024D01*
X129430930Y-108741930D01*
X129415024Y-108756346D01*
X129397781Y-108769134D01*
X129379368Y-108780170D01*
X129359962Y-108789349D01*
X129339750Y-108796581D01*
X129318926Y-108801797D01*
X129297691Y-108804947D01*
X129276250Y-108806000D01*
X128838750Y-108806000D01*
X128817309Y-108804947D01*
X128796074Y-108801797D01*
X128775250Y-108796581D01*
X128755038Y-108789349D01*
X128735632Y-108780170D01*
X128717219Y-108769134D01*
X128699976Y-108756346D01*
X128684070Y-108741930D01*
X128669654Y-108726024D01*
X128656866Y-108708781D01*
X128645830Y-108690368D01*
X128636651Y-108670962D01*
X128629419Y-108650750D01*
X128624203Y-108629926D01*
X128621053Y-108608691D01*
X128620000Y-108587250D01*
X128620000Y-108074750D01*
X128621053Y-108053309D01*
X128624203Y-108032074D01*
X128629419Y-108011250D01*
X128636651Y-107991038D01*
X128645830Y-107971632D01*
X128656866Y-107953219D01*
X128669654Y-107935976D01*
X128684070Y-107920070D01*
X128699976Y-107905654D01*
X128717219Y-107892866D01*
X128735632Y-107881830D01*
X128755038Y-107872651D01*
X128775250Y-107865419D01*
X128796074Y-107860203D01*
X128817309Y-107857053D01*
X128838750Y-107856000D01*
X129276250Y-107856000D01*
X129297691Y-107857053D01*
X129297691Y-107857053D01*
G37*
D12*
X129057500Y-108331000D03*
D11*
G36*
X127722691Y-107857053D02*
G01*
X127743926Y-107860203D01*
X127764750Y-107865419D01*
X127784962Y-107872651D01*
X127804368Y-107881830D01*
X127822781Y-107892866D01*
X127840024Y-107905654D01*
X127855930Y-107920070D01*
X127870346Y-107935976D01*
X127883134Y-107953219D01*
X127894170Y-107971632D01*
X127903349Y-107991038D01*
X127910581Y-108011250D01*
X127915797Y-108032074D01*
X127918947Y-108053309D01*
X127920000Y-108074750D01*
X127920000Y-108587250D01*
X127918947Y-108608691D01*
X127915797Y-108629926D01*
X127910581Y-108650750D01*
X127903349Y-108670962D01*
X127894170Y-108690368D01*
X127883134Y-108708781D01*
X127870346Y-108726024D01*
X127855930Y-108741930D01*
X127840024Y-108756346D01*
X127822781Y-108769134D01*
X127804368Y-108780170D01*
X127784962Y-108789349D01*
X127764750Y-108796581D01*
X127743926Y-108801797D01*
X127722691Y-108804947D01*
X127701250Y-108806000D01*
X127263750Y-108806000D01*
X127242309Y-108804947D01*
X127221074Y-108801797D01*
X127200250Y-108796581D01*
X127180038Y-108789349D01*
X127160632Y-108780170D01*
X127142219Y-108769134D01*
X127124976Y-108756346D01*
X127109070Y-108741930D01*
X127094654Y-108726024D01*
X127081866Y-108708781D01*
X127070830Y-108690368D01*
X127061651Y-108670962D01*
X127054419Y-108650750D01*
X127049203Y-108629926D01*
X127046053Y-108608691D01*
X127045000Y-108587250D01*
X127045000Y-108074750D01*
X127046053Y-108053309D01*
X127049203Y-108032074D01*
X127054419Y-108011250D01*
X127061651Y-107991038D01*
X127070830Y-107971632D01*
X127081866Y-107953219D01*
X127094654Y-107935976D01*
X127109070Y-107920070D01*
X127124976Y-107905654D01*
X127142219Y-107892866D01*
X127160632Y-107881830D01*
X127180038Y-107872651D01*
X127200250Y-107865419D01*
X127221074Y-107860203D01*
X127242309Y-107857053D01*
X127263750Y-107856000D01*
X127701250Y-107856000D01*
X127722691Y-107857053D01*
X127722691Y-107857053D01*
G37*
D12*
X127482500Y-108331000D03*
D19*
X118087960Y-100050600D03*
X116087960Y-101000600D03*
X116087960Y-99100600D03*
D20*
X127570000Y-109855000D03*
X128970000Y-109855000D03*
D11*
G36*
X121867491Y-100452453D02*
G01*
X121888726Y-100455603D01*
X121909550Y-100460819D01*
X121929762Y-100468051D01*
X121949168Y-100477230D01*
X121967581Y-100488266D01*
X121984824Y-100501054D01*
X122000730Y-100515470D01*
X122015146Y-100531376D01*
X122027934Y-100548619D01*
X122038970Y-100567032D01*
X122048149Y-100586438D01*
X122055381Y-100606650D01*
X122060597Y-100627474D01*
X122063747Y-100648709D01*
X122064800Y-100670150D01*
X122064800Y-101107650D01*
X122063747Y-101129091D01*
X122060597Y-101150326D01*
X122055381Y-101171150D01*
X122048149Y-101191362D01*
X122038970Y-101210768D01*
X122027934Y-101229181D01*
X122015146Y-101246424D01*
X122000730Y-101262330D01*
X121984824Y-101276746D01*
X121967581Y-101289534D01*
X121949168Y-101300570D01*
X121929762Y-101309749D01*
X121909550Y-101316981D01*
X121888726Y-101322197D01*
X121867491Y-101325347D01*
X121846050Y-101326400D01*
X121333550Y-101326400D01*
X121312109Y-101325347D01*
X121290874Y-101322197D01*
X121270050Y-101316981D01*
X121249838Y-101309749D01*
X121230432Y-101300570D01*
X121212019Y-101289534D01*
X121194776Y-101276746D01*
X121178870Y-101262330D01*
X121164454Y-101246424D01*
X121151666Y-101229181D01*
X121140630Y-101210768D01*
X121131451Y-101191362D01*
X121124219Y-101171150D01*
X121119003Y-101150326D01*
X121115853Y-101129091D01*
X121114800Y-101107650D01*
X121114800Y-100670150D01*
X121115853Y-100648709D01*
X121119003Y-100627474D01*
X121124219Y-100606650D01*
X121131451Y-100586438D01*
X121140630Y-100567032D01*
X121151666Y-100548619D01*
X121164454Y-100531376D01*
X121178870Y-100515470D01*
X121194776Y-100501054D01*
X121212019Y-100488266D01*
X121230432Y-100477230D01*
X121249838Y-100468051D01*
X121270050Y-100460819D01*
X121290874Y-100455603D01*
X121312109Y-100452453D01*
X121333550Y-100451400D01*
X121846050Y-100451400D01*
X121867491Y-100452453D01*
X121867491Y-100452453D01*
G37*
D12*
X121589800Y-100888900D03*
D11*
G36*
X121867491Y-98877453D02*
G01*
X121888726Y-98880603D01*
X121909550Y-98885819D01*
X121929762Y-98893051D01*
X121949168Y-98902230D01*
X121967581Y-98913266D01*
X121984824Y-98926054D01*
X122000730Y-98940470D01*
X122015146Y-98956376D01*
X122027934Y-98973619D01*
X122038970Y-98992032D01*
X122048149Y-99011438D01*
X122055381Y-99031650D01*
X122060597Y-99052474D01*
X122063747Y-99073709D01*
X122064800Y-99095150D01*
X122064800Y-99532650D01*
X122063747Y-99554091D01*
X122060597Y-99575326D01*
X122055381Y-99596150D01*
X122048149Y-99616362D01*
X122038970Y-99635768D01*
X122027934Y-99654181D01*
X122015146Y-99671424D01*
X122000730Y-99687330D01*
X121984824Y-99701746D01*
X121967581Y-99714534D01*
X121949168Y-99725570D01*
X121929762Y-99734749D01*
X121909550Y-99741981D01*
X121888726Y-99747197D01*
X121867491Y-99750347D01*
X121846050Y-99751400D01*
X121333550Y-99751400D01*
X121312109Y-99750347D01*
X121290874Y-99747197D01*
X121270050Y-99741981D01*
X121249838Y-99734749D01*
X121230432Y-99725570D01*
X121212019Y-99714534D01*
X121194776Y-99701746D01*
X121178870Y-99687330D01*
X121164454Y-99671424D01*
X121151666Y-99654181D01*
X121140630Y-99635768D01*
X121131451Y-99616362D01*
X121124219Y-99596150D01*
X121119003Y-99575326D01*
X121115853Y-99554091D01*
X121114800Y-99532650D01*
X121114800Y-99095150D01*
X121115853Y-99073709D01*
X121119003Y-99052474D01*
X121124219Y-99031650D01*
X121131451Y-99011438D01*
X121140630Y-98992032D01*
X121151666Y-98973619D01*
X121164454Y-98956376D01*
X121178870Y-98940470D01*
X121194776Y-98926054D01*
X121212019Y-98913266D01*
X121230432Y-98902230D01*
X121249838Y-98893051D01*
X121270050Y-98885819D01*
X121290874Y-98880603D01*
X121312109Y-98877453D01*
X121333550Y-98876400D01*
X121846050Y-98876400D01*
X121867491Y-98877453D01*
X121867491Y-98877453D01*
G37*
D12*
X121589800Y-99313900D03*
D11*
G36*
X129297691Y-106333053D02*
G01*
X129318926Y-106336203D01*
X129339750Y-106341419D01*
X129359962Y-106348651D01*
X129379368Y-106357830D01*
X129397781Y-106368866D01*
X129415024Y-106381654D01*
X129430930Y-106396070D01*
X129445346Y-106411976D01*
X129458134Y-106429219D01*
X129469170Y-106447632D01*
X129478349Y-106467038D01*
X129485581Y-106487250D01*
X129490797Y-106508074D01*
X129493947Y-106529309D01*
X129495000Y-106550750D01*
X129495000Y-107063250D01*
X129493947Y-107084691D01*
X129490797Y-107105926D01*
X129485581Y-107126750D01*
X129478349Y-107146962D01*
X129469170Y-107166368D01*
X129458134Y-107184781D01*
X129445346Y-107202024D01*
X129430930Y-107217930D01*
X129415024Y-107232346D01*
X129397781Y-107245134D01*
X129379368Y-107256170D01*
X129359962Y-107265349D01*
X129339750Y-107272581D01*
X129318926Y-107277797D01*
X129297691Y-107280947D01*
X129276250Y-107282000D01*
X128838750Y-107282000D01*
X128817309Y-107280947D01*
X128796074Y-107277797D01*
X128775250Y-107272581D01*
X128755038Y-107265349D01*
X128735632Y-107256170D01*
X128717219Y-107245134D01*
X128699976Y-107232346D01*
X128684070Y-107217930D01*
X128669654Y-107202024D01*
X128656866Y-107184781D01*
X128645830Y-107166368D01*
X128636651Y-107146962D01*
X128629419Y-107126750D01*
X128624203Y-107105926D01*
X128621053Y-107084691D01*
X128620000Y-107063250D01*
X128620000Y-106550750D01*
X128621053Y-106529309D01*
X128624203Y-106508074D01*
X128629419Y-106487250D01*
X128636651Y-106467038D01*
X128645830Y-106447632D01*
X128656866Y-106429219D01*
X128669654Y-106411976D01*
X128684070Y-106396070D01*
X128699976Y-106381654D01*
X128717219Y-106368866D01*
X128735632Y-106357830D01*
X128755038Y-106348651D01*
X128775250Y-106341419D01*
X128796074Y-106336203D01*
X128817309Y-106333053D01*
X128838750Y-106332000D01*
X129276250Y-106332000D01*
X129297691Y-106333053D01*
X129297691Y-106333053D01*
G37*
D12*
X129057500Y-106807000D03*
D11*
G36*
X127722691Y-106333053D02*
G01*
X127743926Y-106336203D01*
X127764750Y-106341419D01*
X127784962Y-106348651D01*
X127804368Y-106357830D01*
X127822781Y-106368866D01*
X127840024Y-106381654D01*
X127855930Y-106396070D01*
X127870346Y-106411976D01*
X127883134Y-106429219D01*
X127894170Y-106447632D01*
X127903349Y-106467038D01*
X127910581Y-106487250D01*
X127915797Y-106508074D01*
X127918947Y-106529309D01*
X127920000Y-106550750D01*
X127920000Y-107063250D01*
X127918947Y-107084691D01*
X127915797Y-107105926D01*
X127910581Y-107126750D01*
X127903349Y-107146962D01*
X127894170Y-107166368D01*
X127883134Y-107184781D01*
X127870346Y-107202024D01*
X127855930Y-107217930D01*
X127840024Y-107232346D01*
X127822781Y-107245134D01*
X127804368Y-107256170D01*
X127784962Y-107265349D01*
X127764750Y-107272581D01*
X127743926Y-107277797D01*
X127722691Y-107280947D01*
X127701250Y-107282000D01*
X127263750Y-107282000D01*
X127242309Y-107280947D01*
X127221074Y-107277797D01*
X127200250Y-107272581D01*
X127180038Y-107265349D01*
X127160632Y-107256170D01*
X127142219Y-107245134D01*
X127124976Y-107232346D01*
X127109070Y-107217930D01*
X127094654Y-107202024D01*
X127081866Y-107184781D01*
X127070830Y-107166368D01*
X127061651Y-107146962D01*
X127054419Y-107126750D01*
X127049203Y-107105926D01*
X127046053Y-107084691D01*
X127045000Y-107063250D01*
X127045000Y-106550750D01*
X127046053Y-106529309D01*
X127049203Y-106508074D01*
X127054419Y-106487250D01*
X127061651Y-106467038D01*
X127070830Y-106447632D01*
X127081866Y-106429219D01*
X127094654Y-106411976D01*
X127109070Y-106396070D01*
X127124976Y-106381654D01*
X127142219Y-106368866D01*
X127160632Y-106357830D01*
X127180038Y-106348651D01*
X127200250Y-106341419D01*
X127221074Y-106336203D01*
X127242309Y-106333053D01*
X127263750Y-106332000D01*
X127701250Y-106332000D01*
X127722691Y-106333053D01*
X127722691Y-106333053D01*
G37*
D12*
X127482500Y-106807000D03*
M02*
